<svg xmlns="http://www.w3.org/2000/svg" viewBox="0 0 920 75">
  <path d="M11.5 8.4c0 1.5-.4 2.7-1.2 3.5-.8.8-2 1.2-3.6 1.2H4.1V3.8h2.8c1.4 0 2.6.4 3.4 1.2.8.8 1.2 2 1.2 3.4zm-1.2 0c0-1.2-.3-2.1-.9-2.7-.6-.6-1.5-.9-2.7-.9H5.2v7.4h1.3c1.3 0 2.3-.3 2.9-.9s.9-1.6.9-2.9zm3-4.1c0-.2.1-.4.2-.5s.3-.2.4-.2c.2 0 .3.1.4.2s.2.3.2.5-.1.4-.2.5-.2.2-.4.2-.3-.1-.4-.2-.2-.3-.2-.5zm1.1 8.8h-1.1v-7h1.1v7zm6.8-1.9c0 .6-.2 1.1-.7 1.5-.5.4-1.2.5-2 .5-.9 0-1.6-.1-2.2-.4v-1c.3.2.7.3 1.1.4.4.1.8.1 1.1.1.6 0 1-.1 1.3-.3s.4-.4.4-.8c0-.3-.1-.5-.4-.7-.2-.2-.7-.4-1.4-.7-.6-.2-1.1-.5-1.4-.6-.3-.2-.5-.4-.6-.6-.1-.2-.2-.5-.2-.8 0-.6.2-1 .7-1.3S18 6 18.8 6c.7 0 1.5.2 2.2.5l-.4.9c-.7-.3-1.3-.4-1.9-.4-.5 0-.9.1-1.1.2s-.4.4-.4.6c0 .2 0 .3.1.5.1.1.2.3.5.4s.6.3 1.2.5c.8.3 1.4.6 1.7.9.3.3.5.7.5 1.1zm4.5 2c-1 0-1.8-.3-2.3-.9-.6-.6-.8-1.5-.8-2.6 0-1.2.3-2.1.8-2.7.6-.6 1.4-1 2.4-1 .3 0 .7 0 1 .1.3.1.6.2.8.3l-.3.9c-.2-.1-.5-.2-.8-.2s-.6-.1-.8-.1c-1.4 0-2.1.9-2.1 2.7 0 .9.2 1.5.5 2s.9.7 1.5.7 1.2-.1 1.8-.4v.9c-.4.2-1 .3-1.7.3zm4.4-.1H29V3.2h1.1v9.9zm6.5 0l-.2-1h-.1c-.3.4-.7.7-1 .9-.3.2-.8.2-1.3.2-.7 0-1.2-.2-1.6-.5-.4-.4-.6-.9-.6-1.5 0-1.4 1.1-2.1 3.4-2.2h1.2v-.5c0-.5-.1-.9-.4-1.2-.2-.3-.6-.4-1.1-.4-.6 0-1.2.2-2 .5l-.3-.8c.3-.2.7-.3 1.1-.4.5-.1.9-.2 1.3-.2.8 0 1.4.2 1.8.6.4.4.6 1 .6 1.8v4.7h-.8zm-2.3-.7c.7 0 1.2-.2 1.5-.5.4-.4.6-.9.6-1.5v-.7h-1.1c-.8 0-1.4.2-1.8.4-.4.2-.6.6-.6 1.1 0 .4.1.7.3.9.3.2.6.3 1.1.3zm5.2-8.1c0-.2.1-.4.2-.5s.3-.2.4-.2c.2 0 .3.1.4.2s.2.3.2.5-.1.4-.2.5-.2.2-.4.2-.3-.1-.4-.2-.2-.3-.2-.5zm1.1 8.8h-1.1v-7h1.1v7zm11.1 0V8.6c0-.6-.1-1-.4-1.2s-.6-.4-1.1-.4c-.7 0-1.1.2-1.5.6s-.5 1-.5 1.7v3.9h-1.1V8.6c0-.6-.1-1-.4-1.2s-.6-.4-1.1-.4c-.7 0-1.1.2-1.5.6-.3.4-.5 1-.5 1.9v3.7h-1.1v-7h.9l.2 1h.4c.2-.3.5-.6.8-.8.4-.3.8-.4 1.2-.4 1.1 0 1.8.4 2.1 1.2h.1c.2-.4.5-.7.9-.9s.8-.3 1.3-.3c.8 0 1.4.2 1.8.6.4.4.6 1 .6 1.9V13h-1.1zm6.2.1c-1 0-1.8-.3-2.4-.9-.6-.6-.9-1.5-.9-2.6s.3-2 .8-2.7c.6-.7 1.3-1 2.2-1 .9 0 1.6.3 2.1.9s.8 1.3.8 2.3v.7h-4.8c0 .8.2 1.4.6 1.9.4.4.9.6 1.7.6.7 0 1.5-.2 2.2-.5v.9c-.4.2-.7.3-1.1.3-.3.1-.7.1-1.2.1zm-.3-6.3c-.6 0-1 .2-1.3.5-.3.4-.5.9-.6 1.6h3.6c0-.7-.1-1.2-.4-1.5s-.7-.6-1.3-.6zm7.8-.9c.3 0 .6 0 .8.1l-.1 1c-.3-.1-.5-.1-.7-.1-.6 0-1 .2-1.4.7-.4.5-.6 1-.6 1.7v3.7h-1.1v-7h.9l.1 1.3h.1c.3-.5.6-.8.9-1S65 6 65.4 6zm2 .8c0-.6.2-.9.7-.9.5 0 .8.3.8.9 0 .3-.1.5-.2.6-.1.1-.3.2-.6.2-.2 0-.4-.1-.5-.2-.1 0-.2-.3-.2-.6zm0 5.6c0-.3.1-.5.2-.6.1-.1.3-.2.6-.2.2 0 .4.1.6.2.1.1.2.4.2.6 0 .3-.1.5-.2.6s-.3.2-.6.2c-.2 0-.4-.1-.5-.2-.2 0-.3-.2-.3-.6zm13 .7l-1.2-3h-3.7l-1.1 3h-1.1L77 3.8h.9l3.6 9.3h-1.1zm-1.5-3.9l-1.1-2.9c-.1-.3-.3-.8-.4-1.3-.1.4-.2.9-.4 1.3l-1.1 2.9h3zm4.8 3.9h-1.1V3.2h1.1v9.9zm3.3 0h-1.1V3.2H87v9.9zm7.8-.7h.5c.1 0 .3-.1.4-.1v.8c-.1.1-.3.1-.5.1s-.4.1-.6.1c-1.3 0-2-.7-2-2.1V7h-1v-.5l1-.4.4-1.5h.6v1.6h2V7h-2v4.1c0 .4.1.7.3 1s.6.3.9.3zm7.1.7V8.6c0-.6-.1-1-.4-1.3s-.7-.4-1.2-.4c-.7 0-1.3.2-1.6.6-.3.4-.5 1-.5 2v3.6h-1.1V3.2h1.1v3c0 .4 0 .7-.1.9h.1c.2-.3.5-.6.9-.8.4-.2.8-.3 1.3-.3.9 0 1.5.2 1.9.6.4.4.6 1 .6 1.9V13h-1zm6.2.1c-1 0-1.8-.3-2.4-.9-.6-.6-.9-1.5-.9-2.6s.3-2 .8-2.7c.6-.7 1.3-1 2.2-1 .9 0 1.6.3 2.1.9s.8 1.3.8 2.3v.7h-4.8c0 .8.2 1.4.6 1.9.4.4.9.6 1.7.6.7 0 1.5-.2 2.2-.5v.9c-.4.2-.7.3-1.1.3-.3.1-.7.1-1.2.1zm-.3-6.3c-.6 0-1 .2-1.3.5-.3.4-.5.9-.6 1.5h3.6c0-.7-.1-1.2-.4-1.5s-.7-.5-1.3-.5zM119 6c.3 0 .6 0 .8.1l-.1 1c-.3-.1-.6-.1-.8-.1-.6 0-1 .2-1.4.7-.4.5-.6 1-.6 1.7v3.7h-1.1v-7h.9l.1 1.3h.1c.3-.5.6-.8.9-1s.8-.4 1.2-.4zm5.1 7.2c-1 0-1.8-.3-2.4-.9-.6-.6-.9-1.5-.9-2.6s.3-2 .8-2.7c.6-.7 1.3-1 2.2-1 .9 0 1.6.3 2.1.9s.8 1.3.8 2.3v.7h-4.8c0 .8.2 1.4.6 1.9.4.4.9.6 1.7.6.7 0 1.5-.2 2.2-.5v.9c-.4.2-.7.3-1.1.3-.4.1-.8.1-1.2.1zm-.3-6.3c-.6 0-1 .2-1.3.5-.3.4-.5.9-.6 1.5h3.6c0-.7-.1-1.2-.4-1.5s-.8-.5-1.3-.5zm9.1 4.3c0 .6-.2 1.1-.7 1.5-.5.4-1.2.5-2 .5-.9 0-1.6-.1-2.2-.4v-1c.3.2.7.3 1.1.4.4.1.8.1 1.1.1.6 0 1-.1 1.3-.3s.4-.4.4-.8c0-.3-.1-.5-.4-.7-.2-.2-.7-.4-1.4-.7-.6-.2-1.1-.5-1.4-.6-.3-.2-.5-.4-.6-.6-.1-.1-.1-.4-.1-.7 0-.6.2-1 .7-1.3s1.1-.5 1.9-.5c.7 0 1.5.2 2.2.5l-.4.9c-.7-.3-1.3-.4-1.9-.4-.5 0-.9.1-1.1.2s-.4.2-.4.5c0 .2 0 .3.1.5.1.1.2.3.5.4s.6.3 1.2.5c.8.3 1.4.6 1.7.9.3.3.4.7.4 1.1zm4.7 2c-1 0-1.8-.3-2.4-.9-.6-.6-.9-1.5-.9-2.6s.3-2 .8-2.7c.6-.7 1.3-1 2.2-1 .9 0 1.6.3 2.1.9s.8 1.3.8 2.3v.7h-4.8c0 .8.2 1.4.6 1.9.4.4.9.6 1.7.6.7 0 1.5-.2 2.2-.5v.9c-.4.2-.7.3-1.1.3-.4.1-.8.1-1.2.1zm-.3-6.3c-.6 0-1 .2-1.3.5-.3.4-.5.9-.6 1.5h3.6c0-.7-.1-1.2-.4-1.5s-.8-.5-1.3-.5zm8.9 6.2l-.2-1h-.1c-.3.4-.7.7-1 .9-.3.2-.8.2-1.3.2-.7 0-1.2-.2-1.6-.5-.4-.4-.6-.9-.6-1.5 0-1.4 1.1-2.1 3.4-2.2h1.2v-.5c0-.5-.1-.9-.4-1.2-.2-.3-.6-.4-1.1-.4-.6 0-1.2.2-2 .5l-.3-.8c.3-.2.7-.3 1.1-.4.4-.1.8-.2 1.2-.2.8 0 1.4.2 1.8.6.4.4.6 1 .6 1.8v4.7h-.7zm-2.4-.7c.7 0 1.2-.2 1.5-.5.4-.4.6-.9.6-1.5v-.7h-1.1c-.8 0-1.4.2-1.8.4-.4.2-.6.6-.6 1.1 0 .4.1.7.3.9.4.2.7.3 1.1.3zm8.5-6.4c.3 0 .6 0 .8.1l-.1 1c-.3-.1-.5-.1-.8-.1-.6 0-1 .2-1.4.7-.4.5-.6 1-.6 1.7v3.7h-1.1v-7h.9l.1 1.3h.1c.3-.5.6-.8.9-1s.8-.4 1.2-.4zm4.9 7.2c-1 0-1.8-.3-2.3-.9-.6-.6-.8-1.5-.8-2.6 0-1.2.3-2.1.8-2.7.6-.6 1.4-1 2.4-1 .3 0 .7 0 1 .1.3.1.6.2.8.3l-.3.9c-.2-.1-.5-.2-.8-.2s-.5-.1-.7-.1c-1.4 0-2.1.9-2.1 2.7 0 .9.2 1.5.5 2s.9.7 1.5.7 1.2-.1 1.8-.4v.9c-.5.2-1.1.3-1.8.3zm8.2-.1V8.6c0-.6-.1-1-.4-1.3s-.7-.4-1.2-.4c-.7 0-1.3.2-1.6.6-.3.4-.5 1-.5 2v3.6h-1.1V3.2h1.1v3c0 .4 0 .7-.1.9h.1c.2-.3.5-.6.9-.8.4-.2.8-.3 1.3-.3.9 0 1.5.2 1.9.6.4.4.6 1 .6 1.9V13h-1zm10.9 0l-.2-1h-.1c-.3.4-.7.7-1 .9-.3.2-.8.2-1.3.2-.7 0-1.2-.2-1.6-.5-.4-.4-.6-.9-.6-1.5 0-1.4 1.1-2.1 3.4-2.2h1.2v-.5c0-.5-.1-.9-.4-1.2-.2-.3-.6-.4-1.1-.4-.6 0-1.2.2-2 .5l-.3-.8c.3-.2.7-.3 1.1-.4.4-.1.8-.2 1.2-.2.8 0 1.4.2 1.8.6.4.4.6 1 .6 1.8v4.7h-.7zm-2.4-.7c.7 0 1.2-.2 1.5-.5.4-.4.6-.9.6-1.5v-.7h-1.1c-.8 0-1.4.2-1.8.4-.4.2-.6.6-.6 1.1 0 .4.1.7.3.9.4.2.7.3 1.1.3zm10.1.7V8.6c0-.6-.1-1-.4-1.3s-.7-.4-1.2-.4c-.7 0-1.3.2-1.6.6s-.5 1-.5 1.9v3.7h-1.1v-7h.9l.2 1h.1c.2-.3.5-.6.9-.8s.7-.3 1.2-.3c.8 0 1.5.2 1.9.6s.6 1 .6 1.9V13h-1zm7.9-.9c-.5.7-1.3 1.1-2.2 1.1-.9 0-1.6-.3-2.1-.9-.5-.6-.8-1.5-.8-2.7 0-1.1.3-2 .8-2.7s1.2-1 2.1-1c.9 0 1.7.3 2.2 1h.1V3.2h1.1v9.9h-.9l-.3-.9zm-2.1.2c.7 0 1.2-.2 1.6-.6.3-.4.5-1 .5-1.9v-.2c0-1-.2-1.7-.5-2.1-.3-.4-.9-.6-1.6-.6-.6 0-1.1.2-1.4.7-.3.5-.5 1.2-.5 2 0 .9.2 1.6.5 2s.8.7 1.4.7zm11.5.8c-1 0-1.8-.3-2.3-.9-.6-.6-.8-1.5-.8-2.6 0-1.2.3-2.1.8-2.7.6-.6 1.4-1 2.4-1 .3 0 .7 0 1 .1.3.1.6.2.8.3l-.3.9c-.2-.1-.5-.2-.8-.2s-.5-.1-.7-.1c-1.4 0-2.1.9-2.1 2.7 0 .9.2 1.5.5 2s.9.7 1.5.7 1.2-.1 1.8-.4v.9c-.5.2-1.1.3-1.8.3zm4.4-7v4.5c0 .6.1 1 .4 1.3s.7.4 1.2.4c.7 0 1.3-.2 1.6-.6.3-.4.5-1 .5-1.9V6.2h1.1v7h-.9l-.2-.9h-.1c-.2.3-.5.6-.9.8-.4.2-.8.3-1.3.3-.8 0-1.5-.2-1.9-.6-.4-.4-.6-1-.6-1.9V6.2h1.1zm11.5 5c0 .6-.2 1.1-.7 1.5-.5.4-1.2.5-2 .5-.9 0-1.6-.1-2.2-.4v-1c.3.2.7.3 1.1.4.4.1.8.1 1.1.1.6 0 1-.1 1.3-.3s.4-.4.4-.8c0-.3-.1-.5-.4-.7-.2-.2-.7-.4-1.4-.7-.6-.2-1.1-.5-1.4-.6-.3-.2-.5-.4-.6-.6-.1-.2-.2-.5-.2-.8 0-.6.2-1 .7-1.3s1.1-.5 1.9-.5c.7 0 1.5.2 2.2.5l-.4.9c-.7-.3-1.3-.4-1.9-.4-.5 0-.9.1-1.1.2s-.4.4-.4.6c0 .2 0 .3.1.5.1.1.2.3.5.4s.6.3 1.2.5c.8.3 1.4.6 1.7.9.4.3.5.7.5 1.1zm4 1.2h.5c.1 0 .3-.1.4-.1v.8c-.1.1-.3.1-.5.1s-.4.1-.6.1c-1.3 0-2-.7-2-2.1V7h-1v-.5l1-.4.4-1.5h.6v1.6h2V7h-2v4.1c0 .4.1.7.3 1s.5.3.9.3zm8.3-2.8c0 1.1-.3 2-.9 2.7s-1.4 1-2.4 1c-.6 0-1.2-.1-1.7-.4-.5-.3-.9-.7-1.1-1.3-.3-.5-.4-1.2-.4-1.9 0-1.1.3-2 .9-2.7s1.4-.9 2.4-.9 1.7.3 2.3 1c.6.6.9 1.4.9 2.5zm-5.3 0c0 .9.2 1.6.5 2 .4.5.9.7 1.6.7s1.2-.2 1.6-.7c.4-.5.5-1.1.5-2 0-.9-.2-1.6-.5-2-.4-.5-.9-.7-1.6-.7-.7 0-1.2.2-1.6.7s-.5 1.1-.5 2zm16 3.5V8.6c0-.6-.1-1-.4-1.2s-.6-.4-1.1-.4c-.7 0-1.1.2-1.5.6s-.5 1-.5 1.7v3.9h-1.1V8.6c0-.6-.1-1-.4-1.2s-.6-.4-1.1-.4c-.7 0-1.1.2-1.5.6-.3.4-.5 1-.5 1.9v3.7H231v-7h.9l.2 1h.1c.2-.3.5-.6.8-.8.4-.2.8-.3 1.2-.3 1.1 0 1.8.4 2.1 1.2h.1c.2-.4.5-.7.9-.9s.8-.3 1.3-.3c.8 0 1.4.2 1.8.6.4.4.6 1 .6 1.9v4.5h-.8zm12.3 0L251.2 9c-.1-.2-.2-.8-.5-1.7h-.1c-.2.7-.3 1.3-.4 1.7l-1.3 4.1h-1.2l-1.9-7h1.1c.4 1.7.8 3.1 1 4 .2.9.4 1.5.4 1.8h.1c0-.2.1-.6.2-.9.1-.4.2-.7.3-.9l1.3-4h1.1l1.2 4c.2.7.4 1.3.5 1.8h.1c0-.2.1-.4.1-.7.1-.3.5-2 1.3-5.1h1.1l-1.9 7h-1.2zm7.6-7.1c.3 0 .6 0 .8.1l-.1 1c-.3-.1-.5-.1-.8-.1-.6 0-1 .2-1.4.7-.4.5-.6 1-.6 1.7v3.7h-1.1v-7h.9l.1 1.3h.1c.3-.5.6-.8.9-1s.8-.4 1.2-.4zm2.1-1.7c0-.2.1-.4.2-.5s.3-.2.4-.2c.2 0 .3.1.4.2s.2.3.2.5-.1.4-.2.5-.2.2-.4.2-.3-.1-.4-.2-.2-.3-.2-.5zm1.1 8.8h-1.1v-7h1.1v7zm4.5-.7h.5c.1 0 .3-.1.4-.1v.8c-.1.1-.3.1-.5.1s-.4.1-.6.1c-1.3 0-2-.7-2-2.1V7h-1v-.5l1-.4.4-1.5h.6v1.6h2V7h-2v4.1c0 .4.1.7.3 1s.5.3.9.3zm2.2-8.1c0-.2.1-.4.2-.5s.3-.2.4-.2c.2 0 .3.1.4.2s.2.3.2.5-.1.4-.2.5-.2.2-.3.2c-.2 0-.3-.1-.4-.2s-.3-.3-.3-.5zm1.2 8.8h-1.1v-7h1.1v7zm7 0V8.6c0-.6-.1-1-.4-1.3s-.7-.4-1.2-.4c-.7 0-1.3.2-1.6.6s-.5 1-.5 1.9v3.7h-1.1v-7h.9l.2 1h.1c.2-.3.5-.6.9-.8s.8-.3 1.3-.3c.8 0 1.5.2 1.9.6s.6 1 .6 1.9V13h-1.1zm8.9-6.9v.7l-1.3.1c.1.1.2.3.3.6s.1.5.1.8c0 .7-.2 1.2-.7 1.6s-1.1.6-1.9.6c-.2 0-.4 0-.6-.1-.4.2-.7.5-.7.9 0 .2.1.3.2.4s.4.1.8.1h1.2c.8 0 1.3.2 1.7.5.4.3.6.8.6 1.4 0 .8-.3 1.4-.9 1.8s-1.5.6-2.7.6c-.9 0-1.6-.2-2.1-.5s-.7-.8-.7-1.4c0-.4.1-.8.4-1.1.3-.3.7-.5 1.1-.6-.2-.1-.3-.2-.4-.4-.1-.2-.2-.4-.2-.6 0-.3.1-.5.2-.7.1-.2.3-.4.6-.6-.4-.1-.7-.4-.9-.8-.2-.4-.3-.8-.3-1.2 0-.8.2-1.3.7-1.8.5-.4 1.1-.6 1.9-.6.4 0 .7 0 1 .1h2.6zm-5.6 8.1c0 .4.2.7.5.9.3.2.8.3 1.4.3.9 0 1.5-.1 2-.4.4-.3.6-.6.6-1.1 0-.4-.1-.6-.3-.8-.2-.1-.7-.2-1.3-.2h-1.3c-.5 0-.9.1-1.1.3s-.5.6-.5 1zm.6-5.9c0 .5.1.9.4 1.1.3.3.7.4 1.1.4 1 0 1.5-.5 1.5-1.5s-.5-1.6-1.6-1.6c-.5 0-.9.1-1.1.4s-.3.7-.3 1.2zm14.3 2.8c0 .6-.2 1.1-.7 1.5-.5.4-1.2.5-2 .5-.9 0-1.6-.1-2.2-.4v-1c.3.2.7.3 1.1.4.4.1.8.1 1.1.1.6 0 1-.1 1.3-.3s.4-.4.4-.8c0-.3-.1-.5-.4-.7-.2-.2-.7-.4-1.4-.7-.6-.2-1.1-.5-1.4-.6-.3-.2-.5-.4-.6-.6-.1-.2-.2-.5-.2-.8 0-.6.2-1 .7-1.3s1.1-.5 1.9-.5c.7 0 1.5.2 2.2.5l-.4.9c-.7-.3-1.3-.4-1.9-.4-.5 0-.9.1-1.1.2s-.4.4-.4.6c0 .2 0 .3.1.5.1.1.2.3.5.4s.6.3 1.2.5c.8.3 1.4.6 1.7.9.3.3.5.7.5 1.1zm4.6 2c-1 0-1.8-.3-2.4-.9-.6-.6-.9-1.5-.9-2.6s.3-2 .8-2.7c.6-.7 1.3-1 2.2-1 .9 0 1.6.3 2.1.9s.8 1.3.8 2.3v.7h-4.8c0 .8.2 1.4.6 1.9.4.4.9.6 1.7.6.7 0 1.5-.2 2.2-.5v.9c-.4.2-.7.3-1.1.3-.3.1-.7.1-1.2.1zm-.2-6.3c-.6 0-1 .2-1.3.5-.3.4-.5.9-.6 1.5h3.6c0-.7-.1-1.2-.4-1.5s-.8-.5-1.3-.5zm7.8-.9c.3 0 .6 0 .8.1l-.1 1c-.3-.1-.6-.1-.8-.1-.6 0-1 .2-1.4.7-.4.5-.6 1-.6 1.7v3.7h-1.1v-7h.9l.1 1.3h.1c.3-.5.6-.8.9-1s.7-.4 1.2-.4zm3.6 7.1l-2.6-7h1.1l1.5 4.1c.3 1 .5 1.6.6 1.9h.1c0-.2.2-.7.4-1.4s.8-2.2 1.7-4.6h1.1l-2.6 7h-1.3zm4.9-8.8c0-.2.1-.4.2-.5s.3-.2.4-.2c.2 0 .3.1.4.2s.2.3.2.5-.1.4-.2.5-.2.2-.4.2-.3-.1-.4-.2-.2-.3-.2-.5zm1.2 8.8h-1.1v-7h1.1v7zm5 .1c-1 0-1.8-.3-2.3-.9-.6-.6-.8-1.5-.8-2.6 0-1.2.3-2.1.8-2.7.6-.6 1.4-1 2.4-1 .3 0 .7 0 1 .1.3.1.6.2.8.3l-.3.9c-.2-.1-.5-.2-.8-.2s-.6-.1-.8-.1c-1.4 0-2.1.9-2.1 2.7 0 .9.2 1.5.5 2s.9.7 1.5.7 1.2-.1 1.8-.4v.9c-.4.2-1 .3-1.7.3zm6.3 0c-1 0-1.8-.3-2.4-.9-.6-.6-.9-1.5-.9-2.6s.3-2 .8-2.7c.6-.7 1.3-1 2.2-1 .9 0 1.6.3 2.1.9s.8 1.3.8 2.3v.7h-4.8c0 .8.2 1.4.6 1.9.4.4.9.6 1.7.6.7 0 1.5-.2 2.2-.5v.9c-.4.2-.7.3-1.1.3-.3.1-.7.1-1.2.1zm-.3-6.3c-.6 0-1 .2-1.3.5-.3.4-.5.9-.6 1.5h3.6c0-.7-.1-1.2-.4-1.5s-.7-.5-1.3-.5zm9.2 4.3c0 .6-.2 1.1-.7 1.5-.5.4-1.2.5-2 .5-.9 0-1.6-.1-2.2-.4v-1c.3.2.7.3 1.1.4.4.1.8.1 1.1.1.6 0 1-.1 1.3-.3s.4-.4.4-.8c0-.3-.1-.5-.4-.7-.2-.2-.7-.4-1.4-.7-.6-.2-1.1-.5-1.4-.6-.3-.2-.5-.4-.6-.6-.1-.2-.2-.5-.2-.8 0-.6.2-1 .7-1.3s1.1-.5 1.9-.5c.7 0 1.5.2 2.2.5l-.4.9c-.7-.3-1.3-.4-1.9-.4-.5 0-.9.1-1.1.2s-.4.4-.4.6c0 .2 0 .3.1.5.1.1.2.3.5.4s.6.3 1.2.5c.8.3 1.4.6 1.7.9.3.3.5.7.5 1.1zm8.3 2c-.5 0-.9-.1-1.2-.3-.4-.2-.7-.4-.9-.8h-.1c.1.4.1.8.1 1.2v2.9h-1.1v-10h.9l.1 1h.1c.3-.4.6-.7.9-.8s.8-.3 1.2-.3c.9 0 1.6.3 2.1.9.5.6.8 1.5.8 2.7 0 1.1-.3 2-.8 2.7-.5.5-1.2.8-2.1.8zm-.2-6.3c-.7 0-1.2.2-1.5.6s-.5 1-.5 1.9v.2c0 1 .2 1.7.5 2.1s.8.6 1.6.6c.6 0 1.1-.2 1.4-.7.3-.5.5-1.2.5-2 0-.9-.2-1.5-.5-2-.4-.4-.8-.7-1.5-.7zm8.1-.9c.3 0 .6 0 .8.1l-.1 1c-.3-.1-.6-.1-.8-.1-.6 0-1 .2-1.4.7-.4.5-.6 1-.6 1.7v3.7h-1.1v-7h.9l.1 1.3h.1c.3-.5.6-.8.9-1s.8-.4 1.2-.4zm8.1 3.6c0 1.1-.3 2-.9 2.7s-1.4 1-2.4 1c-.6 0-1.2-.1-1.7-.4-.5-.3-.9-.7-1.1-1.3-.3-.5-.4-1.2-.4-1.9 0-1.1.3-2 .9-2.7s1.4-.9 2.4-.9 1.7.3 2.3 1c.7.6.9 1.4.9 2.5zm-5.3 0c0 .9.2 1.6.5 2 .4.5.9.7 1.6.7s1.2-.2 1.6-.7c.4-.5.5-1.1.5-2 0-.9-.2-1.6-.5-2-.4-.5-.9-.7-1.6-.7-.7 0-1.2.2-1.6.7s-.5 1.1-.5 2zm8.7 3.5l-2.6-7h1.1l1.5 4.1c.3 1 .5 1.6.6 1.9h.1c0-.2.2-.7.4-1.4s.8-2.2 1.7-4.6h1.1l-2.6 7h-1.3zm4.9-8.8c0-.2.1-.4.2-.5s.3-.2.4-.2c.2 0 .3.1.4.2s.2.3.2.5-.1.4-.2.5-.2.2-.4.2-.3-.1-.4-.2-.2-.3-.2-.5zm1.2 8.8h-1.1v-7h1.1v7zm6.9-.9c-.5.7-1.3 1.1-2.2 1.1-.9 0-1.6-.3-2.1-.9-.5-.6-.8-1.5-.8-2.7 0-1.1.3-2 .8-2.7s1.2-1 2.1-1c.9 0 1.7.3 2.2 1h.1V3.2h1.1v9.9h-.9l-.3-.9zm-2.1.2c.7 0 1.2-.2 1.6-.6.3-.4.5-1 .5-1.9v-.2c0-1-.2-1.7-.5-2.1-.3-.4-.9-.6-1.6-.6-.6 0-1.1.2-1.4.7-.3.5-.5 1.2-.5 2 0 .9.2 1.6.5 2s.8.7 1.4.7zm8.3.8c-1 0-1.8-.3-2.4-.9-.6-.6-.9-1.5-.9-2.6s.3-2 .8-2.7c.6-.7 1.3-1 2.2-1 .9 0 1.6.3 2.1.9s.8 1.3.8 2.3v.7h-4.8c0 .8.2 1.4.6 1.9.4.4.9.6 1.7.6.7 0 1.5-.2 2.2-.5v.9c-.4.2-.7.3-1.1.3-.3.1-.7.1-1.2.1zm-.3-6.3c-.6 0-1 .2-1.3.5-.3.4-.5.9-.6 1.5h3.6c0-.7-.1-1.2-.4-1.5s-.7-.5-1.3-.5zm9.4 5.3c-.5.7-1.3 1.1-2.2 1.1-.9 0-1.6-.3-2.1-.9-.5-.6-.8-1.5-.8-2.7 0-1.1.3-2 .8-2.7s1.2-1 2.1-1c.9 0 1.7.3 2.2 1h.1V3.2h1.1v9.9h-.9l-.3-.9zm-2.1.2c.7 0 1.2-.2 1.6-.6.3-.4.5-1 .5-1.9v-.2c0-1-.2-1.7-.5-2.1-.3-.4-.9-.6-1.6-.6-.6 0-1.1.2-1.4.7-.3.5-.5 1.2-.5 2 0 .9.2 1.6.5 2s.7.7 1.4.7zM404.3 6c.9 0 1.6.3 2.1.9.5.6.8 1.5.8 2.7s-.3 2-.8 2.7c-.5.6-1.2.9-2.1.9-.5 0-.9-.1-1.2-.3-.4-.2-.7-.4-.9-.8h-.1l-.2.9h-.8V3.2h1.1v2.4c0 .5 0 1-.1 1.4h.1c.4-.6 1.2-1 2.1-1zm-.1.9c-.7 0-1.2.2-1.6.6-.3.4-.5 1.1-.5 2.1s.2 1.7.5 2.1.8.6 1.6.6c.6 0 1.1-.2 1.4-.7s.5-1.2.5-2c0-.9-.2-1.6-.5-2s-.8-.7-1.4-.7zm3.8-.7h1.1l1.5 4c.3.9.5 1.6.6 2h.1c.1-.2.2-.6.3-1.1.2-.5.8-2.1 1.7-4.8h1.1l-3 7.9c-.3.8-.6 1.3-1 1.7-.4.3-.9.5-1.5.5-.3 0-.6 0-1-.1v-.8c.2.1.5.1.8.1.7 0 1.2-.4 1.5-1.2l.4-1-2.6-7.2zm13.2 6.2h.5c.1 0 .3-.1.4-.1v.8c-.1.1-.3.1-.5.1s-.4.1-.6.1c-1.3 0-2-.7-2-2.1V7h-1v-.5l1-.4.4-1.5h.6v1.6h2V7h-2v4.1c0 .4.1.7.3 1s.6.3.9.3zm7.1.7V8.6c0-.6-.1-1-.4-1.3s-.7-.4-1.2-.4c-.7 0-1.3.2-1.6.6-.3.4-.5 1-.5 2v3.6h-1.1V3.2h1.1v3c0 .4 0 .7-.1.9h.1c.2-.3.5-.6.9-.8.4-.2.8-.3 1.3-.3.9 0 1.5.2 1.9.6.4.4.6 1 .6 1.9V13h-1zm6.2.1c-1 0-1.8-.3-2.4-.9-.6-.6-.9-1.5-.9-2.6s.3-2 .8-2.7c.6-.7 1.3-1 2.2-1 .9 0 1.6.3 2.1.9s.8 1.3.8 2.3v.7h-4.8c0 .8.2 1.4.6 1.9.4.4.9.6 1.7.6.7 0 1.5-.2 2.2-.5v.9c-.4.2-.7.3-1.1.3-.3.1-.7.1-1.2.1zm-.3-6.3c-.6 0-1 .2-1.3.5-.3.4-.5.9-.6 1.5h3.6c0-.7-.1-1.2-.4-1.5s-.7-.5-1.3-.5zm12.2-2.2c-1 0-1.8.3-2.4 1-.6.7-.9 1.6-.9 2.8 0 1.2.3 2.2.9 2.8.6.7 1.4 1 2.4 1 .6 0 1.4-.1 2.2-.3v.9c-.6.2-1.4.4-2.4.4-1.4 0-2.4-.4-3.2-1.2-.7-.8-1.1-2-1.1-3.5 0-1 .2-1.8.5-2.5.4-.7.9-1.3 1.5-1.7.7-.4 1.5-.6 2.4-.6 1 0 1.8.2 2.6.5l-.5.9c-.6-.4-1.3-.5-2-.5zm10 4.9c0 1.1-.3 2-.9 2.7s-1.4 1-2.4 1c-.6 0-1.2-.1-1.7-.4-.5-.3-.9-.7-1.1-1.3-.3-.5-.4-1.2-.4-1.9 0-1.1.3-2 .9-2.7s1.4-.9 2.4-.9 1.7.3 2.3 1c.6.6.9 1.4.9 2.5zm-5.3 0c0 .9.2 1.6.5 2 .4.5.9.7 1.6.7s1.2-.2 1.6-.7c.4-.5.5-1.1.5-2 0-.9-.2-1.6-.5-2-.4-.5-.9-.7-1.6-.7-.7 0-1.2.2-1.6.7s-.5 1.1-.5 2zm16 3.5V8.6c0-.6-.1-1-.4-1.2s-.6-.4-1.1-.4c-.7 0-1.1.2-1.5.6s-.5 1-.5 1.7v3.9h-1.1V8.6c0-.6-.1-1-.4-1.2s-.6-.4-1.1-.4c-.7 0-1.1.2-1.5.6-.3.4-.5 1-.5 1.9v3.7h-1.1v-7h.9l.2 1h.1c.2-.3.5-.6.8-.8.4-.2.8-.3 1.2-.3 1.1 0 1.8.4 2.1 1.2h.1c.2-.4.5-.7.9-.9s.8-.3 1.3-.3c.8 0 1.4.2 1.8.6.4.4.6 1 .6 1.9v4.5h-.8zm6.5.1c-.5 0-.9-.1-1.2-.3-.4-.2-.7-.4-.9-.8h-.1c.1.4.1.8.1 1.2v2.9h-1.1v-10h.9l.1 1h.1c.3-.4.6-.7.9-.8s.8-.3 1.2-.3c.9 0 1.6.3 2.1.9.5.6.8 1.5.8 2.7 0 1.1-.3 2-.8 2.7-.5.5-1.2.8-2.1.8zm-.1-6.3c-.7 0-1.2.2-1.5.6s-.5 1-.5 1.9v.2c0 1 .2 1.7.5 2.1s.8.6 1.6.6c.6 0 1.1-.2 1.4-.7.3-.5.5-1.2.5-2 0-.9-.2-1.5-.5-2-.5-.4-.9-.7-1.5-.7zm9.1 6.2l-.2-1h-.1c-.3.4-.7.7-1 .9-.3.2-.8.2-1.3.2-.7 0-1.2-.2-1.6-.5-.4-.4-.6-.9-.6-1.5 0-1.4 1.1-2.1 3.4-2.2h1.2v-.5c0-.5-.1-.9-.4-1.2-.2-.3-.6-.4-1.1-.4-.6 0-1.2.2-2 .5l-.3-.8c.3-.2.7-.3 1.1-.4.4-.1.8-.2 1.2-.2.8 0 1.4.2 1.8.6.4.4.6 1 .6 1.8v4.7h-.7zm-2.4-.7c.7 0 1.2-.2 1.5-.5.4-.4.6-.9.6-1.5v-.7h-1.1c-.8 0-1.4.2-1.8.4-.4.2-.6.6-.6 1.1 0 .4.1.7.3.9.4.2.7.3 1.1.3zm10.1.7V8.6c0-.6-.1-1-.4-1.3s-.7-.4-1.2-.4c-.7 0-1.3.2-1.6.6s-.5 1-.5 1.9v3.7h-1.1v-7h.9l.2 1h.1c.2-.3.5-.6.9-.8s.8-.3 1.3-.3c.8 0 1.5.2 1.9.6s.6 1 .6 1.9V13h-1.1zm2.1-6.9h1.1l1.5 4c.3.9.5 1.6.6 2h.1c.1-.2.2-.6.3-1.1.2-.5.8-2.1 1.7-4.8h1.1l-3 7.9c-.3.8-.6 1.3-1 1.7-.4.3-.9.5-1.5.5-.3 0-.6 0-1-.1v-.8c.2.1.5.1.8.1.7 0 1.2-.4 1.5-1.2l.4-1-2.6-7.2zm15.8 6.9V8.6c0-.6-.1-1-.4-1.3s-.7-.4-1.2-.4c-.7 0-1.3.2-1.6.6-.3.4-.5 1-.5 2v3.6h-1.1V3.2h1.1v3c0 .4 0 .7-.1.9h.1c.2-.3.5-.6.9-.8.4-.2.8-.3 1.3-.3.9 0 1.5.2 1.9.6.4.4.6 1 .6 1.9V13h-1zm7.5 0l-.2-1h-.1c-.3.4-.7.7-1 .9-.3.2-.8.2-1.3.2-.7 0-1.2-.2-1.6-.5-.4-.4-.6-.9-.6-1.5 0-1.4 1.1-2.1 3.4-2.2h1.2v-.5c0-.5-.1-.9-.4-1.2-.2-.3-.6-.4-1.1-.4-.6 0-1.2.2-2 .5l-.3-.8c.3-.2.7-.3 1.1-.4.4-.1.8-.2 1.2-.2.8 0 1.4.2 1.8.6.4.4.6 1 .6 1.8v4.7h-.7zm-2.4-.7c.7 0 1.2-.2 1.5-.5.4-.4.6-.9.6-1.5v-.7h-1.1c-.8 0-1.4.2-1.8.4-.4.2-.6.6-.6 1.1 0 .4.1.7.3.9.4.2.7.3 1.1.3zm6.9.7l-2.6-7h1.1l1.5 4.1c.3 1 .5 1.6.6 1.9h.1c0-.2.2-.7.4-1.4s.8-2.2 1.7-4.6h1.1l-2.6 7h-1.3zm7.9.1c-1 0-1.8-.3-2.4-.9-.6-.6-.9-1.5-.9-2.6s.3-2 .8-2.7c.6-.7 1.3-1 2.2-1 .9 0 1.6.3 2.1.9s.8 1.3.8 2.3v.7h-4.8c0 .8.2 1.4.6 1.9.4.4.9.6 1.7.6.7 0 1.5-.2 2.2-.5v.9c-.4.2-.7.3-1.1.3-.3.1-.7.1-1.2.1zm-.3-6.3c-.6 0-1 .2-1.3.5-.3.4-.5.9-.6 1.5h3.6c0-.7-.1-1.2-.4-1.5s-.7-.5-1.3-.5zm9.1 6.2h-1.1V3.2h1.1v9.9zm2.2-8.8c0-.2.1-.4.2-.5s.3-.2.4-.2c.2 0 .3.1.4.2s.2.3.2.5-.1.4-.2.5-.2.2-.4.2-.3-.1-.4-.2-.2-.3-.2-.5zm1.1 8.8h-1.1v-7h1.1v7zm11.1 0V8.6c0-.6-.1-1-.4-1.2-.2-.3-.6-.4-1.1-.4-.7 0-1.1.2-1.5.6-.3.4-.5 1-.5 1.7v3.9h-1.1V8.6c0-.6-.1-1-.4-1.2s-.6-.4-1.1-.4c-.7 0-1.1.2-1.5.6-.3.4-.5 1-.5 1.9v3.7h-1.1v-7h.9l.2 1h.1c.2-.3.5-.6.8-.8.4-.2.8-.3 1.2-.3 1.1 0 1.8.4 2.1 1.2h.1c.2-.4.5-.7.9-.9s1.1-.4 1.6-.4c.8 0 1.4.2 1.8.6s.6 1 .6 1.9V13h-1.1zm3.1-8.8c0-.2.1-.4.2-.5s.3-.2.4-.2c.2 0 .3.1.4.2.1.1.2.3.2.5s-.1.4-.2.5c-.1.1-.3.2-.4.2-.2 0-.3-.1-.4-.2s-.2-.3-.2-.5zm1.2 8.8h-1.1v-7h1.1v7zm4.5-.7h.5c.2 0 .3-.1.4-.1v.8c-.1.1-.3.1-.5.1s-.4.1-.6.1c-1.3 0-2-.7-2-2.1V7h-1v-.5l1-.4.4-1.5h.6v1.6h2V7h-2v4.1c0 .4.1.7.3 1 .2.2.5.3.9.3zm5.2.8c-1 0-1.8-.3-2.4-.9s-.9-1.5-.9-2.6.3-2 .8-2.7c.6-.7 1.3-1 2.2-1 .9 0 1.6.3 2.1.9s.8 1.3.8 2.3v.7h-4.8c0 .8.2 1.4.6 1.9.4.4.9.6 1.7.6.8 0 1.5-.2 2.2-.5v.9c-.4.2-.7.3-1.1.3-.3.1-.7.1-1.2.1zm-.2-6.3c-.6 0-1 .2-1.3.5-.3.4-.5.9-.6 1.5h3.6c0-.7-.1-1.2-.4-1.5s-.8-.5-1.3-.5zm9.3 5.3c-.5.7-1.3 1.1-2.2 1.1-.9 0-1.6-.3-2.1-.9-.5-.6-.8-1.5-.8-2.7 0-1.1.3-2 .8-2.7s1.2-1 2.1-1c.9 0 1.7.3 2.2 1h.1V3.2h1.1v9.9h-.9l-.3-.9zm-2.1.2c.7 0 1.2-.2 1.6-.6.3-.4.5-1 .5-1.9v-.2c0-1-.2-1.7-.5-2.1s-.9-.6-1.6-.6c-.6 0-1.1.2-1.4.7s-.5 1.2-.5 2c0 .9.2 1.6.5 2s.8.7 1.4.7zm9.7-6.2v4.5c0 .6.1 1 .4 1.3.3.3.7.4 1.2.4.7 0 1.3-.2 1.6-.6.3-.4.5-1 .5-1.9V6.2h1.1v7h-.9l-.2-.9h-.1c-.2.3-.5.6-.9.8-.4.2-.8.3-1.3.3-.8 0-1.5-.2-1.9-.6-.4-.4-.6-1-.6-1.9V6.2h1.1zm11.5 5c0 .6-.2 1.1-.7 1.5-.5.4-1.2.5-2 .5-.9 0-1.6-.1-2.2-.4v-1c.3.2.7.3 1.1.4s.8.1 1.1.1c.6 0 1-.1 1.3-.3.3-.2.4-.4.4-.8 0-.3-.1-.5-.4-.7-.2-.2-.7-.4-1.4-.7-.6-.2-1.1-.5-1.4-.6-.3-.2-.5-.4-.6-.6-.1-.2-.2-.5-.2-.8 0-.6.2-1 .7-1.3.5-.3 1.1-.5 1.9-.5.7 0 1.5.2 2.2.5l-.3.9c-.7-.3-1.3-.4-1.9-.4-.5 0-.9.1-1.1.2s-.4.4-.4.6c0 .2 0 .3.1.5.1.1.2.3.5.4.2.1.6.3 1.2.5.8.3 1.4.6 1.7.9s.4.7.4 1.1zm4.7 2c-1 0-1.8-.3-2.4-.9s-.9-1.5-.9-2.6.3-2 .8-2.7c.6-.7 1.3-1 2.2-1 .9 0 1.6.3 2.1.9s.8 1.3.8 2.3v.7H596c0 .8.2 1.4.6 1.9.4.4.9.6 1.7.6.8 0 1.5-.2 2.2-.5v.9c-.4.2-.7.3-1.1.3-.4.1-.8.1-1.2.1zm-.3-6.3c-.6 0-1 .2-1.3.5-.4.4-.6.9-.6 1.6h3.6c0-.7-.1-1.2-.4-1.5s-.8-.6-1.3-.6zm12.3 6.2l-.2-1h-.1c-.3.4-.7.7-1 .9s-.8.2-1.3.2c-.7 0-1.2-.2-1.6-.5s-.6-.9-.6-1.5c0-1.4 1.1-2.1 3.4-2.2h1.2v-.5c0-.5-.1-.9-.4-1.2-.2-.3-.6-.4-1.1-.4-.6 0-1.2.2-2 .5l-.3-.8c.3-.2.7-.3 1.1-.4.4-.1.8-.2 1.2-.2.8 0 1.4.2 1.8.6.4.4.6 1 .6 1.8v4.7h-.7zm-2.4-.7c.7 0 1.2-.2 1.5-.5.4-.4.6-.9.6-1.5v-.7h-1.1c-.8 0-1.4.2-1.8.4s-.6.6-.6 1.1c0 .4.1.7.3.9s.7.3 1.1.3zm9.8-1.2c0 .6-.2 1.1-.7 1.5-.5.4-1.2.5-2 .5-.9 0-1.6-.1-2.2-.4v-1c.3.2.7.3 1.1.4s.8.1 1.1.1c.6 0 1-.1 1.3-.3.3-.2.4-.4.4-.8 0-.3-.1-.5-.4-.7-.2-.2-.7-.4-1.4-.7-.6-.2-1.1-.5-1.4-.6-.3-.2-.5-.4-.6-.6-.1-.2-.2-.5-.2-.8 0-.6.2-1 .7-1.3.5-.3 1.1-.5 1.9-.5.7 0 1.5.2 2.2.5l-.4.9c-.7-.3-1.3-.4-1.9-.4-.5 0-.9.1-1.1.2s-.4.4-.4.6c0 .2 0 .3.1.5.1.1.2.3.5.4.2.1.6.3 1.2.5.8.3 1.4.6 1.7.9s.5.7.5 1.1zm9.6 0c0 .6-.2 1.1-.7 1.5-.5.4-1.2.5-2 .5-.9 0-1.6-.1-2.2-.4v-1c.3.2.7.3 1.1.4s.8.1 1.1.1c.6 0 1-.1 1.3-.3.3-.2.4-.4.4-.8 0-.3-.1-.5-.4-.7-.2-.2-.7-.4-1.4-.7-.6-.2-1.1-.5-1.4-.6-.3-.2-.5-.4-.6-.6-.1-.2-.2-.5-.2-.8 0-.6.2-1 .7-1.3.5-.3 1.1-.5 1.9-.5.7 0 1.5.2 2.2.5l-.4.9c-.7-.3-1.3-.4-1.9-.4-.5 0-.9.1-1.1.2s-.4.4-.4.6c0 .2 0 .3.1.5.1.1.2.3.5.4.2.1.6.3 1.2.5.8.3 1.4.6 1.7.9s.5.7.5 1.1zm4 1.2h.5c.2 0 .3-.1.4-.1v.8c-.1.1-.3.1-.5.1s-.4.1-.6.1c-1.3 0-2-.7-2-2.1V7h-1v-.5l1-.4.4-1.5h.6v1.6h2V7h-2v4.1c0 .4.1.7.3 1 .2.2.5.3.9.3zm6.6.7l-.2-1h-.1c-.3.4-.7.7-1 .9s-.8.2-1.3.2c-.7 0-1.2-.2-1.6-.5s-.6-.9-.6-1.5c0-1.4 1.1-2.1 3.4-2.2h1.2v-.5c0-.5-.1-.9-.4-1.2-.2-.3-.6-.4-1.1-.4-.6 0-1.2.2-2 .5l-.3-.8c.3-.2.7-.3 1.1-.4.4-.1.8-.2 1.2-.2.8 0 1.4.2 1.8.6.4.4.6 1 .6 1.8v4.7h-.7zm-2.4-.7c.7 0 1.2-.2 1.5-.5.4-.4.6-.9.6-1.5v-.7h-1.1c-.8 0-1.4.2-1.8.4s-.6.6-.6 1.1c0 .4.1.7.3.9s.7.3 1.1.3zm7.6 0h.5c.2 0 .3-.1.4-.1v.8c-.1.1-.3.1-.5.1s-.4.1-.6.1c-1.3 0-2-.7-2-2.1V7h-1v-.5l1-.4.4-1.5h.6v1.6h2V7h-2v4.1c0 .4.1.7.3 1 .3.2.5.3.9.3zm5.3.8c-1 0-1.8-.3-2.4-.9s-.9-1.5-.9-2.6.3-2 .8-2.7c.6-.7 1.3-1 2.2-1 .9 0 1.6.3 2.1.9s.8 1.3.8 2.3v.7H646c0 .8.2 1.4.6 1.9.4.4.9.6 1.7.6.8 0 1.5-.2 2.2-.5v.9c-.4.2-.7.3-1.1.3-.3.1-.7.1-1.1.1zm-.3-6.3c-.6 0-1 .2-1.3.5-.3.4-.5.9-.6 1.5h3.6c0-.7-.1-1.2-.4-1.5s-.8-.5-1.3-.5zm9.3 5.3c-.5.7-1.3 1.1-2.2 1.1-.9 0-1.6-.3-2.1-.9-.5-.6-.8-1.5-.8-2.7 0-1.1.3-2 .8-2.7s1.2-1 2.1-1c.9 0 1.7.3 2.2 1h.1V3.2h1.1v9.9h-.9l-.3-.9zm-2.1.2c.7 0 1.2-.2 1.6-.6.3-.4.5-1 .5-1.9v-.2c0-1-.2-1.7-.5-2.1s-.9-.6-1.6-.6c-.6 0-1.1.2-1.4.7s-.5 1.2-.5 2c0 .9.2 1.6.5 2s.8.7 1.4.7zm8.7-8.1c0-.2.1-.4.2-.5s.3-.2.4-.2c.2 0 .3.1.4.2.1.1.2.3.2.5s-.1.4-.2.5c-.1.1-.3.2-.4.2-.2 0-.3-.1-.4-.2s-.2-.3-.2-.5zm1.1 8.8h-1v-7h1.1v7zm7 0V8.6c0-.6-.1-1-.4-1.3-.3-.3-.7-.4-1.2-.4-.7 0-1.3.2-1.6.6s-.5 1-.5 1.9v3.7h-1.1v-7h.9l.2 1h.1c.2-.3.5-.6.9-.8.4-.2.8-.3 1.3-.3.8 0 1.5.2 1.9.6s.6 1 .6 1.9V13H672zm8.8-.7h.5c.2 0 .3-.1.4-.1v.8c-.1.1-.3.1-.5.1s-.4.1-.6.1c-1.3 0-2-.7-2-2.1V7h-1v-.5l1-.4.4-1.5h.6v1.6h2V7h-2v4.1c0 .4.1.7.3 1 .3.2.6.3.9.3zm7.1.7V8.6c0-.6-.1-1-.4-1.3-.3-.3-.7-.4-1.2-.4-.7 0-1.3.2-1.6.6-.3.4-.5 1-.5 2v3.6h-1.1V3.2h1.1v3c0 .4 0 .7-.1.9h.1c.2-.3.5-.6.9-.8s.9-.3 1.3-.3c.9 0 1.5.2 1.9.6.4.4.6 1 .6 1.9V13h-1zm6.2.1c-1 0-1.8-.3-2.4-.9s-.9-1.5-.9-2.6.3-2 .8-2.7c.6-.7 1.3-1 2.2-1 .9 0 1.6.3 2.1.9s.8 1.3.8 2.3v.7h-4.8c0 .8.2 1.4.6 1.9.4.4.9.6 1.7.6.8 0 1.5-.2 2.2-.5v.9c-.4.2-.7.3-1.1.3-.3.1-.7.1-1.2.1zm-.3-6.3c-.6 0-1 .2-1.3.5-.3.4-.5.9-.6 1.5h3.6c0-.7-.1-1.2-.4-1.5s-.7-.5-1.3-.5zm11 6.2h-1.1V4.8h-2.9v-1h7v1h-2.9v8.3zm7.2.1c-1 0-1.8-.3-2.4-.9s-.9-1.5-.9-2.6.3-2 .8-2.7c.6-.7 1.3-1 2.2-1 .9 0 1.6.3 2.1.9s.8 1.3.8 2.3v.7h-4.8c0 .8.2 1.4.6 1.9.4.4.9.6 1.7.6.8 0 1.5-.2 2.2-.5v.9c-.4.2-.7.3-1.1.3-.4.1-.8.1-1.2.1zm-.3-6.3c-.6 0-1 .2-1.3.5-.3.4-.5.9-.6 1.5h3.6c0-.7-.1-1.2-.4-1.5s-.8-.5-1.3-.5zm7.8-.9c.3 0 .6 0 .8.1l-.1 1c-.3-.1-.6-.1-.8-.1-.6 0-1 .2-1.4.7-.4.5-.6 1-.6 1.7v3.7h-1.1v-7h.9l.1 1.3h.1c.3-.5.6-.8.9-1 .4-.2.8-.4 1.2-.4zm11 7.1V8.6c0-.6-.1-1-.4-1.2-.2-.3-.6-.4-1.1-.4-.7 0-1.1.2-1.5.6s-.5 1-.5 1.7v3.9h-1.1V8.6c0-.6-.1-1-.4-1.2s-.6-.4-1.1-.4c-.7 0-1.1.2-1.5.6s-.5 1-.5 1.9v3.7h-1.1v-7h.9l.2 1h.1c.2-.3.5-.6.8-.8.4-.2.8-.3 1.2-.3 1.1 0 1.8.4 2.1 1.2h.1c.2-.4.5-.7.9-.9s.8-.3 1.3-.3c.8 0 1.4.2 1.8.6s.6 1 .6 1.9v4.5h-.8zm7.7-1.9c0 .6-.2 1.1-.7 1.5-.5.4-1.2.5-2 .5-.9 0-1.6-.1-2.2-.4v-1c.3.2.7.3 1.1.4s.8.1 1.1.1c.6 0 1-.1 1.3-.3.3-.2.4-.4.4-.8 0-.3-.1-.5-.4-.7-.2-.2-.7-.4-1.4-.7-.6-.2-1.1-.5-1.4-.6-.3-.2-.5-.4-.6-.6-.1-.2-.2-.5-.2-.8 0-.6.2-1 .7-1.3.5-.3 1.1-.5 1.9-.5.7 0 1.5.2 2.2.5l-.4.9c-.7-.3-1.3-.4-1.9-.4-.5 0-.9.1-1.1.2s-.4.4-.4.6c0 .2 0 .3.1.5.1.1.2.3.5.4.2.1.6.3 1.2.5.8.3 1.4.6 1.7.9s.5.7.5 1.1zm9.4 1.9l-.2-1h-.1c-.3.4-.7.7-1 .9s-.8.2-1.3.2c-.7 0-1.2-.2-1.6-.5s-.6-.9-.6-1.5c0-1.4 1.1-2.1 3.4-2.2h1.2v-.5c0-.5-.1-.9-.4-1.2-.2-.3-.6-.4-1.1-.4-.6 0-1.2.2-2 .5l-.3-.8c.3-.2.7-.3 1.1-.4.4-.1.8-.2 1.2-.2.8 0 1.4.2 1.8.6.4.4.6 1 .6 1.8v4.7h-.7zm-2.4-.7c.7 0 1.2-.2 1.5-.5.4-.4.6-.9.6-1.5v-.7h-1.1c-.8 0-1.4.2-1.8.4s-.6.6-.6 1.1c0 .4.1.7.3.9s.7.3 1.1.3zm10.1.7V8.6c0-.6-.1-1-.4-1.3-.3-.3-.7-.4-1.2-.4-.7 0-1.3.2-1.6.6s-.5 1-.5 1.9v3.7h-1.1v-7h.9l.2 1h.1c.2-.3.5-.6.9-.8.4-.2.8-.3 1.3-.3.8 0 1.5.2 1.9.6s.6 1 .6 1.9V13h-1.1zm7.9-.9c-.5.7-1.3 1.1-2.2 1.1-.9 0-1.6-.3-2.1-.9-.5-.6-.8-1.5-.8-2.7 0-1.1.3-2 .8-2.7s1.2-1 2.1-1c.9 0 1.7.3 2.2 1h.1V3.2h1.1v9.9h-.9l-.3-.9zm-2.1.2c.7 0 1.2-.2 1.6-.6.3-.4.5-1 .5-1.9v-.2c0-1-.2-1.7-.5-2.1s-.9-.6-1.6-.6c-.6 0-1.1.2-1.4.7s-.5 1.2-.5 2c0 .9.2 1.6.5 2s.8.7 1.4.7zM774 4.7c-1 0-1.8.3-2.4 1-.6.7-.9 1.6-.9 2.8 0 1.2.3 2.2.9 2.8s1.4 1 2.4 1c.6 0 1.4-.1 2.2-.3v.9c-.6.2-1.4.4-2.4.4-1.4 0-2.4-.4-3.2-1.2-.7-.8-1.1-2-1.1-3.5 0-1 .2-1.8.5-2.5.4-.7.9-1.3 1.5-1.7.7-.4 1.5-.6 2.4-.6 1 0 1.8.2 2.6.5l-.5.9c-.6-.4-1.3-.5-2-.5zm10.1 4.9c0 1.1-.3 2-.9 2.7-.6.6-1.4 1-2.4 1-.6 0-1.2-.1-1.7-.4-.5-.3-.9-.7-1.1-1.3-.3-.5-.4-1.2-.4-1.9 0-1.1.3-2 .8-2.7.6-.6 1.4-.9 2.4-.9s1.7.3 2.3 1c.7.6 1 1.4 1 2.5zm-5.3 0c0 .9.2 1.6.5 2 .4.5.9.7 1.6.7s1.2-.2 1.6-.7c.4-.5.5-1.1.5-2 0-.9-.2-1.6-.5-2s-.9-.7-1.6-.7c-.7 0-1.2.2-1.6.7s-.5 1.1-.5 2zm11.9 3.5V8.6c0-.6-.1-1-.4-1.3-.3-.3-.7-.4-1.2-.4-.7 0-1.3.2-1.6.6s-.5 1-.5 1.9v3.7h-1.1v-7h.9l.2 1h.1c.2-.3.5-.6.9-.8.4-.2.8-.3 1.3-.3.8 0 1.5.2 1.9.6s.6 1 .6 1.9V13h-1.1zm7.9-.9c-.5.7-1.3 1.1-2.2 1.1-.9 0-1.6-.3-2.1-.9-.5-.6-.8-1.5-.8-2.7 0-1.1.3-2 .8-2.7s1.2-1 2.1-1c.9 0 1.7.3 2.2 1h.1V3.2h1.1v9.9h-.9l-.3-.9zm-2.1.2c.7 0 1.2-.2 1.6-.6.3-.4.5-1 .5-1.9v-.2c0-1-.2-1.7-.5-2.1s-.9-.6-1.6-.6c-.6 0-1.1.2-1.4.7s-.5 1.2-.5 2c0 .9.2 1.6.5 2s.8.7 1.4.7zm5.3-8.1c0-.2.1-.4.2-.5s.3-.2.4-.2c.2 0 .3.1.4.2.1.1.2.3.2.5s-.1.4-.2.5c-.1.1-.3.2-.4.2-.2 0-.3-.1-.4-.2s-.2-.3-.2-.5zm1.1 8.8h-1.1v-7h1.1v7zm4.5-.7h.5c.2 0 .3-.1.4-.1v.8c-.1.1-.3.1-.5.1s-.4.1-.6.1c-1.3 0-2-.7-2-2.1V7h-1v-.5l1-.4.4-1.5h.6v1.6h2V7h-2v4.1c0 .4.1.7.3 1 .3.2.5.3.9.3zm2.2-8.1c0-.2.1-.4.2-.5s.3-.2.4-.2c.2 0 .3.1.4.2.1.1.2.3.2.5s-.1.4-.2.5c-.1.1-.3.2-.4.2-.2 0-.3-.1-.4-.2s-.2-.3-.2-.5zm1.2 8.8h-1.1v-7h1.1v7zm8.2-3.5c0 1.1-.3 2-.9 2.7-.6.6-1.4 1-2.4 1-.6 0-1.2-.1-1.7-.4-.5-.3-.9-.7-1.1-1.3-.3-.5-.4-1.2-.4-1.9 0-1.1.3-2 .8-2.7.6-.6 1.4-.9 2.4-.9s1.7.3 2.3 1c.7.6 1 1.4 1 2.5zm-5.3 0c0 .9.2 1.6.5 2 .4.5.9.7 1.6.7s1.2-.2 1.6-.7c.4-.5.5-1.1.5-2 0-.9-.2-1.6-.5-2s-.9-.7-1.6-.7c-.7 0-1.2.2-1.6.7s-.5 1.1-.5 2zm11.9 3.5V8.6c0-.6-.1-1-.4-1.3-.3-.3-.7-.4-1.2-.4-.7 0-1.3.2-1.6.6s-.5 1-.5 1.9v3.7h-1.1v-7h.9l.2 1h.1c.2-.3.5-.6.9-.8.4-.2.8-.3 1.3-.3.8 0 1.5.2 1.9.6s.6 1 .6 1.9V13h-1.1zm7.7-1.9c0 .6-.2 1.1-.7 1.5-.5.4-1.2.5-2 .5-.9 0-1.6-.1-2.2-.4v-1c.3.2.7.3 1.1.4s.8.1 1.1.1c.6 0 1-.1 1.3-.3.3-.2.4-.4.4-.8 0-.3-.1-.5-.4-.7-.2-.2-.7-.4-1.4-.7-.6-.2-1.1-.5-1.4-.6-.3-.2-.5-.4-.6-.6-.1-.2-.2-.5-.2-.8 0-.6.2-1 .7-1.3.5-.3 1.1-.5 1.9-.5.7 0 1.5.2 2.2.5l-.4.9c-.7-.3-1.3-.4-1.9-.4-.5 0-.9.1-1.1.2s-.4.4-.4.6c0 .2 0 .3.1.5.1.1.2.3.5.4.2.1.6.3 1.2.5.8.3 1.4.6 1.7.9s.5.7.5 1.1zm1.6 1.2c0-.3.1-.5.2-.6.1-.1.3-.2.6-.2.2 0 .4.1.6.2.1.1.2.4.2.6 0 .3-.1.5-.2.6s-.3.2-.6.2c-.2 0-.4-.1-.5-.2-.2 0-.3-.2-.3-.6zM6.9 32.1h-1v-8.3h-3v-1h7v1h-3v8.3zm9 0v-4.5c0-.6-.1-1-.4-1.3s-.7-.4-1.2-.4c-.7 0-1.3.2-1.6.6-.3.4-.5 1-.5 2v3.6h-1.1v-9.9h1.1v3c0 .4 0 .7-.1.9h.1c.2-.3.5-.6.9-.8.4-.2.8-.3 1.3-.3.9 0 1.5.2 1.9.6.4.4.6 1 .6 1.9V32h-1zm6.1.1c-1 0-1.8-.3-2.4-.9-.6-.6-.9-1.5-.9-2.6s.3-2 .8-2.7c.6-.7 1.3-1 2.2-1 .9 0 1.6.3 2.1.9s.8 1.3.8 2.3v.7h-4.8c0 .8.2 1.4.6 1.9.4.4.9.6 1.7.6.7 0 1.5-.2 2.2-.5v.9c-.4.2-.7.3-1.1.3-.3.1-.7.1-1.2.1zm-.3-6.3c-.6 0-1 .2-1.3.5-.3.4-.5.9-.6 1.5h3.6c0-.7-.1-1.2-.4-1.5s-.7-.5-1.3-.5zm10.8 6.3c-1 0-1.8-.3-2.3-.9-.6-.6-.8-1.5-.8-2.6 0-1.2.3-2.1.8-2.7.6-.6 1.4-1 2.4-1 .3 0 .7 0 1 .1.3.1.6.2.8.3l-.3.9c-.2-.1-.5-.2-.8-.2s-.5-.1-.7-.1c-1.4 0-2.1.9-2.1 2.7 0 .9.2 1.5.5 2s.9.7 1.5.7 1.2-.1 1.8-.4v.9c-.5.2-1.1.3-1.8.3zm4.4-7v4.5c0 .6.1 1 .4 1.3s.7.4 1.2.4c.7 0 1.3-.2 1.6-.6.3-.4.5-1 .5-1.9v-3.7h1.1v7h-.9l-.2-.9h-.1c-.2.3-.5.6-.9.8-.4.2-.8.3-1.3.3-.8 0-1.5-.2-1.9-.6-.4-.4-.6-1-.6-1.9v-4.6h1.1zm11.5 5c0 .6-.2 1.1-.7 1.5-.5.4-1.2.5-2 .5-.9 0-1.6-.1-2.2-.4v-1c.3.2.7.3 1.1.4.4.1.8.1 1.1.1.6 0 1-.1 1.3-.3s.4-.4.4-.8c0-.3-.1-.5-.4-.7-.2-.2-.7-.4-1.4-.7-.6-.2-1.1-.5-1.4-.6-.3-.2-.5-.4-.6-.6-.1-.2-.2-.5-.2-.8 0-.6.2-1 .7-1.3s1.1-.5 1.9-.5c.7 0 1.5.2 2.2.5l-.4.9c-.7-.3-1.3-.4-1.9-.4-.5 0-.9.1-1.1.2s-.4.4-.4.6c0 .2 0 .3.1.5.1.1.2.3.5.4s.6.3 1.2.5c.8.3 1.4.6 1.7.9.4.3.5.7.5 1.1zm4 1.2h.5c.1 0 .3-.1.4-.1v.8c-.1.1-.3.1-.5.1s-.4.1-.6.1c-1.3 0-2-.7-2-2.1V26h-1v-.5l1-.4.4-1.5h.6v1.6h2v.8h-2v4.1c0 .4.1.7.3 1s.5.3.9.3zm8.3-2.8c0 1.1-.3 2-.9 2.7s-1.4 1-2.4 1c-.6 0-1.2-.1-1.7-.4-.5-.3-.9-.7-1.1-1.3-.3-.5-.4-1.2-.4-1.9 0-1.1.3-2 .9-2.7s1.4-.9 2.4-.9 1.7.3 2.3 1c.6.6.9 1.4.9 2.5zm-5.3 0c0 .9.2 1.6.5 2 .4.5.9.7 1.6.7s1.2-.2 1.6-.7c.4-.5.5-1.1.5-2 0-.9-.2-1.6-.5-2-.4-.5-.9-.7-1.6-.7-.7 0-1.2.2-1.6.7s-.5 1.1-.5 2zm16 3.5v-4.5c0-.6-.1-1-.4-1.2s-.6-.4-1.1-.4c-.7 0-1.1.2-1.5.6s-.5 1-.5 1.7v3.9H67v-4.5c0-.6-.1-1-.4-1.2s-.6-.4-1.1-.4c-.7 0-1.1.2-1.5.6-.3.4-.5 1-.5 1.9v3.7h-1.1v-7h.9l.2 1h.1c.2-.3.5-.6.8-.8.4-.2.8-.3 1.2-.3 1.1 0 1.8.4 2.1 1.2h.1c.2-.4.5-.7.9-.9s.8-.3 1.3-.3c.8 0 1.4.2 1.8.6.4.4.6 1 .6 1.9v4.5h-1zm6.2.1c-1 0-1.8-.3-2.4-.9-.6-.6-.9-1.5-.9-2.6s.3-2 .8-2.7c.6-.7 1.3-1 2.2-1 .9 0 1.6.3 2.1.9s.8 1.3.8 2.3v.7h-4.8c0 .8.2 1.4.6 1.9.4.4.9.6 1.7.6.7 0 1.5-.2 2.2-.5v.9c-.4.2-.7.3-1.1.3-.3.1-.7.1-1.2.1zm-.3-6.3c-.6 0-1 .2-1.3.5-.3.4-.5.9-.6 1.5H79c0-.7-.1-1.2-.4-1.5s-.7-.5-1.3-.5zm7.8-.9c.3 0 .6 0 .8.1l-.1 1c-.3-.1-.5-.1-.7-.1-.6 0-1 .2-1.4.7-.4.5-.6 1-.6 1.7v3.7H82v-7h.9l.1 1.3c.3-.5.6-.8.9-1s.8-.4 1.2-.4zm11.5 3.6c0 1.1-.3 2-.9 2.7s-1.4 1-2.4 1c-.6 0-1.2-.1-1.7-.4-.5-.3-.9-.7-1.1-1.3-.3-.5-.4-1.2-.4-1.9 0-1.1.3-2 .9-2.7s1.4-.9 2.4-.9 1.7.3 2.3 1c.7.6.9 1.4.9 2.5zm-5.3 0c0 .9.2 1.6.5 2 .4.5.9.7 1.6.7s1.2-.2 1.6-.7c.4-.5.5-1.1.5-2 0-.9-.2-1.6-.5-2-.4-.5-.9-.7-1.6-.7-.7 0-1.2.2-1.6.7s-.5 1.1-.5 2zm10.4-3.6c.3 0 .6 0 .8.1l-.1 1c-.3-.1-.5-.1-.8-.1-.6 0-1 .2-1.4.7-.4.5-.6 1-.6 1.7v3.7h-1.1v-7h.9l.1 1.3h.1c.3-.5.6-.8.9-1s.7-.4 1.2-.4zm6.8 6.2c-.5.7-1.3 1.1-2.2 1.1-.9 0-1.6-.3-2.1-.9-.5-.6-.8-1.5-.8-2.7 0-1.1.3-2 .8-2.7s1.2-1 2.1-1c.9 0 1.7.3 2.2 1h.1v-3.8h1.1v9.9h-.9l-.3-.9zm-2.1.2c.7 0 1.2-.2 1.6-.6.3-.4.5-1 .5-1.9v-.2c0-1-.2-1.7-.5-2.1-.3-.4-.9-.6-1.6-.6-.6 0-1.1.2-1.4.7-.3.5-.5 1.2-.5 2 0 .9.2 1.6.5 2s.8.7 1.4.7zm8.3.8c-1 0-1.8-.3-2.4-.9-.6-.6-.9-1.5-.9-2.6s.3-2 .8-2.7c.6-.7 1.3-1 2.2-1 .9 0 1.6.3 2.1.9s.8 1.3.8 2.3v.7h-4.8c0 .8.2 1.4.6 1.9.4.4.9.6 1.7.6.7 0 1.5-.2 2.2-.5v.9c-.4.2-.7.3-1.1.3-.3.1-.7.1-1.2.1zm-.3-6.3c-.6 0-1 .2-1.3.5-.3.4-.5.9-.6 1.5h3.6c0-.7-.1-1.2-.4-1.5s-.7-.5-1.3-.5zm7.8-.9c.3 0 .6 0 .8.1l-.1 1c-.3-.1-.5-.1-.8-.1-.6 0-1 .2-1.4.7-.4.5-.6 1-.6 1.7v3.7H119v-7h.9l.1 1.3h.1c.3-.5.6-.8.9-1s.8-.4 1.2-.4zm2.1-1.7c0-.2.1-.4.2-.5s.3-.2.4-.2c.2 0 .3.1.4.2s.2.3.2.5-.1.4-.2.5-.3.2-.4.2c-.2 0-.3-.1-.4-.2s-.2-.3-.2-.5zm1.1 8.8h-1.1v-7h1.1v7zm7 0v-4.5c0-.6-.1-1-.4-1.3s-.7-.4-1.2-.4c-.7 0-1.3.2-1.6.6s-.5 1-.5 1.9v3.7h-1.1v-7h.9l.2 1h.1c.2-.3.5-.6.9-.8s.8-.3 1.3-.3c.8 0 1.5.2 1.9.6s.6 1 .6 1.9V32h-1.1zm8.9-6.9v.7l-1.3.1c.1.1.2.3.3.6s.1.5.1.8c0 .7-.2 1.2-.7 1.6s-1.1.6-1.9.6c-.2 0-.4 0-.6-.1-.4.2-.7.5-.7.9 0 .2.1.3.2.4s.4.1.8.1h1.2c.8 0 1.3.2 1.7.5.4.3.6.8.6 1.4 0 .8-.3 1.4-.9 1.8s-1.5.6-2.7.6c-.9 0-1.6-.2-2.1-.5s-.7-.8-.7-1.4c0-.4.1-.8.4-1.1.3-.3.7-.5 1.1-.6-.2-.1-.3-.2-.4-.4-.1-.2-.2-.4-.2-.6 0-.3.1-.5.2-.7.1-.2.3-.4.6-.6-.4-.1-.7-.4-.9-.8-.2-.4-.3-.8-.3-1.2 0-.8.2-1.3.7-1.8.5-.4 1.1-.6 1.9-.6.4 0 .7 0 1 .1h2.6zm-5.5 8.1c0 .4.2.7.5.9.3.2.8.3 1.4.3.9 0 1.5-.1 2-.4.4-.3.6-.6.6-1.1 0-.4-.1-.6-.3-.8-.2-.1-.7-.2-1.3-.2h-1.3c-.5 0-.9.1-1.1.3s-.5.6-.5 1zm.5-5.9c0 .5.1.9.4 1.1.3.3.7.4 1.1.4 1 0 1.5-.5 1.5-1.5s-.5-1.6-1.6-1.6c-.5 0-.9.1-1.1.4s-.3.7-.3 1.2zm12.1 4h.5c.1 0 .3-.1.4-.1v.8c-.1.1-.3.1-.5.1s-.4.1-.6.1c-1.3 0-2-.7-2-2.1V26h-1v-.5l1-.4.4-1.5h.6v1.6h2v.8h-2v4.1c0 .4.1.7.3 1s.5.3.9.3zm7.1.7v-4.5c0-.6-.1-1-.4-1.3s-.7-.4-1.2-.4c-.7 0-1.3.2-1.6.6-.3.4-.5 1-.5 2v3.6h-1.1v-9.9h1.1v3c0 .4 0 .7-.1.9h.1c.2-.3.5-.6.9-.8.4-.2.8-.3 1.3-.3.9 0 1.5.2 1.9.6.4.4.6 1 .6 1.9V32h-1zm6.1.1c-1 0-1.8-.3-2.4-.9-.6-.6-.9-1.5-.9-2.6s.3-2 .8-2.7c.6-.7 1.3-1 2.2-1 .9 0 1.6.3 2.1.9s.8 1.3.8 2.3v.7h-4.8c0 .8.2 1.4.6 1.9.4.4.9.6 1.7.6.7 0 1.5-.2 2.2-.5v.9c-.4.2-.7.3-1.1.3-.3.1-.7.1-1.2.1zm-.2-6.3c-.6 0-1 .2-1.3.5-.3.4-.5.9-.6 1.5h3.6c0-.7-.1-1.2-.4-1.5s-.8-.5-1.3-.5zm12.5 4.3c0 .6-.2 1.1-.7 1.5-.5.4-1.2.5-2 .5-.9 0-1.6-.1-2.2-.4v-1c.3.2.7.3 1.1.4.4.1.8.1 1.1.1.6 0 1-.1 1.3-.3s.4-.4.4-.8c0-.3-.1-.5-.4-.7-.2-.2-.7-.4-1.4-.7-.6-.2-1.1-.5-1.4-.6-.3-.2-.5-.4-.6-.6-.1-.2-.2-.5-.2-.8 0-.6.2-1 .7-1.3s1.1-.5 1.9-.5c.7 0 1.5.2 2.2.5l-.4.9c-.7-.3-1.3-.4-1.9-.4-.5 0-.9.1-1.1.2s-.4.4-.4.6c0 .2 0 .3.1.5.1.1.2.3.5.4s.6.3 1.2.5c.8.3 1.4.6 1.7.9.3.3.5.7.5 1.1zm4.6 2c-1 0-1.8-.3-2.4-.9-.6-.6-.9-1.5-.9-2.6s.3-2 .8-2.7c.6-.7 1.3-1 2.2-1 .9 0 1.6.3 2.1.9s.8 1.3.8 2.3v.7h-4.8c0 .8.2 1.4.6 1.9.4.4.9.6 1.7.6.7 0 1.5-.2 2.2-.5v.9c-.4.2-.7.3-1.1.3-.3.1-.7.1-1.2.1zm-.3-6.3c-.6 0-1 .2-1.3.5-.3.4-.5.9-.6 1.5h3.6c0-.7-.1-1.2-.4-1.5s-.7-.5-1.3-.5zm7.8-.9c.3 0 .6 0 .8.1l-.1 1c-.3-.1-.5-.1-.8-.1-.6 0-1 .2-1.4.7-.4.5-.6 1-.6 1.7v3.7h-1.1v-7h.9l.1 1.3h.1c.3-.5.6-.8.9-1s.8-.4 1.2-.4zm3.7 7.1l-2.6-7h1.1l1.5 4.1c.3 1 .5 1.6.6 1.9h.1c0-.2.2-.7.4-1.4s.8-2.2 1.7-4.6h1.1l-2.6 7h-1.3zm4.9-8.8c0-.2.1-.4.2-.5s.3-.2.4-.2c.2 0 .3.1.4.2s.2.3.2.5-.1.4-.2.5-.3.2-.4.2c-.2 0-.3-.1-.4-.2s-.2-.3-.2-.5zm1.1 8.8h-1.1v-7h1.1v7zm5.1.1c-1 0-1.8-.3-2.3-.9-.6-.6-.8-1.5-.8-2.6 0-1.2.3-2.1.8-2.7.6-.6 1.4-1 2.4-1 .3 0 .7 0 1 .1.3.1.6.2.8.3l-.3.9c-.2-.1-.5-.2-.8-.2s-.6-.1-.8-.1c-1.4 0-2.1.9-2.1 2.7 0 .9.2 1.5.5 2s.9.7 1.5.7 1.2-.1 1.8-.4v.9c-.5.2-1 .3-1.7.3zm6.3 0c-1 0-1.8-.3-2.4-.9-.6-.6-.9-1.5-.9-2.6s.3-2 .8-2.7c.6-.7 1.3-1 2.2-1 .9 0 1.6.3 2.1.9s.8 1.3.8 2.3v.7h-4.8c0 .8.2 1.4.6 1.9.4.4.9.6 1.7.6.7 0 1.5-.2 2.2-.5v.9c-.4.2-.7.3-1.1.3-.3.1-.7.1-1.2.1zm-.3-6.3c-.6 0-1 .2-1.3.5-.3.4-.5.9-.6 1.5h3.6c0-.7-.1-1.2-.4-1.5s-.7-.5-1.3-.5zm9.1 4.3c0 .6-.2 1.1-.7 1.5-.5.4-1.2.5-2 .5-.9 0-1.6-.1-2.2-.4v-1c.3.2.7.3 1.1.4.4.1.8.1 1.1.1.6 0 1-.1 1.3-.3s.4-.4.4-.8c0-.3-.1-.5-.4-.7-.2-.2-.7-.4-1.4-.7-.6-.2-1.1-.5-1.4-.6-.3-.2-.5-.4-.6-.6-.1-.2-.2-.5-.2-.8 0-.6.2-1 .7-1.3s1.1-.5 1.9-.5c.7 0 1.5.2 2.2.5l-.4.9c-.7-.3-1.3-.4-1.9-.4-.5 0-.9.1-1.1.2s-.4.4-.4.6c0 .2 0 .3.1.5.1.1.2.3.5.4s.6.3 1.2.5c.8.3 1.4.6 1.7.9.4.3.5.7.5 1.1zm5-6.9c0-.2.1-.4.2-.5s.3-.2.4-.2c.2 0 .3.1.4.2s.2.3.2.5-.1.4-.2.5-.3.2-.4.2c-.2 0-.3-.1-.4-.2s-.2-.3-.2-.5zm1.2 8.8H221v-7h1.1v7zm6.7-1.9c0 .6-.2 1.1-.7 1.5-.5.4-1.2.5-2 .5-.9 0-1.6-.1-2.2-.4v-1c.3.2.7.3 1.1.4.4.1.8.1 1.1.1.6 0 1-.1 1.3-.3s.4-.4.4-.8c0-.3-.1-.5-.4-.7-.2-.2-.7-.4-1.4-.7-.6-.2-1.1-.5-1.4-.6-.3-.2-.5-.4-.6-.6-.1-.2-.2-.5-.2-.8 0-.6.2-1 .7-1.3s1.1-.5 1.9-.5c.7 0 1.5.2 2.2.5l-.4.9c-.7-.3-1.3-.4-1.9-.4-.5 0-.9.1-1.1.2s-.4.4-.4.6c0 .2 0 .3.1.5.1.1.2.3.5.4s.6.3 1.2.5c.8.3 1.4.6 1.7.9.4.3.5.7.5 1.1zm9.9 1.9v-4.5c0-.6-.1-1-.4-1.3s-.7-.4-1.2-.4c-.7 0-1.3.2-1.6.6s-.5 1-.5 1.9v3.7h-1.1v-7h.9l.2 1h.1c.2-.3.5-.6.9-.8s.8-.3 1.3-.3c.8 0 1.5.2 1.9.6s.6 1 .6 1.9V32h-1.1zm9.2-3.5c0 1.1-.3 2-.9 2.7s-1.4 1-2.4 1c-.6 0-1.2-.1-1.7-.4-.5-.3-.9-.7-1.1-1.3-.3-.5-.4-1.2-.4-1.9 0-1.1.3-2 .9-2.7s1.4-.9 2.4-.9 1.7.3 2.3 1c.6.6.9 1.4.9 2.5zm-5.3 0c0 .9.2 1.6.5 2 .4.5.9.7 1.6.7s1.2-.2 1.6-.7c.4-.5.5-1.1.5-2 0-.9-.2-1.6-.5-2-.4-.5-.9-.7-1.6-.7-.7 0-1.2.2-1.6.7s-.5 1.1-.5 2zm9.4 2.8h.5c.1 0 .3-.1.4-.1v.8c-.1.1-.3.1-.5.1s-.4.1-.6.1c-1.3 0-2-.7-2-2.1V26h-1v-.5l1-.4.4-1.5h.6v1.6h2v.8h-2v4.1c0 .4.1.7.3 1s.5.3.9.3zm5.6-8.1c0-.2.1-.4.2-.5s.3-.2.4-.2c.2 0 .3.1.4.2s.2.3.2.5-.1.4-.2.5-.3.2-.4.2c-.2 0-.3-.1-.4-.2s-.2-.3-.2-.5zm1.1 8.8h-1.1v-7h1.1v7zm7 0v-4.5c0-.6-.1-1-.4-1.3s-.7-.4-1.2-.4c-.7 0-1.3.2-1.6.6s-.5 1-.5 1.9v3.7h-1v-7h.9l.2 1h.1c.2-.3.5-.6.9-.8s.8-.3 1.3-.3c.8 0 1.5.2 1.9.6s.6 1 .6 1.9V32h-1.2zm10.9 0l-.2-1h-.1c-.3.4-.7.7-1 .9-.3.2-.8.2-1.3.2-.7 0-1.2-.2-1.6-.5-.4-.4-.6-.9-.6-1.5 0-1.4 1.1-2.1 3.4-2.2h1.2v-.4c0-.5-.1-.9-.4-1.2-.2-.3-.6-.4-1.1-.4-.6 0-1.2.2-2 .5l-.3-.8c.3-.2.7-.3 1.1-.4.4-.1.8-.2 1.2-.2.8 0 1.4.2 1.8.6.4.4.6 1 .6 1.8v4.7h-.7zm-2.4-.7c.7 0 1.2-.2 1.5-.5.4-.4.6-.9.6-1.5v-.6h-1.1c-.8 0-1.4.2-1.8.4-.4.2-.6.6-.6 1.1 0 .4.1.7.3.9.4.1.7.2 1.1.2zm10.1.7v-4.5c0-.6-.1-1-.4-1.3s-.7-.4-1.2-.4c-.7 0-1.3.2-1.6.6s-.5 1-.5 1.9v3.7h-1.1v-7h.9l.2 1h.1c.2-.3.5-.6.9-.8s.8-.3 1.3-.3c.8 0 1.5.2 1.9.6s.6 1 .6 1.9V32h-1.1zm2.1-6.9h1.1l1.5 4c.3.9.5 1.6.6 2h.1c.1-.2.2-.6.3-1.1.2-.5.8-2.1 1.7-4.8h1.1l-3 7.9c-.3.8-.6 1.3-1 1.7-.4.3-.9.5-1.5.5-.3 0-.6 0-1-.1v-.8c.2.1.5.1.8.1.7 0 1.2-.4 1.5-1.2l.4-1-2.6-7.2zm16.8 6.9l-1.3-4.1c-.1-.2-.2-.8-.5-1.7h-.1c-.2.7-.3 1.3-.4 1.7l-1.3 4.1h-1.2l-1.9-7h1.1c.4 1.7.8 3.1 1 4 .2.9.4 1.5.4 1.8h.1c0-.2.1-.6.2-.9.1-.4.2-.7.3-.9l1.3-4h1.1l1.2 4c.2.7.4 1.3.5 1.8h.1c0-.2.1-.4.1-.7.1-.3.5-2 1.3-5.1h1.1l-1.9 7h-1.2zm8.7 0l-.2-1h-.1c-.3.4-.7.7-1 .9-.3.2-.8.2-1.3.2-.7 0-1.2-.2-1.6-.5-.4-.4-.6-.9-.6-1.5 0-1.4 1.1-2.1 3.4-2.2h1.2v-.4c0-.5-.1-.9-.4-1.2-.2-.3-.6-.4-1.1-.4-.6 0-1.2.2-2 .5l-.3-.8c.3-.2.7-.3 1.1-.4.4-.1.8-.2 1.2-.2.8 0 1.4.2 1.8.6.4.4.6 1 .6 1.8v4.7h-.7zm-2.4-.7c.7 0 1.2-.2 1.5-.5.4-.4.6-.9.6-1.5v-.6h-1.1c-.8 0-1.4.2-1.8.4-.4.2-.6.6-.6 1.1 0 .4.1.7.3.9.3.1.7.2 1.1.2zm4.2-6.2h1.1l1.5 4c.3.9.5 1.6.6 2h.1c.1-.2.2-.6.3-1.1.2-.5.8-2.1 1.7-4.8h1.1l-3 7.9c-.3.8-.6 1.3-1 1.7-.4.3-.9.5-1.5.5-.3 0-.6 0-1-.1v-.8c.2.1.5.1.8.1.7 0 1.2-.4 1.5-1.2l.4-1-2.6-7.2zm15.3 6.9l-.2-1h-.1c-.3.4-.7.7-1 .9-.3.2-.8.2-1.3.2-.7 0-1.2-.2-1.6-.5-.4-.4-.6-.9-.6-1.5 0-1.4 1.1-2.1 3.4-2.2h1.2v-.4c0-.5-.1-.9-.4-1.2-.2-.3-.6-.4-1.1-.4-.6 0-1.2.2-2 .5l-.3-.8c.3-.2.7-.3 1.1-.4.4-.1.8-.2 1.2-.2.8 0 1.4.2 1.8.6.4.4.6 1 .6 1.8v4.7h-.7zm-2.4-.7c.7 0 1.2-.2 1.5-.5.4-.4.6-.9.6-1.5v-.6h-1.1c-.8 0-1.4.2-1.8.4-.4.2-.6.6-.6 1.1 0 .4.1.7.3.9.4.1.7.2 1.1.2zm6.4-6.2v4.5c0 .6.1 1 .4 1.3s.7.4 1.2.4c.7 0 1.3-.2 1.6-.6.3-.4.5-1 .5-1.9v-3.7h1.1v7h-.9l-.2-.9h-.1c-.2.3-.5.6-.9.8-.4.2-.8.3-1.3.3-.8 0-1.5-.2-1.9-.6-.4-.4-.6-1-.6-1.9v-4.6h1.1zm9.2 6.2h.5c.1 0 .3-.1.4-.1v.8c-.1.1-.3.1-.5.1s-.4.1-.6.1c-1.3 0-2-.7-2-2.1V26h-1v-.5l1-.4.4-1.5h.6v1.6h2v.8h-2v4.1c0 .4.1.7.3 1s.6.3.9.3zm7.1.7v-4.5c0-.6-.1-1-.4-1.3s-.7-.4-1.2-.4c-.7 0-1.3.2-1.6.6-.3.4-.5 1-.5 2v3.6h-1.1v-9.9h1.1v3c0 .4 0 .7-.1.9h.1c.2-.3.5-.6.9-.8.4-.2.8-.3 1.3-.3.9 0 1.5.2 1.9.6.4.4.6 1 .6 1.9V32h-1zm9.2-3.5c0 1.1-.3 2-.9 2.7s-1.4 1-2.4 1c-.6 0-1.2-.1-1.7-.4-.5-.3-.9-.7-1.1-1.3-.3-.5-.4-1.2-.4-1.9 0-1.1.3-2 .9-2.7s1.4-.9 2.4-.9 1.7.3 2.3 1c.6.6.9 1.4.9 2.5zm-5.3 0c0 .9.2 1.6.5 2 .4.5.9.7 1.6.7s1.2-.2 1.6-.7c.4-.5.5-1.1.5-2 0-.9-.2-1.6-.5-2-.4-.5-.9-.7-1.6-.7-.7 0-1.2.2-1.6.7s-.5 1.1-.5 2zm10.3-3.6c.3 0 .6 0 .8.1l-.1 1c-.3-.1-.5-.1-.8-.1-.6 0-1 .2-1.4.7-.4.5-.6 1-.6 1.7v3.7h-1.1v-7h.9l.1 1.3h.1c.3-.5.6-.8.9-1s.8-.4 1.2-.4zm2.1-1.7c0-.2.1-.4.2-.5s.3-.2.4-.2c.2 0 .3.1.4.2s.2.3.2.5-.1.4-.2.5-.3.2-.4.2c-.2 0-.3-.1-.4-.2s-.2-.3-.2-.5zm1.1 8.8h-1.1v-7h1.1v7zm6.7 0h-5v-.7l3.8-5.4h-3.6v-.8h4.7v.8l-3.7 5.3h3.8v.8zm4.6.1c-1 0-1.8-.3-2.4-.9-.6-.6-.9-1.5-.9-2.6s.3-2 .8-2.7c.6-.7 1.3-1 2.2-1 .9 0 1.6.3 2.1.9s.8 1.3.8 2.3v.7h-4.8c0 .8.2 1.4.6 1.9.4.4.9.6 1.7.6.7 0 1.5-.2 2.2-.5v.9c-.4.2-.7.3-1.1.3-.3.1-.7.1-1.2.1zm-.3-6.3c-.6 0-1 .2-1.3.5-.3.4-.5.9-.6 1.5h3.6c0-.7-.1-1.2-.4-1.5s-.7-.5-1.3-.5zm9.4 5.3c-.5.7-1.3 1.1-2.2 1.1-.9 0-1.6-.3-2.1-.9-.5-.6-.8-1.5-.8-2.7 0-1.1.3-2 .8-2.7s1.2-1 2.1-1c.9 0 1.7.3 2.2 1h.1v-3.8h1.1v9.9h-.9l-.3-.9zm-2.1.2c.7 0 1.2-.2 1.6-.6.3-.4.5-1 .5-1.9v-.2c0-1-.2-1.7-.5-2.1-.3-.4-.9-.6-1.6-.6-.6 0-1.1.2-1.4.7-.3.5-.5 1.2-.5 2 0 .9.2 1.6.5 2s.7.7 1.4.7zm10.9 0h.5c.1 0 .3-.1.4-.1v.8c-.1.1-.3.1-.5.1s-.4.1-.6.1c-1.3 0-2-.7-2-2.1V26h-1v-.5l1-.4.4-1.5h.6v1.6h2v.8h-2v4.1c0 .4.1.7.3 1s.6.3.9.3zm8.4-2.8c0 1.1-.3 2-.9 2.7s-1.4 1-2.4 1c-.6 0-1.2-.1-1.7-.4-.5-.3-.9-.7-1.1-1.3-.3-.5-.4-1.2-.4-1.9 0-1.1.3-2 .9-2.7s1.4-.9 2.4-.9 1.7.3 2.3 1c.6.6.9 1.4.9 2.5zm-5.3 0c0 .9.2 1.6.5 2 .4.5.9.7 1.6.7s1.2-.2 1.6-.7c.4-.5.5-1.1.5-2 0-.9-.2-1.6-.5-2-.4-.5-.9-.7-1.6-.7-.7 0-1.2.2-1.6.7s-.5 1.1-.5 2zm13.7-3.6c.3 0 .6 0 .8.1l-.1 1c-.3-.1-.5-.1-.8-.1-.6 0-1 .2-1.4.7-.4.5-.6 1-.6 1.7v3.7h-1.1v-7h.9l.1 1.3h.1c.3-.5.6-.8.9-1s.7-.4 1.2-.4zm5.1 7.2c-1 0-1.8-.3-2.4-.9-.6-.6-.9-1.5-.9-2.6s.3-2 .8-2.7c.6-.7 1.3-1 2.2-1 .9 0 1.6.3 2.1.9s.8 1.3.8 2.3v.7h-4.8c0 .8.2 1.4.6 1.9.4.4.9.6 1.7.6.7 0 1.5-.2 2.2-.5v.9c-.4.2-.7.3-1.1.3-.4.1-.8.1-1.2.1zm-.3-6.3c-.6 0-1 .2-1.3.5-.3.4-.5.9-.6 1.5h3.6c0-.7-.1-1.2-.4-1.5s-.8-.5-1.3-.5zm7.8 6.3c-.5 0-.9-.1-1.2-.3-.4-.2-.7-.4-.9-.8h-.1c.1.4.1.8.1 1.2v2.9h-1.1v-10h.9l.1 1h.1c.3-.4.6-.7.9-.8s.8-.3 1.2-.3c.9 0 1.6.3 2.1.9.5.6.8 1.5.8 2.7 0 1.1-.3 2-.8 2.7-.4.5-1.2.8-2.1.8zm-.1-6.3c-.7 0-1.2.2-1.5.6s-.5 1-.5 1.9v.2c0 1 .2 1.7.5 2.1s.8.6 1.6.6c.6 0 1.1-.2 1.4-.7.3-.5.5-1.2.5-2 0-.9-.2-1.5-.5-2-.4-.4-.9-.7-1.5-.7zm8-.9c.3 0 .6 0 .8.1l-.1 1c-.3-.1-.5-.1-.8-.1-.6 0-1 .2-1.4.7-.4.5-.6 1-.6 1.7v3.7H430v-7h.9l.1 1.3h.1c.3-.5.6-.8.9-1s.8-.4 1.2-.4zm8.2 3.6c0 1.1-.3 2-.9 2.7s-1.4 1-2.4 1c-.6 0-1.2-.1-1.7-.4-.5-.3-.9-.7-1.1-1.3-.3-.5-.4-1.2-.4-1.9 0-1.1.3-2 .9-2.7s1.4-.9 2.4-.9 1.7.3 2.3 1c.6.6.9 1.4.9 2.5zm-5.3 0c0 .9.2 1.6.5 2 .4.5.9.7 1.6.7s1.2-.2 1.6-.7c.4-.5.5-1.1.5-2 0-.9-.2-1.6-.5-2-.4-.5-.9-.7-1.6-.7-.7 0-1.2.2-1.6.7s-.5 1.1-.5 2zm11.9 2.6c-.5.7-1.3 1.1-2.2 1.1-.9 0-1.6-.3-2.1-.9-.5-.6-.8-1.5-.8-2.7 0-1.1.3-2 .8-2.7s1.2-1 2.1-1c.9 0 1.7.3 2.2 1h.1v-3.8h1.1v9.9h-.9l-.3-.9zm-2.1.2c.7 0 1.2-.2 1.6-.6.3-.4.5-1 .5-1.9v-.2c0-1-.2-1.7-.5-2.1-.3-.4-.9-.6-1.6-.6-.6 0-1.1.2-1.4.7-.3.5-.5 1.2-.5 2 0 .9.2 1.6.5 2s.7.7 1.4.7zm6.3-6.2v4.5c0 .6.1 1 .4 1.3s.7.4 1.2.4c.7 0 1.3-.2 1.6-.6.3-.4.5-1 .5-1.9v-3.7h1.1v7h-.9l-.2-.9h-.1c-.2.3-.5.6-.9.8-.4.2-.8.3-1.3.3-.8 0-1.5-.2-1.9-.6-.4-.4-.6-1-.6-1.9v-4.6h1.1zm9.8 7c-1 0-1.8-.3-2.3-.9-.6-.6-.8-1.5-.8-2.6 0-1.2.3-2.1.8-2.7.6-.6 1.4-1 2.4-1 .3 0 .7 0 1 .1.3.1.6.2.8.3l-.3.9c-.2-.1-.5-.2-.8-.2s-.6-.1-.8-.1c-1.4 0-2.1.9-2.1 2.7 0 .9.2 1.5.5 2s.9.7 1.5.7 1.2-.1 1.8-.4v.9c-.4.2-1 .3-1.7.3zm6.3 0c-1 0-1.8-.3-2.4-.9-.6-.6-.9-1.5-.9-2.6s.3-2 .8-2.7c.6-.7 1.3-1 2.2-1 .9 0 1.6.3 2.1.9s.8 1.3.8 2.3v.7h-4.8c0 .8.2 1.4.6 1.9.4.4.9.6 1.7.6.7 0 1.5-.2 2.2-.5v.9c-.4.2-.7.3-1.1.3-.3.1-.7.1-1.2.1zm-.3-6.3c-.6 0-1 .2-1.3.5-.3.4-.5.9-.6 1.5h3.6c0-.7-.1-1.2-.4-1.5s-.7-.5-1.3-.5zm14 2.7c0 1.1-.3 2-.9 2.7s-1.4 1-2.4 1c-.6 0-1.2-.1-1.7-.4-.5-.3-.9-.7-1.1-1.3-.3-.5-.4-1.2-.4-1.9 0-1.1.3-2 .9-2.7s1.4-.9 2.4-.9 1.7.3 2.3 1c.7.6.9 1.4.9 2.5zm-5.3 0c0 .9.2 1.6.5 2 .4.5.9.7 1.6.7s1.2-.2 1.6-.7c.4-.5.5-1.1.5-2 0-.9-.2-1.6-.5-2-.4-.5-.9-.7-1.6-.7-.7 0-1.2.2-1.6.7s-.5 1.1-.5 2zm10.4-3.6c.3 0 .6 0 .8.1l-.1 1c-.3-.1-.5-.1-.8-.1-.6 0-1 .2-1.4.7-.4.5-.6 1-.6 1.7v3.7h-1.1v-7h.9l.1 1.3h.1c.3-.5.6-.8.9-1s.7-.4 1.2-.4zm8.3 7.2c-1 0-1.8-.3-2.3-.9-.6-.6-.8-1.5-.8-2.6 0-1.2.3-2.1.8-2.7.6-.6 1.4-1 2.4-1 .3 0 .7 0 1 .1.3.1.6.2.8.3l-.3.9c-.2-.1-.5-.2-.8-.2s-.5-.1-.7-.1c-1.4 0-2.1.9-2.1 2.7 0 .9.2 1.5.5 2s.9.7 1.5.7 1.2-.1 1.8-.4v.9c-.6.2-1.1.3-1.8.3zm9.4-3.6c0 1.1-.3 2-.9 2.7s-1.4 1-2.4 1c-.6 0-1.2-.1-1.7-.4-.5-.3-.9-.7-1.1-1.3-.3-.5-.4-1.2-.4-1.9 0-1.1.3-2 .9-2.7s1.4-.9 2.4-.9 1.7.3 2.3 1c.6.6.9 1.4.9 2.5zm-5.3 0c0 .9.2 1.6.5 2 .4.5.9.7 1.6.7s1.2-.2 1.6-.7c.4-.5.5-1.1.5-2 0-.9-.2-1.6-.5-2-.4-.5-.9-.7-1.6-.7-.7 0-1.2.2-1.6.7s-.5 1.1-.5 2zm10.4 3.6c-.5 0-.9-.1-1.2-.3-.4-.2-.7-.4-.9-.8h-.1c.1.4.1.8.1 1.2v2.9h-1.1v-10h.9l.1 1h.1c.3-.4.6-.7.9-.8s.8-.3 1.2-.3c.9 0 1.6.3 2.1.9.5.6.8 1.5.8 2.7 0 1.1-.3 2-.8 2.7-.5.5-1.2.8-2.1.8zm-.2-6.3c-.7 0-1.2.2-1.5.6s-.5 1-.5 1.9v.2c0 1 .2 1.7.5 2.1s.8.6 1.6.6c.6 0 1.1-.2 1.4-.7.3-.5.5-1.2.5-2 0-.9-.2-1.5-.5-2-.4-.4-.9-.7-1.5-.7zm3.8-.7h1.1l1.5 4c.3.9.5 1.6.6 2h.1c.1-.2.2-.6.3-1.1.2-.5.8-2.1 1.7-4.8h1.1l-3 7.9c-.3.8-.6 1.3-1 1.7-.4.3-.9.5-1.5.5-.3 0-.6 0-1-.1v-.8c.2.1.5.1.8.1.7 0 1.2-.4 1.5-1.2l.4-1-2.6-7.2zm14.2-.2c.9 0 1.6.3 2.1.9.5.6.8 1.5.8 2.7s-.3 2-.8 2.7c-.5.6-1.2.9-2.1.9-.5 0-.9-.1-1.2-.3-.4-.2-.7-.4-.9-.8h-.1l-.2.9h-.8v-9.9h1.1v2.4c0 .5 0 1-.1 1.4h.1c.5-.5 1.2-.9 2.1-.9zm-.1.9c-.7 0-1.2.2-1.6.6-.3.4-.5 1.1-.5 2.1s.2 1.7.5 2.1.8.6 1.6.6c.6 0 1.1-.2 1.4-.7s.5-1.2.5-2c0-.9-.2-1.6-.5-2s-.7-.7-1.4-.7zm10.9 2.7c0 1.1-.3 2-.9 2.7s-1.4 1-2.4 1c-.6 0-1.2-.1-1.7-.4-.5-.3-.9-.7-1.1-1.3-.3-.5-.4-1.2-.4-1.9 0-1.1.3-2 .9-2.7s1.4-.9 2.4-.9 1.7.3 2.3 1c.6.6.9 1.4.9 2.5zm-5.3 0c0 .9.2 1.6.5 2 .4.5.9.7 1.6.7s1.2-.2 1.6-.7c.4-.5.5-1.1.5-2 0-.9-.2-1.6-.5-2-.4-.5-.9-.7-1.6-.7-.7 0-1.2.2-1.6.7s-.5 1.1-.5 2zm9.4 2.8h.5c.1 0 .3-.1.4-.1v.8c-.1.1-.3.1-.5.1s-.4.1-.6.1c-1.3 0-2-.7-2-2.1V26h-1v-.5l1-.4.4-1.5h.6v1.6h2v.8h-2v4.1c0 .4.1.7.3 1s.5.3.9.3zm7.1.7v-4.5c0-.6-.1-1-.4-1.3-.3-.3-.7-.4-1.2-.4-.7 0-1.3.2-1.6.6-.3.4-.5 1-.5 2v3.6h-1.1v-9.9h1.1v3c0 .4 0 .7-.1.9h.1c.2-.3.5-.6.9-.8.4-.2.8-.3 1.3-.3.9 0 1.5.2 1.9.6.4.4.6 1 .6 1.9V32h-1zm10.8 0l-.2-1h-.1c-.3.4-.7.7-1 .9s-.8.2-1.3.2c-.7 0-1.2-.2-1.6-.5s-.6-.9-.6-1.5c0-1.4 1.1-2.1 3.4-2.2h1.2v-.4c0-.5-.1-.9-.4-1.2-.2-.3-.6-.4-1.1-.4-.6 0-1.2.2-2 .5l-.3-.8c.3-.2.7-.3 1.1-.4.4-.1.8-.2 1.2-.2.8 0 1.4.2 1.8.6.4.4.6 1 .6 1.8v4.7h-.7zm-2.3-.7c.7 0 1.2-.2 1.5-.5.4-.4.6-.9.6-1.5v-.6h-1.1c-.8 0-1.4.2-1.8.4s-.6.6-.6 1.1c0 .4.1.7.3.9s.7.2 1.1.2zm11.5.8c-1 0-1.8-.3-2.3-.9-.6-.6-.8-1.5-.8-2.6 0-1.2.3-2.1.8-2.7s1.4-1 2.4-1c.3 0 .7 0 1 .1.3.1.6.2.8.3l-.3.9c-.2-.1-.5-.2-.8-.2s-.5-.1-.7-.1c-1.4 0-2.1.9-2.1 2.7 0 .9.2 1.5.5 2s.9.7 1.5.7 1.2-.1 1.8-.4v.9c-.5.2-1.1.3-1.8.3zm9.4-3.6c0 1.1-.3 2-.9 2.7-.6.6-1.4 1-2.4 1-.6 0-1.2-.1-1.7-.4-.5-.3-.9-.7-1.1-1.3-.3-.5-.4-1.2-.4-1.9 0-1.1.3-2 .8-2.7.6-.6 1.4-.9 2.4-.9s1.7.3 2.3 1c.7.6 1 1.4 1 2.5zm-5.3 0c0 .9.2 1.6.5 2 .4.5.9.7 1.6.7s1.2-.2 1.6-.7c.4-.5.5-1.1.5-2 0-.9-.2-1.6-.5-2s-.9-.7-1.6-.7c-.7 0-1.2.2-1.6.7s-.5 1.1-.5 2zm16 3.5v-4.5c0-.6-.1-1-.4-1.2-.2-.3-.6-.4-1.1-.4-.7 0-1.1.2-1.5.6s-.5 1-.5 1.7v3.9h-1.1v-4.5c0-.6-.1-1-.4-1.2s-.6-.4-1.1-.4c-.7 0-1.1.2-1.5.6s-.5 1-.5 1.9v3.7h-1.1v-7h.9l.2 1h.1c.2-.3.5-.6.8-.8.4-.2.8-.3 1.2-.3 1.1 0 1.8.4 2.1 1.2h.1c.2-.4.5-.7.9-.9s.8-.3 1.3-.3c.8 0 1.4.2 1.8.6s.6 1 .6 1.9v4.5h-.8zm6.4.1c-.5 0-.9-.1-1.2-.3-.4-.2-.7-.4-.9-.8h-.1c.1.4.1.8.1 1.2v2.9H593v-10h.9l.1 1h.1c.3-.4.6-.7.9-.8.4-.2.8-.3 1.2-.3.9 0 1.6.3 2.1.9.5.6.8 1.5.8 2.7 0 1.1-.3 2-.8 2.7s-1.1.8-2.1.8zm-.1-6.3c-.7 0-1.2.2-1.5.6-.3.4-.5 1-.5 1.9v.2c0 1 .2 1.7.5 2.1.3.4.8.6 1.6.6.6 0 1.1-.2 1.4-.7s.5-1.2.5-2c0-.9-.2-1.5-.5-2-.4-.4-.9-.7-1.5-.7zm5.9 6.2h-1v-9.9h1.1v9.9zm5.2.1c-1 0-1.8-.3-2.4-.9s-.9-1.5-.9-2.6.3-2 .8-2.7c.6-.7 1.3-1 2.2-1 .9 0 1.6.3 2.1.9s.8 1.3.8 2.3v.7H605c0 .8.2 1.4.6 1.9.4.4.9.6 1.7.6.8 0 1.5-.2 2.2-.5v.9c-.4.2-.7.3-1.1.3-.3.1-.7.1-1.2.1zm-.3-6.3c-.6 0-1 .2-1.3.5-.3.4-.5.9-.6 1.5h3.6c0-.7-.1-1.2-.4-1.5s-.7-.5-1.3-.5zm6.9 5.5h.5c.2 0 .3-.1.4-.1v.8c-.1.1-.3.1-.5.1s-.4.1-.6.1c-1.3 0-2-.7-2-2.1V26h-1v-.5l1-.4.4-1.5h.6v1.6h2v.8h-2v4.1c0 .4.1.7.3 1 .3.2.6.3.9.3zm5.3.8c-1 0-1.8-.3-2.4-.9s-.9-1.5-.9-2.6.3-2 .8-2.7c.6-.7 1.3-1 2.2-1 .9 0 1.6.3 2.1.9s.8 1.3.8 2.3v.7h-4.8c0 .8.2 1.4.6 1.9.4.4.9.6 1.7.6.8 0 1.5-.2 2.2-.5v.9c-.4.2-.7.3-1.1.3-.3.1-.7.1-1.2.1zm-.3-6.3c-.6 0-1 .2-1.3.5-.3.4-.5.9-.6 1.5h3.6c0-.7-.1-1.2-.4-1.5s-.7-.5-1.3-.5zm9.4 5.3c-.5.7-1.3 1.1-2.2 1.1-.9 0-1.6-.3-2.1-.9-.5-.6-.8-1.5-.8-2.7 0-1.1.3-2 .8-2.7s1.2-1 2.1-1c.9 0 1.7.3 2.2 1h.1v-3.8h1.1v9.9h-.9l-.3-.9zm-2.1.2c.7 0 1.2-.2 1.6-.6.3-.4.5-1 .5-1.9v-.2c0-1-.2-1.7-.5-2.1s-.9-.6-1.6-.6c-.6 0-1.1.2-1.4.7s-.5 1.2-.5 2c0 .9.2 1.6.5 2s.7.7 1.4.7zm11.9.8c-.5 0-.9-.1-1.2-.3-.4-.2-.7-.4-.9-.8h-.1c.1.4.1.8.1 1.2v2.9h-1.1v-10h.9l.1 1h.1c.3-.4.6-.7.9-.8.4-.2.8-.3 1.2-.3.9 0 1.6.3 2.1.9.5.6.8 1.5.8 2.7 0 1.1-.3 2-.8 2.7s-1.2.8-2.1.8zm-.1-6.3c-.7 0-1.2.2-1.5.6-.3.4-.5 1-.5 1.9v.2c0 1 .2 1.7.5 2.1.3.4.8.6 1.6.6.6 0 1.1-.2 1.4-.7s.5-1.2.5-2c0-.9-.2-1.5-.5-2-.4-.4-.9-.7-1.5-.7zm9.1 6.2l-.2-1h-.1c-.3.4-.7.7-1 .9s-.8.2-1.3.2c-.7 0-1.2-.2-1.6-.5s-.6-.9-.6-1.5c0-1.4 1.1-2.1 3.4-2.2h1.2v-.4c0-.5-.1-.9-.4-1.2-.2-.3-.6-.4-1.1-.4-.6 0-1.2.2-2 .5l-.3-.8c.3-.2.7-.3 1.1-.4.4-.1.8-.2 1.2-.2.8 0 1.4.2 1.8.6.4.4.6 1 .6 1.8v4.7h-.7zm-2.3-.7c.7 0 1.2-.2 1.5-.5.4-.4.6-.9.6-1.5v-.6h-1.1c-.8 0-1.4.2-1.8.4s-.6.6-.6 1.1c0 .4.1.7.3.9s.6.2 1.1.2zm8.5.8c-.5 0-.9-.1-1.2-.3-.4-.2-.7-.4-.9-.8h-.1c.1.4.1.8.1 1.2v2.9H650v-10h.9l.1 1h.1c.3-.4.6-.7.9-.8.4-.2.8-.3 1.2-.3.9 0 1.6.3 2.1.9.5.6.8 1.5.8 2.7 0 1.1-.3 2-.8 2.7s-1.2.8-2.1.8zm-.1-6.3c-.7 0-1.2.2-1.5.6-.3.4-.5 1-.5 1.9v.2c0 1 .2 1.7.5 2.1.3.4.8.6 1.6.6.6 0 1.1-.2 1.4-.7s.5-1.2.5-2c0-.9-.2-1.5-.5-2-.4-.4-.9-.7-1.5-.7zm7.8 6.3c-1 0-1.8-.3-2.4-.9s-.9-1.5-.9-2.6.3-2 .8-2.7c.6-.7 1.3-1 2.2-1 .9 0 1.6.3 2.1.9s.8 1.3.8 2.3v.7h-4.8c0 .8.2 1.4.6 1.9.4.4.9.6 1.7.6.8 0 1.5-.2 2.2-.5v.9c-.4.2-.7.3-1.1.3-.3.1-.7.1-1.2.1zm-.3-6.3c-.6 0-1 .2-1.3.5-.3.4-.5.9-.6 1.5h3.6c0-.7-.1-1.2-.4-1.5s-.7-.5-1.3-.5zm7.8-.9c.3 0 .6 0 .8.1l-.1 1c-.3-.1-.5-.1-.8-.1-.6 0-1 .2-1.4.7-.4.5-.6 1-.6 1.7v3.7h-1.1v-7h.9l.1 1.3h.1c.3-.5.6-.8.9-1 .4-.2.8-.4 1.2-.4zm4.9 3.6c0-1.1.2-2.2.5-3.1.3-1 .8-1.8 1.4-2.6h1c-.6.8-1.1 1.7-1.4 2.7s-.5 2-.5 3 .2 2 .5 3 .8 1.9 1.4 2.7h-1c-.6-.7-1.1-1.6-1.4-2.5-.3-1.1-.5-2.1-.5-3.2zm7.4 3.6c-1 0-1.8-.3-2.4-.9s-.9-1.5-.9-2.6.3-2 .8-2.7c.6-.7 1.3-1 2.2-1 .9 0 1.6.3 2.1.9s.8 1.3.8 2.3v.7h-4.8c0 .8.2 1.4.6 1.9.4.4.9.6 1.7.6.8 0 1.5-.2 2.2-.5v.9c-.4.2-.7.3-1.1.3-.3.1-.7.1-1.2.1zm-.3-6.3c-.6 0-1 .2-1.3.5-.3.4-.5.9-.6 1.5h3.6c0-.7-.1-1.2-.4-1.5s-.7-.5-1.3-.5zm9.2 4.3c0 .6-.2 1.1-.7 1.5-.5.4-1.2.5-2 .5-.9 0-1.6-.1-2.2-.4v-1c.3.2.7.3 1.1.4s.8.1 1.1.1c.6 0 1-.1 1.3-.3.3-.2.4-.4.4-.8 0-.3-.1-.5-.4-.7-.2-.2-.7-.4-1.4-.7-.6-.2-1.1-.5-1.4-.6-.3-.2-.5-.4-.6-.6-.1-.2-.2-.5-.2-.8 0-.6.2-1 .7-1.3.5-.3 1.1-.5 1.9-.5.7 0 1.5.2 2.2.5l-.4.9c-.7-.3-1.3-.4-1.9-.4-.5 0-.9.1-1.1.2s-.4.4-.4.6c0 .2 0 .3.1.5.1.1.2.3.5.4.2.1.6.3 1.2.5.8.3 1.4.6 1.7.9s.5.7.5 1.1zm6.2 0c0 .6-.2 1.1-.7 1.5-.5.4-1.2.5-2 .5-.9 0-1.6-.1-2.2-.4v-1c.3.2.7.3 1.1.4s.8.1 1.1.1c.6 0 1-.1 1.3-.3.3-.2.4-.4.4-.8 0-.3-.1-.5-.4-.7-.2-.2-.7-.4-1.4-.7-.6-.2-1.1-.5-1.4-.6-.3-.2-.5-.4-.6-.6-.1-.2-.2-.5-.2-.8 0-.6.2-1 .7-1.3.5-.3 1.1-.5 1.9-.5.7 0 1.5.2 2.2.5l-.4.9c-.7-.3-1.3-.4-1.9-.4-.5 0-.9.1-1.1.2s-.4.4-.4.6c0 .2 0 .3.1.5.1.1.2.3.5.4.2.1.6.3 1.2.5.8.3 1.4.6 1.7.9s.5.7.5 1.1zm5.9 1.9l-.2-1h-.1c-.3.4-.7.7-1 .9s-.8.2-1.3.2c-.7 0-1.2-.2-1.6-.5s-.6-.9-.6-1.5c0-1.4 1.1-2.1 3.4-2.2h1.2v-.4c0-.5-.1-.9-.4-1.2-.2-.3-.6-.4-1.1-.4-.6 0-1.2.2-2 .5l-.3-.8c.3-.2.7-.3 1.1-.4.4-.1.8-.2 1.2-.2.8 0 1.4.2 1.8.6.4.4.6 1 .6 1.8v4.7h-.7zm-2.3-.7c.7 0 1.2-.2 1.5-.5.4-.4.6-.9.6-1.5v-.6h-1.1c-.8 0-1.4.2-1.8.4s-.6.6-.6 1.1c0 .4.1.7.3.9s.7.2 1.1.2zm4.2-6.2h1.1l1.5 4c.3.9.5 1.6.6 2h.1c.1-.2.2-.6.3-1.1s.8-2.1 1.7-4.8h1.1l-3 7.9c-.3.8-.6 1.3-1 1.7s-.9.5-1.5.5c-.3 0-.6 0-1-.1v-.8c.2.1.5.1.8.1.7 0 1.2-.4 1.5-1.2l.4-1-2.6-7.2zm8.8 5.4l.1.1c-.1.4-.3.9-.5 1.5s-.4 1.1-.6 1.6h-.8c.1-.4.2-1 .4-1.6.1-.6.2-1.2.3-1.6h1.1zm7.7.8h.5c.2 0 .3-.1.4-.1v.8c-.1.1-.3.1-.5.1s-.4.1-.6.1c-1.3 0-2-.7-2-2.1V26h-1v-.5l1-.4.4-1.5h.6v1.6h2v.8h-2v4.1c0 .4.1.7.3 1 .2.2.5.3.9.3zm5.2.8c-1 0-1.8-.3-2.4-.9s-.9-1.5-.9-2.6.3-2 .8-2.7c.6-.7 1.3-1 2.2-1 .9 0 1.6.3 2.1.9s.8 1.3.8 2.3v.7h-4.8c0 .8.2 1.4.6 1.9.4.4.9.6 1.7.6.8 0 1.5-.2 2.2-.5v.9c-.4.2-.7.3-1.1.3-.3.1-.7.1-1.2.1zm-.2-6.3c-.6 0-1 .2-1.3.5-.3.4-.5.9-.6 1.5h3.6c0-.7-.1-1.2-.4-1.5s-.8-.5-1.3-.5zm7.8-.9c.3 0 .6 0 .8.1l-.1 1c-.3-.1-.5-.1-.8-.1-.6 0-1 .2-1.4.7-.4.5-.6 1-.6 1.7v3.7h-1.1v-7h.9l.1 1.3h.1c.3-.5.6-.8.9-1 .3-.2.7-.4 1.2-.4zm11 7.1v-4.5c0-.6-.1-1-.4-1.2-.2-.3-.6-.4-1.1-.4-.7 0-1.1.2-1.5.6s-.5 1-.5 1.7v3.9h-1.1v-4.5c0-.6-.1-1-.4-1.2s-.6-.4-1.1-.4c-.7 0-1.1.2-1.5.6s-.5 1-.5 1.9v3.7h-.8v-7h.9l.2 1h.1c.2-.3.5-.6.8-.8.4-.2.8-.3 1.2-.3 1.1 0 1.8.4 2.1 1.2h.1c.2-.4.5-.7.9-.9s.8-.3 1.3-.3c.8 0 1.4.2 1.8.6s.6 1 .6 1.9v4.5h-1.1zm9.8.1c-.5 0-.9-.1-1.2-.3-.4-.2-.7-.4-.9-.8h-.1c.1.4.1.8.1 1.2v2.9h-1.1v-10h.9l.1 1h.1c.3-.4.6-.7.9-.8.4-.2.8-.3 1.2-.3.9 0 1.6.3 2.1.9.5.6.8 1.5.8 2.7 0 1.1-.3 2-.8 2.7s-1.2.8-2.1.8zm-.1-6.3c-.7 0-1.2.2-1.5.6-.3.4-.5 1-.5 1.9v.2c0 1 .2 1.7.5 2.1.3.4.8.6 1.6.6.6 0 1.1-.2 1.4-.7s.5-1.2.5-2c0-.9-.2-1.5-.5-2-.4-.4-.9-.7-1.5-.7zm9.1 6.2l-.2-1h-.1c-.3.4-.7.7-1 .9s-.8.2-1.3.2c-.7 0-1.2-.2-1.6-.5s-.6-.9-.6-1.5c0-1.4 1.1-2.1 3.4-2.2h1.2v-.4c0-.5-.1-.9-.4-1.2-.2-.3-.6-.4-1.1-.4-.6 0-1.2.2-2 .5l-.3-.8c.3-.2.7-.3 1.1-.4.4-.1.8-.2 1.2-.2.8 0 1.4.2 1.8.6.4.4.6 1 .6 1.8v4.7h-.7zm-2.4-.7c.7 0 1.2-.2 1.5-.5.4-.4.6-.9.6-1.5v-.6h-1.1c-.8 0-1.4.2-1.8.4s-.6.6-.6 1.1c0 .4.1.7.3.9s.7.2 1.1.2zm8.6.8c-.5 0-.9-.1-1.2-.3-.4-.2-.7-.4-.9-.8h-.1c.1.4.1.8.1 1.2v2.9h-1.1v-10h.9l.1 1h.1c.3-.4.6-.7.9-.8.4-.2.8-.3 1.2-.3.9 0 1.6.3 2.1.9.5.6.8 1.5.8 2.7 0 1.1-.3 2-.8 2.7s-1.2.8-2.1.8zm-.1-6.3c-.7 0-1.2.2-1.5.6-.3.4-.5 1-.5 1.9v.2c0 1 .2 1.7.5 2.1.3.4.8.6 1.6.6.6 0 1.1-.2 1.4-.7s.5-1.2.5-2c0-.9-.2-1.5-.5-2-.5-.4-.9-.7-1.5-.7zm7.8 6.3c-1 0-1.8-.3-2.4-.9s-.9-1.5-.9-2.6.3-2 .8-2.7c.6-.7 1.3-1 2.2-1 .9 0 1.6.3 2.1.9s.8 1.3.8 2.3v.7h-4.8c0 .8.2 1.4.6 1.9.4.4.9.6 1.7.6.8 0 1.5-.2 2.2-.5v.9c-.4.2-.7.3-1.1.3-.4.1-.8.1-1.2.1zm-.3-6.3c-.6 0-1 .2-1.3.5-.3.4-.5.9-.6 1.5h3.6c0-.7-.1-1.2-.4-1.5s-.8-.5-1.3-.5zm7.8-.9c.3 0 .6 0 .8.1l-.1 1c-.3-.1-.5-.1-.8-.1-.6 0-1 .2-1.4.7-.4.5-.6 1-.6 1.7v3.7h-1.1v-7h.9l.1 1.3h.1c.3-.5.6-.8.9-1 .4-.2.8-.4 1.2-.4zm3.2 5.6l.1.1c-.1.4-.3.9-.5 1.5s-.4 1.1-.6 1.6h-.8c.1-.4.2-1 .4-1.6.1-.6.2-1.2.3-1.6h1.1zM796 25c.3 0 .6 0 .8.1l-.1 1c-.3-.1-.5-.1-.8-.1-.6 0-1 .2-1.4.7-.4.5-.6 1-.6 1.7v3.7h-1.1v-7h.9l.1 1.3h.1c.3-.5.6-.8.9-1 .3-.2.7-.4 1.2-.4zm5 7.2c-1 0-1.8-.3-2.4-.9s-.9-1.5-.9-2.6.3-2 .8-2.7c.6-.7 1.3-1 2.2-1 .9 0 1.6.3 2.1.9s.8 1.3.8 2.3v.7h-4.8c0 .8.2 1.4.6 1.9.4.4.9.6 1.7.6.8 0 1.5-.2 2.2-.5v.9c-.4.2-.7.3-1.1.3-.3.1-.7.1-1.2.1zm-.2-6.3c-.6 0-1 .2-1.3.5-.3.4-.5.9-.6 1.5h3.6c0-.7-.1-1.2-.4-1.5s-.8-.5-1.3-.5zm9.1 4.3c0 .6-.2 1.1-.7 1.5-.5.4-1.2.5-2 .5-.9 0-1.6-.1-2.2-.4v-1c.3.2.7.3 1.1.4s.8.1 1.1.1c.6 0 1-.1 1.3-.3.3-.2.4-.4.4-.8 0-.3-.1-.5-.4-.7-.2-.2-.7-.4-1.4-.7-.6-.2-1.1-.5-1.4-.6-.3-.2-.5-.4-.6-.6-.1-.2-.2-.5-.2-.8 0-.6.2-1 .7-1.3.5-.3 1.1-.5 1.9-.5.7 0 1.5.2 2.2.5l-.4.9c-.7-.3-1.3-.4-1.9-.4-.5 0-.9.1-1.1.2s-.4.4-.4.6c0 .2 0 .3.1.5.1.1.2.3.5.4.2.1.6.3 1.2.5.8.3 1.4.6 1.7.9s.5.7.5 1.1zm4.6 2c-1 0-1.8-.3-2.4-.9s-.9-1.5-.9-2.6.3-2 .8-2.7c.6-.7 1.3-1 2.2-1 .9 0 1.6.3 2.1.9s.8 1.3.8 2.3v.7h-4.8c0 .8.2 1.4.6 1.9.4.4.9.6 1.7.6.8 0 1.5-.2 2.2-.5v.9c-.4.2-.7.3-1.1.3-.3.1-.7.1-1.2.1zm-.2-6.3c-.6 0-1 .2-1.3.5-.3.4-.5.9-.6 1.5h3.6c0-.7-.1-1.2-.4-1.5s-.8-.5-1.3-.5zm8.9 6.2l-.2-1h-.1c-.3.4-.7.7-1 .9s-.8.2-1.3.2c-.7 0-1.2-.2-1.6-.5s-.6-.9-.6-1.5c0-1.4 1.1-2.1 3.4-2.2h1.2v-.4c0-.5-.1-.9-.4-1.2-.2-.3-.6-.4-1.1-.4-.6 0-1.2.2-2 .5l-.3-.8c.3-.2.7-.3 1.1-.4.4-.1.8-.2 1.2-.2.8 0 1.4.2 1.8.6.4.4.6 1 .6 1.8v4.7h-.7zm-2.4-.7c.7 0 1.2-.2 1.5-.5.4-.4.6-.9.6-1.5v-.6h-1.1c-.8 0-1.4.2-1.8.4s-.6.6-.6 1.1c0 .4.1.7.3.9s.7.2 1.1.2zm8.5-6.4c.3 0 .6 0 .8.1l-.1 1c-.3-.1-.5-.1-.8-.1-.6 0-1 .2-1.4.7-.4.5-.6 1-.6 1.7v3.7h-1.1v-7h.9l.1 1.3h.1c.3-.5.6-.8.9-1 .4-.2.8-.4 1.2-.4zm4.9 7.2c-1 0-1.8-.3-2.3-.9-.6-.6-.8-1.5-.8-2.6 0-1.2.3-2.1.8-2.7s1.4-1 2.4-1c.3 0 .7 0 1 .1.3.1.6.2.8.3l-.3.9c-.2-.1-.5-.2-.8-.2s-.5-.1-.7-.1c-1.4 0-2.1.9-2.1 2.7 0 .9.2 1.5.5 2s.9.7 1.5.7 1.2-.1 1.8-.4v.9c-.5.2-1.1.3-1.8.3zm8.2-.1v-4.5c0-.6-.1-1-.4-1.3-.3-.3-.7-.4-1.2-.4-.7 0-1.3.2-1.6.6-.3.4-.5 1-.5 2v3.6h-1.1v-9.9h1.1v3c0 .4 0 .7-.1.9h.1c.2-.3.5-.6.9-.8s.8-.3 1.3-.3c.9 0 1.5.2 1.9.6.4.4.6 1 .6 1.9V32h-1zm9.8.1c-.5 0-.9-.1-1.2-.3-.4-.2-.7-.4-.9-.8h-.1c.1.4.1.8.1 1.2v2.9H849v-10h.9l.1 1h.1c.3-.4.6-.7.9-.8.4-.2.8-.3 1.2-.3.9 0 1.6.3 2.1.9.5.6.8 1.5.8 2.7 0 1.1-.3 2-.8 2.7s-1.2.8-2.1.8zm-.1-6.3c-.7 0-1.2.2-1.5.6-.3.4-.5 1-.5 1.9v.2c0 1 .2 1.7.5 2.1.3.4.8.6 1.6.6.6 0 1.1-.2 1.4-.7s.5-1.2.5-2c0-.9-.2-1.5-.5-2-.4-.4-.9-.7-1.5-.7zm9.1 6.2l-.2-1c-.3.4-.7.7-1 .9s-.8.2-1.3.2c-.7 0-1.2-.2-1.6-.5s-.6-.9-.6-1.5c0-1.4 1.1-2.1 3.4-2.2h1.2v-.4c0-.5-.1-.9-.4-1.2-.2-.3-.6-.4-1.1-.4-.6 0-1.2.2-2 .5l-.3-.8c.3-.2.7-.3 1.1-.4.4-.1.8-.2 1.2-.2.8 0 1.4.2 1.8.6.4.4.6 1 .6 1.8v4.7h-.8zm-2.4-.7c.7 0 1.2-.2 1.5-.5.4-.4.6-.9.6-1.5v-.6h-1.1c-.8 0-1.4.2-1.8.4s-.6.6-.6 1.1c0 .4.1.7.3.9s.7.2 1.1.2zm8.6.8c-.5 0-.9-.1-1.2-.3-.4-.2-.7-.4-.9-.8h-.1c.1.4.1.8.1 1.2v2.9h-1.1v-10h.9l.1 1h.1c.3-.4.6-.7.9-.8.4-.2.8-.3 1.2-.3.9 0 1.6.3 2.1.9.5.6.8 1.5.8 2.7 0 1.1-.3 2-.8 2.7s-1.2.8-2.1.8zm-.1-6.3c-.7 0-1.2.2-1.5.6-.3.4-.5 1-.5 1.9v.2c0 1 .2 1.7.5 2.1.3.4.8.6 1.6.6.6 0 1.1-.2 1.4-.7s.5-1.2.5-2c0-.9-.2-1.5-.5-2-.4-.4-.9-.7-1.5-.7zm7.8 6.3c-1 0-1.8-.3-2.4-.9s-.9-1.5-.9-2.6.3-2 .8-2.7c.6-.7 1.3-1 2.2-1 .9 0 1.6.3 2.1.9s.8 1.3.8 2.3v.7h-4.8c0 .8.2 1.4.6 1.9.4.4.9.6 1.7.6.8 0 1.5-.2 2.2-.5v.9c-.4.2-.7.3-1.1.3-.4.1-.8.1-1.2.1zm-.3-6.3c-.6 0-1 .2-1.3.5-.3.4-.5.9-.6 1.5h3.6c0-.7-.1-1.2-.4-1.5s-.8-.5-1.3-.5zm7.8-.9c.3 0 .6 0 .8.1l-.1 1c-.3-.1-.5-.1-.8-.1-.6 0-1 .2-1.4.7-.4.5-.6 1-.6 1.7v3.7h-1.1v-7h.9l.1 1.3h.1c.3-.5.6-.8.9-1 .4-.2.8-.4 1.2-.4zM6.7 51.2c-1 0-1.8-.3-2.3-.9-.6-.6-.8-1.5-.8-2.6 0-1.2.3-2.1.8-2.7.6-.6 1.4-1 2.4-1 .3 0 .7 0 1 .1.3.1.6.2.8.3l-.3.9c-.2-.1-.5-.2-.8-.2S7 45 6.7 45c-1.4 0-2.1.9-2.1 2.7 0 .9.2 1.5.5 2s.9.7 1.5.7 1.2-.1 1.8-.4v.9c-.4.2-1 .3-1.7.3zm9.4-3.6c0 1.1-.3 2-.9 2.7s-1.4 1-2.4 1c-.6 0-1.2-.1-1.7-.4-.5-.3-.9-.7-1.1-1.3-.3-.5-.4-1.2-.4-1.9 0-1.1.3-2 .9-2.7s1.4-.9 2.4-.9 1.7.3 2.3 1c.6.6.9 1.4.9 2.5zm-5.3 0c0 .9.2 1.6.5 2 .4.5.9.7 1.6.7s1.2-.2 1.6-.7c.4-.5.5-1.1.5-2 0-.9-.2-1.6-.5-2-.4-.5-.9-.7-1.6-.7-.7 0-1.2.2-1.6.7s-.5 1.1-.5 2zm8.1-3.4v4.5c0 .6.1 1 .4 1.3s.7.4 1.2.4c.7 0 1.3-.2 1.6-.6.3-.4.5-1 .5-1.9v-3.7h1.1v7h-.9l-.2-.9h-.1c-.2.3-.5.6-.9.8-.4.2-.8.3-1.3.3-.8 0-1.5-.2-1.9-.6-.4-.4-.6-1-.6-1.9v-4.6h1.1zm10.2-.2c.3 0 .6 0 .8.1l-.1 1c-.3-.1-.5-.1-.8-.1-.6 0-1 .2-1.4.7-.4.5-.6 1-.6 1.7v3.7h-1.1v-7h.9l.1 1.3h.1c.3-.5.6-.8.9-1s.8-.4 1.2-.4zm6.6 5.2c0 .6-.2 1.1-.7 1.5-.5.4-1.2.5-2 .5-.9 0-1.6-.1-2.2-.4v-1c.3.2.7.3 1.1.4.4.1.8.1 1.1.1.6 0 1-.1 1.3-.3s.4-.4.4-.8c0-.3-.1-.5-.4-.7-.2-.2-.7-.4-1.4-.7-.6-.2-1.1-.5-1.4-.6-.3-.2-.5-.4-.6-.6-.1-.2-.2-.5-.2-.8 0-.6.2-1 .7-1.3s1.1-.5 1.9-.5c.7 0 1.5.2 2.2.5l-.4.9c-.7-.3-1.3-.4-1.9-.4-.5 0-.9.1-1.1.2s-.4.4-.4.6c0 .2 0 .3.1.5.1.1.2.3.5.4s.6.3 1.2.5c.8.3 1.4.6 1.7.9.4.3.5.7.5 1.1zm4.7 2c-1 0-1.8-.3-2.4-.9-.6-.6-.9-1.5-.9-2.6s.3-2 .8-2.7c.6-.7 1.3-1 2.2-1 .9 0 1.6.3 2.1.9s.8 1.3.8 2.3v.7h-4.8c0 .8.2 1.4.6 1.9.4.4.9.6 1.7.6.7 0 1.5-.2 2.2-.5v.9c-.4.2-.7.3-1.1.3-.3.1-.7.1-1.2.1zm-.3-6.3c-.6 0-1 .2-1.3.5-.3.4-.5.9-.6 1.5h3.6c0-.7-.1-1.2-.4-1.5s-.8-.5-1.3-.5zm10.3 6.2L49.1 47c-.1-.2-.2-.8-.5-1.7h-.1c-.2.7-.3 1.3-.4 1.7l-1.3 4.1h-1.2l-1.9-7h1.1c.4 1.7.8 3.1 1 4 .2.9.4 1.5.4 1.8h.1c0-.2.1-.6.2-.9.1-.4.2-.7.3-.9l1.3-4h1.1l1.2 4c.2.7.4 1.3.5 1.8h.1c0-.2.1-.4.1-.7.1-.3.5-2 1.3-5.1h1.1l-1.9 7h-1.2zm10.5-3.5c0 1.1-.3 2-.9 2.7s-1.4 1-2.4 1c-.6 0-1.2-.1-1.7-.4-.5-.3-.9-.7-1.1-1.3-.3-.5-.4-1.2-.4-1.9 0-1.1.3-2 .9-2.7s1.4-.9 2.4-.9 1.7.3 2.3 1c.6.6.9 1.4.9 2.5zm-5.3 0c0 .9.2 1.6.5 2 .4.5.9.7 1.6.7s1.2-.2 1.6-.7c.4-.5.5-1.1.5-2 0-.9-.2-1.6-.5-2-.4-.5-.9-.7-1.6-.7-.7 0-1.2.2-1.6.7s-.5 1.1-.5 2zM65.9 44c.3 0 .6 0 .8.1l-.1 1c-.3-.1-.6-.1-.8-.1-.6 0-1 .2-1.4.7-.4.5-.6 1-.6 1.7v3.7h-1.1v-7h.9l.1 1.3h.1c.3-.5.6-.8.9-1s.7-.4 1.2-.4zm3.2 3.6c.2-.3.5-.6.8-1l2.2-2.4h1.3l-2.8 3 3 4h-1.3l-2.5-3.3-.8.7v2.6h-1v-9.9h1v5.2c.1.2 0 .6.1 1.1zm6.8 2l.1.1c-.1.4-.3.9-.5 1.5s-.4 1.1-.6 1.6h-.8c.1-.4.2-1 .4-1.6.1-.6.2-1.2.3-1.6h1.1zm10.2.6c-.5.7-1.3 1.1-2.2 1.1-.9 0-1.6-.3-2.1-.9-.5-.6-.8-1.5-.8-2.7 0-1.1.3-2 .8-2.7s1.2-1 2.1-1c.9 0 1.7.3 2.2 1h.1v-3.8h1.1v9.9h-.9l-.3-.9zm-2.1.2c.7 0 1.2-.2 1.6-.6.3-.4.5-1 .5-1.9v-.2c0-1-.2-1.7-.5-2.1-.3-.4-.9-.6-1.6-.6-.6 0-1.1.2-1.4.7-.3.5-.5 1.2-.5 2 0 .9.2 1.6.5 2s.8.7 1.4.7zm5.3-8.1c0-.2.1-.4.2-.5s.3-.2.4-.2c.2 0 .3.1.4.2s.2.3.2.5-.1.4-.2.5-.2.2-.4.2-.3-.1-.4-.2-.2-.3-.2-.5zm1.1 8.8h-1.1v-7h1.1v7zm6.7-1.9c0 .6-.2 1.1-.7 1.5-.5.4-1.2.5-2 .5-.9 0-1.6-.1-2.2-.4v-1c.3.2.7.3 1.1.4.4.1.8.1 1.1.1.6 0 1-.1 1.3-.3s.4-.4.4-.8c0-.3-.1-.5-.4-.7-.2-.2-.7-.4-1.4-.7-.6-.2-1.1-.5-1.4-.6-.3-.2-.5-.4-.6-.6-.1-.2-.2-.5-.2-.8 0-.6.2-1 .7-1.3s1.2-.5 2-.5c.7 0 1.5.2 2.2.5l-.4.9c-.7-.3-1.3-.4-1.9-.4-.5 0-.9.1-1.1.2s-.4.4-.4.6c0 .2 0 .3.1.5.1.1.2.3.5.4s.6.3 1.2.5c.8.3 1.4.6 1.7.9.3.3.4.7.4 1.1zm6.2 0c0 .6-.2 1.1-.7 1.5-.5.4-1.2.5-2 .5-.9 0-1.6-.1-2.2-.4v-1c.3.2.7.3 1.1.4.4.1.8.1 1.1.1.6 0 1-.1 1.3-.3s.4-.4.4-.8c0-.3-.1-.5-.4-.7-.2-.2-.7-.4-1.4-.7-.6-.2-1.1-.5-1.4-.6-.3-.2-.5-.4-.6-.6-.1-.2-.2-.5-.2-.8 0-.6.2-1 .7-1.3s1.1-.5 1.9-.5c.7 0 1.5.2 2.2.5l-.4.9c-.7-.3-1.3-.4-1.9-.4-.5 0-.9.1-1.1.2s-.4.4-.4.6c0 .2 0 .3.1.5.1.1.2.3.5.4s.6.3 1.2.5c.8.3 1.4.6 1.7.9.4.3.5.7.5 1.1zm4.7 2c-1 0-1.8-.3-2.4-.9-.6-.6-.9-1.5-.9-2.6s.3-2 .8-2.7c.6-.7 1.3-1 2.2-1 .9 0 1.6.3 2.1.9s.8 1.3.8 2.3v.7h-4.8c0 .8.2 1.4.6 1.9.4.4.9.6 1.7.6.7 0 1.5-.2 2.2-.5v.9c-.4.2-.7.3-1.1.3-.3.1-.7.1-1.2.1zm-.3-6.3c-.6 0-1 .2-1.3.5-.3.4-.5.9-.6 1.5h3.6c0-.7-.1-1.2-.4-1.5s-.7-.5-1.3-.5zm7.8-.9c.3 0 .6 0 .8.1l-.1 1c-.3-.1-.5-.1-.8-.1-.6 0-1 .2-1.4.7-.4.5-.6 1-.6 1.7v3.7h-1.1v-7h.9l.1 1.3h.1c.3-.5.6-.8.9-1s.8-.4 1.2-.4zm4.4 6.4h.5c.1 0 .3-.1.4-.1v.8c-.1.1-.3.1-.5.1s-.4.1-.6.1c-1.3 0-2-.7-2-2.1V45h-1v-.5l1-.4.4-1.5h.6v1.6h2v.8h-2v4.1c0 .4.1.7.3 1s.6.3.9.3zm6.6.7l-.2-1h-.1c-.3.4-.7.7-1 .9-.3.2-.8.2-1.3.2-.7 0-1.2-.2-1.6-.5-.4-.4-.6-.9-.6-1.5 0-1.4 1.1-2.1 3.4-2.2h1.2v-.4c0-.5-.1-.9-.4-1.2-.2-.3-.6-.4-1.1-.4-.6 0-1.2.2-2 .5l-.3-.8c.3-.2.7-.3 1.1-.4.4-.1.8-.2 1.2-.2.8 0 1.4.2 1.8.6.4.4.6 1 .6 1.8v4.7h-.7zm-2.4-.7c.7 0 1.2-.2 1.5-.5.4-.4.6-.9.6-1.5v-.6h-1.1c-.8 0-1.4.2-1.8.4-.4.2-.6.6-.6 1.1 0 .4.1.7.3.9.4.1.7.2 1.1.2zm7.6 0h.5c.1 0 .3-.1.4-.1v.8c-.1.1-.3.1-.5.1s-.4.1-.6.1c-1.3 0-2-.7-2-2.1V45h-1v-.5l1-.4.4-1.5h.6v1.6h2v.8h-2v4.1c0 .4.1.7.3 1s.6.3.9.3zm2.3-8.1c0-.2.1-.4.2-.5s.3-.2.4-.2c.2 0 .3.1.4.2s.2.3.2.5-.1.4-.2.5-.3.2-.4.2c-.2 0-.3-.1-.4-.2s-.2-.3-.2-.5zm1.1 8.8H134v-7h1.1v7zm8.3-3.5c0 1.1-.3 2-.9 2.7s-1.4 1-2.4 1c-.6 0-1.2-.1-1.7-.4-.5-.3-.9-.7-1.1-1.3-.3-.5-.4-1.2-.4-1.9 0-1.1.3-2 .9-2.7s1.4-.9 2.4-.9 1.7.3 2.3 1c.6.6.9 1.4.9 2.5zm-5.3 0c0 .9.2 1.6.5 2 .4.5.9.7 1.6.7s1.2-.2 1.6-.7c.4-.5.5-1.1.5-2 0-.9-.2-1.6-.5-2-.4-.5-.9-.7-1.6-.7-.7 0-1.2.2-1.6.7s-.5 1.1-.5 2zm11.9 3.5v-4.5c0-.6-.1-1-.4-1.3s-.7-.4-1.2-.4c-.7 0-1.3.2-1.6.6s-.5 1-.5 1.9v3.7h-1.1v-7h.9l.2 1h.1c.2-.3.5-.6.9-.8s.8-.3 1.3-.3c.8 0 1.5.2 1.9.6s.6 1 .6 1.9V51H150zm4.3-1.5l.1.1c-.1.4-.3.9-.5 1.5s-.4 1.1-.6 1.6h-.8c.1-.4.2-1 .4-1.6.1-.6.2-1.2.3-1.6h1.1zm11.5-2c0 1.1-.3 2-.9 2.7s-1.4 1-2.4 1c-.6 0-1.2-.1-1.7-.4-.5-.3-.9-.7-1.1-1.3-.3-.5-.4-1.2-.4-1.9 0-1.1.3-2 .9-2.7s1.4-.9 2.4-.9 1.7.3 2.3 1c.6.6.9 1.4.9 2.5zm-5.4 0c0 .9.2 1.6.5 2 .4.5.9.7 1.6.7s1.2-.2 1.6-.7c.4-.5.5-1.1.5-2 0-.9-.2-1.6-.5-2-.4-.5-.9-.7-1.6-.7-.7 0-1.2.2-1.6.7s-.5 1.1-.5 2zm9.4 2.8h.5c.1 0 .3-.1.4-.1v.8c-.1.1-.3.1-.5.1s-.4.1-.6.1c-1.3 0-2-.7-2-2.1V45h-1v-.5l1-.4.4-1.5h.6v1.6h2v.8h-2v4.1c0 .4.1.7.3 1s.6.3.9.3zm7.1.7v-4.5c0-.6-.1-1-.4-1.3s-.7-.4-1.2-.4c-.7 0-1.3.2-1.6.6-.3.4-.5 1-.5 2v3.6h-1.1v-9.9h1.1v3c0 .4 0 .7-.1.9h.1c.2-.3.5-.6.9-.8.4-.2.8-.3 1.3-.3.9 0 1.5.2 1.9.6.4.4.6 1 .6 1.9V51h-1zm6.2.1c-1 0-1.8-.3-2.4-.9-.6-.6-.9-1.5-.9-2.6s.3-2 .8-2.7c.6-.7 1.3-1 2.2-1 .9 0 1.6.3 2.1.9s.8 1.3.8 2.3v.7h-4.8c0 .8.2 1.4.6 1.9.4.4.9.6 1.7.6.7 0 1.5-.2 2.2-.5v.9c-.4.2-.7.3-1.1.3-.3.1-.7.1-1.2.1zm-.3-6.3c-.6 0-1 .2-1.3.5-.3.4-.5.9-.6 1.5h3.6c0-.7-.1-1.2-.4-1.5s-.7-.5-1.3-.5zm7.8-.9c.3 0 .6 0 .8.1l-.1 1c-.3-.1-.5-.1-.8-.1-.6 0-1 .2-1.4.7-.4.5-.6 1-.6 1.7v3.7h-1.1v-7h.9l.1 1.3h.1c.3-.5.6-.8.9-1s.8-.4 1.2-.4zm6.7 5.2c0 .6-.2 1.1-.7 1.5-.5.4-1.2.5-2 .5-.9 0-1.6-.1-2.2-.4v-1c.3.2.7.3 1.1.4.4.1.8.1 1.1.1.6 0 1-.1 1.3-.3s.4-.4.4-.8c0-.3-.1-.5-.4-.7-.2-.2-.7-.4-1.4-.7-.6-.2-1.1-.5-1.4-.6-.3-.2-.5-.4-.6-.6-.1-.2-.2-.5-.2-.8 0-.6.2-1 .7-1.3s1.1-.5 1.9-.5c.7 0 1.5.2 2.2.5l-.4.9c-.7-.3-1.3-.4-1.9-.4-.5 0-.9.1-1.1.2s-.4.4-.4.6c0 .2 0 .3.1.5.1.1.2.3.5.4s.6.3 1.2.5c.8.3 1.4.6 1.7.9.3.3.5.7.5 1.1zm3.9-1.6c0 1.1-.2 2.1-.5 3.1s-.8 1.8-1.4 2.5h-1c.6-.8 1-1.7 1.4-2.7.3-1 .5-2 .5-3s-.2-2-.5-3-.8-1.9-1.4-2.7h1c.6.7 1.1 1.6 1.4 2.6s.5 2 .5 3.2zm11 0c0 1.1-.3 2-.9 2.7s-1.4 1-2.4 1c-.6 0-1.2-.1-1.7-.4-.5-.3-.9-.7-1.1-1.3-.3-.5-.4-1.2-.4-1.9 0-1.1.3-2 .9-2.7s1.4-1 2.4-1 1.7.3 2.3 1c.6.7.9 1.5.9 2.6zm-5.3 0c0 .9.2 1.6.5 2 .4.5.9.7 1.6.7s1.2-.2 1.6-.7c.4-.5.5-1.1.5-2 0-.9-.2-1.6-.5-2-.4-.5-.9-.7-1.6-.7-.7 0-1.2.2-1.6.7s-.5 1.1-.5 2zm10.3-3.6c.3 0 .6 0 .8.1l-.1 1c-.3-.1-.5-.1-.8-.1-.6 0-1 .2-1.4.7-.4.5-.6 1-.6 1.7v3.7H214v-7h.9l.1 1.3h.1c.3-.5.6-.8.9-1s.8-.4 1.2-.4zm10 5.2c0 .6-.2 1.1-.7 1.5-.5.4-1.2.5-2 .5-.9 0-1.6-.1-2.2-.4v-1c.3.2.7.3 1.1.4.4.1.8.1 1.1.1.6 0 1-.1 1.3-.3s.4-.4.4-.8c0-.3-.1-.5-.4-.7-.2-.2-.7-.4-1.4-.7-.6-.2-1.1-.5-1.4-.6-.3-.2-.5-.4-.6-.6-.1-.2-.2-.5-.2-.8 0-.6.2-1 .7-1.3s1.1-.5 1.9-.5c.7 0 1.5.2 2.2.5l-.4.9c-.7-.3-1.3-.4-1.9-.4-.5 0-.9.1-1.1.2s-.4.4-.4.6c0 .2 0 .3.1.5.1.1.2.3.5.4s.6.3 1.2.5c.8.3 1.4.6 1.7.9.4.3.5.7.5 1.1zm5 2c-.5 0-.9-.1-1.2-.3-.4-.2-.7-.4-.9-.8h-.1c.1.4.1.8.1 1.2v2.9H229v-10h.9l.1 1h.1c.3-.4.6-.7.9-.8s.8-.3 1.2-.3c.9 0 1.6.3 2.1.9.5.6.8 1.5.8 2.7 0 1.1-.3 2-.8 2.7-.5.5-1.2.8-2.1.8zm-.2-6.3c-.7 0-1.2.2-1.5.6s-.5 1-.5 1.9v.2c0 1 .2 1.7.5 2.1s.8.6 1.6.6c.6 0 1.1-.2 1.4-.7.3-.5.5-1.2.5-2 0-.9-.2-1.5-.5-2-.4-.4-.9-.7-1.5-.7zm7.8 6.3c-1 0-1.8-.3-2.4-.9-.6-.6-.9-1.5-.9-2.6s.3-2 .8-2.7c.6-.7 1.3-1 2.2-1 .9 0 1.6.3 2.1.9s.8 1.3.8 2.3v.7h-4.8c0 .8.2 1.4.6 1.9.4.4.9.6 1.7.6.7 0 1.5-.2 2.2-.5v.9c-.4.2-.7.3-1.1.3-.3.1-.7.1-1.2.1zm-.3-6.3c-.6 0-1 .2-1.3.5-.3.4-.5.9-.6 1.5h3.6c0-.7-.1-1.2-.4-1.5s-.7-.5-1.3-.5zm7.5 6.3c-1 0-1.8-.3-2.3-.9-.6-.6-.8-1.5-.8-2.6 0-1.2.3-2.1.8-2.7.6-.6 1.4-1 2.4-1 .3 0 .7 0 1 .1.3.1.6.2.8.3l-.3.9c-.2-.1-.5-.2-.8-.2s-.6-.1-.8-.1c-1.4 0-2.1.9-2.1 2.7 0 .9.2 1.5.5 2s.9.7 1.5.7 1.2-.1 1.8-.4v.9c-.4.2-1 .3-1.7.3zm3.3-8.9c0-.2.1-.4.2-.5s.3-.2.4-.2c.2 0 .3.1.4.2s.2.3.2.5-.1.4-.2.5-.3.2-.4.2c-.2 0-.3-.1-.4-.2s-.2-.3-.2-.5zm1.1 8.8h-1.1v-7h1.1v7zm5.4-6.1H255v6.1h-1V45h-1.2v-.5l1.2-.4v-.4c0-1.7.7-2.6 2.2-2.6.4 0 .8.1 1.3.2l-.3.8c-.4-.1-.8-.2-1-.2-.4 0-.7.1-.9.4s-.3.7-.3 1.3v.5h1.8v.9zm1.2-2.7c0-.2.1-.4.2-.5s.3-.2.4-.2c.2 0 .3.1.4.2s.2.3.2.5-.1.4-.2.5-.3.2-.4.2c-.2 0-.3-.1-.4-.2s-.2-.3-.2-.5zm1.1 8.8H258v-7h1.1v7zm5 .1c-1 0-1.8-.3-2.3-.9-.6-.6-.8-1.5-.8-2.6 0-1.2.3-2.1.8-2.7.6-.6 1.4-1 2.4-1 .3 0 .7 0 1 .1.3.1.6.2.8.3l-.3.9c-.2-.1-.5-.2-.8-.2s-.5-.1-.7-.1c-1.4 0-2.1.9-2.1 2.7 0 .9.2 1.5.5 2s.9.7 1.5.7 1.2-.1 1.8-.4v.9c-.5.2-1.1.3-1.8.3zm10.1 0c-.5 0-.9-.1-1.2-.3-.4-.2-.7-.4-.9-.8h-.1c.1.4.1.8.1 1.2v2.9H271v-10h.9l.1 1h.1c.3-.4.6-.7.9-.8s.8-.3 1.2-.3c.9 0 1.6.3 2.1.9.5.6.8 1.5.8 2.7 0 1.1-.3 2-.8 2.7-.5.5-1.2.8-2.1.8zm-.2-6.3c-.7 0-1.2.2-1.5.6s-.5 1-.5 1.9v.2c0 1 .2 1.7.5 2.1s.8.6 1.6.6c.6 0 1.1-.2 1.4-.7.3-.5.5-1.2.5-2 0-.9-.2-1.5-.5-2-.4-.4-.9-.7-1.5-.7zm9.2 6.2l-.2-1h-.1c-.3.4-.7.7-1 .9-.3.2-.8.2-1.3.2-.7 0-1.2-.2-1.6-.5-.4-.4-.6-.9-.6-1.5 0-1.4 1.1-2.1 3.4-2.2h1.2v-.4c0-.5-.1-.9-.4-1.2-.2-.3-.6-.4-1.1-.4-.6 0-1.2.2-2 .5l-.3-.8c.3-.2.7-.3 1.1-.4.4-.1.8-.2 1.2-.2.8 0 1.4.2 1.8.6.4.4.6 1 .6 1.8v4.7h-.7zm-2.4-.7c.7 0 1.2-.2 1.5-.5.4-.4.6-.9.6-1.5v-.6h-1.1c-.8 0-1.4.2-1.8.4-.4.2-.6.6-.6 1.1 0 .4.1.7.3.9.4.1.7.2 1.1.2zm8.5-6.4c.3 0 .6 0 .8.1l-.1 1c-.3-.1-.5-.1-.8-.1-.6 0-1 .2-1.4.7-.4.5-.6 1-.6 1.7v3.7h-1.1v-7h.9l.1 1.3h.1c.3-.5.6-.8.9-1s.8-.4 1.2-.4zm4.4 6.4h.5c.1 0 .3-.1.4-.1v.8c-.1.1-.3.1-.5.1s-.4.1-.6.1c-1.3 0-2-.7-2-2.1V45h-1v-.5l1-.4.4-1.5h.6v1.6h2v.8h-2v4.1c0 .4.1.7.3 1s.5.3.9.3zm6.8-1.2c0 .6-.2 1.1-.7 1.5-.5.4-1.2.5-2 .5-.9 0-1.6-.1-2.2-.4v-1c.3.2.7.3 1.1.4.4.1.8.1 1.1.1.6 0 1-.1 1.3-.3s.4-.4.4-.8c0-.3-.1-.5-.4-.7-.2-.2-.7-.4-1.4-.7-.6-.2-1.1-.5-1.4-.6-.3-.2-.5-.4-.6-.6-.1-.2-.2-.5-.2-.8 0-.6.2-1 .7-1.3s1.1-.5 1.9-.5c.7 0 1.5.2 2.2.5l-.4.9c-.7-.3-1.3-.4-1.9-.4-.5 0-.9.1-1.1.2s-.4.4-.4.6c0 .2 0 .3.1.5.1.1.2.3.5.4s.6.3 1.2.5c.8.3 1.4.6 1.7.9.4.3.5.7.5 1.1zm11.1-1.6c0 1.1-.3 2-.9 2.7s-1.4 1-2.4 1c-.6 0-1.2-.1-1.7-.4-.5-.3-.9-.7-1.1-1.3-.3-.5-.4-1.2-.4-1.9 0-1.1.3-2 .9-2.7s1.4-.9 2.4-.9 1.7.3 2.3 1c.6.6.9 1.4.9 2.5zm-5.3 0c0 .9.2 1.6.5 2 .4.5.9.7 1.6.7s1.2-.2 1.6-.7c.4-.5.5-1.1.5-2 0-.9-.2-1.6-.5-2-.4-.5-.9-.7-1.6-.7-.7 0-1.2.2-1.6.7s-.5 1.1-.5 2zm10.3-2.6h-1.8v6.1h-1.1V45h-1.2v-.5l1.2-.4v-.4c0-1.7.7-2.6 2.2-2.6.4 0 .8.1 1.3.2l-.3.8c-.4-.1-.8-.2-1-.2-.4 0-.7.1-.9.4s-.3.7-.3 1.3v.5h1.8v.9zm4.5-2.7c0-.2.1-.4.2-.5s.3-.2.4-.2c.2 0 .3.1.4.2s.2.3.2.5-.1.4-.2.5-.3.2-.4.2c-.2 0-.3-.1-.4-.2s-.2-.3-.2-.5zm1.2 8.8h-1.1v-7h1.1v7zm4.5-.7h.5c.1 0 .3-.1.4-.1v.8c-.1.1-.3.1-.5.1s-.4.1-.6.1c-1.3 0-2-.7-2-2.1V45h-1v-.5l1-.4.4-1.5h.6v1.6h2v.8h-2v4.1c0 .4.1.7.3 1s.5.3.9.3zm11.4.7l-1.3-4.1c-.1-.2-.2-.8-.5-1.7h-.1c-.2.7-.3 1.3-.4 1.7l-1.3 4.1h-1.2l-1.9-7h1.1c.4 1.7.8 3.1 1 4 .2.9.4 1.5.4 1.8h.1c0-.2.1-.6.2-.9.1-.4.2-.7.3-.9l1.3-4h1.1l1.2 4c.2.7.4 1.3.5 1.8h.1c0-.2.1-.4.1-.7.1-.3.5-2 1.3-5.1h1.1l-1.9 7h-1.2zm4.3-8.8c0-.2.1-.4.2-.5s.3-.2.4-.2c.2 0 .3.1.4.2s.2.3.2.5-.1.4-.2.5-.3.2-.4.2c-.2 0-.3-.1-.4-.2s-.2-.3-.2-.5zm1.1 8.8h-1.1v-7h1.1v7zm4.5-.7h.5c.1 0 .3-.1.4-.1v.8c-.1.1-.3.1-.5.1s-.4.1-.6.1c-1.3 0-2-.7-2-2.1V45h-1v-.5l1-.4.4-1.5h.6v1.6h2v.8h-2v4.1c0 .4.1.7.3 1s.6.3.9.3zm7.1.7v-4.5c0-.6-.1-1-.4-1.3s-.7-.4-1.2-.4c-.7 0-1.3.2-1.6.6-.3.4-.5 1-.5 2v3.6h-1.1v-9.9h1.1v3c0 .4 0 .7-.1.9h.1c.2-.3.5-.6.9-.8.4-.2.8-.3 1.3-.3.9 0 1.5.2 1.9.6.4.4.6 1 .6 1.9V51h-1zm9.3-3.5c0 1.1-.3 2-.9 2.7s-1.4 1-2.4 1c-.6 0-1.2-.1-1.7-.4-.5-.3-.9-.7-1.1-1.3-.3-.5-.4-1.2-.4-1.9 0-1.1.3-2 .9-2.7s1.4-.9 2.4-.9 1.7.3 2.3 1c.6.6.9 1.4.9 2.5zm-5.3 0c0 .9.2 1.6.5 2 .4.5.9.7 1.6.7s1.2-.2 1.6-.7c.4-.5.5-1.1.5-2 0-.9-.2-1.6-.5-2-.4-.5-.9-.7-1.6-.7-.7 0-1.2.2-1.6.7s-.5 1.1-.5 2zm8.1-3.4v4.5c0 .6.1 1 .4 1.3s.7.4 1.2.4c.7 0 1.3-.2 1.6-.6.3-.4.5-1 .5-1.9v-3.7h1.1v7h-.9l-.2-.9c-.2.3-.5.6-.9.8-.4.2-.8.3-1.3.3-.8 0-1.5-.2-1.9-.6-.4-.4-.6-1-.6-1.9v-4.6h1zm9.2 6.2h.5c.1 0 .3-.1.4-.1v.8c-.1.1-.3.1-.5.1s-.4.1-.6.1c-1.3 0-2-.7-2-2.1V45h-1v-.5l1-.4.4-1.5h.6v1.6h2v.8h-2v4.1c0 .4.1.7.3 1s.6.3.9.3zm9 .8c-.5 0-.9-.1-1.2-.3-.4-.2-.7-.4-.9-.8h-.1c.1.4.1.8.1 1.2v2.9h-1.1v-10h.9l.1 1h.1c.3-.4.6-.7.9-.8s.8-.3 1.2-.3c.9 0 1.6.3 2.1.9.5.6.8 1.5.8 2.7 0 1.1-.3 2-.8 2.7-.5.5-1.2.8-2.1.8zm-.2-6.3c-.7 0-1.2.2-1.5.6s-.5 1-.5 1.9v.2c0 1 .2 1.7.5 2.1s.8.6 1.6.6c.6 0 1.1-.2 1.4-.7.3-.5.5-1.2.5-2 0-.9-.2-1.5-.5-2-.4-.4-.8-.7-1.5-.7zm8.1-.9c.3 0 .6 0 .8.1l-.1 1c-.3-.1-.5-.1-.8-.1-.6 0-1 .2-1.4.7-.4.5-.6 1-.6 1.7v3.7h-1.1v-7h.9l.1 1.3h.1c.3-.5.6-.8.9-1s.8-.4 1.2-.4zm8.1 3.6c0 1.1-.3 2-.9 2.7s-1.4 1-2.4 1c-.6 0-1.2-.1-1.7-.4-.5-.3-.9-.7-1.1-1.3-.3-.5-.4-1.2-.4-1.9 0-1.1.3-2 .9-2.7s1.4-.9 2.4-.9 1.7.3 2.3 1c.6.6.9 1.4.9 2.5zm-5.3 0c0 .9.2 1.6.5 2 .4.5.9.7 1.6.7s1.2-.2 1.6-.7c.4-.5.5-1.1.5-2 0-.9-.2-1.6-.5-2-.4-.5-.9-.7-1.6-.7-.7 0-1.2.2-1.6.7s-.5 1.1-.5 2zm10.4 3.6c-.5 0-.9-.1-1.2-.3-.4-.2-.7-.4-.9-.8h-.1c.1.4.1.8.1 1.2v2.9h-1.1v-10h.9l.1 1h.1c.3-.4.6-.7.9-.8s.8-.3 1.2-.3c.9 0 1.6.3 2.1.9.5.6.8 1.5.8 2.7 0 1.1-.3 2-.8 2.7-.5.5-1.2.8-2.1.8zm-.1-6.3c-.7 0-1.2.2-1.5.6s-.5 1-.5 1.9v.2c0 1 .2 1.7.5 2.1s.8.6 1.6.6c.6 0 1.1-.2 1.4-.7.3-.5.5-1.2.5-2 0-.9-.2-1.5-.5-2-.4-.4-.9-.7-1.5-.7zm7.8 6.3c-1 0-1.8-.3-2.4-.9-.6-.6-.9-1.5-.9-2.6s.3-2 .8-2.7c.6-.7 1.3-1 2.2-1 .9 0 1.6.3 2.1.9s.8 1.3.8 2.3v.7H412c0 .8.2 1.4.6 1.9.4.4.9.6 1.7.6.7 0 1.5-.2 2.2-.5v.9c-.4.2-.7.3-1.1.3-.2.1-.7.1-1.1.1zm-.3-6.3c-.6 0-1 .2-1.3.5-.3.4-.5.9-.6 1.5h3.6c0-.7-.1-1.2-.4-1.5s-.8-.5-1.3-.5zm7.8-.9c.3 0 .6 0 .8.1l-.1 1c-.3-.1-.5-.1-.8-.1-.6 0-1 .2-1.4.7-.4.5-.6 1-.6 1.7v3.7h-1.1v-7h.9l.1 1.3h.1c.3-.5.6-.8.9-1s.8-.4 1.2-.4zm8.7 0c.3 0 .6 0 .8.1l-.1 1c-.3-.1-.5-.1-.8-.1-.6 0-1 .2-1.4.7-.4.5-.6 1-.6 1.7v3.7h-1.1v-7h.9l.1 1.3h.1c.3-.5.6-.8.9-1s.8-.4 1.2-.4zm5.1 7.2c-1 0-1.8-.3-2.4-.9-.6-.6-.9-1.5-.9-2.6s.3-2 .8-2.7c.6-.7 1.3-1 2.2-1 .9 0 1.6.3 2.1.9s.8 1.3.8 2.3v.7h-4.8c0 .8.2 1.4.6 1.9.4.4.9.6 1.7.6.7 0 1.5-.2 2.2-.5v.9c-.4.2-.7.3-1.1.3-.4.1-.8.1-1.2.1zm-.3-6.3c-.6 0-1 .2-1.3.5-.3.4-.5.9-.6 1.5h3.6c0-.7-.1-1.2-.4-1.5s-.8-.5-1.3-.5zm7.8.1h-1.8v6.1h-1.1V45H439v-.5l1.2-.4v-.4c0-1.7.7-2.6 2.2-2.6.4 0 .8.1 1.3.2l-.3.8c-.4-.1-.8-.2-1-.2-.4 0-.7.1-.9.4s-.3.7-.3 1.3v.5h1.8v.9zm4.2 6.2c-1 0-1.8-.3-2.4-.9-.6-.6-.9-1.5-.9-2.6s.3-2 .8-2.7c.6-.7 1.3-1 2.2-1 .9 0 1.6.3 2.1.9s.8 1.3.8 2.3v.7H445c0 .8.2 1.4.6 1.9.4.4.9.6 1.7.6.7 0 1.5-.2 2.2-.5v.9c-.4.2-.7.3-1.1.3-.3.1-.7.1-1.1.1zm-.3-6.3c-.6 0-1 .2-1.3.5-.3.4-.5.9-.6 1.5h3.6c0-.7-.1-1.2-.4-1.5s-.8-.5-1.3-.5zm7.8-.9c.3 0 .6 0 .8.1l-.1 1c-.3-.1-.5-.1-.8-.1-.6 0-1 .2-1.4.7-.4.5-.6 1-.6 1.7v3.7h-1.1v-7h.9l.1 1.3h.1c.3-.5.6-.8.9-1s.8-.4 1.2-.4zm5.1 7.2c-1 0-1.8-.3-2.4-.9-.6-.6-.9-1.5-.9-2.6s.3-2 .8-2.7c.6-.7 1.3-1 2.2-1 .9 0 1.6.3 2.1.9s.8 1.3.8 2.3v.7h-4.8c0 .8.2 1.4.6 1.9.4.4.9.6 1.7.6.7 0 1.5-.2 2.2-.5v.9c-.4.2-.7.3-1.1.3-.4.1-.8.1-1.2.1zm-.3-6.3c-.6 0-1 .2-1.3.5-.3.4-.5.9-.6 1.5h3.6c0-.7-.1-1.2-.4-1.5s-.8-.5-1.3-.5zm9.4 6.2v-4.5c0-.6-.1-1-.4-1.3s-.7-.4-1.2-.4c-.7 0-1.3.2-1.6.6s-.5 1-.5 1.9v3.7h-1.1v-7h.9l.2 1h.1c.2-.3.5-.6.9-.8s.8-.3 1.3-.3c.8 0 1.5.2 1.9.6s.6 1 .6 1.9V51H469zm6 .1c-1 0-1.8-.3-2.3-.9-.6-.6-.8-1.5-.8-2.6 0-1.2.3-2.1.8-2.7.6-.6 1.4-1 2.4-1 .3 0 .7 0 1 .1.3.1.6.2.8.3l-.3.9c-.2-.1-.5-.2-.8-.2s-.6-.1-.8-.1c-1.4 0-2.1.9-2.1 2.7 0 .9.2 1.5.5 2s.9.7 1.5.7 1.2-.1 1.8-.4v.9c-.4.2-1 .3-1.7.3zm3.3-8.9c0-.2.1-.4.2-.5s.3-.2.4-.2c.2 0 .3.1.4.2s.2.3.2.5-.1.4-.2.5-.3.2-.4.2c-.2 0-.3-.1-.4-.2s-.2-.3-.2-.5zm1.1 8.8h-1.1v-7h1.1v7zm7 0v-4.5c0-.6-.1-1-.4-1.3s-.7-.4-1.2-.4c-.7 0-1.3.2-1.6.6s-.5 1-.5 1.9v3.7h-1.1v-7h.9l.2 1h.1c.2-.3.5-.6.9-.8s.8-.3 1.3-.3c.8 0 1.5.2 1.9.6s.6 1 .6 1.9V51h-1.1zm8.9-6.9v.7l-1.3.2c.1.1.2.3.3.6s.1.5.1.8c0 .7-.2 1.2-.7 1.6s-1.1.6-1.9.6c-.2 0-.4 0-.6-.1-.4.2-.7.5-.7.9 0 .2.1.3.2.4s.4.1.8.1h1.2c.8 0 1.3.2 1.7.5.4.3.6.8.6 1.4 0 .8-.3 1.4-.9 1.8s-1.5.6-2.7.6c-.9 0-1.6-.2-2.1-.5s-.7-.8-.7-1.4c0-.4.1-.8.4-1.1.3-.3.7-.5 1.1-.6-.2-.1-.3-.2-.4-.4-.1-.2-.2-.4-.2-.6 0-.3.1-.5.2-.7.1-.2.3-.4.6-.6-.4-.1-.7-.4-.9-.8-.2-.4-.3-.8-.3-1.2 0-.8.2-1.3.7-1.8.5-.4 1.1-.6 1.9-.6.4 0 .7 0 1 .1h2.6zm-5.5 8.1c0 .4.2.7.5.9.3.2.8.3 1.4.3.9 0 1.5-.1 2-.4.4-.3.6-.6.6-1.1 0-.4-.1-.6-.3-.8-.2-.1-.7-.2-1.3-.2h-1.3c-.5 0-.9.1-1.1.3s-.5.6-.5 1zm.6-5.9c0 .5.1.9.4 1.1.3.3.7.4 1.1.4 1 0 1.5-.5 1.5-1.5s-.5-1.6-1.6-1.6c-.5 0-.9.1-1.1.4s-.3.7-.3 1.2zm6.2 4c0-.3.1-.5.2-.6.1-.1.3-.2.6-.2.2 0 .4.1.6.2.1.1.2.4.2.6 0 .3-.1.5-.2.6s-.3.2-.6.2c-.2 0-.4-.1-.5-.2-.2 0-.3-.2-.3-.6zm10 .7h-1.1v-8.3h-2.9v-1h7v1h-2.9v8.3zm9 0v-4.5c0-.6-.1-1-.4-1.3s-.7-.4-1.2-.4c-.7 0-1.3.2-1.6.6-.3.4-.5 1-.5 2v3.6h-1.1v-9.9h1.1v3c0 .4 0 .7-.1.9h.1c.2-.3.5-.6.9-.8.4-.2.8-.3 1.3-.3.9 0 1.5.2 1.9.6.4.4.6 1 .6 1.9V51h-1zm6.1.1c-1 0-1.8-.3-2.4-.9-.6-.6-.9-1.5-.9-2.6s.3-2 .8-2.7c.6-.7 1.3-1 2.2-1 .9 0 1.6.3 2.1.9s.8 1.3.8 2.3v.7h-4.8c0 .8.2 1.4.6 1.9.4.4.9.6 1.7.6.7 0 1.5-.2 2.2-.5v.9c-.4.2-.7.3-1.1.3-.3.1-.7.1-1.2.1zm-.3-6.3c-.6 0-1 .2-1.3.5-.3.4-.5.9-.6 1.5h3.6c0-.7-.1-1.2-.4-1.5s-.7-.5-1.3-.5zm12.2-2.2c-1 0-1.8.3-2.4 1-.6.7-.9 1.6-.9 2.8 0 1.2.3 2.2.9 2.8.6.7 1.4 1 2.4 1 .6 0 1.4-.1 2.2-.3v.9c-.6.2-1.4.4-2.4.4-1.4 0-2.4-.4-3.2-1.2-.7-.8-1.1-2-1.1-3.5 0-1 .2-1.8.5-2.5.4-.7.9-1.3 1.5-1.7.7-.4 1.5-.6 2.4-.6 1 0 1.8.2 2.6.5l-.5.9c-.6-.4-1.3-.5-2-.5zm10.1 4.9c0 1.1-.3 2-.9 2.7s-1.4 1-2.4 1c-.6 0-1.2-.1-1.7-.4-.5-.3-.9-.7-1.1-1.3-.3-.5-.4-1.2-.4-1.9 0-1.1.3-2 .9-2.7s1.4-.9 2.4-.9 1.7.3 2.3 1c.6.6.9 1.4.9 2.5zm-5.3 0c0 .9.2 1.6.5 2 .4.5.9.7 1.6.7s1.2-.2 1.6-.7c.4-.5.5-1.1.5-2 0-.9-.2-1.6-.5-2-.4-.5-.9-.7-1.6-.7-.7 0-1.2.2-1.6.7s-.5 1.1-.5 2zm16 3.5v-4.5c0-.6-.1-1-.4-1.2-.2-.3-.6-.4-1.1-.4-.7 0-1.1.2-1.5.6-.3.4-.5 1-.5 1.7v3.9h-1.1v-4.5c0-.6-.1-1-.4-1.2-.2-.3-.6-.4-1.1-.4-.7 0-1.1.2-1.5.6-.3.4-.5 1-.5 1.9v3.7h-1.1v-7h.9l.2 1h.1c.2-.3.5-.6.8-.8.4-.2.8-.3 1.2-.3 1.1 0 1.8.4 2.1 1.2h.1c.2-.4.5-.7.9-.9.4-.2.8-.3 1.3-.3.8 0 1.4.2 1.8.6.4.4.6 1 .6 1.9v4.5h-.8zm6.4.1c-.5 0-.9-.1-1.2-.3-.4-.2-.7-.4-.9-.8h-.1c.1.4.1.8.1 1.2v2.9h-1.1v-10h.9l.1 1h.1c.3-.4.6-.7.9-.8.4-.2.8-.3 1.2-.3.9 0 1.6.3 2.1.9.5.6.8 1.5.8 2.7 0 1.1-.3 2-.8 2.7s-1.2.8-2.1.8zm-.1-6.3c-.7 0-1.2.2-1.5.6-.3.4-.5 1-.5 1.9v.2c0 1 .2 1.7.5 2.1.3.4.8.6 1.6.6.6 0 1.1-.2 1.4-.7s.5-1.2.5-2c0-.9-.2-1.5-.5-2-.4-.4-.9-.7-1.5-.7zm9.1 6.2l-.2-1h-.1c-.3.4-.7.7-1 .9s-.8.2-1.3.2c-.7 0-1.2-.2-1.6-.5s-.6-.9-.6-1.5c0-1.4 1.1-2.1 3.4-2.2h1.2v-.4c0-.5-.1-.9-.4-1.2-.2-.3-.6-.4-1.1-.4-.6 0-1.2.2-2 .5l-.3-.8c.3-.2.7-.3 1.1-.4.4-.1.8-.2 1.2-.2.8 0 1.4.2 1.8.6.4.4.6 1 .6 1.8v4.7h-.7zm-2.3-.7c.7 0 1.2-.2 1.5-.5.4-.4.6-.9.6-1.5v-.6h-1.1c-.8 0-1.4.2-1.8.4s-.6.6-.6 1.1c0 .4.1.7.3.9s.6.2 1.1.2zm10.1.7v-4.5c0-.6-.1-1-.4-1.3-.3-.3-.7-.4-1.2-.4-.7 0-1.3.2-1.6.6s-.5 1-.5 1.9v3.7h-1.1v-7h.9l.2 1h.1c.2-.3.5-.6.9-.8.4-.2.8-.3 1.3-.3.8 0 1.5.2 1.9.6s.6 1 .6 1.9V51h-1.1zm2.1-6.9h1.1l1.5 4c.3.9.5 1.6.6 2h.1c.1-.2.2-.6.3-1.1s.8-2.1 1.7-4.8h1.1l-3 7.9c-.3.8-.6 1.3-1 1.7s-.9.5-1.5.5c-.3 0-.6 0-1-.1v-.8c.2.1.5.1.8.1.7 0 1.2-.4 1.5-1.2l.4-1-2.6-7.2zm10.9-1.9c0-.2.1-.4.2-.5s.3-.2.4-.2c.2 0 .3.1.4.2.1.1.2.3.2.5s-.1.4-.2.5c-.1.1-.3.2-.4.2-.2 0-.3-.1-.4-.2s-.2-.3-.2-.5zm1.2 8.8h-1.1v-7h1.1v7zm6.7-1.9c0 .6-.2 1.1-.7 1.5-.5.4-1.2.5-2 .5-.9 0-1.6-.1-2.2-.4v-1c.3.2.7.3 1.1.4s.8.1 1.1.1c.6 0 1-.1 1.3-.3.3-.2.4-.4.4-.8 0-.3-.1-.5-.4-.7-.2-.2-.7-.4-1.4-.7-.6-.2-1.1-.5-1.4-.6-.3-.2-.5-.4-.6-.6-.1-.2-.2-.5-.2-.8 0-.6.2-1 .7-1.3.5-.3 1.1-.5 1.9-.5.7 0 1.5.2 2.2.5l-.4.9c-.7-.3-1.3-.4-1.9-.4-.5 0-.9.1-1.1.2s-.4.4-.4.6c0 .2 0 .3.1.5.1.1.2.3.5.4.2.1.6.3 1.2.5.8.3 1.4.6 1.7.9s.5.7.5 1.1zm9.8 1.9v-4.5c0-.6-.1-1-.4-1.3-.3-.3-.7-.4-1.2-.4-.7 0-1.3.2-1.6.6s-.5 1-.5 1.9v3.7h-1.1v-7h.9l.2 1h.1c.2-.3.5-.6.9-.8.4-.2.8-.3 1.3-.3.8 0 1.5.2 1.9.6s.6 1 .6 1.9V51h-1.1zm9.2-3.5c0 1.1-.3 2-.9 2.7-.6.6-1.4 1-2.4 1-.6 0-1.2-.1-1.7-.4-.5-.3-.9-.7-1.1-1.3-.3-.5-.4-1.2-.4-1.9 0-1.1.3-2 .8-2.7.6-.6 1.4-.9 2.4-.9s1.7.3 2.3 1c.8.6 1 1.4 1 2.5zm-5.2 0c0 .9.2 1.6.5 2 .4.5.9.7 1.6.7s1.2-.2 1.6-.7c.4-.5.5-1.1.5-2 0-.9-.2-1.6-.5-2s-.9-.7-1.6-.7c-.7 0-1.2.2-1.6.7s-.5 1.1-.5 2zm9.3 2.8h.5c.2 0 .3-.1.4-.1v.8c-.1.1-.3.1-.5.1s-.4.1-.6.1c-1.3 0-2-.7-2-2.1V45h-1v-.5l1-.4.4-1.5h.6v1.6h2v.8h-2v4.1c0 .4.1.7.3 1 .3.2.6.3.9.3zm8.9-6.4c.3 0 .6 0 .8.1l-.1 1c-.3-.1-.5-.1-.8-.1-.6 0-1 .2-1.4.7-.4.5-.6 1-.6 1.7v3.7h-1.1v-7h.9l.1 1.3h.1c.3-.5.6-.8.9-1 .4-.2.8-.4 1.2-.4zm5.1 7.2c-1 0-1.8-.3-2.4-.9s-.9-1.5-.9-2.6.3-2 .8-2.7c.6-.7 1.3-1 2.2-1 .9 0 1.6.3 2.1.9s.8 1.3.8 2.3v.7h-4.8c0 .8.2 1.4.6 1.9.4.4.9.6 1.7.6.8 0 1.5-.2 2.2-.5v.9c-.4.2-.7.3-1.1.3-.3.1-.7.1-1.2.1zm-.3-6.3c-.6 0-1 .2-1.3.5-.3.4-.5.9-.6 1.5h3.6c0-.7-.1-1.2-.4-1.5s-.7-.5-1.3-.5zm9.2 4.3c0 .6-.2 1.1-.7 1.5-.5.4-1.2.5-2 .5-.9 0-1.6-.1-2.2-.4v-1c.3.2.7.3 1.1.4s.8.1 1.1.1c.6 0 1-.1 1.3-.3.3-.2.4-.4.4-.8 0-.3-.1-.5-.4-.7-.2-.2-.7-.4-1.4-.7-.6-.2-1.1-.5-1.4-.6-.3-.2-.5-.4-.6-.6-.1-.2-.2-.5-.2-.8 0-.6.2-1 .7-1.3.5-.3 1.1-.5 1.9-.5.7 0 1.5.2 2.2.5l-.4.9c-.7-.3-1.3-.4-1.9-.4-.5 0-.9.1-1.1.2s-.4.4-.4.6c0 .2 0 .3.1.5.1.1.2.3.5.4.2.1.6.3 1.2.5.8.3 1.4.6 1.7.9s.5.7.5 1.1zm4.9 2c-.5 0-.9-.1-1.2-.3-.4-.2-.7-.4-.9-.8h-.1c.1.4.1.8.1 1.2v2.9h-1.1v-10h.9l.1 1h.1c.3-.4.6-.7.9-.8.4-.2.8-.3 1.2-.3.9 0 1.6.3 2.1.9.5.6.8 1.5.8 2.7 0 1.1-.3 2-.8 2.7s-1.2.8-2.1.8zm-.2-6.3c-.7 0-1.2.2-1.5.6-.3.4-.5 1-.5 1.9v.2c0 1 .2 1.7.5 2.1.3.4.8.6 1.6.6.6 0 1.1-.2 1.4-.7s.5-1.2.5-2c0-.9-.2-1.5-.5-2-.4-.4-.8-.7-1.5-.7zm10.9 2.7c0 1.1-.3 2-.9 2.7-.6.6-1.4 1-2.4 1-.6 0-1.2-.1-1.7-.4-.5-.3-.9-.7-1.1-1.3-.3-.5-.4-1.2-.4-1.9 0-1.1.3-2 .8-2.7.6-.6 1.4-.9 2.4-.9s1.7.3 2.3 1c.7.6 1 1.4 1 2.5zm-5.3 0c0 .9.2 1.6.5 2 .4.5.9.7 1.6.7s1.2-.2 1.6-.7c.4-.5.5-1.1.5-2 0-.9-.2-1.6-.5-2s-.9-.7-1.6-.7c-.7 0-1.2.2-1.6.7s-.5 1.1-.5 2zm11.9 3.5v-4.5c0-.6-.1-1-.4-1.3-.3-.3-.7-.4-1.2-.4-.7 0-1.3.2-1.6.6s-.5 1-.5 1.9v3.7h-1v-7h.9l.2 1h.1c.2-.3.5-.6.9-.8.4-.2.8-.3 1.3-.3.8 0 1.5.2 1.9.6s.6 1 .6 1.9V51h-1.2zm7.7-1.9c0 .6-.2 1.1-.7 1.5-.5.4-1.2.5-2 .5-.9 0-1.6-.1-2.2-.4v-1c.3.2.7.3 1.1.4s.8.1 1.1.1c.6 0 1-.1 1.3-.3.3-.2.4-.4.4-.8 0-.3-.1-.5-.4-.7-.2-.2-.7-.4-1.4-.7-.6-.2-1.1-.5-1.4-.6-.3-.2-.5-.4-.6-.6-.1-.2-.2-.5-.2-.8 0-.6.2-1 .7-1.3.5-.3 1.1-.5 1.9-.5.7 0 1.5.2 2.2.5l-.4.9c-.7-.3-1.3-.4-1.9-.4-.5 0-.9.1-1.1.2s-.4.4-.4.6c0 .2 0 .3.1.5.1.1.2.3.5.4.2.1.6.3 1.2.5.8.3 1.4.6 1.7.9s.5.7.5 1.1zm1.7-6.9c0-.2.1-.4.2-.5s.3-.2.4-.2c.2 0 .3.1.4.2.1.1.2.3.2.5s-.1.4-.2.5c-.1.1-.3.2-.4.2-.2 0-.3-.1-.4-.2s-.2-.3-.2-.5zm1.1 8.8h-1.1v-7h1.1v7zm5.5-7.1c.9 0 1.6.3 2.1.9s.8 1.5.8 2.7-.3 2-.8 2.7-1.2.9-2.1.9c-.5 0-.9-.1-1.2-.3-.4-.2-.7-.4-.9-.8h-.1l-.2.9h-.8v-9.9h1.1v2.4c0 .5 0 1-.1 1.4h.1c.4-.5 1.1-.9 2.1-.9zm-.2.9c-.7 0-1.2.2-1.6.6-.3.4-.5 1.1-.5 2.1s.2 1.7.5 2.1c.3.4.8.6 1.6.6.6 0 1.1-.2 1.4-.7s.5-1.2.5-2c0-.9-.2-1.6-.5-2s-.7-.7-1.4-.7zm6 6.2h-1.1v-9.9h1.1v9.9zm5.1.1c-1 0-1.8-.3-2.4-.9s-.9-1.5-.9-2.6.3-2 .8-2.7c.6-.7 1.3-1 2.2-1 .9 0 1.6.3 2.1.9s.8 1.3.8 2.3v.7h-4.8c0 .8.2 1.4.6 1.9.4.4.9.6 1.7.6.8 0 1.5-.2 2.2-.5v.9c-.4.2-.7.3-1.1.3-.3.1-.7.1-1.2.1zm-.2-6.3c-.6 0-1 .2-1.3.5-.3.4-.5.9-.6 1.5h3.6c0-.7-.1-1.2-.4-1.5s-.8-.5-1.3-.5zm12.3 6.2l-.2-1h-.1c-.3.4-.7.7-1 .9s-.8.2-1.3.2c-.7 0-1.2-.2-1.6-.5s-.6-.9-.6-1.5c0-1.4 1.1-2.1 3.4-2.2h1.2v-.4c0-.5-.1-.9-.4-1.2-.2-.3-.6-.4-1.1-.4-.6 0-1.2.2-2 .5l-.3-.8c.3-.2.7-.3 1.1-.4.4-.1.8-.2 1.2-.2.8 0 1.4.2 1.8.6.4.4.6 1 .6 1.8v4.7h-.7zm-2.4-.7c.7 0 1.2-.2 1.5-.5.4-.4.6-.9.6-1.5v-.6h-1.1c-.8 0-1.4.2-1.8.4s-.6.6-.6 1.1c0 .4.1.7.3.9s.7.2 1.1.2zm10.1.7v-4.5c0-.6-.1-1-.4-1.3-.3-.3-.7-.4-1.2-.4-.7 0-1.3.2-1.6.6s-.5 1-.5 1.9v3.7h-1.1v-7h.9l.2 1h.1c.2-.3.5-.6.9-.8.4-.2.8-.3 1.3-.3.8 0 1.5.2 1.9.6s.6 1 .6 1.9V51h-1.1zm7.9-.9c-.5.7-1.3 1.1-2.2 1.1-.9 0-1.6-.3-2.1-.9-.5-.6-.8-1.5-.8-2.7 0-1.1.3-2 .8-2.7s1.2-1 2.1-1c.9 0 1.7.3 2.2 1h.1v-3.8h1.1v9.9h-.9l-.3-.9zm-2.1.2c.7 0 1.2-.2 1.6-.6.3-.4.5-1 .5-1.9v-.2c0-1-.2-1.7-.5-2.1s-.9-.6-1.6-.6c-.6 0-1.1.2-1.4.7s-.5 1.2-.5 2c0 .9.2 1.6.5 2s.8.7 1.4.7zm14.4.7l-1.3-4.1c-.1-.2-.2-.8-.5-1.7h-.1c-.2.7-.3 1.3-.4 1.7l-1.3 4.1h-1.2l-1.9-7h1.1c.4 1.7.8 3.1 1 4 .2.9.4 1.5.4 1.8h.1c0-.2.1-.6.2-.9s.2-.7.3-.9l1.3-4h1.1l1.2 4c.2.7.4 1.3.5 1.8h.1c0-.2.1-.4.1-.7.1-.3.5-2 1.3-5.1h1.1l-1.9 7h-1.2zm4.4-8.8c0-.2.1-.4.2-.5s.3-.2.4-.2c.2 0 .3.1.4.2.1.1.2.3.2.5s-.1.4-.2.5c-.1.1-.3.2-.4.2-.2 0-.3-.1-.4-.2s-.2-.3-.2-.5zm1.1 8.8H738v-7h1.1v7zm3.3 0h-1.1v-9.9h1.1v9.9zm3.3 0h-1.1v-9.9h1.1v9.9zm10.3 0v-4.5c0-.6-.1-1-.4-1.3-.3-.3-.7-.4-1.2-.4-.7 0-1.3.2-1.6.6s-.5 1-.5 1.9v3.7h-1.1v-7h.9l.2 1h.1c.2-.3.5-.6.9-.8.4-.2.8-.3 1.3-.3.8 0 1.5.2 1.9.6s.6 1 .6 1.9V51H756zm9.3-3.5c0 1.1-.3 2-.9 2.7-.6.6-1.4 1-2.4 1-.6 0-1.2-.1-1.7-.4-.5-.3-.9-.7-1.1-1.3-.3-.5-.4-1.2-.4-1.9 0-1.1.3-2 .8-2.7.6-.6 1.4-.9 2.4-.9s1.7.3 2.3 1c.7.6 1 1.4 1 2.5zm-5.3 0c0 .9.2 1.6.5 2 .4.5.9.7 1.6.7s1.2-.2 1.6-.7c.4-.5.5-1.1.5-2 0-.9-.2-1.6-.5-2s-.9-.7-1.6-.7c-.7 0-1.2.2-1.6.7s-.5 1.1-.5 2zm9.4 2.8h.5c.2 0 .3-.1.4-.1v.8c-.1.1-.3.1-.5.1s-.4.1-.6.1c-1.3 0-2-.7-2-2.1V45h-1v-.5l1-.4.4-1.5h.6v1.6h2v.8h-2v4.1c0 .4.1.7.3 1 .2.2.5.3.9.3zm8.9-6.4c.3 0 .6 0 .8.1l-.1 1c-.3-.1-.5-.1-.8-.1-.6 0-1 .2-1.4.7-.4.5-.6 1-.6 1.7v3.7h-1.1v-7h.9l.1 1.3h.1c.3-.5.6-.8.9-1 .3-.2.7-.4 1.2-.4zm5 7.2c-1 0-1.8-.3-2.4-.9s-.9-1.5-.9-2.6.3-2 .8-2.7c.6-.7 1.3-1 2.2-1 .9 0 1.6.3 2.1.9s.8 1.3.8 2.3v.7h-4.8c0 .8.2 1.4.6 1.9.4.4.9.6 1.7.6.8 0 1.5-.2 2.2-.5v.9c-.4.2-.7.3-1.1.3-.3.1-.7.1-1.2.1zm-.3-6.3c-.6 0-1 .2-1.3.5-.3.4-.5.9-.6 1.5h3.6c0-.7-.1-1.2-.4-1.5s-.7-.5-1.3-.5zm7.9 6.3c-.5 0-.9-.1-1.2-.3-.4-.2-.7-.4-.9-.8h-.1c.1.4.1.8.1 1.2v2.9h-1.1v-10h.9l.1 1h.1c.3-.4.6-.7.9-.8.4-.2.8-.3 1.2-.3.9 0 1.6.3 2.1.9.5.6.8 1.5.8 2.7 0 1.1-.3 2-.8 2.7s-1.2.8-2.1.8zm-.1-6.3c-.7 0-1.2.2-1.5.6-.3.4-.5 1-.5 1.9v.2c0 1 .2 1.7.5 2.1.3.4.8.6 1.6.6.6 0 1.1-.2 1.4-.7s.5-1.2.5-2c0-.9-.2-1.5-.5-2-.4-.4-.9-.7-1.5-.7zm10.8 2.7c0 1.1-.3 2-.9 2.7-.6.6-1.4 1-2.4 1-.6 0-1.2-.1-1.7-.4-.5-.3-.9-.7-1.1-1.3-.3-.5-.4-1.2-.4-1.9 0-1.1.3-2 .8-2.7.6-.6 1.4-.9 2.4-.9s1.7.3 2.3 1c.8.6 1 1.4 1 2.5zm-5.3 0c0 .9.2 1.6.5 2 .4.5.9.7 1.6.7s1.2-.2 1.6-.7c.4-.5.5-1.1.5-2 0-.9-.2-1.6-.5-2s-.9-.7-1.6-.7c-.7 0-1.2.2-1.6.7s-.5 1.1-.5 2zm10.4-3.6c.3 0 .6 0 .8.1l-.1 1c-.3-.1-.5-.1-.8-.1-.6 0-1 .2-1.4.7-.4.5-.6 1-.6 1.7v3.7h-1.1v-7h.9l.1 1.3h.1c.3-.5.6-.8.9-1 .3-.2.7-.4 1.2-.4zm4.3 6.4h.5c.2 0 .3-.1.4-.1v.8c-.1.1-.3.1-.5.1s-.4.1-.6.1c-1.3 0-2-.7-2-2.1V45h-1v-.5l1-.4.4-1.5h.6v1.6h2v.8h-2v4.1c0 .4.1.7.3 1 .3.2.6.3.9.3zm8 0h.5c.2 0 .3-.1.4-.1v.8c-.1.1-.3.1-.5.1s-.4.1-.6.1c-1.3 0-2-.7-2-2.1V45h-1v-.5l1-.4.4-1.5h.6v1.6h2v.8h-2v4.1c0 .4.1.7.3 1 .3.2.6.3.9.3zm8.4-2.8c0 1.1-.3 2-.9 2.7-.6.6-1.4 1-2.4 1-.6 0-1.2-.1-1.7-.4-.5-.3-.9-.7-1.1-1.3-.3-.5-.4-1.2-.4-1.9 0-1.1.3-2 .8-2.7.6-.6 1.4-.9 2.4-.9s1.7.3 2.3 1c.7.6 1 1.4 1 2.5zm-5.3 0c0 .9.2 1.6.5 2 .4.5.9.7 1.6.7s1.2-.2 1.6-.7c.4-.5.5-1.1.5-2 0-.9-.2-1.6-.5-2s-.9-.7-1.6-.7c-.7 0-1.2.2-1.6.7s-.5 1.1-.5 2zm14.8 3.5l-.2-1h-.1c-.3.4-.7.7-1 .9s-.8.2-1.3.2c-.7 0-1.2-.2-1.6-.5s-.6-.9-.6-1.5c0-1.4 1.1-2.1 3.4-2.2h1.2v-.4c0-.5-.1-.9-.4-1.2-.2-.3-.6-.4-1.1-.4-.6 0-1.2.2-2 .5l-.3-.8c.3-.2.7-.3 1.1-.4.4-.1.8-.2 1.2-.2.8 0 1.4.2 1.8.6.4.4.6 1 .6 1.8v4.7h-.7zm-2.4-.7c.7 0 1.2-.2 1.5-.5.4-.4.6-.9.6-1.5v-.6h-1.1c-.8 0-1.4.2-1.8.4s-.6.6-.6 1.1c0 .4.1.7.3.9s.7.2 1.1.2zm10.1.7v-4.5c0-.6-.1-1-.4-1.3-.3-.3-.7-.4-1.2-.4-.7 0-1.3.2-1.6.6s-.5 1-.5 1.9v3.7h-1.1v-7h.9l.2 1h.1c.2-.3.5-.6.9-.8.4-.2.8-.3 1.3-.3.8 0 1.5.2 1.9.6s.6 1 .6 1.9V51h-1.1zm2.1-6.9h1.1l1.5 4c.3.9.5 1.6.6 2h.1c.1-.2.2-.6.3-1.1s.8-2.1 1.7-4.8h1.1l-3 7.9c-.3.8-.6 1.3-1 1.7s-.9.5-1.5.5c-.3 0-.6 0-1-.1v-.8c.2.1.5.1.8.1.7 0 1.2-.4 1.5-1.2l.4-1-2.6-7.2zm13.3 6.2h.5c.2 0 .3-.1.4-.1v.8c-.1.1-.3.1-.5.1s-.4.1-.6.1c-1.3 0-2-.7-2-2.1V45h-1v-.5l1-.4.4-1.5h.6v1.6h2v.8h-2v4.1c0 .4.1.7.3 1 .3.2.5.3.9.3zm7.1.7v-4.5c0-.6-.1-1-.4-1.3-.3-.3-.7-.4-1.2-.4-.7 0-1.3.2-1.6.6-.3.4-.5 1-.5 2v3.6h-1.1v-9.9h1.1v3c0 .4 0 .7-.1.9h.1c.2-.3.5-.6.9-.8s.8-.3 1.3-.3c.9 0 1.5.2 1.9.6.4.4.6 1 .6 1.9V51h-1zm3.1-8.8c0-.2.1-.4.2-.5s.3-.2.4-.2c.2 0 .3.1.4.2.1.1.2.3.2.5s-.1.4-.2.5c-.1.1-.3.2-.4.2-.2 0-.3-.1-.4-.2s-.2-.3-.2-.5zm1.1 8.8h-1.1v-7h1.1v7zm5.5-7.1c.3 0 .6 0 .8.1l-.1 1c-.3-.1-.5-.1-.8-.1-.6 0-1 .2-1.4.7-.4.5-.6 1-.6 1.7v3.7h-1.1v-7h.9l.1 1.3h.1c.3-.5.6-.8.9-1 .3-.2.7-.4 1.2-.4zm6.8 6.2c-.5.7-1.3 1.1-2.2 1.1-.9 0-1.6-.3-2.1-.9-.5-.6-.8-1.5-.8-2.7 0-1.1.3-2 .8-2.7s1.2-1 2.1-1c.9 0 1.7.3 2.2 1h.1v-3.8h1.1v9.9h-.9l-.3-.9zm-2.1.2c.7 0 1.2-.2 1.6-.6.3-.4.5-1 .5-1.9v-.2c0-1-.2-1.7-.5-2.1s-.9-.6-1.6-.6c-.6 0-1.1.2-1.4.7s-.5 1.2-.5 2c0 .9.2 1.6.5 2s.8.7 1.4.7zM7.2 70.2c-.5 0-.9-.1-1.2-.3-.4-.2-.7-.4-.9-.8h-.2c0 .5.1.9.1 1.3v2.9H3.9V63.2h.9l.1 1H5c.3-.4.6-.7.9-.8s.8-.4 1.3-.4c.9 0 1.6.3 2.1.9.5.6.8 1.5.8 2.7 0 1.1-.3 2-.8 2.7-.5.6-1.2.9-2.1.9zM7 63.9c-.7 0-1.2.2-1.5.6s-.5 1-.5 1.9v.2c0 1 .2 1.7.5 2.1s.8.6 1.6.6c.6 0 1.1-.2 1.4-.7.3-.5.5-1.2.5-2 0-.9-.2-1.5-.5-2-.4-.4-.9-.7-1.5-.7zm9.2 6.2l-.2-1h-.1c-.3.4-.7.7-1 .9-.3.2-.8.2-1.3.2-.7 0-1.2-.2-1.6-.5-.4-.4-.6-.9-.6-1.5 0-1.4 1.1-2.1 3.4-2.2H16v-.4c0-.5-.1-.9-.4-1.2-.2-.3-.6-.4-1.1-.4-.6 0-1.2.2-2 .5l-.3-.8c.3-.2.7-.3 1.1-.4.4-.1.8-.2 1.2-.2.8 0 1.4.2 1.8.6.4.4.6 1 .6 1.8v4.7h-.7zm-2.4-.7c.7 0 1.2-.2 1.5-.5.4-.4.6-.9.6-1.5v-.6h-1.1c-.8 0-1.4.2-1.8.4-.4.2-.6.6-.6 1.1 0 .4.1.7.3.9.3.1.7.2 1.1.2zm8.5-6.4c.3 0 .6 0 .8.1l-.1 1c-.3-.1-.6-.1-.8-.1-.6 0-1 .2-1.4.7-.4.5-.6 1-.6 1.7v3.7h-1.1v-7h.9l.1 1.3h.1c.3-.5.6-.8.9-1s.8-.4 1.2-.4zm4.4 6.4h.5c.1 0 .3-.1.4-.1v.8c-.1.1-.3.1-.5.1s-.4.1-.6.1c-1.3 0-2-.7-2-2.1V64h-1v-.5l1-.4.4-1.5h.6v1.6h2v.8h-2v4.1c0 .4.1.7.3 1s.5.3.9.3zm2.2-8.1c0-.2.1-.4.2-.5s.3-.2.4-.2c.2 0 .3.1.4.2s.2.3.2.5-.1.4-.2.5-.2.2-.4.2-.3-.1-.4-.2-.2-.3-.2-.5zm1.2 8.8H29v-7h1.1v7zm5.1.1c-1 0-1.8-.3-2.4-.9-.6-.6-.9-1.5-.9-2.6s.3-2 .8-2.7c.6-.7 1.3-1 2.2-1 .9 0 1.6.3 2.1.9s.8 1.3.8 2.3v.7H33c0 .8.2 1.4.6 1.9.4.4.9.6 1.7.6.7 0 1.5-.2 2.2-.5v.9c-.4.2-.7.3-1.1.3-.3.1-.7.1-1.2.1zm-.2-6.3c-.6 0-1 .2-1.3.5-.3.4-.5.9-.6 1.5h3.6c0-.7-.1-1.2-.4-1.5s-.8-.5-1.3-.5zm9.1 4.3c0 .6-.2 1.1-.7 1.5-.5.4-1.2.5-2 .5-.9 0-1.6-.1-2.2-.4v-1c.3.2.7.3 1.1.4.4.1.8.1 1.1.1.6 0 1-.1 1.3-.3s.4-.4.4-.8c0-.3-.1-.5-.4-.7-.2-.2-.7-.4-1.4-.7-.6-.2-1.1-.5-1.4-.6-.3-.2-.5-.4-.6-.6-.1-.2-.2-.5-.2-.8 0-.6.2-1 .7-1.3s1.1-.5 1.9-.5c.7 0 1.5.2 2.2.5l-.4.9c-.7-.3-1.3-.4-1.9-.4-.5 0-.9.1-1.1.2s-.4.4-.4.6c0 .2 0 .3.1.5.1.1.2.3.5.4s.6.3 1.2.5c.8.3 1.4.6 1.7.9.3.3.5.7.5 1.1zm9.8 1c-.5.7-1.3 1.1-2.2 1.1-.9 0-1.6-.3-2.1-.9-.5-.6-.8-1.5-.8-2.7 0-1.1.3-2 .8-2.7s1.2-1 2.1-1c.9 0 1.7.3 2.2 1h.1v-3.8h1.1v9.9H54l-.1-.9zm-2.1.2c.7 0 1.2-.2 1.6-.6.3-.4.5-1 .5-1.9v-.2c0-1-.2-1.7-.5-2.1-.3-.4-.9-.6-1.6-.6-.6 0-1.1.2-1.4.7-.3.5-.5 1.2-.5 2 0 .9.2 1.6.5 2s.8.7 1.4.7zm6.3-6.2v4.5c0 .6.1 1 .4 1.3s.7.4 1.2.4c.7 0 1.3-.2 1.6-.6.3-.4.5-1 .5-1.9v-3.7h1.1v7H62l-.2-.9h-.1c-.2.3-.5.6-.9.8-.4.2-.8.3-1.3.3-.8 0-1.5-.2-1.9-.6-.4-.4-.6-1-.6-1.9v-4.6h1.1zm10 7c-1 0-1.8-.3-2.4-.9-.6-.6-.9-1.5-.9-2.6s.3-2 .8-2.7c.6-.7 1.3-1 2.2-1 .9 0 1.6.3 2.1.9s.8 1.3.8 2.3v.7h-4.8c0 .8.2 1.4.6 1.9.4.4.9.6 1.7.6.7 0 1.5-.2 2.2-.5v.9c-.4.2-.7.3-1.1.3-.4.1-.8.1-1.2.1zm-.3-6.3c-.6 0-1 .2-1.3.5-.3.4-.5.9-.6 1.5h3.6c0-.7-.1-1.2-.4-1.5s-.8-.5-1.3-.5zM78 69.4h.5c.1 0 .3-.1.4-.1v.8c-.1.1-.3.1-.5.1s-.4.1-.6.1c-1.3 0-2-.7-2-2.1V64h-1v-.5l1-.4.4-1.5h.6v1.6h2v.8h-2v4.1c0 .4.1.7.3 1s.6.3.9.3zm8.4-2.8c0 1.1-.3 2-.9 2.7s-1.4 1-2.4 1c-.6 0-1.2-.1-1.7-.4-.5-.3-.9-.7-1.1-1.3-.2-.6-.3-1.2-.3-2 0-1.1.3-2 .9-2.7s1.4-.9 2.4-.9 1.7.3 2.3 1c.5.7.8 1.5.8 2.6zm-5.3 0c0 .9.2 1.6.5 2 .4.5.9.7 1.6.7s1.2-.2 1.6-.7c.4-.5.5-1.1.5-2 0-.9-.2-1.6-.5-2-.4-.5-.9-.7-1.6-.7-.7 0-1.2.2-1.6.7s-.5 1.1-.5 2zm11.5-3.4v4.5c0 .6.1 1 .4 1.3s.7.4 1.2.4c.7 0 1.3-.2 1.6-.6.3-.4.5-1 .5-1.9v-3.7h1.1v7h-.9l-.2-.9h-.1c-.2.3-.5.6-.9.8-.4.2-.8.3-1.3.3-.8 0-1.5-.2-1.9-.6-.4-.4-.6-1-.6-1.9v-4.6h1.1zm11.7 6.9v-4.5c0-.6-.1-1-.4-1.3s-.7-.4-1.2-.4c-.7 0-1.3.2-1.6.6s-.5 1-.5 1.9v3.7h-1.1v-7h.9l.2 1h.1c.2-.3.5-.6.9-.8s.8-.3 1.3-.3c.8 0 1.5.2 1.9.6s.6 1 .6 1.9V70h-1.1zm7.5 0l-.2-1h-.1c-.3.4-.7.7-1 .9-.3.2-.8.2-1.3.2-.7 0-1.2-.2-1.6-.5-.4-.4-.6-.9-.6-1.5 0-1.4 1.1-2.1 3.4-2.2h1.2v-.4c0-.5-.1-.9-.4-1.2-.2-.3-.6-.4-1.1-.4-.6 0-1.2.2-2 .5l-.3-.8c.3-.2.7-.3 1.1-.4.4-.1.8-.2 1.2-.2.8 0 1.4.2 1.8.6.4.4.6 1 .6 1.8v4.7h-.7zm-2.3-.7c.7 0 1.2-.2 1.5-.5.4-.4.6-.9.6-1.5v-.6h-1.1c-.8 0-1.4.2-1.8.4-.4.2-.6.6-.6 1.1 0 .4.1.7.3.9.3.1.6.2 1.1.2zm6.3-6.2v4.5c0 .6.1 1 .4 1.3s.7.4 1.2.4c.7 0 1.3-.2 1.6-.6.3-.4.5-1 .5-1.9v-3.7h1.1v7h-.9l-.2-.9h-.1c-.2.3-.5.6-.9.8-.4.2-.8.3-1.3.3-.8 0-1.5-.2-1.9-.6-.4-.4-.6-1-.6-1.9v-4.6h1.1zm9.2 6.2h.5c.1 0 .3-.1.4-.1v.8c-.1.1-.3.1-.5.1s-.4.1-.6.1c-1.3 0-2-.7-2-2.1V64h-1v-.5l1-.4.4-1.5h.6v1.6h2v.8h-2v4.1c0 .4.1.7.3 1s.6.3.9.3zm7.1.7v-4.5c0-.6-.1-1-.4-1.3s-.7-.4-1.2-.4c-.7 0-1.3.2-1.6.6-.3.4-.5 1-.5 2v3.6h-1.1v-9.9h1.1v3c0 .4 0 .7-.1.9h.1c.2-.3.5-.6.9-.8.4-.2.8-.3 1.3-.3.9 0 1.5.2 1.9.6.4.4.6 1 .6 1.9V70h-1zm9.2-3.5c0 1.1-.3 2-.9 2.7s-1.4 1-2.4 1c-.6 0-1.2-.1-1.7-.4-.5-.3-.9-.7-1.1-1.3-.3-.5-.4-1.2-.4-1.9 0-1.1.3-2 .9-2.7s1.4-.9 2.4-.9 1.7.3 2.3 1c.7.6.9 1.4.9 2.5zm-5.3 0c0 .9.2 1.6.5 2 .4.5.9.7 1.6.7s1.2-.2 1.6-.7c.4-.5.5-1.1.5-2 0-.9-.2-1.6-.5-2-.4-.5-.9-.7-1.6-.7-.7 0-1.2.2-1.6.7s-.5 1.1-.5 2zm10.4-3.6c.3 0 .6 0 .8.1l-.1 1c-.3-.1-.5-.1-.8-.1-.6 0-1 .2-1.4.7-.4.5-.6 1-.6 1.7v3.7h-1.1v-7h.9l.1 1.3h.1c.3-.5.6-.8.9-1s.7-.4 1.2-.4zm2-1.7c0-.2.1-.4.2-.5s.3-.2.4-.2c.2 0 .3.1.4.2s.2.3.2.5-.1.4-.2.5-.2.2-.4.2-.3-.1-.4-.2-.2-.3-.2-.5zm1.2 8.8h-1.1v-7h1.1v7zm6.6 0h-5v-.7L155 64h-3.6v-.8h4.7v.8l-3.7 5.3h3.8v.8zm4.6.1c-1 0-1.8-.3-2.4-.9-.6-.6-.9-1.5-.9-2.6s.3-2 .8-2.7c.6-.7 1.3-1 2.2-1 .9 0 1.6.3 2.1.9s.8 1.3.8 2.3v.7h-4.8c0 .8.2 1.4.6 1.9.4.4.9.6 1.7.6.7 0 1.5-.2 2.2-.5v.9c-.4.2-.7.3-1.1.3-.3.1-.7.1-1.2.1zm-.3-6.3c-.6 0-1 .2-1.3.5-.3.4-.5.9-.6 1.5h3.6c0-.7-.1-1.2-.4-1.5s-.7-.5-1.3-.5zm9.4 5.3c-.5.7-1.3 1.1-2.2 1.1-.9 0-1.6-.3-2.1-.9-.5-.6-.8-1.5-.8-2.7 0-1.1.3-2 .8-2.7s1.2-1 2.1-1c.9 0 1.7.3 2.2 1h.1v-3.8h1.1v9.9H170l-.1-.9zm-2.1.2c.7 0 1.2-.2 1.6-.6.3-.4.5-1 .5-1.9v-.2c0-1-.2-1.7-.5-2.1-.3-.4-.9-.6-1.6-.6-.6 0-1.1.2-1.4.7-.3.5-.5 1.2-.5 2 0 .9.2 1.6.5 2s.8.7 1.4.7zm9.7-6.2v4.5c0 .6.1 1 .4 1.3s.7.4 1.2.4c.7 0 1.3-.2 1.6-.6.3-.4.5-1 .5-1.9v-3.7h1.1v7h-.9l-.2-.9h-.1c-.2.3-.5.6-.9.8-.4.2-.8.3-1.3.3-.8 0-1.5-.2-1.9-.6-.4-.4-.6-1-.6-1.9v-4.6h1.1zm9.2 6.2h.5c.1 0 .3-.1.4-.1v.8c-.1.1-.3.1-.5.1s-.4.1-.6.1c-1.3 0-2-.7-2-2.1V64h-1v-.5l1-.4.4-1.5h.6v1.6h2v.8h-2v4.1c0 .4.1.7.3 1s.6.3.9.3zm2.3-8.1c0-.2.1-.4.2-.5s.3-.2.4-.2c.2 0 .3.1.4.2s.2.3.2.5-.1.4-.2.5-.3.2-.4.2c-.2 0-.3-.1-.4-.2s-.2-.3-.2-.5zm1.1 8.8H189v-7h1.1v7zm3.3 0h-1.1v-9.9h1.1v9.9zm2.2-8.8c0-.2.1-.4.2-.5s.3-.2.4-.2c.2 0 .3.1.4.2s.2.3.2.5-.1.4-.2.5-.3.2-.4.2c-.2 0-.3-.1-.4-.2s-.2-.3-.2-.5zm1.1 8.8h-1.1v-7h1.1v7zm6.7 0h-5v-.7l3.8-5.4h-3.6v-.8h4.7v.8l-3.7 5.3h3.8v.8zm5.9 0l-.2-1h-.1c-.3.4-.7.7-1 .9-.3.2-.8.2-1.3.2-.7 0-1.2-.2-1.6-.5-.4-.4-.6-.9-.6-1.5 0-1.4 1.1-2.1 3.4-2.2h1.2v-.4c0-.5-.1-.9-.4-1.2-.2-.3-.6-.4-1.1-.4-.6 0-1.2.2-2 .5l-.3-.8c.3-.2.7-.3 1.1-.4.4-.1.8-.2 1.2-.2.8 0 1.4.2 1.8.6.4.4.6 1 .6 1.8v4.7h-.7zm-2.4-.7c.7 0 1.2-.2 1.5-.5.4-.4.6-.9.6-1.5v-.6h-1.1c-.8 0-1.4.2-1.8.4-.4.2-.6.6-.6 1.1 0 .4.1.7.3.9.4.1.7.2 1.1.2zm7.6 0h.5c.1 0 .3-.1.4-.1v.8c-.1.1-.3.1-.5.1s-.4.1-.6.1c-1.3 0-2-.7-2-2.1V64h-1v-.5l1-.4.4-1.5h.6v1.6h2v.8h-2v4.1c0 .4.1.7.3 1s.5.3.9.3zm2.2-8.1c0-.2.1-.4.2-.5s.3-.2.4-.2c.2 0 .3.1.4.2s.2.3.2.5-.1.4-.2.5-.3.2-.4.2c-.2 0-.3-.1-.4-.2s-.2-.3-.2-.5zm1.2 8.8h-1.1v-7h1.1v7zm8.2-3.5c0 1.1-.3 2-.9 2.7s-1.4 1-2.4 1c-.6 0-1.2-.1-1.7-.4-.5-.3-.9-.7-1.1-1.3-.3-.5-.4-1.2-.4-1.9 0-1.1.3-2 .9-2.7s1.4-.9 2.4-.9 1.7.3 2.3 1c.6.6.9 1.4.9 2.5zm-5.3 0c0 .9.2 1.6.5 2 .4.5.9.7 1.6.7s1.2-.2 1.6-.7c.4-.5.5-1.1.5-2 0-.9-.2-1.6-.5-2-.4-.5-.9-.7-1.6-.7-.7 0-1.2.2-1.6.7s-.5 1.1-.5 2zm11.9 3.5v-4.5c0-.6-.1-1-.4-1.3s-.7-.4-1.2-.4c-.7 0-1.3.2-1.6.6s-.5 1-.5 1.9v3.7h-1v-7h.9l.2 1h.1c.2-.3.5-.6.9-.8s.8-.3 1.3-.3c.8 0 1.5.2 1.9.6s.6 1 .6 1.9V70h-1.2zm12.6-3.5c0 1.1-.3 2-.9 2.7s-1.4 1-2.4 1c-.6 0-1.2-.1-1.7-.4-.5-.3-.9-.7-1.1-1.3-.3-.5-.4-1.2-.4-1.9 0-1.1.3-2 .9-2.7s1.4-.9 2.4-.9 1.7.3 2.3 1c.7.6.9 1.4.9 2.5zm-5.3 0c0 .9.2 1.6.5 2 .4.5.9.7 1.6.7s1.2-.2 1.6-.7c.4-.5.5-1.1.5-2 0-.9-.2-1.6-.5-2-.4-.5-.9-.7-1.6-.7-.7 0-1.2.2-1.6.7s-.5 1.1-.5 2zm10.3-2.6h-1.8v6.1h-1.1V64h-1.2v-.5l1.2-.4v-.4c0-1.7.7-2.6 2.2-2.6.4 0 .8.1 1.3.2l-.3.8c-.4-.1-.8-.2-1-.2-.4 0-.7.1-.9.4s-.3.7-.3 1.3v.5h1.8v.9zm4.6-2.7c0-.2.1-.4.2-.5s.3-.2.4-.2c.2 0 .3.1.4.2.1.1.2.3.2.5s-.1.4-.2.5c-.1.1-.3.2-.4.2-.2 0-.3-.1-.4-.2s-.2-.3-.2-.5zm1.1 8.8h-1v-7h1.1v7zm4.5-.7h.5c.1 0 .3-.1.4-.1v.8c-.1.1-.3.1-.5.1s-.4.1-.6.1c-1.3 0-2-.7-2-2.1V64h-1v-.5l1-.4.4-1.5h.6v1.6h2v.8h-2v4.1c0 .4.1.7.3 1s.6.3.9.3zm6.8-1.2c0 .6-.2 1.1-.7 1.5-.5.4-1.2.5-2 .5-.9 0-1.6-.1-2.2-.4v-1c.3.2.7.3 1.1.4.4.1.8.1 1.1.1.6 0 1-.1 1.3-.3s.4-.4.4-.8c0-.3-.1-.5-.4-.7-.2-.2-.7-.4-1.4-.7-.6-.2-1.1-.5-1.4-.6-.3-.2-.5-.4-.6-.6-.1-.2-.2-.5-.2-.8 0-.6.2-1 .7-1.3s1.1-.5 1.9-.5c.7 0 1.5.2 2.2.5l-.4.9c-.7-.3-1.3-.4-1.9-.4-.5 0-.9.1-1.1.2s-.4.4-.4.6c0 .2 0 .3.1.5.1.1.2.3.5.4s.6.3 1.2.5c.8.3 1.4.6 1.7.9.4.3.5.7.5 1.1zm10.8 1.9l-1.3-4.1c-.1-.2-.2-.8-.5-1.7h-.1c-.2.7-.3 1.3-.4 1.7l-1.3 4.1h-1.2l-1.9-7h1.1c.4 1.7.8 3.1 1 4 .2.9.4 1.5.4 1.8h.1c0-.2.1-.6.2-.9.1-.4.2-.7.3-.9l1.3-4h1.1l1.2 4c.2.7.4 1.3.5 1.8h.1c0-.2.1-.4.1-.7.1-.3.5-2 1.3-5.1h1.1l-1.9 7h-1.2zm10.4-3.5c0 1.1-.3 2-.9 2.7s-1.4 1-2.4 1c-.6 0-1.2-.1-1.7-.4-.5-.3-.9-.7-1.1-1.3-.3-.5-.4-1.2-.4-1.9 0-1.1.3-2 .9-2.7s1.4-.9 2.4-.9 1.7.3 2.3 1c.7.6.9 1.4.9 2.5zm-5.3 0c0 .9.2 1.6.5 2 .4.5.9.7 1.6.7s1.2-.2 1.6-.7c.4-.5.5-1.1.5-2 0-.9-.2-1.6-.5-2-.4-.5-.9-.7-1.6-.7-.7 0-1.2.2-1.6.7s-.5 1.1-.5 2zm10.4-3.6c.3 0 .6 0 .8.1l-.1 1c-.3-.1-.5-.1-.8-.1-.6 0-1 .2-1.4.7-.4.5-.6 1-.6 1.7v3.7h-1.1v-7h.9l.1 1.3h.1c.3-.5.6-.8.9-1s.7-.4 1.2-.4zm3.1 3.6c.2-.3.5-.6.8-1l2.2-2.4h1.3l-2.8 3 3 4H300l-2.5-3.3-.8.7v2.6h-1v-9.9h1v6.3zm10.3 1.6c0 .6-.2 1.1-.7 1.5-.5.4-1.2.5-2 .5-.9 0-1.6-.1-2.2-.4v-1c.3.2.7.3 1.1.4.4.1.8.1 1.1.1.6 0 1-.1 1.3-.3s.4-.4.4-.8c0-.3-.1-.5-.4-.7-.2-.2-.7-.4-1.4-.7-.6-.2-1.1-.5-1.4-.6-.3-.2-.5-.4-.6-.6-.1-.2-.2-.5-.2-.8 0-.6.2-1 .7-1.3s1.1-.5 1.9-.5c.7 0 1.5.2 2.2.5l-.4.9c-.7-.3-1.3-.4-1.9-.4-.5 0-.9.1-1.1.2s-.4.4-.4.6c0 .2 0 .3.1.5.1.1.2.3.5.4s.6.3 1.2.5c.8.3 1.4.6 1.7.9.4.3.5.7.5 1.1zm1.6 1.2c0-.3.1-.5.2-.6.1-.1.3-.2.6-.2.2 0 .4.1.6.2.1.1.2.4.2.6 0 .3-.1.5-.2.6s-.3.2-.6.2c-.2 0-.4-.1-.5-.2-.3 0-.3-.2-.3-.6z"/>
</svg>
