<svg xmlns="http://www.w3.org/2000/svg" viewBox="0 0 290 180">
  <path d="M21.7 5.6c0 1.4-.4 2.5-1.2 3.2S18.6 10 17.2 10h-2.4V1.4h2.6c1.3 0 2.4.4 3.1 1.1s1.2 1.8 1.2 3.1zm-1.1 0c0-1.1-.3-2-.8-2.5s-1.4-.8-2.5-.8h-1.4v6.8H17c1.2 0 2.1-.3 2.7-.9s.9-1.4.9-2.6zm2.7-3.8c0-.2.1-.4.2-.5s.2-.2.4-.2.3.1.4.2.2.3.2.5-.1.4-.2.5-.2.2-.4.2-.3-.1-.4-.2-.2-.3-.2-.5zm1.1 8.2h-1V3.5h1V10zm6.2-1.8c0 .6-.2 1.1-.7 1.4s-1.1.5-1.9.5c-.9 0-1.5-.1-2-.4v-.9c.3.2.6.3 1 .4s.7.1 1 .1c.5 0 .9-.1 1.2-.2s.4-.4.4-.7c0-.3-.1-.5-.3-.6s-.6-.5-1.2-.8c-.6-.2-1-.4-1.3-.6s-.4-.4-.6-.6-.2-.4-.2-.7c0-.5.2-.9.6-1.2s1-.5 1.8-.5c.7 0 1.4.1 2 .4l-.3.8c-.6-.3-1.2-.4-1.8-.4-.5 0-.8.1-1 .2s-.3.4-.3.6c0 .2 0 .3.1.4s.2.2.4.3.6.3 1.1.5c.8.3 1.3.6 1.5.8s.5.8.5 1.2zm4.2 1.9c-.9 0-1.6-.3-2.2-.9s-.8-1.4-.8-2.4c0-1.1.3-1.9.8-2.5s1.3-.9 2.2-.9c.3 0 .6 0 .9.1s.6.1.7.2l-.3.8c-.2-.1-.4-.2-.7-.2h-.6c-1.3 0-2 .8-2 2.5 0 .8.2 1.4.5 1.8s.8.6 1.4.6c.5 0 1.1-.1 1.6-.3v.9c-.4.2-.9.3-1.5.3zm4.1-.1h-1V.8h1V10zm6 0l-.2-1c-.3.4-.6.7-1 .8s-.7.2-1.2.2c-.6 0-1.1-.2-1.5-.5s-.5-.8-.5-1.4c0-1.3 1-2 3.1-2h1.1v-.4c0-.5-.1-.9-.3-1.1s-.6-.4-1-.4c-.5 0-1.1.2-1.8.5l-.4-.7c.3-.2.7-.3 1-.4s.8-.1 1.1-.1c.8 0 1.3.2 1.7.5s.6.9.6 1.6V10h-.7zm-2.2-.7c.6 0 1.1-.2 1.4-.5s.5-.8.5-1.4v-.6h-1c-.8 0-1.3.1-1.7.4s-.5.5-.5 1c0 .4.1.6.3.8s.6.3 1 .3zm4.8-7.5c0-.2.1-.4.2-.5s.2-.2.4-.2.3.1.4.2.2.3.2.5-.1.4-.2.5-.2.2-.4.2-.3-.1-.4-.2-.2-.3-.2-.5zm1.1 8.2h-1V3.5h1V10zm10.2 0V5.8c0-.5-.1-.9-.3-1.2s-.6-.4-1-.4c-.6 0-1.1.2-1.3.5s-.4.9-.4 1.6V10h-1V5.8c0-.5-.1-.9-.3-1.2s-.6-.4-1-.4c-.6 0-1.1.2-1.3.5s-.4 1-.4 1.8V10h-1V3.5h.8l.2.9c.2-.3.4-.6.8-.7s.7-.3 1.1-.3c1 0 1.7.4 2 1.1.2-.3.5-.6.8-.8s.8-.3 1.2-.3c.7 0 1.3.2 1.6.6s.5 1 .5 1.8V10h-1zm5.7.1c-.9 0-1.7-.3-2.2-.9s-.8-1.4-.8-2.4.3-1.9.8-2.5 1.2-.9 2.1-.9c.8 0 1.4.3 1.9.8s.7 1.2.7 2.1v.6h-4.4c0 .8.2 1.3.6 1.7s.9.6 1.5.6c.7 0 1.4-.1 2.1-.4v.9c-.3.1-.7.3-1 .3s-.9.1-1.3.1zm-.2-5.9c-.5 0-.9.2-1.2.5s-.5.8-.5 1.4H66c0-.6-.1-1.1-.4-1.4s-.8-.5-1.3-.5zm7.2-.8c.3 0 .5 0 .8.1l-.1.9c-.3-.1-.5-.1-.7-.1-.5 0-1 .2-1.3.6s-.6.9-.6 1.6V10h-1V3.5h.8l.1 1.2c.2-.4.5-.7.9-1s.7-.3 1.1-.3zm1.8.8c0-.5.2-.8.7-.8.5 0 .7.3.7.8 0 .3-.1.4-.2.6s-.3.1-.5.1-.4-.1-.5-.2-.2-.3-.2-.5zm0 5.1c0-.3.1-.5.2-.6s.3-.2.5-.2.4.1.5.2.2.3.2.6-.1.4-.2.6-.3.2-.5.2-.4-.1-.5-.2-.2-.3-.2-.6zm12 .7l-1.1-2.7h-3.4L79.7 10h-1l3.4-8.6h.8l3.4 8.6h-1zm-1.4-3.7l-1-2.7c-.1-.3-.3-.7-.4-1.2-.1.4-.2.8-.4 1.2l-1 2.7h2.8zm4.4 3.7h-1V.8h1V10zm3 0h-1V.8h1V10zm7.3-.7h.5c.2 0 .3-.1.4-.1v.7c-.1 0-.3.1-.5.1h-.6c-1.2 0-1.9-.7-1.9-2V4.3h-.9v-.5l.9-.4L97 2h.6v1.5h1.9v.8h-1.9v3.8c0 .4.1.7.3.9s.4.3.7.3zm6.6.7V5.8c0-.5-.1-.9-.4-1.2s-.6-.4-1.1-.4c-.7 0-1.2.2-1.5.6s-.5 1-.5 1.8V10h-1V.8h1v3.6h.1c.2-.3.5-.6.8-.7s.8-.3 1.2-.3c.8 0 1.4.2 1.8.6s.6 1 .6 1.8V10h-1zm5.6.1c-.9 0-1.7-.3-2.2-.9s-.8-1.4-.8-2.4.3-1.9.8-2.5 1.2-.9 2.1-.9c.8 0 1.4.3 1.9.8s.7 1.2.7 2.1v.6h-4.4c0 .8.2 1.3.6 1.7s.9.6 1.5.6c.7 0 1.4-.1 2.1-.4v.9c-.3.1-.7.3-1 .3s-.8.1-1.3.1zm-.2-5.9c-.5 0-.9.2-1.2.5s-.5.8-.5 1.4h3.4c0-.6-.1-1.1-.4-1.4s-.8-.5-1.3-.5zm10.3-.8c.3 0 .5 0 .8.1l-.1.9c-.3-.1-.5-.1-.7-.1-.5 0-1 .2-1.3.6s-.6.9-.6 1.6V10h-1V3.5h.8l.1 1.2c.2-.4.5-.7.9-1s.7-.3 1.1-.3zm4.7 6.7c-.9 0-1.7-.3-2.2-.9s-.8-1.4-.8-2.4.3-1.9.8-2.5 1.2-.9 2.1-.9c.8 0 1.4.3 1.9.8s.7 1.2.7 2.1v.6h-4.4c0 .8.2 1.3.6 1.7s.9.6 1.5.6c.7 0 1.4-.1 2.1-.4v.9c-.3.1-.7.3-1 .3s-.9.1-1.3.1zm-.3-5.9c-.5 0-.9.2-1.2.5s-.5.8-.5 1.4h3.4c0-.6-.1-1.1-.4-1.4s-.8-.5-1.3-.5zm8.5 4c0 .6-.2 1.1-.7 1.4s-1.1.5-1.9.5c-.9 0-1.5-.1-2-.4v-.9c.3.2.6.3 1 .4s.7.1 1 .1c.5 0 .9-.1 1.2-.2s.4-.4.4-.7c0-.3-.1-.5-.3-.6s-.6-.4-1.3-.6c-.6-.2-1-.4-1.3-.6s-.4-.4-.6-.6-.2-.5-.2-.8c0-.5.2-.9.6-1.2s1-.5 1.8-.5c.7 0 1.4.1 2 .4l-.3.8c-.6-.3-1.2-.4-1.8-.4-.5 0-.8.1-1 .2s-.4.3-.4.6c0 .2 0 .3.1.4s.2.2.4.3.6.3 1.1.5c.8.3 1.3.6 1.5.8s.7.7.7 1.1zm4.2 1.9c-.9 0-1.7-.3-2.2-.9s-.8-1.4-.8-2.4.3-1.9.8-2.5 1.2-.9 2.1-.9c.8 0 1.4.3 1.9.8s.7 1.2.7 2.1v.6H136c0 .8.2 1.3.6 1.7s.9.6 1.5.6c.7 0 1.4-.1 2.1-.4v.9c-.3.1-.7.3-1 .3s-.7.1-1.2.1zm-.2-5.9c-.5 0-.9.2-1.2.5s-.5.8-.5 1.4h3.4c0-.6-.1-1.1-.4-1.4s-.8-.5-1.3-.5zM146 10l-.2-1c-.3.4-.6.7-1 .8s-.7.2-1.2.2c-.6 0-1.1-.2-1.5-.5s-.5-.8-.5-1.4c0-1.3 1-2 3.1-2h1.1v-.4c0-.5-.1-.9-.3-1.1s-.6-.4-1-.4c-.5 0-1.1.2-1.8.5l-.4-.7c.3-.2.7-.3 1-.4s.8-.1 1.1-.1c.8 0 1.3.2 1.7.5s.6.9.6 1.6V10h-.7zm-2.2-.7c.6 0 1.1-.2 1.4-.5s.5-.8.5-1.4v-.6h-1c-.8 0-1.3.1-1.7.4s-.5.5-.5 1c0 .4.1.6.3.8s.6.3 1 .3zm7.9-5.9c.3 0 .5 0 .8.1l-.1.9c-.3-.1-.5-.1-.7-.1-.5 0-1 .2-1.3.6s-.6.9-.6 1.6V10h-1V3.5h.8l.1 1.2c.2-.4.5-.7.9-1s.7-.3 1.1-.3zm4.5 6.7c-.9 0-1.6-.3-2.2-.9s-.8-1.4-.8-2.4c0-1.1.3-1.9.8-2.5s1.3-.9 2.2-.9c.3 0 .6 0 .9.1s.6.1.7.2l-.3.8c-.2-.1-.4-.2-.7-.2s-.5-.1-.7-.1c-1.3 0-2 .8-2 2.5 0 .8.2 1.4.5 1.8s.8.6 1.4.6c.5 0 1.1-.1 1.6-.3v.9c-.2.3-.7.4-1.4.4zm7.5-.1V5.8c0-.5-.1-.9-.4-1.2s-.6-.4-1.1-.4c-.7 0-1.2.2-1.5.6s-.5 1-.5 1.8V10h-1V.8h1v3.6h.1c.2-.3.5-.6.8-.7s.8-.3 1.2-.3c.8 0 1.4.2 1.8.6s.6 1 .6 1.8V10h-1zm10.1 0l-.2-1c-.3.4-.6.7-1 .8s-.7.2-1.2.2c-.6 0-1.1-.2-1.5-.5s-.5-.8-.5-1.4c0-1.3 1-2 3.1-2h1.1v-.4c0-.5-.1-.9-.3-1.1s-.6-.4-1-.4c-.5 0-1.1.2-1.8.5l-.4-.7c.3-.2.7-.3 1-.4s.8-.1 1.1-.1c.8 0 1.3.2 1.7.5s.6.9.6 1.6V10h-.7zm-2.2-.7c.6 0 1.1-.2 1.4-.5s.5-.8.5-1.4v-.6h-1c-.8 0-1.3.1-1.7.4s-.5.5-.5 1c0 .4.1.6.3.8s.6.3 1 .3zm9.3.7V5.8c0-.5-.1-.9-.4-1.2s-.6-.4-1.1-.4c-.7 0-1.2.2-1.5.5s-.5 1-.5 1.8V10h-1V3.5h.8l.2.9c.2-.3.5-.6.8-.7s.8-.3 1.2-.3c.8 0 1.4.2 1.7.6s.6 1 .6 1.8V10h-.8zm7.3-.9c-.5.7-1.2 1-2.1 1-.8 0-1.5-.3-2-.9s-.7-1.4-.7-2.4.2-1.9.7-2.5 1.1-.9 2-.9c.9 0 1.5.3 2 .9h.1V.8h1V10h-.8l-.2-.9zm-1.9.2c.7 0 1.1-.2 1.4-.5s.4-.9.4-1.7v-.3c0-.9-.2-1.6-.5-1.9s-.8-.6-1.5-.6c-.6 0-1 .2-1.3.7s-.5 1.1-.5 1.9c0 .8.2 1.4.5 1.9s.9.5 1.5.5zm10.6.8c-.9 0-1.6-.3-2.2-.9s-.7-1.4-.7-2.4c0-1.1.3-1.9.8-2.5s1.3-.9 2.2-.9c.3 0 .6 0 .9.1s.6.1.7.2l-.3.8c-.2-.1-.4-.2-.7-.2s-.5-.1-.7-.1c-1.3 0-2 .8-2 2.5 0 .8.2 1.4.5 1.8s.8.6 1.4.6c.5 0 1.1-.1 1.6-.3v.9c-.3.3-.8.4-1.5.4zm4.1-6.6v4.2c0 .5.1.9.4 1.2s.6.4 1.1.4c.7 0 1.2-.2 1.5-.6s.5-1 .5-1.8V3.5h1V10h-.8l-.1-.9h-.1c-.2.3-.5.6-.8.7s-.8.3-1.2.3c-.8 0-1.4-.2-1.8-.6s-.6-1-.6-1.8V3.5h.9zm10.6 4.7c0 .6-.2 1.1-.7 1.4s-1.1.5-1.9.5c-.9 0-1.5-.1-2-.4v-.9c.3.2.6.3 1 .4s.7.1 1 .1c.5 0 .9-.1 1.2-.2s.4-.4.4-.7c0-.3-.1-.5-.3-.6s-.6-.5-1.3-.8c-.6-.2-1-.4-1.3-.6s-.4-.4-.6-.6-.1-.4-.1-.7c0-.5.2-.9.6-1.2s1-.5 1.8-.5c.7 0 1.4.1 2 .4l-.3.8c-.6-.3-1.2-.4-1.8-.4-.5 0-.8.1-1 .2s-.4.3-.4.6c0 .2 0 .3.1.4s.2.2.4.3.6.3 1.1.5c.8.3 1.3.6 1.5.8s.6.8.6 1.2zm3.6 1.1h.5c.2 0 .3-.1.4-.1v.7c-.1.1-.3.1-.5.1h-.6c-1.2 0-1.9-.7-1.9-2V4.3h-.9v-.5l.9-.4.4-1.4h.6v1.5h1.9v.8h-1.9v3.8c0 .4.1.7.3.9s.5.3.8.3zm7.7-2.6c0 1-.3 1.9-.8 2.5s-1.3.9-2.2.9c-.6 0-1.1-.1-1.5-.4s-.8-.7-1-1.2-.4-1.1-.4-1.8c0-1 .3-1.9.8-2.4s1.3-.9 2.2-.9c.9 0 1.6.3 2.1.9s.8 1.4.8 2.4zm-4.9 0c0 .8.2 1.4.5 1.9s.8.6 1.4.6 1.1-.2 1.5-.6.5-1.1.5-1.9c0-.8-.2-1.4-.5-1.9s-.8-.6-1.5-.6c-.6 0-1.1.2-1.4.6s-.5 1.1-.5 1.9zm14.8 3.3V5.8c0-.5-.1-.9-.3-1.2s-.6-.4-1-.4c-.6 0-1.1.2-1.3.5s-.4.9-.4 1.6V10h-1V5.8c0-.5-.1-.9-.3-1.2s-.6-.4-1-.4c-.6 0-1.1.2-1.3.5s-.4 1-.4 1.8V10h-1V3.5h.8l.2.9c.2-.3.4-.6.8-.7s.7-.3 1.1-.3c1 0 1.7.4 2 1.1.2-.3.5-.6.8-.8s.8-.3 1.2-.3c.7 0 1.3.2 1.6.6s.5 1 .5 1.8V10h-1zm11.4 0L243 6.2c-.1-.2-.2-.8-.4-1.6-.2.7-.3 1.2-.4 1.6L241 10h-1.1L238 3.5h1c.4 1.6.7 2.8.9 3.7s.3 1.4.4 1.7c0-.2.1-.5.2-.9s.2-.6.2-.8l1.2-3.7h1.1l1.1 3.7c.2.7.4 1.2.4 1.7 0-.1.1-.4.1-.7.1-.3.5-1.9 1.2-4.7h1L245 9.9h-.8zm7-6.6c.3 0 .5 0 .8.1l-.1.9c-.3-.1-.5-.1-.7-.1-.5 0-1 .2-1.3.6s-.6.9-.6 1.6V10h-1V3.5h.8l.1 1.2c.2-.4.5-.7.9-1s.7-.3 1.1-.3zm1.9-1.6c0-.2.1-.4.2-.5s.2-.2.4-.2.3.1.4.2.2.3.2.5-.1.4-.2.5-.2.2-.4.2-.3-.1-.4-.2-.2-.3-.2-.5zm1 8.2h-1V3.5h1V10zm4.2-.7h.5c.2 0 .3-.1.4-.1v.7c-.1.1-.3.1-.5.1h-.6c-1.2 0-1.9-.7-1.9-2V4.3h-.9v-.5l.9-.4.4-1.4h.6v1.5h1.9v.8h-1.9v3.8c0 .4.1.7.3.9s.4.3.8.3zm2-7.5c0-.2.1-.4.2-.5s.2-.2.4-.2.3.1.4.2.2.3.2.5-.1.4-.2.5-.2.2-.4.2-.3-.1-.4-.2-.2-.3-.2-.5zm1.1 8.2h-1V3.5h1V10zm6.4 0V5.8c0-.5-.1-.9-.4-1.2s-.6-.4-1.1-.4c-.7 0-1.2.2-1.5.5s-.5 1-.5 1.8V10h-1V3.5h.8l.2.9c.2-.3.5-.6.8-.7s.8-.3 1.2-.3c.8 0 1.4.2 1.7.6s.6 1 .6 1.8V10h-.8zm8.3-6.5v.6l-1.2.1c.1.1.2.3.3.5s.1.5.1.7c0 .6-.2 1.1-.6 1.5s-1 .6-1.8.6h-.5c-.4.2-.6.5-.6.8 0 .2.1.3.2.4s.4.1.7.1h1.1c.7 0 1.2.1 1.6.4s.6.7.6 1.3c0 .7-.3 1.3-.9 1.6s-1.4.6-2.5.6c-.8 0-1.5-.2-1.9-.5s-.7-.6-.7-1.2c0-.4.1-.7.4-1s.6-.5 1.1-.6c-.2-.1-.3-.2-.4-.3s-.2-.3-.2-.5.1-.4.2-.6c.1-.2.3-.3.6-.5-.3-.1-.6-.4-.8-.7s-.3-.7-.3-1.1c0-.7.2-1.2.6-1.6s1-.6 1.8-.6c.3 0 .6 0 .9.1h2.2zm-5.2 7.5c0 .3.1.6.4.8s.7.3 1.3.3c.8 0 1.4-.1 1.8-.4s.6-.6.6-1c0-.3-.1-.6-.3-.7s-.6-.2-1.2-.2h-1.2c-.4 0-.8.1-1 .3s-.4.5-.4.9zm.6-5.4c0 .4.1.8.4 1s.6.3 1.1.3c.9 0 1.4-.5 1.4-1.4 0-1-.5-1.4-1.4-1.4-.5 0-.8.1-1.1.4s-.4.6-.4 1.1zM6.8 26.2c0 .6-.2 1.1-.7 1.4s-1.1.5-1.9.5c-.9 0-1.5-.1-2-.4v-.9c.3.2.6.3 1 .4s.7.1 1 .1c.5 0 .9-.1 1.2-.2s.4-.4.4-.7c0-.3-.1-.5-.3-.6s-.6-.5-1.2-.8c-.6-.2-1-.4-1.3-.6s-.4-.4-.6-.6-.2-.5-.2-.8c0-.5.2-.9.6-1.2s1-.5 1.8-.5c.7 0 1.4.1 2 .4l-.3.8c-.6-.3-1.2-.4-1.8-.4-.5 0-.8.1-1 .2s-.3.5-.3.7c0 .2 0 .3.1.4s.2.2.4.3.6.3 1.1.5c.8.3 1.3.6 1.5.8s.5.8.5 1.2zm4.3 1.9c-.9 0-1.7-.3-2.2-.9S8 25.8 8 24.8s.3-1.9.8-2.5 1.2-.9 2.1-.9c.8 0 1.4.3 1.9.8s.7 1.2.7 2.1v.6H9c0 .8.2 1.3.6 1.7s.9.6 1.5.6c.7 0 1.4-.1 2.1-.4v.9c-.3.1-.7.3-1 .3s-.7.1-1.1.1zm-.3-5.9c-.5 0-.9.2-1.2.5s-.5.8-.5 1.4h3.4c0-.6-.1-1.1-.4-1.4s-.8-.5-1.3-.5zm7.3-.8c.3 0 .5 0 .8.1l-.1.9c-.3-.1-.5-.1-.7-.1-.5 0-1 .2-1.3.6s-.6.9-.6 1.6V28h-1v-6.4h.8l.1 1.2c.2-.4.5-.7.9-1s.7-.4 1.1-.4zm3.3 6.6L19 21.5h1l1.4 3.8c.3.9.5 1.5.6 1.7 0-.2.2-.6.4-1.3s.7-2.1 1.5-4.3h1L22.6 28h-1.2zm4.6-8.2c0-.2.1-.4.2-.5s.2-.2.4-.2.3.1.4.2.2.3.2.5-.1.4-.2.5-.2.2-.4.2-.3-.1-.4-.2-.2-.3-.2-.5zm1 8.2h-1v-6.4h1V28zm4.6.1c-.9 0-1.6-.3-2.2-.9s-.8-1.4-.8-2.4c0-1.1.3-1.9.8-2.5s1.3-.9 2.2-.9c.3 0 .6 0 .9.1s.6.1.7.2l-.3.8c-.2-.1-.4-.2-.7-.2s-.5-.1-.7-.1c-1.3 0-2 .8-2 2.5 0 .8.2 1.4.5 1.8s.8.6 1.4.6c.5 0 1.1-.1 1.6-.3v.9c-.2.3-.7.4-1.4.4zm5.9 0c-.9 0-1.7-.3-2.2-.9s-.8-1.4-.8-2.4.3-1.9.8-2.5 1.2-.9 2.1-.9c.8 0 1.4.3 1.9.8s.7 1.2.7 2.1v.6h-4.4c0 .8.2 1.3.6 1.7s.9.6 1.5.6c.7 0 1.4-.1 2.1-.4v.9c-.3.1-.7.3-1 .3s-.9.1-1.3.1zm-.3-5.9c-.5 0-.9.2-1.2.5s-.5.8-.5 1.4h3.4c0-.6-.1-1.1-.4-1.4s-.8-.5-1.3-.5zm8.5 4c0 .6-.2 1.1-.7 1.4s-1.1.5-1.9.5c-.9 0-1.5-.1-2-.4v-.9c.3.2.6.3 1 .4s.7.1 1 .1c.5 0 .9-.1 1.2-.2s.4-.4.4-.7c0-.3-.1-.5-.3-.6s-.6-.4-1.3-.6c-.6-.2-1-.4-1.3-.6s-.4-.4-.6-.6-.2-.5-.2-.8c0-.5.2-.9.6-1.2s1-.5 1.8-.5c.7 0 1.4.1 2 .4l-.3.8c-.6-.3-1.2-.4-1.8-.4-.5 0-.8.1-1 .2s-.3.3-.3.5 0 .3.1.4.2.2.4.3.6.3 1.1.5c.8.3 1.3.6 1.5.8s.6.8.6 1.2zm7.6 1.9c-.4 0-.8-.1-1.1-.2s-.6-.4-.9-.7h-.1c0 .4.1.7.1 1.1v2.6h-1v-9.3h.8l.1.9c.3-.4.5-.6.9-.8s.7-.2 1.1-.2c.9 0 1.5.3 2 .9s.7 1.4.7 2.4c0 1.1-.2 1.9-.7 2.5s-1 .8-1.9.8zm-.1-5.9c-.7 0-1.1.2-1.4.5s-.4.9-.5 1.7v.2c0 .9.2 1.5.5 1.9s.8.6 1.4.6c.6 0 1-.2 1.3-.7s.5-1.1.5-1.9c0-.8-.2-1.4-.5-1.8s-.7-.5-1.3-.5zm7.4-.8c.3 0 .5 0 .8.1l-.1.9c-.3-.1-.5-.1-.7-.1-.5 0-1 .2-1.3.6s-.6.9-.6 1.6V28h-1v-6.4h.8l.1 1.2c.2-.4.5-.7.9-1s.7-.4 1.1-.4zm7.6 3.3c0 1-.3 1.9-.8 2.5s-1.3.9-2.2.9c-.6 0-1.1-.1-1.5-.4s-.8-.7-1-1.2-.4-1.1-.4-1.8c0-1 .3-1.9.8-2.4s1.3-.9 2.2-.9c.9 0 1.6.3 2.1.9s.8 1.4.8 2.4zm-4.9 0c0 .8.2 1.4.5 1.9s.8.6 1.4.6 1.1-.2 1.5-.6.5-1.1.5-1.9c0-.8-.2-1.4-.5-1.9s-.8-.6-1.5-.6c-.6 0-1.1.2-1.4.6s-.5 1.1-.5 1.9zm8 3.3l-2.4-6.4h1l1.4 3.8c.3.9.5 1.5.6 1.7 0-.2.2-.6.4-1.3s.7-2.1 1.5-4.3h1L72.4 28h-1.1zm4.5-8.2c0-.2.1-.4.2-.5s.2-.2.4-.2.3.1.4.2.2.3.2.5-.1.4-.2.5-.2.2-.4.2-.3-.1-.4-.2-.2-.3-.2-.5zm1 8.2h-1v-6.4h1V28zm6.5-.9c-.5.7-1.2 1-2.1 1-.8 0-1.5-.3-2-.9s-.7-1.4-.7-2.4.2-1.9.7-2.5 1.1-.9 2-.9c.9 0 1.5.3 2 .9h.1v-3.6h1V28h-.8l-.2-.9zm-2 .2c.7 0 1.1-.2 1.4-.5s.4-.9.4-1.7v-.2c0-.9-.2-1.6-.5-1.9s-.8-.6-1.5-.6c-.6 0-1 .2-1.3.7s-.5 1.1-.5 1.9c0 .8.2 1.4.5 1.9s.9.4 1.5.4zm7.7.8c-.9 0-1.7-.3-2.2-.9s-.8-1.4-.8-2.4.3-1.9.8-2.5 1.2-.9 2.1-.9c.8 0 1.4.3 1.9.8s.7 1.2.7 2.1v.6h-4.4c0 .8.2 1.3.6 1.7s.9.6 1.5.6c.7 0 1.4-.1 2.1-.4v.9c-.3.1-.7.3-1 .3s-.9.1-1.3.1zm-.3-5.9c-.5 0-.9.2-1.2.5s-.5.8-.5 1.4h3.4c0-.6-.1-1.1-.4-1.4s-.8-.5-1.3-.5zm8.7 4.9c-.5.7-1.2 1-2.1 1-.8 0-1.5-.3-2-.9s-.7-1.4-.7-2.4.2-1.9.7-2.5 1.1-.9 2-.9c.9 0 1.5.3 2 .9h.1v-3.6h1V28h-.8l-.2-.9zm-2 .2c.7 0 1.1-.2 1.4-.5s.4-.9.4-1.7v-.2c0-.9-.2-1.6-.5-1.9s-.8-.6-1.5-.6c-.6 0-1 .2-1.3.7s-.5 1.1-.5 1.9c0 .8.2 1.4.5 1.9s.9.4 1.5.4zm11-5.9c.8 0 1.5.3 2 .9s.7 1.4.7 2.4-.2 1.9-.7 2.5-1.1.9-2 .9c-.4 0-.8-.1-1.1-.2s-.6-.4-.9-.7h-.1l-.2.8h-.7v-9.1h1v3.5c.5-.7 1.2-1 2-1zm-.1.8c-.7 0-1.1.2-1.4.6s-.4 1-.4 1.9.2 1.5.5 1.9.8.6 1.4.6c.6 0 1-.2 1.3-.7s.4-1.1.4-1.9c0-.8-.1-1.5-.4-1.9s-.8-.5-1.4-.5zm3.5-.7h1l1.4 3.7c.3.8.5 1.4.6 1.8.1-.2.2-.5.3-1s.7-2 1.6-4.5h1l-2.8 7.3c-.3.7-.6 1.2-1 1.5s-.8.5-1.3.5c-.3 0-.6 0-.9-.1V30c.2 0 .5.1.7.1.7 0 1.1-.4 1.4-1.1l.4-.9-2.4-6.6zm12.3 5.8h.5c.2 0 .3-.1.4-.1v.7c-.1.1-.3.1-.5.1h-.6c-1.2 0-1.9-.7-1.9-2v-3.8h-.9v-.5l.9-.4.4-1.4h.6v1.5h1.9v.8H121V26c0 .4.1.7.3.9s.4.4.8.4zm6.5.7v-4.2c0-.5-.1-.9-.4-1.2s-.6-.4-1.1-.4c-.7 0-1.2.2-1.5.6s-.5 1-.5 1.8V28h-1v-9.1h1v3.6h.1c.2-.3.5-.6.8-.7s.8-.3 1.2-.3c.8 0 1.4.2 1.8.6s.6 1 .6 1.8V28h-1zm5.7.1c-.9 0-1.7-.3-2.2-.9s-.8-1.4-.8-2.4.3-1.9.8-2.5 1.2-.9 2.1-.9c.8 0 1.4.3 1.9.8s.7 1.2.7 2.1v.6h-4.4c0 .8.2 1.3.6 1.7s.9.6 1.5.6c.7 0 1.4-.1 2.1-.4v.9c-.3.1-.7.3-1 .3s-.9.1-1.3.1zm-.3-5.9c-.5 0-.9.2-1.2.5s-.5.8-.5 1.4h3.4c0-.6-.1-1.1-.4-1.4s-.8-.5-1.3-.5zm11.2-2c-.9 0-1.7.3-2.2.9s-.8 1.5-.8 2.6.3 2 .8 2.6 1.3.9 2.2.9c.6 0 1.3-.1 2-.3v.9c-.6.2-1.3.3-2.2.3-1.3 0-2.2-.4-2.9-1.1s-1-1.9-1-3.3c0-.9.2-1.7.5-2.3s.8-1.2 1.4-1.5 1.4-.5 2.2-.5c.9 0 1.7.2 2.4.5l-.4.9c-.7-.5-1.3-.6-2-.6zm9.3 4.5c0 1-.3 1.9-.8 2.5s-1.3.9-2.2.9c-.6 0-1.1-.1-1.5-.4s-.8-.7-1-1.2-.4-1.1-.4-1.8c0-1 .3-1.9.8-2.4s1.3-.9 2.2-.9c.9 0 1.6.3 2.1.9s.8 1.4.8 2.4zm-4.9 0c0 .8.2 1.4.5 1.9s.8.6 1.4.6 1.1-.2 1.5-.6.5-1.1.5-1.9c0-.8-.2-1.4-.5-1.9s-.8-.6-1.5-.6c-.6 0-1.1.2-1.4.6s-.5 1.1-.5 1.9zm14.8 3.3v-4.2c0-.5-.1-.9-.3-1.2s-.6-.4-1-.4c-.6 0-1.1.2-1.3.5s-.4.9-.4 1.6V28h-1v-4.2c0-.5-.1-.9-.3-1.2s-.6-.4-1-.4c-.6 0-1.1.2-1.3.5s-.4 1-.4 1.8V28h-1v-6.4h.8l.2.9c.2-.3.4-.6.8-.7s.7-.3 1.1-.3c1 0 1.7.4 2 1.1.2-.3.5-.6.8-.8s.8-.3 1.2-.3c.7 0 1.3.2 1.6.6s.5 1 .5 1.8V28h-1zm6 .1c-.4 0-.8-.1-1.1-.2s-.6-.4-.9-.7h-.1c0 .4.1.7.1 1.1v2.6h-1v-9.3h.8l.1.9c.3-.4.5-.6.9-.8s.7-.2 1.1-.2c.9 0 1.5.3 2 .9s.7 1.4.7 2.4c0 1.1-.2 1.9-.7 2.5s-1.1.8-1.9.8zm-.1-5.9c-.7 0-1.1.2-1.4.5s-.4.9-.5 1.7v.2c0 .9.2 1.5.5 1.9s.8.6 1.4.6c.6 0 1-.2 1.3-.7s.5-1.1.5-1.9c0-.8-.2-1.4-.5-1.8s-.8-.5-1.3-.5zm8.4 5.8l-.2-.9c-.3.4-.6.7-1 .8s-.7.2-1.2.2c-.6 0-1.1-.2-1.5-.5s-.5-.8-.5-1.4c0-1.3 1-2 3.1-2h1.1v-.4c0-.5-.1-.9-.3-1.1s-.6-.4-1-.4c-.5 0-1.1.2-1.8.5l-.4-.8c.3-.2.7-.3 1-.4s.8-.1 1.1-.1c.8 0 1.3.2 1.7.5s.6.9.6 1.6V28h-.7zm-2.2-.7c.6 0 1.1-.2 1.4-.5s.5-.8.5-1.4v-.6h-1c-.8 0-1.3.1-1.7.4s-.5.5-.5 1c0 .4.1.6.3.8s.6.3 1 .3zm9.3.7v-4.2c0-.5-.1-.9-.4-1.2s-.6-.4-1.1-.4c-.7 0-1.2.2-1.5.5s-.5 1-.5 1.8V28h-1v-6.4h.8l.2.9c.2-.3.5-.6.8-.7s.8-.3 1.2-.3c.8 0 1.4.2 1.7.6s.6 1 .6 1.8V28h-.8zm2-6.5h1l1.4 3.7c.3.8.5 1.4.6 1.8.1-.2.2-.5.3-1s.7-2 1.6-4.5h1l-2.8 7.3c-.3.7-.6 1.2-1 1.5s-.8.5-1.3.5c-.3 0-.6 0-.9-.1V30c.2 0 .5.1.7.1.7 0 1.1-.4 1.4-1.1l.4-.9-2.4-6.6zm14.6 6.5v-4.2c0-.5-.1-.9-.4-1.2s-.6-.4-1.1-.4c-.7 0-1.2.2-1.5.6s-.5 1-.5 1.8V28h-1v-9.1h1v3.6h.1c.2-.3.5-.6.8-.7s.8-.3 1.2-.3c.8 0 1.4.2 1.8.6s.6 1 .6 1.8V28h-1zm6.9 0l-.2-.9c-.3.4-.6.7-1 .8s-.7.2-1.2.2c-.6 0-1.1-.2-1.5-.5s-.5-.8-.5-1.4c0-1.3 1-2 3.1-2h1.1v-.4c0-.5-.1-.9-.3-1.1s-.6-.4-1-.4c-.5 0-1.1.2-1.8.5l-.3-.7c.3-.2.7-.3 1-.4s.8-.1 1.1-.1c.8 0 1.3.2 1.7.5s.6.9.6 1.6V28h-.8zm-2.2-.7c.6 0 1.1-.2 1.4-.5s.5-.8.5-1.4v-.6h-1c-.8 0-1.3.1-1.7.4s-.5.5-.5 1c0 .4.1.6.3.8s.6.3 1 .3zm6.3.7l-2.4-6.4h1l1.4 3.8c.3.9.5 1.5.6 1.7 0-.2.2-.6.4-1.3s.7-2.1 1.5-4.3h1l-2.4 6.4h-1.1zm7.3.1c-.9 0-1.7-.3-2.2-.9s-.8-1.4-.8-2.4.3-1.9.8-2.5 1.2-.9 2.1-.9c.8 0 1.4.3 1.9.8s.7 1.2.7 2.1v.6h-4.4c0 .8.2 1.3.6 1.7s.9.6 1.5.6c.7 0 1.4-.1 2.1-.4v.9c-.3.1-.7.3-1 .3s-.8.1-1.3.1zm-.2-5.9c-.5 0-.9.2-1.2.5s-.5.8-.5 1.4h3.4c0-.6-.1-1.1-.4-1.4s-.8-.5-1.3-.5zm8.3 5.8h-1v-9.1h1V28zm2-8.2c0-.2.1-.4.2-.5s.2-.2.4-.2.3.1.4.2.2.3.2.5-.1.4-.2.5-.2.2-.4.2-.3-.1-.4-.2-.2-.3-.2-.5zm1.1 8.2h-1v-6.4h1V28zm10.2 0v-4.2c0-.5-.1-.9-.3-1.2s-.6-.4-1-.4c-.6 0-1.1.2-1.3.5s-.4.9-.4 1.6V28h-1v-4.2c0-.5-.1-.9-.3-1.2s-.6-.4-1-.4c-.6 0-1.1.2-1.3.5s-.4 1-.4 1.8V28h-1v-6.4h.8l.2.9c.2-.3.4-.6.8-.7s.7-.3 1.1-.3c1 0 1.7.4 2 1.1.2-.3.5-.6.8-.8s.8-.3 1.2-.3c.7 0 1.3.2 1.6.6s.5 1 .5 1.8V28h-1zm2.9-8.2c0-.2.1-.4.2-.5s.2-.2.4-.2.3.1.4.2.2.3.2.5-.1.4-.2.5-.2.2-.4.2-.3-.1-.4-.2-.2-.3-.2-.5zm1.1 8.2h-1v-6.4h1V28zm4.1-.7h.5c.2 0 .3-.1.4-.1v.7c-.1.1-.3.1-.5.1h-.6c-1.2 0-1.9-.7-1.9-2v-3.8h-.9v-.5l.9-.4.4-1.4h.6v1.5h1.9v.8h-1.9V26c0 .4.1.7.3.9s.5.4.8.4zm4.9.8c-.9 0-1.7-.3-2.2-.9s-.8-1.4-.8-2.4.3-1.9.8-2.5 1.2-.9 2.1-.9c.8 0 1.4.3 1.9.8s.7 1.2.7 2.1v.6H253c0 .8.2 1.3.6 1.7s.9.6 1.5.6c.7 0 1.4-.1 2.1-.4v.9c-.3.1-.7.3-1 .3s-.7.1-1.1.1zm-.3-5.9c-.5 0-.9.2-1.2.5s-.5.8-.5 1.4h3.4c0-.6-.1-1.1-.4-1.4s-.8-.5-1.3-.5zm8.7 4.9c-.5.7-1.2 1-2.1 1-.8 0-1.5-.3-2-.9s-.7-1.4-.7-2.4.2-1.9.7-2.5 1.1-.9 2-.9c.9 0 1.5.3 2 .9h.1v-3.6h1V28h-.8l-.2-.9zm-2 .2c.7 0 1.1-.2 1.4-.5s.4-.9.4-1.7v-.2c0-.9-.2-1.6-.5-1.9s-.8-.6-1.5-.6c-.6 0-1 .2-1.3.7s-.5 1.1-.5 1.9c0 .8.2 1.4.5 1.9s.9.4 1.5.4zm9-5.8v4.2c0 .5.1.9.4 1.2s.6.4 1.1.4c.7 0 1.2-.2 1.5-.6s.5-1 .5-1.8v-3.4h1V28h-.8l-.1-.9h-.1c-.2.3-.5.6-.8.7s-.8.3-1.2.3c-.8 0-1.4-.2-1.8-.6s-.6-1-.6-1.8v-4.2h.9zm10.6 4.7c0 .6-.2 1.1-.7 1.4s-1.1.5-1.9.5c-.9 0-1.5-.1-2-.4v-.9c.3.2.6.3 1 .4s.7.1 1 .1c.5 0 .9-.1 1.2-.2s.4-.4.4-.7c0-.3-.1-.5-.3-.6s-.6-.4-1.3-.6c-.6-.2-1-.4-1.3-.6s-.4-.4-.6-.6-.2-.5-.2-.8c0-.5.2-.9.6-1.2s1-.5 1.8-.5c.7 0 1.4.1 2 .4l-.3.8c-.6-.3-1.2-.4-1.8-.4-.5 0-.8.1-1 .2s-.4.3-.4.6c0 .2 0 .3.1.4s.2.2.4.3.6.3 1.1.5c.8.3 1.3.6 1.5.8s.7.7.7 1.1zm4.3 1.9c-.9 0-1.7-.3-2.2-.9s-.8-1.4-.8-2.4.3-1.9.8-2.5 1.2-.9 2.1-.9c.8 0 1.4.3 1.9.8s.7 1.2.7 2.1v.6h-4.4c0 .8.2 1.3.6 1.7s.9.6 1.5.6c.7 0 1.4-.1 2.1-.4v.9c-.3.1-.7.3-1 .3s-.9.1-1.3.1zm-.3-5.9c-.5 0-.9.2-1.2.5s-.5.8-.5 1.4h3.4c0-.6-.1-1.1-.4-1.4s-.8-.5-1.3-.5zM42.6 46l-.2-1c-.3.4-.6.7-1 .8s-.7.2-1.2.2c-.6 0-1.1-.2-1.5-.5s-.5-.8-.5-1.4c0-1.3 1-2 3.1-2h1.1v-.4c0-.5-.1-.9-.3-1.1s-.6-.4-1-.4c-.5 0-1.1.2-1.8.5l-.4-.7c.3-.2.7-.3 1-.4s.8-.1 1.1-.1c.8 0 1.3.2 1.7.5s.6.9.6 1.6V46h-.7zm-2.2-.7c.6 0 1.1-.2 1.4-.5s.5-.8.5-1.4v-.6h-1c-.8 0-1.3.1-1.7.4s-.5.5-.5 1c0 .4.1.6.3.8s.6.3 1 .3zm9.1-1.1c0 .6-.2 1.1-.7 1.4s-1.1.5-1.9.5c-.9 0-1.5-.1-2-.4v-.9c.3.2.6.3 1 .4s.7.1 1 .1c.5 0 .9-.1 1.2-.2s.4-.4.4-.7c0-.3-.1-.5-.3-.6s-.6-.5-1.2-.8c-.6-.2-1-.4-1.3-.6s-.4-.4-.6-.6-.2-.5-.2-.8c0-.5.2-.9.6-1.2s1-.5 1.8-.5c.7 0 1.4.1 2 .4l-.3.9c-.6-.3-1.2-.4-1.8-.4-.5 0-.8.1-1 .2s-.4.3-.4.6c0 .2 0 .3.1.4s.2.2.4.3.6.3 1.1.5c.8.3 1.3.6 1.5.8s.6.8.6 1.2zm8.8 0c0 .6-.2 1.1-.7 1.4s-1.1.5-1.9.5c-.9 0-1.5-.1-2-.4v-.9c.3.2.6.3 1 .4s.7.1 1 .1c.5 0 .9-.1 1.2-.2s.4-.4.4-.7c0-.3-.1-.5-.3-.6s-.6-.4-1.3-.6c-.6-.2-1-.4-1.3-.6s-.4-.4-.6-.6-.2-.5-.2-.8c0-.5.2-.9.6-1.2s1-.5 1.8-.5c.7 0 1.4.1 2 .4l-.3.8c-.6-.3-1.2-.4-1.8-.4-.5 0-.8.1-1 .2s-.4.3-.4.6c0 .2 0 .3.1.4s.2.2.4.3.6.3 1.1.5c.8.3 1.3.6 1.5.8s.7.7.7 1.1zm3.7 1.1h.5c.2 0 .3-.1.4-.1v.7c-.1.1-.3.1-.5.1h-.6c-1.2 0-1.9-.7-1.9-2v-3.8H59v-.5l.9-.4.4-1.4h.7v1.5h1.9v.8H61V44c0 .4.1.7.3.9s.4.4.7.4zm6.1.7l-.2-1c-.3.4-.6.7-1 .8s-.7.2-1.2.2c-.6 0-1.1-.2-1.5-.5s-.5-.8-.5-1.4c0-1.3 1-2 3.1-2h1.1v-.4c0-.5-.1-.9-.3-1.1s-.6-.4-1-.4c-.5 0-1.1.2-1.8.5l-.4-.7c.3-.2.7-.3 1-.4s.8-.1 1.1-.1c.8 0 1.3.2 1.7.5s.6.9.6 1.6V46h-.7zm-2.2-.7c.6 0 1.1-.2 1.4-.5s.5-.8.5-1.4v-.6h-1c-.8 0-1.3.1-1.7.4s-.5.5-.5 1c0 .4.1.6.3.8s.6.3 1 .3zm7 0h.5c.2 0 .3-.1.4-.1v.7c-.1.1-.3.1-.5.1h-.6c-1.2 0-1.9-.7-1.9-2v-3.8H70v-.5l.9-.4.4-1.4h.6v1.5h1.9v.8h-1.9V44c0 .4.1.7.3.9s.4.4.7.4zm4.9.8c-.9 0-1.7-.3-2.2-.9s-.8-1.4-.8-2.4.3-1.9.8-2.5 1.2-.9 2.1-.9c.8 0 1.4.3 1.9.8s.7 1.2.7 2.1v.6h-4.4c0 .8.2 1.3.6 1.7s.9.6 1.5.6c.7 0 1.4-.1 2.1-.4v.9c-.3.1-.7.3-1 .3s-.9.1-1.3.1zm-.3-5.9c-.5 0-.9.2-1.2.5s-.5.8-.5 1.4h3.4c0-.6-.1-1.1-.4-1.4s-.8-.5-1.3-.5zm8.7 4.9c-.5.7-1.2 1-2.1 1-.8 0-1.5-.3-2-.9s-.7-1.4-.7-2.4.2-1.9.7-2.5 1.1-.9 2-.9c.9 0 1.5.3 2 .9h.1v-3.6h1V46h-.8l-.2-.9zm-2 .2c.7 0 1.1-.2 1.4-.5s.4-.9.4-1.7v-.2c0-.9-.2-1.6-.5-1.9s-.8-.6-1.5-.6c-.6 0-1 .2-1.3.7s-.5 1.1-.5 1.9c0 .8.2 1.4.5 1.9s.9.4 1.5.4zm8-7.5c0-.2.1-.4.2-.5s.2-.2.4-.2.3.1.4.2.2.3.2.5-.1.4-.2.5-.2.2-.4.2-.3-.1-.4-.2-.2-.3-.2-.5zm1 8.2h-1v-6.4h1V46zm6.5 0v-4.2c0-.5-.1-.9-.4-1.2s-.6-.4-1.1-.4c-.7 0-1.2.2-1.5.5s-.5 1-.5 1.8V46h-1v-6.4h.8l.2.9c.2-.3.5-.6.8-.7s.8-.3 1.2-.3c.8 0 1.4.2 1.7.6s.6 1 .6 1.8V46h-.8zm8.2-.7h.5c.2 0 .3-.1.4-.1v.7c-.1.1-.3.1-.5.1h-.6c-1.2 0-1.9-.7-1.9-2v-3.8h-.9v-.5l.9-.4.4-1.4h.6v1.5h1.9v.8h-1.9V44c0 .4.1.7.3.9s.4.4.8.4zm6.5.7v-4.2c0-.5-.1-.9-.4-1.2s-.6-.4-1.1-.4c-.7 0-1.2.2-1.5.6s-.5 1-.5 1.8V46h-1v-9.1h1v3.6h.1c.2-.3.5-.6.8-.7s.8-.3 1.2-.3c.8 0 1.4.2 1.8.6s.6 1 .6 1.8V46h-1zm5.7.1c-.9 0-1.7-.3-2.2-.9s-.8-1.4-.8-2.4.3-1.9.8-2.5 1.2-.9 2.1-.9c.8 0 1.4.3 1.9.8s.7 1.2.7 2.1v.6H118c0 .8.2 1.3.6 1.7s.9.6 1.5.6c.7 0 1.4-.1 2.1-.4v.9c-.3.1-.7.3-1 .3s-.7.1-1.1.1zm-.3-5.9c-.5 0-.9.2-1.2.5s-.5.8-.5 1.4h3.4c0-.6-.1-1.1-.4-1.4s-.8-.5-1.3-.5zM130 46h-1v-7.7h-2.7v-.9h6.4v.9H130V46zm6.6.1c-.9 0-1.7-.3-2.2-.9s-.8-1.4-.8-2.4.3-1.9.8-2.5 1.2-.9 2.1-.9c.8 0 1.4.3 1.9.8s.7 1.2.7 2.1v.6h-4.4c0 .8.2 1.3.6 1.7s.9.6 1.5.6c.7 0 1.4-.1 2.1-.4v.9c-.3.1-.7.3-1 .3s-.9.1-1.3.1zm-.3-5.9c-.5 0-.9.2-1.2.5s-.5.8-.5 1.4h3.4c0-.6-.1-1.1-.4-1.4s-.8-.5-1.3-.5zm7.2-.8c.3 0 .5 0 .8.1l-.1.9c-.3-.1-.5-.1-.7-.1-.5 0-1 .2-1.3.6s-.6.9-.6 1.6V46h-1v-6.4h.8l.1 1.2c.2-.4.5-.7.9-1s.7-.4 1.1-.4zm10.2 6.6v-4.2c0-.5-.1-.9-.3-1.2s-.6-.4-1-.4c-.6 0-1.1.2-1.3.5s-.4.9-.4 1.6V46h-1v-4.2c0-.5-.1-.9-.3-1.2s-.6-.4-1-.4c-.6 0-1.1.2-1.3.5s-.4 1-.4 1.8V46h-1v-6.4h.8l.2.9c.2-.3.4-.6.8-.7s.7-.3 1.1-.3c1 0 1.7.4 2 1.1.2-.3.5-.6.8-.8s.8-.3 1.2-.3c.7 0 1.3.2 1.6.6s.5 1 .5 1.8V46h-1zm7.1-1.8c0 .6-.2 1.1-.7 1.4s-1.1.5-1.9.5c-.9 0-1.5-.1-2-.4v-.9c.3.2.6.3 1 .4s.7.1 1 .1c.5 0 .9-.1 1.2-.2s.4-.4.4-.7c0-.3-.1-.5-.3-.6s-.6-.4-1.3-.6c-.6-.2-1-.4-1.3-.6s-.4-.4-.6-.6-.2-.5-.2-.8c0-.5.2-.9.6-1.2s1-.5 1.8-.5c.7 0 1.4.1 2 .4l-.3.8c-.6-.3-1.2-.4-1.8-.4-.5 0-.8.1-1 .2s-.4.3-.4.6c0 .2 0 .3.1.4s.2.2.4.3.6.3 1.1.5c.8.3 1.3.6 1.5.8s.7.7.7 1.1zm8.7 1.8l-.2-.9c-.3.4-.6.7-1 .8s-.7.2-1.2.2c-.6 0-1.1-.2-1.5-.5s-.5-.8-.5-1.4c0-1.3 1-2 3.1-2h1.1v-.4c0-.5-.1-.9-.3-1.1s-.6-.4-1-.4c-.5 0-1.1.2-1.8.5l-.3-.7c.3-.2.7-.3 1-.4s.8-.1 1.1-.1c.8 0 1.3.2 1.7.5s.6.9.6 1.6V46h-.8zm-2.2-.7c.6 0 1.1-.2 1.4-.5s.5-.8.5-1.4v-.6h-1c-.8 0-1.3.1-1.7.4s-.5.5-.5 1c0 .4.1.6.3.8s.6.3 1 .3zm9.3.7v-4.2c0-.5-.1-.9-.4-1.2s-.6-.4-1.1-.4c-.7 0-1.2.2-1.5.5s-.5 1-.5 1.8V46h-1v-6.4h.8l.2.9c.2-.3.5-.6.8-.7s.8-.3 1.2-.3c.8 0 1.4.2 1.7.6s.6 1 .6 1.8V46h-.8zm7.3-.9c-.5.7-1.2 1-2.1 1-.8 0-1.5-.3-2-.9s-.7-1.4-.7-2.4.2-1.9.7-2.5 1.1-.9 2-.9c.9 0 1.5.3 2 .9h.1v-3.6h1V46h-.9l-.1-.9zm-1.9.2c.7 0 1.1-.2 1.4-.5s.4-.9.4-1.7v-.2c0-.9-.2-1.6-.5-1.9s-.8-.6-1.5-.6c-.6 0-1 .2-1.3.7s-.5 1.1-.5 1.9c0 .8.2 1.4.5 1.9s.9.4 1.5.4zm11.8-7.1c-.9 0-1.7.3-2.2.9s-.8 1.5-.8 2.6.3 2 .8 2.6 1.3.9 2.2.9c.6 0 1.3-.1 2-.3v.9c-.6.2-1.3.3-2.2.3-1.3 0-2.2-.4-2.9-1.1s-1-1.9-1-3.3c0-.9.2-1.7.5-2.3s.8-1.2 1.4-1.5 1.4-.5 2.2-.5c.9 0 1.7.2 2.4.5l-.4.9c-.7-.5-1.3-.6-2-.6zm9.3 4.5c0 1-.3 1.9-.8 2.5s-1.3.9-2.2.9c-.6 0-1.1-.1-1.5-.4s-.8-.7-1-1.2-.4-1.1-.4-1.8c0-1 .3-1.9.8-2.4s1.3-.9 2.2-.9c.9 0 1.6.3 2.1.9s.8 1.4.8 2.4zm-4.9 0c0 .8.2 1.4.5 1.9s.8.6 1.4.6 1.1-.2 1.5-.6.5-1.1.5-1.9c0-.8-.2-1.4-.5-1.9s-.8-.6-1.5-.6c-.6 0-1.1.2-1.4.6s-.5 1.1-.5 1.9zm11 3.3v-4.2c0-.5-.1-.9-.4-1.2s-.6-.4-1.1-.4c-.7 0-1.2.2-1.5.5s-.5 1-.5 1.8V46h-1v-6.4h.8l.2.9c.2-.3.5-.6.8-.7s.8-.3 1.2-.3c.8 0 1.4.2 1.7.6s.6 1 .6 1.8V46h-.8zm7.4-.9c-.5.7-1.2 1-2.1 1-.8 0-1.5-.3-2-.9s-.7-1.4-.7-2.4.2-1.9.7-2.5 1.1-.9 2-.9c.9 0 1.5.3 2 .9h.1v-3.6h1V46h-.8l-.2-.9zm-2 .2c.7 0 1.1-.2 1.4-.5s.4-.9.4-1.7v-.2c0-.9-.2-1.6-.5-1.9s-.8-.6-1.5-.6c-.6 0-1 .2-1.3.7s-.5 1.1-.5 1.9c0 .8.2 1.4.5 1.9s.9.4 1.5.4zm4.9-7.5c0-.2.1-.4.2-.5s.2-.2.4-.2.3.1.4.2.2.3.2.5-.1.4-.2.5-.2.2-.4.2-.3-.1-.4-.2-.2-.3-.2-.5zm1 8.2h-1v-6.4h1V46zm4.2-.7h.5c.2 0 .3-.1.4-.1v.7c-.1.1-.3.1-.5.1h-.6c-1.2 0-1.9-.7-1.9-2v-3.8h-.9v-.5l.9-.4.4-1.4h.6v1.5h1.9v.8h-1.9V44c0 .4.1.7.3.9s.4.4.8.4zm2-7.5c0-.2.1-.4.2-.5s.2-.2.4-.2.3.1.4.2.2.3.2.5-.1.4-.2.5-.2.2-.4.2-.3-.1-.4-.2-.2-.3-.2-.5zm1.1 8.2h-1v-6.4h1V46zm7.6-3.3c0 1-.3 1.9-.8 2.5s-1.3.9-2.2.9c-.6 0-1.1-.1-1.5-.4s-.8-.7-1-1.2-.4-1.1-.4-1.8c0-1 .3-1.9.8-2.4s1.3-.9 2.2-.9c.9 0 1.6.3 2.1.9s.8 1.4.8 2.4zm-4.9 0c0 .8.2 1.4.5 1.9s.8.6 1.4.6 1.1-.2 1.5-.6.5-1.1.5-1.9c0-.8-.2-1.4-.5-1.9s-.8-.6-1.5-.6c-.6 0-1.1.2-1.4.6s-.5 1.1-.5 1.9zm11 3.3v-4.2c0-.5-.1-.9-.4-1.2s-.6-.4-1.1-.4c-.7 0-1.2.2-1.5.5s-.5 1-.5 1.8V46h-1v-6.4h.8l.2.9c.2-.3.5-.6.8-.7s.8-.3 1.2-.3c.8 0 1.4.2 1.7.6s.6 1 .6 1.8V46h-.8zm7.1-1.8c0 .6-.2 1.1-.7 1.4s-1.1.5-1.9.5c-.9 0-1.5-.1-2-.4v-.9c.3.2.6.3 1 .4s.7.1 1 .1c.5 0 .9-.1 1.2-.2s.4-.4.4-.7c0-.3-.1-.5-.3-.6s-.6-.4-1.3-.6c-.6-.2-1-.4-1.3-.6s-.4-.4-.6-.6-.2-.5-.2-.8c0-.5.2-.9.6-1.2s1-.5 1.8-.5c.7 0 1.4.1 2 .4l-.3.8c-.6-.3-1.2-.4-1.8-.4-.5 0-.8.1-1 .2s-.2.3-.2.5 0 .3.1.4.2.2.4.3.6.3 1.1.5c.8.3 1.3.6 1.5.8s.5.8.5 1.2zm1.5 1.1c0-.3.1-.5.2-.6s.3-.2.5-.2.4.1.5.2.2.3.2.6-.1.4-.2.6-.3.2-.5.2-.4-.1-.5-.2-.2-.3-.2-.6zM14.9 64h-1v-7.7h-2.7v-.9h6.4v.9h-2.7V64zm8.2 0v-4.2c0-.5-.1-.9-.4-1.2s-.6-.4-1.1-.4c-.7 0-1.2.2-1.5.6s-.5 1-.5 1.8V64h-1v-9.1h1v3.6h.1c.2-.3.5-.6.8-.7s.8-.3 1.2-.3c.8 0 1.4.2 1.8.6s.6 1 .6 1.8V64h-1zm5.7.1c-.9 0-1.7-.3-2.2-.9s-.8-1.4-.8-2.4.3-1.9.8-2.5 1.2-.9 2.1-.9c.8 0 1.4.3 1.9.8s.7 1.2.7 2.1v.6h-4.4c0 .8.2 1.3.6 1.7s.9.6 1.5.6c.7 0 1.4-.1 2.1-.4v.9c-.3.1-.7.3-1 .3-.5 0-.8.1-1.3.1zm-.2-5.9c-.5 0-.9.2-1.2.5s-.5.8-.5 1.4h3.4c0-.6-.1-1.1-.4-1.4s-.8-.5-1.3-.5zm9.9 5.9c-.9 0-1.6-.3-2.2-.9s-.8-1.4-.8-2.4c0-1.1.3-1.9.8-2.5s1.3-.9 2.2-.9c.3 0 .6 0 .9.1s.6.1.7.2l-.3.8c-.2-.1-.4-.2-.7-.2s-.5-.1-.7-.1c-1.3 0-2 .8-2 2.5 0 .8.2 1.4.5 1.8s.8.6 1.4.6c.5 0 1.1-.1 1.6-.3v.9c-.2.3-.7.4-1.4.4zm4.1-6.6v4.2c0 .5.1.9.4 1.2s.6.4 1.1.4c.7 0 1.2-.2 1.5-.6s.5-1 .5-1.8v-3.4h1V64h-.8l-.3-.9c-.2.3-.5.6-.8.7s-.8.3-1.2.3c-.8 0-1.4-.2-1.8-.6s-.6-1-.6-1.8v-4.2h1zm10.6 4.7c0 .6-.2 1.1-.7 1.4s-1.1.5-1.9.5c-.9 0-1.5-.1-2-.4v-.9c.3.2.6.3 1 .4s.7.1 1 .1c.5 0 .9-.1 1.2-.2s.4-.4.4-.7c0-.3-.1-.5-.3-.6s-.6-.4-1.3-.6c-.6-.2-1-.4-1.3-.6s-.4-.4-.6-.6-.2-.5-.2-.8c0-.5.2-.9.6-1.2s1-.5 1.8-.5c.7 0 1.4.1 2 .4l-.3.8c-.6-.3-1.2-.4-1.8-.4-.5 0-.8.1-1 .2s-.4.3-.4.6c0 .2 0 .3.1.4s.2.2.4.3.6.3 1.1.5c.8.3 1.3.6 1.5.8s.7.7.7 1.1zm3.6 1.1h.5c.2 0 .3-.1.4-.1v.7c-.1.1-.3.1-.5.1h-.6c-1.2 0-1.9-.7-1.9-2v-3.8h-.9v-.5l.9-.4.4-1.4h.6v1.5h1.9v.8h-1.9V62c0 .4.1.7.3.9s.5.4.8.4zm7.7-2.6c0 1-.3 1.9-.8 2.5s-1.3.9-2.2.9c-.6 0-1.1-.1-1.5-.4s-.8-.7-1-1.2-.4-1.1-.4-1.8c0-1 .3-1.9.8-2.4s1.3-.9 2.2-.9c.9 0 1.6.3 2.1.9s.8 1.4.8 2.4zm-4.9 0c0 .8.2 1.4.5 1.9s.8.6 1.4.6 1.1-.2 1.5-.6.5-1.1.5-1.9c0-.8-.2-1.4-.5-1.9s-.8-.6-1.5-.6c-.6 0-1.1.2-1.4.6s-.5 1.1-.5 1.9zM74.4 64v-4.2c0-.5-.1-.9-.3-1.2s-.6-.4-1-.4c-.6 0-1.1.2-1.3.5s-.4.9-.4 1.6V64h-1v-4.2c0-.5-.1-.9-.3-1.2s-.6-.4-1-.4c-.6 0-1.1.2-1.3.5s-.4 1-.4 1.8V64h-1v-6.4h.6l.2.9c.2-.3.4-.6.8-.7s.7-.3 1.1-.3c1 0 1.7.4 2 1.1.2-.3.5-.6.8-.8s.8-.3 1.2-.3c.7 0 1.3.2 1.6.6s.5 1 .5 1.8V64h-.8zm5.7.1c-.9 0-1.7-.3-2.2-.9s-.9-1.4-.9-2.4.3-1.9.8-2.5 1.2-.9 2.1-.9c.8 0 1.4.3 1.9.8s.7 1.2.7 2.1v.6h-4.4c0 .8.2 1.3.6 1.7s.9.6 1.5.6c.7 0 1.4-.1 2.1-.4v.9c-.3.1-.7.3-1 .3-.4 0-.8.1-1.2.1zm-.2-5.9c-.5 0-.9.2-1.2.5s-.5.8-.5 1.4h3.4c0-.6-.1-1.1-.4-1.4s-.8-.5-1.3-.5zm7.2-.8c.3 0 .5 0 .8.1l-.1.9c-.3-.1-.5-.1-.7-.1-.5 0-1 .2-1.3.6s-.6.9-.6 1.6V64h-1v-6.4h.8l.1 1.2c.2-.4.5-.7.9-1s.7-.4 1.1-.4zm10.6 3.3c0 1-.3 1.9-.8 2.5s-1.3.9-2.2.9c-.6 0-1.1-.1-1.5-.4s-.8-.7-1-1.2-.4-1.1-.4-1.8c0-1 .3-1.9.8-2.4s1.3-.9 2.2-.9c.9 0 1.6.3 2.1.9s.8 1.4.8 2.4zm-4.9 0c0 .8.2 1.4.5 1.9s.8.6 1.4.6 1.1-.2 1.5-.6.5-1.1.5-1.9c0-.8-.2-1.4-.5-1.9s-.8-.6-1.5-.6c-.6 0-1.1.2-1.4.6s-.5 1.1-.5 1.9zm9.5-3.3c.3 0 .5 0 .8.1l-.1.9c-.3-.1-.5-.1-.7-.1-.5 0-1 .2-1.3.6s-.6.9-.6 1.6V64h-1v-6.4h.8l.1 1.2c.2-.4.5-.7.9-1s.7-.4 1.1-.4zm6.4 5.7c-.5.7-1.2 1-2.1 1-.8 0-1.5-.3-2-.9s-.7-1.4-.7-2.4.2-1.9.7-2.5 1.1-.9 2-.9c.9 0 1.5.3 2 .9h.1v-3.6h1V64h-.8l-.2-.9zm-2 .2c.7 0 1.1-.2 1.4-.5s.4-.9.4-1.7v-.2c0-.9-.2-1.6-.5-1.9s-.8-.6-1.5-.6c-.6 0-1 .2-1.3.7s-.5 1.1-.5 1.9c0 .8.2 1.4.5 1.9s.9.4 1.5.4zm7.7.8c-.9 0-1.7-.3-2.2-.9s-.8-1.4-.8-2.4.3-1.9.8-2.5 1.2-.9 2.1-.9c.8 0 1.4.3 1.9.8s.7 1.2.7 2.1v.6h-4.4c0 .8.2 1.3.6 1.7s.9.6 1.5.6c.7 0 1.4-.1 2.1-.4v.9c-.3.1-.7.3-1 .3-.5 0-.9.1-1.3.1zm-.3-5.9c-.5 0-.9.2-1.2.5s-.5.8-.5 1.4h3.4c0-.6-.1-1.1-.4-1.4s-.8-.5-1.3-.5zm7.2-.8c.3 0 .5 0 .8.1l-.1.9c-.3-.1-.5-.1-.7-.1-.5 0-1 .2-1.3.6s-.6.9-.6 1.6V64h-1v-6.4h.8l.1 1.2c.2-.4.5-.7.9-1s.7-.4 1.1-.4zm1.9-1.6c0-.2.1-.4.2-.5s.2-.2.4-.2.3.1.4.2.2.3.2.5-.1.4-.2.5-.2.2-.4.2-.3-.1-.4-.2-.2-.3-.2-.5zm1.1 8.2h-1v-6.4h1V64zm6.4 0v-4.2c0-.5-.1-.9-.4-1.2s-.6-.4-1.1-.4c-.7 0-1.2.2-1.5.5s-.5 1-.5 1.8V64h-1v-6.4h.8l.2.9c.2-.3.5-.6.8-.7s.8-.3 1.2-.3c.8 0 1.4.2 1.7.6s.6 1 .6 1.8V64h-.8zm8.2-6.5v.6l-1.2.1c.1.1.2.3.3.5s.1.5.1.7c0 .6-.2 1.1-.6 1.5s-1 .6-1.8.6h-.5c-.4.2-.6.5-.6.8 0 .2.1.3.2.4s.4.1.7.1h1.1c.7 0 1.2.1 1.6.4s.6.7.6 1.3c0 .7-.3 1.3-.9 1.6s-1.4.6-2.5.6c-.8 0-1.5-.2-1.9-.5s-.7-.8-.7-1.3c0-.4.1-.7.4-1 .3-.3.6-.5 1.1-.6-.2-.1-.3-.2-.4-.3s-.2-.3-.2-.5.1-.4.2-.6.3-.3.6-.5c-.3-.1-.6-.4-.8-.7s-.3-.7-.3-1.1c0-.7.2-1.2.6-1.6s1-.6 1.8-.6c.3 0 .6 0 .9.1h2.2zm-5.1 7.5c0 .3.1.6.4.8s.7.3 1.3.3c.8 0 1.4-.1 1.8-.4s.6-.6.6-1c0-.3-.1-.6-.3-.7-.2-.1-.6-.2-1.2-.2h-1.2c-.4 0-.8.1-1 .3-.3.2-.4.5-.4.9zm.5-5.4c0 .4.1.8.4 1s.6.3 1.1.3c.9 0 1.4-.5 1.4-1.4 0-1-.5-1.4-1.4-1.4-.5 0-.8.1-1.1.4s-.4.6-.4 1.1zm11.1 3.7h.5c.2 0 .3-.1.4-.1v.7c-.1.1-.3.1-.5.1h-.6c-1.2 0-1.9-.7-1.9-2v-3.8h-.9v-.5l.9-.4.4-1.4h.6v1.5h1.9v.8h-1.9V62c0 .4.1.7.3.9s.5.4.8.4zm6.6.7v-4.2c0-.5-.1-.9-.4-1.2s-.6-.4-1.1-.4c-.7 0-1.2.2-1.5.6s-.5 1-.5 1.8V64h-1v-9.1h1v3.6h.1c.2-.3.5-.6.8-.7s.8-.3 1.2-.3c.8 0 1.4.2 1.8.6s.6 1 .6 1.8V64h-1zm5.7.1c-.9 0-1.7-.3-2.2-.9s-.8-1.4-.8-2.4.3-1.9.8-2.5 1.2-.9 2.1-.9c.8 0 1.4.3 1.9.8s.7 1.2.7 2.1v.6h-4.4c0 .8.2 1.3.6 1.7s.9.6 1.5.6c.7 0 1.4-.1 2.1-.4v.9c-.3.1-.7.3-1 .3-.5 0-.9.1-1.3.1zm-.3-5.9c-.5 0-.9.2-1.2.5s-.5.8-.5 1.4h3.4c0-.6-.1-1.1-.4-1.4s-.8-.5-1.3-.5zm11.6 4c0 .6-.2 1.1-.7 1.4s-1.1.5-1.9.5c-.9 0-1.5-.1-2-.4v-.9c.3.2.6.3 1 .4s.7.1 1 .1c.5 0 .9-.1 1.2-.2s.4-.4.4-.7c0-.3-.1-.5-.3-.6s-.6-.4-1.3-.6c-.6-.2-1-.4-1.3-.6s-.4-.4-.6-.6-.2-.5-.2-.8c0-.5.2-.9.6-1.2s1-.5 1.8-.5c.7 0 1.4.1 2 .4l-.3.8c-.6-.3-1.2-.4-1.8-.4-.5 0-.8.1-1 .2s-.4.3-.4.6c0 .2 0 .3.1.4s.2.2.4.3.6.3 1.1.5c.8.3 1.3.6 1.5.8s.7.7.7 1.1zm4.3 1.9c-.9 0-1.7-.3-2.2-.9s-.8-1.4-.8-2.4.3-1.9.8-2.5 1.2-.9 2.1-.9c.8 0 1.4.3 1.9.8s.7 1.2.7 2.1v.6h-4.4c0 .8.2 1.3.6 1.7s.9.6 1.5.6c.7 0 1.4-.1 2.1-.4v.9c-.3.1-.7.3-1 .3-.5 0-.9.1-1.3.1zm-.3-5.9c-.5 0-.9.2-1.2.5s-.5.8-.5 1.4h3.4c0-.6-.1-1.1-.4-1.4s-.8-.5-1.3-.5zm7.2-.8c.3 0 .5 0 .8.1l-.1.9c-.3-.1-.5-.1-.7-.1-.5 0-1 .2-1.3.6s-.6.9-.6 1.6V64h-1v-6.4h.8l.1 1.2c.2-.4.5-.7.9-1s.7-.4 1.1-.4zm3.4 6.6l-2.4-6.4h1l1.4 3.8c.3.9.5 1.5.6 1.7 0-.2.2-.6.4-1.3s.7-2.1 1.5-4.3h1l-2.4 6.4h-1.1zm4.5-8.2c0-.2.1-.4.2-.5s.2-.2.4-.2.3.1.4.2.2.3.2.5-.1.4-.2.5-.2.2-.4.2-.3-.1-.4-.2-.2-.3-.2-.5zm1.1 8.2h-1v-6.4h1V64zm4.6.1c-.9 0-1.6-.3-2.2-.9s-.8-1.4-.8-2.4c0-1.1.3-1.9.8-2.5s1.3-.9 2.2-.9c.3 0 .6 0 .9.1s.6.1.7.2l-.3.8c-.2-.1-.4-.2-.7-.2s-.5-.1-.7-.1c-1.3 0-2 .8-2 2.5 0 .8.2 1.4.5 1.8s.8.6 1.4.6c.5 0 1.1-.1 1.6-.3v.9c-.2.3-.8.4-1.4.4zm5.9 0c-.9 0-1.7-.3-2.2-.9s-.8-1.4-.8-2.4.3-1.9.8-2.5 1.2-.9 2.1-.9c.8 0 1.4.3 1.9.8s.7 1.2.7 2.1v.6h-4.4c0 .8.2 1.3.6 1.7s.9.6 1.5.6c.7 0 1.4-.1 2.1-.4v.9c-.3.1-.7.3-1 .3-.5 0-.9.1-1.3.1zm-.3-5.9c-.5 0-.9.2-1.2.5s-.5.8-.5 1.4h3.4c0-.6-.1-1.1-.4-1.4s-.8-.5-1.3-.5zm8.4 4c0 .6-.2 1.1-.7 1.4s-1.1.5-1.9.5c-.9 0-1.5-.1-2-.4v-.9c.3.2.6.3 1 .4s.7.1 1 .1c.5 0 .9-.1 1.2-.2s.4-.4.4-.7c0-.3-.1-.5-.3-.6s-.6-.4-1.3-.6c-.6-.2-1-.4-1.3-.6s-.4-.4-.6-.6-.2-.5-.2-.8c0-.5.2-.9.6-1.2s1-.5 1.8-.5c.7 0 1.4.1 2 .4l-.3.8c-.6-.3-1.2-.4-1.8-.4-.5 0-.8.1-1 .2s-.4.3-.4.6c0 .2 0 .3.1.4s.2.2.4.3.6.3 1.1.5c.8.3 1.3.6 1.5.8s.7.7.7 1.1zm4.6-6.4c0-.2.1-.4.2-.5s.2-.2.4-.2.3.1.4.2.2.3.2.5-.1.4-.2.5-.2.2-.4.2-.3-.1-.4-.2-.2-.3-.2-.5zm1.1 8.2h-1v-6.4h1V64zm6.2-1.8c0 .6-.2 1.1-.7 1.4s-1.1.5-1.9.5c-.9 0-1.5-.1-2-.4v-.9c.3.2.6.3 1 .4s.7.1 1 .1c.5 0 .9-.1 1.2-.2s.4-.4.4-.7c0-.3-.1-.5-.3-.6s-.6-.4-1.3-.6c-.6-.2-1-.4-1.3-.6s-.4-.4-.6-.6-.2-.5-.2-.8c0-.5.2-.9.6-1.2s1-.5 1.8-.5c.7 0 1.4.1 2 .4l-.3.8c-.6-.3-1.2-.4-1.8-.4-.5 0-.8.1-1 .2s-.4.3-.4.6c0 .2 0 .3.1.4s.2.2.4.3.6.3 1.1.5c.8.3 1.3.6 1.5.8s.7.7.7 1.1zm9.1 1.8v-4.2c0-.5-.1-.9-.4-1.2s-.6-.4-1.1-.4c-.7 0-1.2.2-1.5.5s-.5 1-.5 1.8V64h-1v-6.4h.8l.2.9c.2-.3.5-.6.8-.7s.8-.3 1.2-.3c.8 0 1.4.2 1.7.6s.6 1 .6 1.8V64h-.8zm8.5-3.3c0 1-.3 1.9-.8 2.5s-1.3.9-2.2.9c-.6 0-1.1-.1-1.5-.4s-.8-.7-1-1.2-.4-1.1-.4-1.8c0-1 .3-1.9.8-2.4s1.3-.9 2.2-.9c.9 0 1.6.3 2.1.9s.8 1.4.8 2.4zm-4.9 0c0 .8.2 1.4.5 1.9s.8.6 1.4.6 1.1-.2 1.5-.6.5-1.1.5-1.9c0-.8-.2-1.4-.5-1.9s-.8-.6-1.5-.6c-.6 0-1.1.2-1.4.6s-.5 1.1-.5 1.9zm8.7 2.6h.5c.2 0 .3-.1.4-.1v.7c-.1.1-.3.1-.5.1h-.6c-1.2 0-1.9-.7-1.9-2v-3.8h-.9v-.5l.9-.4.4-1.4h.6v1.5h1.9v.8H240V62c0 .4.1.7.3.9s.5.4.8.4zm5.2-7.5c0-.2.1-.4.2-.5s.2-.2.4-.2.3.1.4.2.2.3.2.5-.1.4-.2.5-.2.2-.4.2-.3-.1-.4-.2-.2-.3-.2-.5zm1 8.2h-1v-6.4h1V64zm6.5 0v-4.2c0-.5-.1-.9-.4-1.2s-.6-.4-1.1-.4c-.7 0-1.2.2-1.5.5s-.5 1-.5 1.8V64h-1v-6.4h.8l.2.9c.2-.3.5-.6.8-.7s.8-.3 1.2-.3c.8 0 1.4.2 1.7.6s.6 1 .6 1.8V64h-.8zm10 0l-.2-.9c-.3.4-.6.7-1 .8s-.7.2-1.2.2c-.6 0-1.1-.2-1.5-.5s-.5-.8-.5-1.4c0-1.3 1-2 3.1-2h1.1v-.4c0-.5-.1-.9-.3-1.1s-.6-.4-1-.4c-.5 0-1.1.2-1.8.5l-.3-.7c.3-.2.7-.3 1-.4s.8-.1 1.1-.1c.8 0 1.3.2 1.7.5s.6.9.6 1.6V64h-.8zm-2.2-.7c.6 0 1.1-.2 1.4-.5s.5-.8.5-1.4v-.6h-1c-.8 0-1.3.1-1.7.4s-.5.5-.5 1c0 .4.1.6.3.8s.6.3 1 .3zm9.3.7v-4.2c0-.5-.1-.9-.4-1.2s-.6-.4-1.1-.4c-.7 0-1.2.2-1.5.5s-.5 1-.5 1.8V64h-1v-6.4h.8l.2.9c.2-.3.5-.6.8-.7s.8-.3 1.2-.3c.8 0 1.4.2 1.7.6s.6 1 .6 1.8V64h-.8zm2-6.5h1l1.4 3.7c.3.8.5 1.4.6 1.8.1-.2.2-.5.3-1s.7-2 1.6-4.5h1l-2.8 7.3c-.3.7-.6 1.2-1 1.5s-.8.5-1.3.5c-.3 0-.6 0-.9-.1V66c.2 0 .5.1.7.1.7 0 1.1-.4 1.4-1.1l.4-.9-2.4-6.6zM12.9 82l-1.2-3.8c-.1-.2-.2-.8-.4-1.6-.2.7-.3 1.2-.4 1.6L9.7 82H8.6l-1.8-6.4h1c.4 1.6.7 2.8.9 3.7s.3 1.4.4 1.7c0-.2.1-.5.2-.9s.2-.6.2-.8l1.2-3.7h1.1l1.1 3.7c.2.7.4 1.2.4 1.7 0-.1.1-.4.1-.7s.5-1.9 1.2-4.7h1L14.1 82h-1.2zm8.1 0l-.2-1c-.3.4-.6.7-1 .8s-.7.2-1.2.2c-.6 0-1.1-.2-1.5-.5s-.5-.8-.5-1.4c0-1.3 1-2 3.1-2h1.1v-.4c0-.5-.1-.9-.3-1.1s-.6-.4-1-.4c-.5 0-1.1.2-1.8.5l-.4-.7c.3-.2.7-.3 1-.4s.8-.1 1.1-.1c.8 0 1.3.2 1.7.5s.6.9.6 1.6V82H21zm-2.2-.7c.6 0 1.1-.2 1.4-.5s.5-.8.5-1.4v-.6h-1c-.8 0-1.3.1-1.7.4s-.5.5-.5 1c0 .4.1.6.3.8s.6.3 1 .3zm3.9-5.8h1l1.4 3.7c.3.8.5 1.4.6 1.8.1-.2.2-.5.3-1s.7-2 1.6-4.5h1L26 82.8c-.3.7-.6 1.2-1 1.5s-.8.5-1.3.5c-.3 0-.6 0-.9-.1V84c.2 0 .5.1.7.1.7 0 1.1-.4 1.4-1.1l.4-.9-2.6-6.6zM36.8 82l-.2-1c-.3.4-.6.7-1 .8s-.7.2-1.2.2c-.6 0-1.1-.2-1.5-.5s-.5-.8-.5-1.4c0-1.3 1-2 3.1-2h1.1v-.4c0-.5-.1-.9-.3-1.1s-.6-.4-1-.4c-.5 0-1.1.2-1.8.5l-.4-.7c.3-.2.7-.3 1-.4s.8-.1 1.1-.1c.8 0 1.3.2 1.7.5s.6.9.6 1.6V82h-.7zm-2.2-.7c.6 0 1.1-.2 1.4-.5s.5-.8.5-1.4v-.6h-1c-.8 0-1.3.1-1.7.4s-.5.5-.5 1c0 .4.1.6.3.8s.6.3 1 .3zm5.9-5.8v4.2c0 .5.1.9.4 1.2s.6.4 1.1.4c.7 0 1.2-.2 1.5-.6s.5-1 .5-1.8v-3.4h1V82h-1l-.1-.9h-.1c-.2.3-.5.6-.8.7s-.8.3-1.2.3c-.8 0-1.4-.2-1.8-.6s-.6-1-.6-1.8v-4.2h1.1zm8.5 5.8h.5c.2 0 .3-.1.4-.1v.7c-.1.1-.3.1-.5.1h-.6c-1.2 0-1.9-.7-1.9-2v-3.8H46v-.5l.9-.4.4-1.4h.7v1.5h1.9v.8H48V80c0 .4.1.7.3.9s.4.4.7.4zm6.5.7v-4.2c0-.5-.1-.9-.4-1.2s-.6-.4-1.1-.4c-.7 0-1.2.2-1.5.6s-.5 1-.5 1.8V82h-1v-9.1h1v3.6h.1c.2-.3.5-.6.8-.7s.8-.3 1.2-.3c.8 0 1.4.2 1.8.6s.6 1 .6 1.8V82h-1zm8.6-3.3c0 1-.3 1.9-.8 2.5s-1.3.9-2.2.9c-.6 0-1.1-.1-1.5-.4s-.8-.7-1-1.2-.4-1.1-.4-1.8c0-1 .3-1.9.8-2.4s1.3-.9 2.2-.9c.9 0 1.6.3 2.1.9s.8 1.4.8 2.4zm-4.9 0c0 .8.2 1.4.5 1.9s.8.6 1.4.6 1.1-.2 1.5-.6.5-1.1.5-1.9c0-.8-.2-1.4-.5-1.9s-.8-.6-1.5-.6c-.6 0-1.1.2-1.4.6s-.5 1.1-.5 1.9zm9.5-3.3c.3 0 .5 0 .8.1l-.1.9c-.3-.1-.5-.1-.7-.1-.5 0-1 .2-1.3.6s-.6.9-.6 1.6V82h-1v-6.4h.8l.1 1.2c.2-.4.5-.7.9-1s.7-.4 1.1-.4zm1.9-1.6c0-.2.1-.4.2-.5s.2-.2.4-.2.3.1.4.2.2.3.2.5-.1.4-.2.5-.2.2-.4.2-.3-.1-.4-.2-.2-.3-.2-.5zm1 8.2h-1v-6.4h1V82zm6.2 0h-4.7v-.7l3.5-5h-3.3v-.8h4.4v.8l-3.5 4.9h3.5v.8zm4.2.1c-.9 0-1.7-.3-2.2-.9s-.8-1.4-.8-2.4.3-1.9.8-2.5 1.2-.9 2.1-.9c.8 0 1.4.3 1.9.8s.7 1.2.7 2.1v.6H80c0 .8.2 1.3.6 1.7s.9.6 1.5.6c.7 0 1.4-.1 2.1-.4v.9c-.3.1-.7.3-1 .3s-.7.1-1.2.1zm-.2-5.9c-.5 0-.9.2-1.2.5s-.6.8-.6 1.4h3.4c0-.6-.1-1.1-.4-1.4s-.7-.5-1.2-.5zm8.6 4.9c-.5.7-1.2 1-2.1 1-.8 0-1.5-.3-2-.9s-.7-1.4-.7-2.4.2-1.9.7-2.5 1.1-.9 2-.9c.9 0 1.5.3 2 .9h.1v-3.6h1V82h-.8l-.2-.9zm-1.9.2c.7 0 1.1-.2 1.4-.5s.4-.9.4-1.7v-.2c0-.9-.2-1.6-.5-1.9s-.8-.6-1.5-.6c-.6 0-1 .2-1.3.7s-.5 1.1-.5 1.9c0 .8.2 1.4.5 1.9s.9.4 1.5.4zm10.1 0h.5c.2 0 .3-.1.4-.1v.7c-.1 0-.3.1-.5.1h-.6c-1.2 0-1.9-.7-1.9-2v-3.8h-.9v-.5l.9-.4.5-1.3h.6v1.5h1.9v.8h-1.9v3.8c0 .4.1.7.3.9s.4.3.7.3zm7.7-2.6c0 1-.3 1.9-.8 2.5s-1.3.9-2.2.9c-.6 0-1.1-.1-1.5-.4s-.8-.7-1-1.2-.4-1.1-.4-1.8c0-1 .3-1.9.8-2.4s1.3-.9 2.2-.9c.9 0 1.6.3 2.1.9s.8 1.4.8 2.4zm-4.9 0c0 .8.2 1.4.5 1.9s.8.6 1.4.6 1.1-.2 1.5-.6.5-1.1.5-1.9c0-.8-.2-1.4-.5-1.9s-.8-.6-1.5-.6c-.6 0-1.1.2-1.4.6s-.5 1.1-.5 1.9zm12.6-3.3c.3 0 .5 0 .8.1l-.1.9c-.3-.1-.5-.1-.7-.1-.5 0-1 .2-1.3.6s-.6.9-.6 1.6V82h-1v-6.4h.8l.1 1.2c.2-.4.5-.7.9-1s.7-.4 1.1-.4zm4.7 6.7c-.9 0-1.7-.3-2.2-.9s-.8-1.4-.8-2.4.3-1.9.8-2.5 1.2-.9 2.1-.9c.8 0 1.4.3 1.9.8s.7 1.2.7 2.1v.6h-4.4c0 .8.2 1.3.6 1.7s.9.6 1.5.6c.7 0 1.4-.1 2.1-.4v.9c-.3.1-.7.3-1 .3s-.8.1-1.3.1zm-.2-5.9c-.5 0-.9.2-1.2.5s-.5.8-.5 1.4h3.4c0-.6-.1-1.1-.4-1.4s-.8-.5-1.3-.5zm7.2 5.9c-.4 0-.8-.1-1.1-.2s-.6-.4-.9-.7h-.1c0 .4.1.7.1 1.1v2.6h-1v-9.3h.8l.1.9c.3-.4.5-.6.9-.8s.7-.2 1.1-.2c.9 0 1.5.3 2 .9s.7 1.4.7 2.4c0 1.1-.2 1.9-.7 2.5s-1 .8-1.9.8zm-.1-5.9c-.7 0-1.1.2-1.4.5s-.4.9-.5 1.7v.2c0 .9.2 1.5.5 1.9s.8.6 1.4.6c.6 0 1-.2 1.3-.7s.5-1.1.5-1.9c0-.8-.2-1.4-.5-1.8s-.7-.5-1.3-.5zm7.4-.8c.3 0 .5 0 .8.1l-.1.9c-.3-.1-.5-.1-.7-.1-.5 0-1 .2-1.3.6s-.6.9-.6 1.6V82h-1v-6.4h.8l.1 1.2c.2-.4.5-.7.9-1s.7-.4 1.1-.4zm7.5 3.3c0 1-.3 1.9-.8 2.5s-1.3.9-2.2.9c-.6 0-1.1-.1-1.5-.4s-.8-.7-1-1.2-.4-1.1-.4-1.8c0-1 .3-1.9.8-2.4s1.3-.9 2.2-.9c.9 0 1.6.3 2.1.9s.8 1.4.8 2.4zm-4.9 0c0 .8.2 1.4.5 1.9s.8.6 1.4.6 1.1-.2 1.5-.6.5-1.1.5-1.9c0-.8-.2-1.4-.5-1.9s-.8-.6-1.5-.6c-.6 0-1.1.2-1.4.6s-.5 1.1-.5 1.9zm11 2.4c-.5.7-1.2 1-2.1 1-.8 0-1.5-.3-2-.9s-.7-1.4-.7-2.4.2-1.9.7-2.5 1.1-.9 2-.9c.9 0 1.5.3 2 .9h.1v-3.6h1V82h-.8l-.2-.9zm-1.9.2c.7 0 1.1-.2 1.4-.5s.4-.9.4-1.7v-.2c0-.9-.2-1.6-.5-1.9s-.8-.6-1.5-.6c-.6 0-1 .2-1.3.7s-.5 1.1-.5 1.9c0 .8.2 1.4.5 1.9s.9.4 1.5.4zm5.8-5.8v4.2c0 .5.1.9.4 1.2s.6.4 1.1.4c.7 0 1.2-.2 1.5-.6s.5-1 .5-1.8v-3.4h1V82h-.8l-.1-.9h-.1c-.2.3-.5.6-.8.7s-.8.3-1.2.3c-.8 0-1.4-.2-1.8-.6s-.6-1-.6-1.8v-4.2h.9zm9 6.6c-.9 0-1.6-.3-2.2-.9s-.8-1.4-.8-2.4c0-1.1.3-1.9.8-2.5s1.3-.9 2.2-.9c.3 0 .6 0 .9.1s.6.1.7.2l-.3.8c-.2-.1-.4-.2-.7-.2s-.5-.1-.7-.1c-1.3 0-2 .8-2 2.5 0 .8.2 1.4.5 1.8s.8.6 1.4.6c.5 0 1.1-.1 1.6-.3v.9c-.2.3-.7.4-1.4.4zm5.9 0c-.9 0-1.7-.3-2.2-.9s-.8-1.4-.8-2.4.3-1.9.8-2.5 1.2-.9 2.1-.9c.8 0 1.4.3 1.9.8s.7 1.2.7 2.1v.6h-4.4c0 .8.2 1.3.6 1.7s.9.6 1.5.6c.7 0 1.4-.1 2.1-.4v.9c-.3.1-.7.3-1 .3s-.9.1-1.3.1zm-.3-5.9c-.5 0-.9.2-1.2.5s-.5.8-.5 1.4h3.4c0-.6-.1-1.1-.4-1.4s-.8-.5-1.3-.5zm13 2.5c0 1-.3 1.9-.8 2.5s-1.3.9-2.2.9c-.6 0-1.1-.1-1.5-.4s-.8-.7-1-1.2-.4-1.1-.4-1.8c0-1 .3-1.9.8-2.4s1.3-.9 2.2-.9c.9 0 1.6.3 2.1.9s.8 1.4.8 2.4zm-4.9 0c0 .8.2 1.4.5 1.9s.8.6 1.4.6 1.1-.2 1.5-.6.5-1.1.5-1.9c0-.8-.2-1.4-.5-1.9s-.8-.6-1.5-.6c-.6 0-1.1.2-1.4.6s-.5 1.1-.5 1.9zm9.5-3.3c.3 0 .5 0 .8.1l-.1.9c-.3-.1-.5-.1-.7-.1-.5 0-1 .2-1.3.6s-.6.9-.6 1.6V82h-1v-6.4h.8l.1 1.2c.2-.4.5-.7.9-1s.7-.4 1.1-.4zm7.7 6.7c-.9 0-1.6-.3-2.2-.9s-.8-1.4-.8-2.4c0-1.1.3-1.9.8-2.5s1.3-.9 2.2-.9c.3 0 .6 0 .9.1s.6.1.7.2l-.3.8c-.2-.1-.4-.2-.7-.2s-.5-.1-.7-.1c-1.3 0-2 .8-2 2.5 0 .8.2 1.4.5 1.8s.8.6 1.4.6c.5 0 1.1-.1 1.6-.3v.9c-.3.3-.8.4-1.4.4zm8.6-3.4c0 1-.3 1.9-.8 2.5s-1.3.9-2.2.9c-.6 0-1.1-.1-1.5-.4s-.8-.7-1-1.2-.4-1.1-.4-1.8c0-1 .3-1.9.8-2.4s1.3-.9 2.2-.9c.9 0 1.6.3 2.1.9s.8 1.4.8 2.4zm-4.8 0c0 .8.2 1.4.5 1.9s.8.6 1.4.6 1.1-.2 1.5-.6.5-1.1.5-1.9c0-.8-.2-1.4-.5-1.9s-.8-.6-1.5-.6c-.6 0-1.1.2-1.4.6s-.5 1.1-.5 1.9zm9.5 3.4c-.4 0-.8-.1-1.1-.2s-.6-.4-.9-.7h-.1c0 .4.1.7.1 1.1v2.6h-1v-9.3h.8l.1.9c.3-.4.5-.6.9-.8s.7-.2 1.1-.2c.9 0 1.5.3 2 .9s.7 1.4.7 2.4c0 1.1-.2 1.9-.7 2.5s-1 .8-1.9.8zm-.1-5.9c-.7 0-1.1.2-1.4.5s-.4.9-.5 1.7v.2c0 .9.2 1.5.5 1.9s.8.6 1.4.6c.6 0 1-.2 1.3-.7s.5-1.1.5-1.9c0-.8-.2-1.4-.5-1.8s-.7-.5-1.3-.5zm3.5-.7h1l1.4 3.7c.3.8.5 1.4.6 1.8.1-.2.2-.5.3-1s.7-2 1.6-4.5h1l-2.8 7.3c-.3.7-.6 1.2-1 1.5s-.8.5-1.3.5c-.3 0-.6 0-.9-.1V84c.2 0 .5.1.7.1.7 0 1.1-.4 1.4-1.1l.4-.9-2.4-6.6zm13.2-.1c.8 0 1.5.3 2 .9s.7 1.4.7 2.4-.2 1.9-.7 2.5-1.1.9-2 .9c-.4 0-.8-.1-1.1-.2s-.6-.4-.9-.7h-.1l-.2.8h-.7v-9.1h1v3.5c.4-.7 1.1-1 2-1zm-.2.8c-.7 0-1.1.2-1.4.6s-.4 1-.4 1.9.2 1.5.5 1.9.8.6 1.4.6c.6 0 1-.2 1.3-.7s.4-1.1.4-1.9c0-.8-.1-1.5-.4-1.9s-.8-.5-1.4-.5zm10.1 2.5c0 1-.3 1.9-.8 2.5s-1.3.9-2.2.9c-.6 0-1.1-.1-1.5-.4s-.8-.7-1-1.2-.4-1.1-.4-1.8c0-1 .3-1.9.8-2.4s1.3-.9 2.2-.9c.9 0 1.6.3 2.1.9s.8 1.4.8 2.4zm-4.9 0c0 .8.2 1.4.5 1.9s.8.6 1.4.6 1.1-.2 1.5-.6.5-1.1.5-1.9c0-.8-.2-1.4-.5-1.9s-.8-.6-1.5-.6c-.6 0-1.1.2-1.4.6s-.5 1.1-.5 1.9zm8.6 2.6h.5c.2 0 .3-.1.4-.1v.7c-.1.1-.3.1-.5.1h-.6c-1.2 0-1.9-.7-1.9-2v-3.8h-.8v-.5l.9-.4.4-1.4h.6v1.5h1.9v.8h-1.9V80c0 .4.1.7.3.9s.4.4.7.4zm6.6.7v-4.2c0-.5-.1-.9-.4-1.2s-.6-.4-1.1-.4c-.7 0-1.2.2-1.5.6s-.5 1-.5 1.8V82h-1v-9.1h1v3.6h.1c.2-.3.5-.6.8-.7s.8-.3 1.2-.3c.8 0 1.4.2 1.8.6s.6 1 .6 1.8V82h-1zm10 0l-.2-.9c-.3.4-.6.7-1 .8s-.7.2-1.2.2c-.6 0-1.1-.2-1.5-.5s-.5-.8-.5-1.4c0-1.3 1-2 3.1-2h1.1v-.4c0-.5-.1-.9-.3-1.1s-.6-.4-1-.4c-.5 0-1.1.2-1.8.5l-.3-.7c.3-.2.7-.3 1-.4s.8-.1 1.1-.1c.8 0 1.3.2 1.7.5s.6.9.6 1.6V82h-.8zm-2.2-.7c.6 0 1.1-.2 1.4-.5s.5-.8.5-1.4v-.6h-1c-.8 0-1.3.1-1.7.4s-.5.5-.5 1c0 .4.1.6.3.8s.7.3 1 .3zm10.6.8c-.9 0-1.6-.3-2.2-.9s-.8-1.4-.8-2.4c0-1.1.3-1.9.8-2.5s1.3-.9 2.2-.9c.3 0 .6 0 .9.1s.6.1.7.2l-.3.8c-.2-.1-.4-.2-.7-.2s-.5-.1-.7-.1c-1.3 0-2 .8-2 2.5 0 .8.2 1.4.5 1.8s.8.6 1.4.6c.5 0 1.1-.1 1.6-.3v.9c-.2.3-.7.4-1.4.4zm8.7-3.4c0 1-.3 1.9-.8 2.5s-1.3.9-2.2.9c-.6 0-1.1-.1-1.5-.4s-.8-.7-1-1.2-.4-1.1-.4-1.8c0-1 .3-1.9.8-2.4s1.3-.9 2.2-.9c.9 0 1.6.3 2.1.9s.8 1.4.8 2.4zm-4.9 0c0 .8.2 1.4.5 1.9s.8.6 1.4.6 1.1-.2 1.5-.6.5-1.1.5-1.9c0-.8-.2-1.4-.5-1.9s-.8-.6-1.5-.6c-.6 0-1.1.2-1.4.6s-.5 1.1-.5 1.9zm14.8 3.3v-4.2c0-.5-.1-.9-.3-1.2s-.6-.4-1-.4c-.6 0-1.1.2-1.3.5s-.4.9-.4 1.6V82h-1v-4.2c0-.5-.1-.9-.3-1.2s-.6-.4-1-.4c-.6 0-1.1.2-1.3.5s-.4 1-.4 1.8V82h-1v-6.4h.8l.2.9c.2-.3.4-.6.8-.7s.7-.3 1.1-.3c1 0 1.7.4 2 1.1.2-.3.5-.6.8-.8s.8-.3 1.2-.3c.7 0 1.3.2 1.6.6s.5 1 .5 1.8V82h-1zm2.5-2.8v-.9h2.9v.9H280zM14.4 100.1c-.4 0-.8-.1-1.1-.2s-.6-.4-.9-.7h-.1c0 .4.1.7.1 1.1v2.6h-1v-9.3h.8l.1.9c.3-.4.5-.6.9-.8s.7-.2 1.1-.2c.9 0 1.5.3 2 .9s.7 1.4.7 2.4c0 1.1-.2 1.9-.7 2.5s-1.1.8-1.9.8zm-.2-5.9c-.7 0-1.1.2-1.4.5s-.4.9-.5 1.7v.2c0 .9.2 1.5.5 1.9s.8.6 1.4.6c.6 0 1-.2 1.3-.7s.5-1.1.5-1.9c0-.8-.2-1.4-.5-1.8s-.7-.5-1.3-.5zm5.5 5.8h-1v-9.1h1v9.1zm4.8.1c-.9 0-1.7-.3-2.2-.9s-.8-1.4-.8-2.4.3-1.9.8-2.5 1.2-.9 2.1-.9c.8 0 1.4.3 1.9.8s.7 1.2.7 2.1v.6h-4.4c0 .8.2 1.3.6 1.7s.9.6 1.5.6c.7 0 1.4-.1 2.1-.4v.9c-.3.1-.7.3-1 .3s-.9.1-1.3.1zm-.3-5.9c-.5 0-.9.2-1.2.5s-.5.8-.5 1.4h3.4c0-.6-.1-1.1-.4-1.4s-.8-.5-1.3-.5zm6.4 5.1h.5c.2 0 .3-.1.4-.1v.7c-.1.1-.3.1-.5.1h-.6c-1.2 0-1.9-.7-1.9-2v-3.8h-.9v-.5l.9-.4.5-1.3h.6v1.5h1.9v.8h-1.9v3.8c0 .4.1.7.3.9s.4.3.7.3zm4.9.8c-.9 0-1.7-.3-2.2-.9s-.8-1.4-.8-2.4.3-1.9.8-2.5 1.2-.9 2.1-.9c.8 0 1.4.3 1.9.8s.7 1.2.7 2.1v.6h-4.4c0 .8.2 1.3.6 1.7s.9.6 1.5.6c.7 0 1.4-.1 2.1-.4v.9c-.3.1-.7.3-1 .3s-.9.1-1.3.1zm-.3-5.9c-.5 0-.9.2-1.2.5s-.5.8-.5 1.4h3.4c0-.6-.1-1.1-.4-1.4s-.8-.5-1.3-.5zm8.6 4.9c-.5.7-1.2 1-2.1 1-.8 0-1.5-.3-2-.9s-.7-1.4-.7-2.4.2-1.9.7-2.5 1.1-.9 2-.9c.9 0 1.5.3 2 .9h.1v-3.6h1v9.1H44l-.2-.7zm-1.9.2c.7 0 1.1-.2 1.4-.5s.4-.9.4-1.7v-.2c0-.9-.2-1.6-.5-1.9s-.8-.6-1.5-.6c-.6 0-1 .2-1.3.7s-.5 1.1-.5 1.9c0 .8.2 1.4.5 1.9s.9.4 1.5.4zm11 .8c-.4 0-.8-.1-1.1-.2s-.6-.4-.9-.7h-.1c0 .4.1.7.1 1.1v2.6h-1v-9.3h.8l.1.9c.3-.4.5-.6.9-.8s.7-.2 1.1-.2c.9 0 1.5.3 2 .9s.7 1.4.7 2.4c0 1.1-.2 1.9-.7 2.5s-1 .8-1.9.8zm-.1-5.9c-.7 0-1.1.2-1.4.5s-.4.9-.5 1.7v.2c0 .9.2 1.5.5 1.9s.8.6 1.4.6c.6 0 1-.2 1.3-.7s.5-1.1.5-1.9c0-.8-.2-1.4-.5-1.8s-.7-.5-1.3-.5zm8.5 5.8l-.2-1c-.3.4-.6.7-1 .8s-.7.2-1.2.2c-.6 0-1.1-.2-1.5-.5s-.5-.8-.5-1.4c0-1.3 1-2 3.1-2h1.1v-.4c0-.5-.1-.9-.3-1.1s-.6-.4-1-.4c-.5 0-1.1.2-1.8.5l-.5-.7c.3-.2.7-.3 1-.4s.8-.1 1.1-.1c.8 0 1.3.2 1.7.5s.6.9.6 1.6v4.4h-.6zm-2.2-.7c.6 0 1.1-.2 1.4-.5s.5-.8.5-1.4v-.6h-1c-.8 0-1.3.1-1.7.4s-.5.5-.5 1c0 .4.1.6.3.8s.6.3 1 .3zm7.9.8c-.4 0-.8-.1-1.1-.2s-.6-.4-.9-.7h-.1c0 .4.1.7.1 1.1v2.6h-1v-9.3h.8l.1.9c.3-.4.5-.6.9-.8s.7-.2 1.1-.2c.9 0 1.5.3 2 .9s.7 1.4.7 2.4c0 1.1-.2 1.9-.7 2.5s-1.1.8-1.9.8zm-.2-5.9c-.7 0-1.1.2-1.4.5s-.4.9-.5 1.7v.2c0 .9.2 1.5.5 1.9s.8.6 1.4.6c.6 0 1-.2 1.3-.7s.5-1.1.5-1.9c0-.8-.2-1.4-.5-1.8s-.7-.5-1.3-.5zm7.2 5.9c-.9 0-1.7-.3-2.2-.9s-.8-1.4-.8-2.4.3-1.9.8-2.5 1.2-.9 2.1-.9c.8 0 1.4.3 1.9.8s.7 1.2.7 2.1v.6H72c0 .8.2 1.3.6 1.7s.9.6 1.5.6c.7 0 1.4-.1 2.1-.4v.9c-.3.1-.7.3-1 .3s-.7.1-1.2.1zm-.2-5.9c-.5 0-.9.2-1.2.5s-.5.8-.5 1.4h3.4c0-.6-.1-1.1-.4-1.4s-.8-.5-1.3-.5zm7.2-.8c.3 0 .5 0 .8.1l-.1.9c-.3-.1-.5-.1-.7-.1-.5 0-1 .2-1.3.6s-.7 1-.7 1.6v3.4h-1v-6.4h.8l.1 1.2c.2-.4.5-.7.9-1s.8-.3 1.2-.3zm4.5 3.3c0-1 .2-2 .5-2.9s.7-1.7 1.3-2.4h.9c-.6.8-1 1.6-1.3 2.5s-.4 1.8-.4 2.8c0 .9.1 1.9.4 2.7s.7 1.7 1.2 2.4h-.9c-.6-.7-1-1.4-1.3-2.3s-.4-1.8-.4-2.8zm6.8 3.4c-.9 0-1.7-.3-2.2-.9s-.8-1.4-.8-2.4.3-1.9.8-2.5 1.2-.9 2.1-.9c.8 0 1.4.3 1.9.8s.7 1.2.7 2.1v.6h-4.4c0 .8.2 1.3.6 1.7s.9.6 1.5.6c.7 0 1.4-.1 2.1-.4v.9c-.3.1-.7.3-1 .3s-.8.1-1.3.1zm-.2-5.9c-.5 0-.9.2-1.2.5s-.5.8-.5 1.4h3.4c0-.6-.1-1.1-.4-1.4s-.8-.5-1.3-.5zm8.4 4c0 .6-.2 1.1-.7 1.4s-1.1.5-1.9.5c-.9 0-1.5-.1-2-.4v-.9c.3.2.6.3 1 .4s.7.1 1 .1c.5 0 .9-.1 1.2-.2s.4-.4.4-.7c0-.3-.1-.5-.3-.6s-.6-.5-1.2-.8c-.6-.2-1-.4-1.3-.6s-.4-.4-.6-.6-.1-.4-.1-.7c0-.5.2-.9.6-1.2s1-.5 1.8-.5c.7 0 1.4.1 2 .4l-.3.8c-.6-.3-1.2-.4-1.8-.4-.5 0-.8.1-1 .2s-.4.3-.4.6c0 .2 0 .3.1.4s.2.2.4.3.6.3 1.1.5c.8.3 1.3.6 1.5.8s.5.8.5 1.2zm5.7 0c0 .6-.2 1.1-.7 1.4s-1.1.5-1.9.5c-.9 0-1.5-.1-2-.4v-.9c.3.2.6.3 1 .4s.7.1 1 .1c.5 0 .9-.1 1.2-.2s.4-.4.4-.7c0-.3-.1-.5-.3-.6s-.6-.4-1.3-.6c-.6-.2-1-.4-1.3-.6s-.4-.4-.6-.6-.2-.5-.2-.8c0-.5.2-.9.6-1.2s1-.5 1.8-.5c.7 0 1.4.1 2 .4l-.3.8c-.6-.3-1.2-.4-1.8-.4-.5 0-.8.1-1 .2s-.4.3-.4.6c0 .2 0 .3.1.4s.2.2.4.3.6.3 1.1.5c.8.3 1.3.6 1.5.8s.7.7.7 1.1zm5.6 1.8l-.2-.9c-.3.4-.6.7-1 .8s-.7.2-1.2.2c-.6 0-1.1-.2-1.5-.5s-.5-.8-.5-1.4c0-1.3 1-2 3.1-2h1.1v-.4c0-.5-.1-.9-.3-1.1s-.6-.4-1-.4c-.5 0-1.1.2-1.8.5l-.3-.7c.3-.2.7-.3 1-.4s.8-.1 1.1-.1c.8 0 1.3.2 1.7.5s.6.9.6 1.6v4.4h-.8zm-2.2-.7c.6 0 1.1-.2 1.4-.5s.5-.8.5-1.4v-.6h-1c-.8 0-1.3.1-1.7.4s-.5.5-.5 1c0 .4.1.6.3.8s.6.3 1 .3zm3.9-5.8h1l1.4 3.7c.3.8.5 1.4.6 1.8.1-.2.2-.5.3-1s.7-2 1.6-4.5h1l-2.8 7.3c-.3.7-.6 1.2-1 1.5s-.8.5-1.3.5c-.3 0-.6 0-.9-.1v-.7c.2 0 .5.1.7.1.7 0 1.1-.4 1.4-1.1l.4-.9-2.4-6.6zm8.1 5.1l.1.1c-.1.4-.2.8-.4 1.4s-.4 1-.6 1.4h-.7c.1-.4.2-.9.3-1.5s.2-1.1.3-1.4h1zm7.1.7h.5c.2 0 .3-.1.4-.1v.7c-.1.1-.3.1-.5.1h-.6c-1.2 0-1.9-.7-1.9-2v-3.8h-.9v-.5l.9-.4.4-1.4h.6v1.5h1.9v.8h-1.9V98c0 .4.1.7.3.9s.4.4.8.4zm4.8.8c-.9 0-1.7-.3-2.2-.9s-.8-1.4-.8-2.4.3-1.9.8-2.5 1.2-.9 2.1-.9c.8 0 1.4.3 1.9.8s.7 1.2.7 2.1v.6h-4.4c0 .8.2 1.3.6 1.7s.9.6 1.5.6c.7 0 1.4-.1 2.1-.4v.9c-.3.1-.7.3-1 .3s-.8.1-1.3.1zm-.2-5.9c-.5 0-.9.2-1.2.5s-.5.8-.5 1.4h3.4c0-.6-.1-1.1-.4-1.4s-.8-.5-1.3-.5zm7.2-.8c.3 0 .5 0 .8.1l-.1.9c-.3-.1-.5-.1-.7-.1-.5 0-1 .2-1.3.6s-.6.9-.6 1.6v3.4h-1v-6.4h.8l.1 1.2c.2-.4.5-.7.9-1s.7-.3 1.1-.3zm10.1 6.6v-4.2c0-.5-.1-.9-.3-1.2s-.6-.4-1-.4c-.6 0-1.1.2-1.3.5s-.4.9-.4 1.6v3.6h-1v-4.2c0-.5-.1-.9-.3-1.2s-.6-.4-1-.4c-.6 0-1.1.2-1.3.5s-.4 1-.4 1.8v3.4h-1v-6.4h.8l.2.9c.2-.3.4-.6.8-.7s.7-.3 1.1-.3c1 0 1.7.4 2 1.1.2-.3.5-.6.8-.8s.8-.3 1.2-.3c.7 0 1.3.2 1.6.6s.5 1 .5 1.8v4.2h-1zm9.1.1c-.4 0-.8-.1-1.1-.2s-.6-.4-.9-.7h-.1c0 .4.1.7.1 1.1v2.6h-1v-9.3h.8l.1.9c.3-.4.5-.6.9-.8s.7-.2 1.1-.2c.9 0 1.5.3 2 .9s.7 1.4.7 2.4c0 1.1-.2 1.9-.7 2.5s-1 .8-1.9.8zm-.1-5.9c-.7 0-1.1.2-1.4.5s-.4.9-.5 1.7v.2c0 .9.2 1.5.5 1.9s.8.6 1.4.6c.6 0 1-.2 1.3-.7s.5-1.1.5-1.9c0-.8-.2-1.4-.5-1.8s-.7-.5-1.3-.5zm8.4 5.8l-.2-.9c-.3.4-.6.7-1 .8s-.7.2-1.2.2c-.6 0-1.1-.2-1.5-.5s-.5-.8-.5-1.4c0-1.3 1-2 3.1-2h1.1v-.4c0-.5-.1-.9-.3-1.1s-.6-.4-1-.4c-.5 0-1.1.2-1.8.5l-.3-.7c.3-.2.7-.3 1-.4s.8-.1 1.1-.1c.8 0 1.3.2 1.7.5s.6.9.6 1.6v4.4h-.8zm-2.2-.7c.6 0 1.1-.2 1.4-.5s.5-.8.5-1.4v-.6h-1c-.8 0-1.3.1-1.7.4s-.5.5-.5 1c0 .4.1.6.3.8s.7.3 1 .3zm8 .8c-.4 0-.8-.1-1.1-.2s-.6-.4-.9-.7h-.1c0 .4.1.7.1 1.1v2.6h-1v-9.3h.8l.1.9c.3-.4.5-.6.9-.8s.7-.2 1.1-.2c.9 0 1.5.3 2 .9s.7 1.4.7 2.4c0 1.1-.2 1.9-.7 2.5s-1.1.8-1.9.8zm-.2-5.9c-.7 0-1.1.2-1.4.5s-.4.9-.5 1.7v.2c0 .9.2 1.5.5 1.9s.8.6 1.4.6c.6 0 1-.2 1.3-.7s.5-1.1.5-1.9c0-.8-.2-1.4-.5-1.8s-.7-.5-1.3-.5zm7.2 5.9c-.9 0-1.7-.3-2.2-.9s-.8-1.4-.8-2.4.3-1.9.8-2.5 1.2-.9 2.1-.9c.8 0 1.4.3 1.9.8s.7 1.2.7 2.1v.6h-4.4c0 .8.2 1.3.6 1.7s.9.6 1.5.6c.7 0 1.4-.1 2.1-.4v.9c-.3.1-.7.3-1 .3s-.8.1-1.3.1zm-.2-5.9c-.5 0-.9.2-1.2.5s-.5.8-.5 1.4h3.4c0-.6-.1-1.1-.4-1.4s-.8-.5-1.3-.5zm7.2-.8c.3 0 .5 0 .8.1l-.1.9c-.3-.1-.5-.1-.7-.1-.5 0-1 .2-1.3.6s-.6.9-.6 1.6v3.4h-1v-6.4h.8l.1 1.2c.2-.4.5-.7.9-1s.7-.3 1.1-.3zm3 5.2l.1.1c-.1.4-.2.8-.4 1.4s-.4 1-.6 1.4h-.7c.1-.4.2-.9.3-1.5s.2-1.1.3-1.4h1zm7.9-5.2c.3 0 .5 0 .8.1l-.1.9c-.3-.1-.5-.1-.7-.1-.5 0-1 .2-1.3.6s-.6.9-.6 1.6v3.4h-1v-6.4h.8l.1 1.2c.2-.4.5-.7.9-1s.7-.3 1.1-.3zm4.7 6.7c-.9 0-1.7-.3-2.2-.9s-.8-1.4-.8-2.4.3-1.9.8-2.5 1.2-.9 2.1-.9c.8 0 1.4.3 1.9.8s.7 1.2.7 2.1v.6h-4.4c0 .8.2 1.3.6 1.7s.9.6 1.5.6c.7 0 1.4-.1 2.1-.4v.9c-.3.1-.7.3-1 .3s-.8.1-1.3.1zm-.2-5.9c-.5 0-.9.2-1.2.5s-.5.8-.5 1.4h3.4c0-.6-.1-1.1-.4-1.4s-.8-.5-1.3-.5zm8.4 4c0 .6-.2 1.1-.7 1.4s-1.1.5-1.9.5c-.9 0-1.5-.1-2-.4v-.9c.3.2.6.3 1 .4s.7.1 1 .1c.5 0 .9-.1 1.2-.2s.4-.4.4-.7c0-.3-.1-.5-.3-.6s-.6-.4-1.3-.6c-.6-.2-1-.4-1.3-.6s-.4-.4-.6-.6-.2-.5-.2-.8c0-.5.2-.9.6-1.2s1-.5 1.8-.5c.7 0 1.4.1 2 .4l-.3.8c-.6-.3-1.2-.4-1.8-.4-.5 0-.8.1-1 .2s-.2.3-.2.5 0 .3.1.4.2.2.4.3.6.3 1.1.5c.8.3 1.3.6 1.5.8s.5.8.5 1.2zm4.3 1.9c-.9 0-1.7-.3-2.2-.9s-.8-1.4-.8-2.4.3-1.9.8-2.5 1.2-.9 2.1-.9c.8 0 1.4.3 1.9.8s.7 1.2.7 2.1v.6H214c0 .8.2 1.3.6 1.7s.9.6 1.5.6c.7 0 1.4-.1 2.1-.4v.9c-.3.1-.7.3-1 .3s-.9.1-1.3.1zm-.3-5.9c-.5 0-.9.2-1.2.5s-.5.8-.5 1.4h3.4c0-.6-.1-1.1-.4-1.4s-.8-.5-1.3-.5zm8.2 5.8l-.2-.9c-.3.4-.6.7-1 .8s-.7.2-1.2.2c-.6 0-1.1-.2-1.5-.5s-.5-.8-.5-1.4c0-1.3 1-2 3.1-2h1.1v-.4c0-.5-.1-.9-.3-1.1s-.6-.4-1-.4c-.5 0-1.1.2-1.8.5l-.3-.7c.3-.2.7-.3 1-.4s.8-.1 1.1-.1c.8 0 1.3.2 1.7.5s.6.9.6 1.6v4.4h-.8zm-2.2-.7c.6 0 1.1-.2 1.4-.5s.5-.8.5-1.4v-.6h-1c-.8 0-1.3.1-1.7.4s-.5.5-.5 1c0 .4.1.6.3.8s.7.3 1 .3zm7.9-5.9c.3 0 .5 0 .8.1l-.1.9c-.3-.1-.5-.1-.7-.1-.5 0-1 .2-1.3.6s-.6.9-.6 1.6v3.4h-1v-6.4h.8l.1 1.2c.2-.4.5-.7.9-1s.7-.3 1.1-.3zm4.5 6.7c-.9 0-1.6-.3-2.2-.9s-.8-1.4-.8-2.4c0-1.1.3-1.9.8-2.5s1.3-.9 2.2-.9c.3 0 .6 0 .9.1s.6.1.7.2l-.3.8c-.2-.1-.4-.2-.7-.2s-.5-.1-.7-.1c-1.3 0-2 .8-2 2.5 0 .8.2 1.4.5 1.8s.8.6 1.4.6c.5 0 1.1-.1 1.6-.3v.9c-.2.3-.7.4-1.4.4zm7.6-.1v-4.2c0-.5-.1-.9-.4-1.2s-.6-.4-1.1-.4c-.7 0-1.2.2-1.5.6s-.5 1-.5 1.8v3.4h-1v-9.1h1v3.6h.1c.2-.3.5-.6.8-.7s.8-.3 1.2-.3c.8 0 1.4.2 1.8.6s.6 1 .6 1.8v4.2h-1zm9.1.1c-.4 0-.8-.1-1.1-.2s-.6-.4-.9-.7h-.1c0 .4.1.7.1 1.1v2.6h-1v-9.3h.8l.1.9c.3-.4.5-.6.9-.8s.7-.2 1.1-.2c.9 0 1.5.3 2 .9s.7 1.4.7 2.4c0 1.1-.2 1.9-.7 2.5s-1.1.8-1.9.8zm-.2-5.9c-.7 0-1.1.2-1.4.5s-.4.9-.5 1.7v.2c0 .9.2 1.5.5 1.9s.8.6 1.4.6c.6 0 1-.2 1.3-.7s.5-1.1.5-1.9c0-.8-.2-1.4-.5-1.8s-.7-.5-1.3-.5zm8.5 5.8l-.2-.9c-.3.4-.6.7-1 .8s-.7.2-1.2.2c-.6 0-1.1-.2-1.5-.5s-.5-.8-.5-1.4c0-1.3 1-2 3.1-2h1.1v-.4c0-.5-.1-.9-.3-1.1s-.6-.4-1-.4c-.5 0-1.1.2-1.8.5l-.3-.7c.3-.2.7-.3 1-.4s.8-.1 1.1-.1c.8 0 1.3.2 1.7.5s.6.9.6 1.6v4.4h-.8zm-2.2-.7c.6 0 1.1-.2 1.4-.5s.5-.8.5-1.4v-.6h-1c-.8 0-1.3.1-1.7.4s-.5.5-.5 1c0 .4.1.6.3.8s.6.3 1 .3zm7.9.8c-.4 0-.8-.1-1.1-.2s-.6-.4-.9-.7h-.1c0 .4.1.7.1 1.1v2.6h-1v-9.3h.8l.1.9c.3-.4.5-.6.9-.8s.7-.2 1.1-.2c.9 0 1.5.3 2 .9s.7 1.4.7 2.4c0 1.1-.2 1.9-.7 2.5s-1.1.8-1.9.8zm-.2-5.9c-.7 0-1.1.2-1.4.5s-.4.9-.5 1.7v.2c0 .9.2 1.5.5 1.9s.8.6 1.4.6c.6 0 1-.2 1.3-.7s.5-1.1.5-1.9c0-.8-.2-1.4-.5-1.8s-.7-.5-1.3-.5zm7.3 5.9c-.9 0-1.7-.3-2.2-.9s-.8-1.4-.8-2.4.3-1.9.8-2.5 1.2-.9 2.1-.9c.8 0 1.4.3 1.9.8s.7 1.2.7 2.1v.6h-4.4c0 .8.2 1.3.6 1.7s.9.6 1.5.6c.7 0 1.4-.1 2.1-.4v.9c-.3.1-.7.3-1 .3s-.9.1-1.3.1zm-.3-5.9c-.5 0-.9.2-1.2.5s-.5.8-.5 1.4h3.4c0-.6-.1-1.1-.4-1.4s-.8-.5-1.3-.5zm7.2-.8c.3 0 .5 0 .8.1l-.1.9c-.3-.1-.5-.1-.7-.1-.5 0-1 .2-1.3.6s-.6.9-.6 1.6v3.4h-1v-6.4h.8l.1 1.2c.2-.4.5-.7.9-1s.7-.3 1.1-.3zm-275 24.7c-.9 0-1.6-.3-2.2-.9s-.8-1.4-.8-2.4c0-1.1.3-1.9.8-2.5s1.3-.9 2.2-.9c.3 0 .6 0 .9.1s.6.1.7.2l-.3.8c-.2-.1-.4-.2-.7-.2s-.5-.1-.7-.1c-1.3 0-2 .8-2 2.5 0 .8.2 1.4.5 1.8s.8.6 1.4.6c.5 0 1.1-.1 1.6-.3v.9c-.2.3-.7.4-1.4.4zm8.7-3.4c0 1-.3 1.9-.8 2.5s-1.3.9-2.2.9c-.6 0-1.1-.1-1.5-.4s-.8-.7-1-1.2-.4-1.1-.4-1.8c0-1 .3-1.9.8-2.4s1.3-.9 2.2-.9c.9 0 1.6.3 2.1.9s.8 1.4.8 2.4zm-4.9 0c0 .8.2 1.4.5 1.9s.8.6 1.4.6 1.1-.2 1.5-.6.5-1.1.5-1.9c0-.8-.2-1.4-.5-1.9s-.8-.6-1.5-.6c-.6 0-1.1.2-1.4.6s-.5 1.1-.5 1.9zm7.5-3.2v4.2c0 .5.1.9.4 1.2s.6.4 1.1.4c.7 0 1.2-.2 1.5-.6s.5-1 .5-1.8v-3.4h1v6.4h-.8l-.1-.9h-.1c-.2.3-.5.6-.8.7s-.8.3-1.2.3c-.8 0-1.4-.2-1.8-.6s-.6-1-.6-1.8v-4.2h.9zm9.4-.1c.3 0 .5 0 .8.1l-.1.9c-.3-.1-.5-.1-.7-.1-.5 0-1 .2-1.3.6s-.6.9-.6 1.6v3.4h-1v-6.4h.8l.1 1.2c.2-.4.5-.7.9-1s.7-.3 1.1-.3zm6.1 4.8c0 .6-.2 1.1-.7 1.4s-1.1.5-1.9.5c-.9 0-1.5-.1-2-.4v-.9c.3.2.6.3 1 .4s.7.1 1 .1c.5 0 .9-.1 1.2-.2s.4-.4.4-.7c0-.3-.1-.5-.3-.6s-.6-.4-1.3-.6c-.6-.2-1-.4-1.3-.6s-.4-.4-.6-.6-.2-.5-.2-.8c0-.5.2-.9.6-1.2s1-.5 1.8-.5c.7 0 1.4.1 2 .4l-.3.8c-.6-.3-1.2-.4-1.8-.4-.5 0-.8.1-1 .2s-.4.3-.4.6c0 .2 0 .3.1.4s.2.2.4.3.6.3 1.1.5c.8.3 1.3.6 1.5.8s.7.7.7 1.1zm4.3 1.9c-.9 0-1.7-.3-2.2-.9s-.8-1.4-.8-2.4.3-1.9.8-2.5 1.2-.9 2.1-.9c.8 0 1.4.3 1.9.8s.7 1.2.7 2.1v.6h-4.4c0 .8.2 1.3.6 1.7s.9.6 1.5.6c.7 0 1.4-.1 2.1-.4v.9c-.3.1-.7.3-1 .3s-.9.1-1.3.1zm-.3-5.9c-.5 0-.9.2-1.2.5s-.5.8-.5 1.4h3.4c0-.6-.1-1.1-.4-1.4s-.8-.5-1.3-.5zm9.6 5.8l-1.2-3.8c-.1-.2-.2-.8-.4-1.6-.2.7-.3 1.2-.4 1.6l-1.2 3.8h-1.1l-1.8-6.4h1c.4 1.6.7 2.8.9 3.7s.3 1.4.4 1.7c0-.2.1-.5.2-.9s.2-.6.2-.8l1.2-3.7H43l1.1 3.7c.2.7.4 1.2.4 1.7 0-.1.1-.4.1-.7s.5-1.9 1.2-4.7h1L45 118h-.9zm9.6-3.3c0 1-.3 1.9-.8 2.5s-1.3.9-2.2.9c-.6 0-1.1-.1-1.5-.4s-.8-.7-1-1.2-.4-1.1-.4-1.8c0-1 .3-1.9.8-2.4s1.3-.9 2.2-.9c.9 0 1.6.3 2.1.9s.8 1.4.8 2.4zm-4.9 0c0 .8.2 1.4.5 1.9s.8.6 1.4.6 1.1-.2 1.5-.6.5-1.1.5-1.9c0-.8-.2-1.4-.5-1.9s-.8-.6-1.5-.6c-.6 0-1.1.2-1.4.6s-.5 1.1-.5 1.9zm9.5-3.3c.3 0 .5 0 .8.1l-.1.9c-.3-.1-.5-.1-.7-.1-.5 0-1 .2-1.3.6s-.6.9-.6 1.6v3.4h-1v-6.4h.8l.1 1.2c.2-.4.5-.7.9-1s.7-.3 1.1-.3zm3 3.3c.2-.2.4-.6.8-.9l2.1-2.2h1.2l-2.6 2.7 2.8 3.7h-1.2l-2.3-3-.7.6v2.4h-1v-9.1h1v4.8c-.1.2-.2.5-.1 1zm6.3 1.9l.1.1c-.1.4-.2.8-.4 1.4s-.4 1-.6 1.4H66c.1-.4.2-.9.3-1.5s.2-1.1.3-1.4h1zm9.4.5c-.5.7-1.2 1-2.1 1-.8 0-1.5-.3-2-.9s-.7-1.4-.7-2.4.2-1.9.7-2.5 1.1-.9 2-.9c.9 0 1.5.3 2 .9h.1v-3.6h1v9.1h-.8l-.2-.7zm-1.9.2c.7 0 1.1-.2 1.4-.5s.4-.9.4-1.7v-.2c0-.9-.2-1.6-.5-1.9s-.8-.6-1.5-.6c-.6 0-1 .2-1.3.7s-.5 1.1-.5 1.9c0 .8.2 1.4.5 1.9s.9.4 1.5.4zm4.8-7.5c0-.2.1-.4.2-.5s.2-.2.4-.2.3.1.4.2.2.3.2.5-.1.4-.2.5-.2.2-.4.2-.3-.1-.4-.2-.2-.3-.2-.5zM81 118h-1v-6.4h1v6.4zm6.2-1.8c0 .6-.2 1.1-.7 1.4s-1.1.5-1.9.5c-.9 0-1.5-.1-2-.4v-.9c.3.2.6.3 1 .4s.7.1 1 .1c.5 0 .9-.1 1.2-.2s.4-.4.4-.7c0-.3-.1-.5-.3-.6s-.6-.4-1.3-.6c-.6-.2-1-.4-1.3-.6s-.4-.4-.6-.6-.2-.5-.2-.8c0-.5.2-.9.6-1.2s1-.5 1.8-.5c.7 0 1.4.1 2 .4l-.3.8c-.6-.3-1.2-.4-1.8-.4-.5 0-.8.1-1 .2s-.4.3-.4.6c0 .2 0 .3.1.4s.2.2.4.3.6.3 1.1.5c.8.3 1.3.6 1.5.8s.7.7.7 1.1zm5.7 0c0 .6-.2 1.1-.7 1.4s-1.1.5-1.9.5c-.9 0-1.5-.1-2-.4v-.9c.3.2.6.3 1 .4s.7.1 1 .1c.5 0 .9-.1 1.2-.2s.4-.4.4-.7c0-.3-.1-.5-.3-.6s-.6-.4-1.3-.6c-.6-.2-1-.4-1.3-.6s-.4-.4-.6-.6-.2-.5-.2-.8c0-.5.2-.9.6-1.2s1-.5 1.8-.5c.7 0 1.4.1 2 .4l-.3.8c-.6-.3-1.2-.4-1.8-.4-.5 0-.8.1-1 .2s-.4.3-.4.6c0 .2 0 .3.1.4s.2.2.4.3.6.3 1.1.5c.8.3 1.3.6 1.5.8s.7.7.7 1.1zm4.3 1.9c-.9 0-1.7-.3-2.2-.9s-.8-1.4-.8-2.4.3-1.9.8-2.5 1.2-.9 2.1-.9c.8 0 1.4.3 1.9.8s.7 1.2.7 2.1v.6h-4.4c0 .8.2 1.3.6 1.7s.9.6 1.5.6c.7 0 1.4-.1 2.1-.4v.9c-.3.1-.7.3-1 .3s-.9.1-1.3.1zm-.3-5.9c-.5 0-.9.2-1.2.5s-.5.8-.5 1.4h3.4c0-.6-.1-1.1-.4-1.4s-.7-.5-1.3-.5zm7.3-.8c.3 0 .5 0 .8.1l-.1.9c-.3-.1-.5-.1-.7-.1-.5 0-1 .2-1.3.6s-.6.9-.6 1.6v3.4h-1v-6.4h.8l.1 1.2c.2-.4.5-.7.9-1s.7-.3 1.1-.3zm4 5.9h.5c.2 0 .3-.1.4-.1v.7c-.1.1-.3.1-.5.1h-.6c-1.2 0-1.9-.7-1.9-2v-3.8h-.9v-.5l.9-.4.4-1.4h.6v1.5h1.9v.8h-1.9v3.8c0 .4.1.7.3.9s.5.4.8.4zm6.1.7l-.2-.9c-.3.4-.6.7-1 .8s-.7.2-1.2.2c-.6 0-1.1-.2-1.5-.5s-.5-.8-.5-1.4c0-1.3 1-2 3.1-2h1.1v-.4c0-.5-.1-.9-.3-1.1s-.6-.4-1-.4c-.5 0-1.1.2-1.8.5l-.3-.7c.3-.2.7-.3 1-.4s.8-.1 1.1-.1c.8 0 1.3.2 1.7.5s.6.9.6 1.6v4.4h-.8zm-2.2-.7c.6 0 1.1-.2 1.4-.5s.5-.8.5-1.4v-.6h-1c-.8 0-1.3.1-1.7.4s-.5.5-.5 1c0 .4.1.6.3.8s.6.3 1 .3zm7 0h.5c.2 0 .3-.1.4-.1v.7c-.1.1-.3.1-.5.1h-.6c-1.2 0-1.9-.7-1.9-2v-3.8h-.9v-.5l.9-.4.4-1.4h.6v1.5h1.9v.8H118v3.8c0 .4.1.7.3.9s.5.4.8.4zm2.1-7.5c0-.2.1-.4.2-.5s.2-.2.4-.2.3.1.4.2.2.3.2.5-.1.4-.2.5-.2.2-.4.2-.3-.1-.4-.2-.2-.3-.2-.5zm1 8.2h-1v-6.4h1v6.4zm7.7-3.3c0 1-.3 1.9-.8 2.5s-1.3.9-2.2.9c-.6 0-1.1-.1-1.5-.4s-.8-.7-1-1.2-.4-1.1-.4-1.8c0-1 .3-1.9.8-2.4s1.3-.9 2.2-.9c.9 0 1.6.3 2.1.9s.8 1.4.8 2.4zm-4.9 0c0 .8.2 1.4.5 1.9s.8.6 1.4.6 1.1-.2 1.5-.6.5-1.1.5-1.9c0-.8-.2-1.4-.5-1.9s-.8-.6-1.5-.6c-.6 0-1.1.2-1.4.6s-.5 1.1-.5 1.9zm11 3.3v-4.2c0-.5-.1-.9-.4-1.2s-.6-.4-1.1-.4c-.7 0-1.2.2-1.5.5s-.5 1-.5 1.8v3.4h-1v-6.4h.8l.2.9c.2-.3.5-.6.8-.7s.8-.3 1.2-.3c.8 0 1.4.2 1.7.6s.6 1 .6 1.8v4.2h-.8zm3.9-1.4l.1.1c-.1.4-.2.8-.4 1.4s-.4 1-.6 1.4h-.7c.1-.4.2-.9.3-1.5s.2-1.1.3-1.4h1zm10.6-1.9c0 1-.3 1.9-.8 2.5s-1.3.9-2.2.9c-.6 0-1.1-.1-1.5-.4s-.8-.7-1-1.2-.4-1.1-.4-1.8c0-1 .3-1.9.8-2.4s1.3-.9 2.2-.9c.9 0 1.6.3 2.1.9s.8 1.4.8 2.4zm-4.9 0c0 .8.2 1.4.5 1.9s.8.6 1.4.6 1.1-.2 1.5-.6.5-1.1.5-1.9c0-.8-.2-1.4-.5-1.9s-.8-.6-1.5-.6c-.6 0-1.1.2-1.4.6s-.5 1.1-.5 1.9zm8.7 2.6h.5c.2 0 .3-.1.4-.1v.7c-.1.1-.3.1-.5.1h-.6c-1.2 0-1.9-.7-1.9-2v-3.8h-.9v-.5l.9-.4.4-1.4h.6v1.5h1.9v.8h-1.9v3.8c0 .4.1.7.3.9s.5.4.8.4zm6.6.7v-4.2c0-.5-.1-.9-.4-1.2s-.6-.4-1.1-.4c-.7 0-1.2.2-1.5.6s-.5 1-.5 1.8v3.4h-1v-9.1h1v3.6h.1c.2-.3.5-.6.8-.7s.8-.3 1.2-.3c.8 0 1.4.2 1.8.6s.6 1 .6 1.8v4.2h-1zm5.6.1c-.9 0-1.7-.3-2.2-.9s-.8-1.4-.8-2.4.3-1.9.8-2.5 1.2-.9 2.1-.9c.8 0 1.4.3 1.9.8s.7 1.2.7 2.1v.6h-4.4c0 .8.2 1.3.6 1.7s.9.6 1.5.6c.7 0 1.4-.1 2.1-.4v.9c-.3.1-.7.3-1 .3s-.8.1-1.3.1zm-.2-5.9c-.5 0-.9.2-1.2.5s-.5.8-.5 1.4h3.4c0-.6-.1-1.1-.4-1.4s-.8-.5-1.3-.5zm7.2-.8c.3 0 .5 0 .8.1l-.1.9c-.3-.1-.5-.1-.7-.1-.5 0-1 .2-1.3.6s-.6.9-.6 1.6v3.4h-1v-6.4h.8l.1 1.2c.2-.4.5-.7.9-1s.7-.3 1.1-.3zm6.1 4.8c0 .6-.2 1.1-.7 1.4s-1.1.5-1.9.5c-.9 0-1.5-.1-2-.4v-.9c.3.2.6.3 1 .4s.7.1 1 .1c.5 0 .9-.1 1.2-.2s.4-.4.4-.7c0-.3-.1-.5-.3-.6s-.6-.4-1.3-.6c-.6-.2-1-.4-1.3-.6s-.4-.4-.6-.6-.2-.5-.2-.8c0-.5.2-.9.6-1.2s1-.5 1.8-.5c.7 0 1.4.1 2 .4l-.3.8c-.6-.3-1.2-.4-1.8-.4-.5 0-.8.1-1 .2s-.4.3-.4.6c0 .2 0 .3.1.4s.2.2.4.3.6.3 1.1.5c.8.3 1.3.6 1.5.8s.7.7.7 1.1zm3.6-1.5c0 1-.2 2-.5 2.9s-.7 1.7-1.3 2.3h-.9c.5-.7 1-1.5 1.2-2.4s.4-1.8.4-2.8c0-1-.1-1.9-.4-2.8s-.7-1.7-1.3-2.5h.9c.6.7 1 1.5 1.3 2.4s.6 1.8.6 2.9zm10.2 0c0 1-.3 1.9-.8 2.5s-1.3.9-2.2.9c-.6 0-1.1-.1-1.5-.4s-.8-.7-1-1.2-.4-1.1-.4-1.8c0-1 .3-1.9.8-2.4s1.3-.9 2.2-.9c.9 0 1.6.3 2.1.9s.8 1.4.8 2.4zm-4.9 0c0 .8.2 1.4.5 1.9s.8.6 1.4.6 1.1-.2 1.5-.6.5-1.1.5-1.9c0-.8-.2-1.4-.5-1.9s-.8-.6-1.5-.6c-.6 0-1.1.2-1.4.6s-.5 1.1-.5 1.9zm9.5-3.3c.3 0 .5 0 .8.1l-.1.9c-.3-.1-.5-.1-.7-.1-.5 0-1 .2-1.3.6s-.6.9-.6 1.6v3.4h-1v-6.4h.8l.1 1.2c.2-.4.5-.7.9-1s.7-.3 1.1-.3zm9.3 4.8c0 .6-.2 1.1-.7 1.4s-1.1.5-1.9.5c-.9 0-1.5-.1-2-.4v-.9c.3.2.6.3 1 .4s.7.1 1 .1c.5 0 .9-.1 1.2-.2s.4-.4.4-.7c0-.3-.1-.5-.3-.6s-.6-.4-1.3-.6c-.6-.2-1-.4-1.3-.6s-.4-.4-.6-.6-.2-.5-.2-.8c0-.5.2-.9.6-1.2s1-.5 1.8-.5c.7 0 1.4.1 2 .4l-.3.8c-.6-.3-1.2-.4-1.8-.4-.5 0-.8.1-1 .2s-.4.3-.4.6c0 .2 0 .3.1.4s.2.2.4.3.6.3 1.1.5c.8.3 1.3.6 1.5.8s.7.7.7 1.1zm4.5 1.9c-.4 0-.8-.1-1.1-.2s-.6-.4-.9-.7h-.1c0 .4.1.7.1 1.1v2.6h-1v-9.3h.8l.1.9c.3-.4.5-.6.9-.8s.7-.2 1.1-.2c.9 0 1.5.3 2 .9s.7 1.4.7 2.4c0 1.1-.2 1.9-.7 2.5s-1 .8-1.9.8zm-.1-5.9c-.7 0-1.1.2-1.4.5s-.4.9-.5 1.7v.2c0 .9.2 1.5.5 1.9s.8.6 1.4.6c.6 0 1-.2 1.3-.7s.5-1.1.5-1.9c0-.8-.2-1.4-.5-1.8s-.7-.5-1.3-.5zm7.2 5.9c-.9 0-1.7-.3-2.2-.9s-.8-1.4-.8-2.4.3-1.9.8-2.5 1.2-.9 2.1-.9c.8 0 1.4.3 1.9.8s.7 1.2.7 2.1v.6H217c0 .8.2 1.3.6 1.7s.9.6 1.5.6c.7 0 1.4-.1 2.1-.4v.9c-.3.1-.7.3-1 .3s-.9.1-1.3.1zm-.3-5.9c-.5 0-.9.2-1.2.5s-.5.8-.5 1.4h3.4c0-.6-.1-1.1-.4-1.4s-.7-.5-1.3-.5zm6.9 5.9c-.9 0-1.6-.3-2.2-.9s-.8-1.4-.8-2.4c0-1.1.3-1.9.8-2.5s1.3-.9 2.2-.9c.3 0 .6 0 .9.1s.6.1.7.2l-.3.8c-.2-.1-.4-.2-.7-.2s-.5-.1-.7-.1c-1.3 0-2 .8-2 2.5 0 .8.2 1.4.5 1.8s.8.6 1.4.6c.5 0 1.1-.1 1.6-.3v.9c-.2.3-.8.4-1.4.4zm3.1-8.3c0-.2.1-.4.2-.5s.2-.2.4-.2.3.1.4.2.2.3.2.5-.1.4-.2.5-.2.2-.4.2-.3-.1-.4-.2-.2-.3-.2-.5zm1 8.2h-1v-6.4h1v6.4zm5-5.7H233v5.7h-1v-5.7h-1.1v-.4l1.1-.4v-.4c0-1.6.7-2.4 2.1-2.4.3 0 .7.1 1.2.2l-.3.8c-.4-.1-.7-.2-1-.2-.4 0-.6.1-.8.4s-.3.6-.3 1.2v.4h1.6v.8zm1.1-2.5c0-.2.1-.4.2-.5s.2-.2.4-.2.3.1.4.2.2.3.2.5-.1.4-.2.5-.2.2-.4.2-.3-.1-.4-.2-.2-.3-.2-.5zm1 8.2h-1v-6.4h1v6.4zm4.6.1c-.9 0-1.6-.3-2.2-.9s-.8-1.4-.8-2.4c0-1.1.3-1.9.8-2.5s1.3-.9 2.2-.9c.3 0 .6 0 .9.1s.6.1.7.2l-.3.8c-.2-.1-.4-.2-.7-.2s-.5-.1-.7-.1c-1.3 0-2 .8-2 2.5 0 .8.2 1.4.5 1.8s.8.6 1.4.6c.5 0 1.1-.1 1.6-.3v.9c-.2.3-.7.4-1.4.4zm9.3 0c-.4 0-.8-.1-1.1-.2s-.6-.4-.9-.7h-.1c0 .4.1.7.1 1.1v2.6h-1v-9.3h.8l.1.9c.3-.4.5-.6.9-.8s.7-.2 1.1-.2c.9 0 1.5.3 2 .9s.7 1.4.7 2.4c0 1.1-.2 1.9-.7 2.5s-1.1.8-1.9.8zm-.1-5.9c-.7 0-1.1.2-1.4.5s-.4.9-.5 1.7v.2c0 .9.2 1.5.5 1.9s.8.6 1.4.6c.6 0 1-.2 1.3-.7s.5-1.1.5-1.9c0-.8-.2-1.4-.5-1.8s-.8-.5-1.3-.5zm8.4 5.8l-.2-.9c-.3.4-.6.7-1 .8s-.7.2-1.2.2c-.6 0-1.1-.2-1.5-.5s-.5-.8-.5-1.4c0-1.3 1-2 3.1-2h1.1v-.4c0-.5-.1-.9-.3-1.1s-.6-.4-1-.4c-.5 0-1.1.2-1.8.5l-.3-.7c.3-.2.7-.3 1-.4s.8-.1 1.1-.1c.8 0 1.3.2 1.7.5s.6.9.6 1.6v4.4h-.8zm-2.2-.7c.6 0 1.1-.2 1.4-.5s.5-.8.5-1.4v-.6h-1c-.8 0-1.3.1-1.7.4s-.5.5-.5 1c0 .4.1.6.3.8s.6.3 1 .3zm7.9-5.9c.3 0 .5 0 .8.1l-.1.9c-.3-.1-.5-.1-.7-.1-.5 0-1 .2-1.3.6s-.6.9-.6 1.6v3.4h-1v-6.4h.8l.1 1.2c.2-.4.5-.7.9-1s.7-.3 1.1-.3zm4 5.9h.5c.2 0 .3-.1.4-.1v.7c-.1.1-.3.1-.5.1h-.6c-1.2 0-1.9-.7-1.9-2v-3.8h-.9v-.5l.9-.4.4-1.4h.6v1.5h1.9v.8h-1.9v3.8c0 .4.1.7.3.9s.5.4.8.4zm6.3-1.1c0 .6-.2 1.1-.7 1.4s-1.1.5-1.9.5c-.9 0-1.5-.1-2-.4v-.9c.3.2.6.3 1 .4s.7.1 1 .1c.5 0 .9-.1 1.2-.2s.4-.4.4-.7c0-.3-.1-.5-.3-.6s-.6-.4-1.3-.6c-.6-.2-1-.4-1.3-.6s-.4-.4-.6-.6-.2-.5-.2-.8c0-.5.2-.9.6-1.2s1-.5 1.8-.5c.7 0 1.4.1 2 .4l-.3.8c-.6-.3-1.2-.4-1.8-.4-.5 0-.8.1-1 .2s-.4.3-.4.6c0 .2 0 .3.1.4s.2.2.4.3.6.3 1.1.5c.8.3 1.3.6 1.5.8s.7.7.7 1.1zm10.3-1.5c0 1-.3 1.9-.8 2.5s-1.3.9-2.2.9c-.6 0-1.1-.1-1.5-.4s-.8-.7-1-1.2-.4-1.1-.4-1.8c0-1 .3-1.9.8-2.4s1.3-.9 2.2-.9c.9 0 1.6.3 2.1.9s.8 1.4.8 2.4zm-4.9 0c0 .8.2 1.4.5 1.9s.8.6 1.4.6 1.1-.2 1.5-.6.5-1.1.5-1.9c0-.8-.2-1.4-.5-1.9s-.8-.6-1.5-.6c-.6 0-1.1.2-1.4.6s-.5 1.1-.5 1.9zm9.5-2.4h-1.6v5.7h-1v-5.7H286v-.4l1.1-.4v-.4c0-1.6.7-2.4 2.1-2.4.3 0 .7.1 1.2.2l-.3.8c-.4-.1-.7-.2-1-.2-.4 0-.6.1-.8.4s-.3.6-.3 1.2v.4h1.6v.8zM6.2 127.8c0-.2.1-.4.2-.5s.2-.2.4-.2.3.1.4.2.2.3.2.5-.1.4-.2.5-.2.2-.4.2-.3-.1-.4-.2-.2-.3-.2-.5zm1.1 8.2h-1v-6.4h1v6.4zm4.1-.7h.5c.2 0 .3-.1.4-.1v.7c-.1.1-.3.1-.5.1h-.6c-1.2 0-1.9-.7-1.9-2v-3.8h-.8v-.5l.9-.4.4-1.4h.6v1.5h1.9v.8h-1.9v3.8c0 .4.1.7.3.9s.4.4.7.4zm10.5.7l-1.2-3.8c-.1-.2-.2-.8-.4-1.6-.2.7-.3 1.2-.4 1.6l-1.2 3.8h-1.1l-1.8-6.4h1c.4 1.6.7 2.8.9 3.7s.3 1.4.4 1.7c0-.2.1-.5.2-.9s.2-.6.2-.8l1.2-3.7h1.1l1.1 3.7c.2.7.4 1.2.4 1.7 0-.1.1-.4.1-.7s.5-1.9 1.2-4.7h1l-1.8 6.4h-.9zm4-8.2c0-.2.1-.4.2-.5s.2-.2.4-.2.3.1.4.2.2.3.2.5-.1.4-.2.5-.2.2-.4.2-.3-.1-.4-.2-.2-.3-.2-.5zM27 136h-1v-6.4h1v6.4zm4.1-.7h.5c.2 0 .3-.1.4-.1v.7c-.1.1-.3.1-.5.1h-.6c-1.2 0-1.9-.7-1.9-2v-3.8h-.9v-.5l.9-.4.4-1.4h.6v1.5h2v.8h-1.9v3.8c0 .4.1.7.3.9s.4.4.7.4zm6.6.7v-4.2c0-.5-.1-.9-.4-1.2s-.6-.4-1.1-.4c-.7 0-1.2.2-1.5.6s-.5 1-.5 1.8v3.4h-1v-9.1h1v3.6h.1c.2-.3.5-.6.8-.7s.8-.3 1.2-.3c.8 0 1.4.2 1.8.6s.6 1 .6 1.8v4.2h-1zm8.5-3.3c0 1-.3 1.9-.8 2.5s-1.3.9-2.2.9c-.6 0-1.1-.1-1.5-.4s-.8-.7-1-1.2-.4-1.1-.4-1.8c0-1 .3-1.9.8-2.4s1.3-.9 2.2-.9c.9 0 1.6.3 2.1.9s.8 1.4.8 2.4zm-4.9 0c0 .8.2 1.4.5 1.9s.8.6 1.4.6 1.1-.2 1.5-.6.5-1.1.5-1.9c0-.8-.2-1.4-.5-1.9s-.8-.6-1.5-.6c-.6 0-1.1.2-1.4.6s-.5 1.1-.5 1.9zm7.5-3.2v4.2c0 .5.1.9.4 1.2s.6.4 1.1.4c.7 0 1.2-.2 1.5-.6s.5-1 .5-1.8v-3.4h1v6.4h-.8l-.1-.9h-.1c-.2.3-.5.6-.8.7s-.8.3-1.2.3c-.8 0-1.4-.2-1.8-.6s-.6-1-.6-1.8v-4.2h.9zm8.5 5.8h.5c.2 0 .3-.1.4-.1v.7c-.1.1-.3.1-.5.1h-.6c-1.2 0-1.9-.7-1.9-2v-3.8h-.9v-.5l.9-.4.4-1.4h.6v1.5h1.9v.8h-1.9v3.8c0 .4.1.7.3.9s.5.4.8.4zm8.3.8c-.4 0-.8-.1-1.1-.2s-.6-.4-.9-.7h-.1c0 .4.1.7.1 1.1v2.6h-1v-9.3h.8l.1.9c.3-.4.5-.6.9-.8s.7-.2 1.1-.2c.9 0 1.5.3 2 .9s.7 1.4.7 2.4c0 1.1-.2 1.9-.7 2.5s-1.1.8-1.9.8zm-.1-5.9c-.7 0-1.1.2-1.4.5s-.4.9-.5 1.7v.2c0 .9.2 1.5.5 1.9s.8.6 1.4.6c.6 0 1-.2 1.3-.7s.5-1.1.5-1.9c0-.8-.2-1.4-.5-1.8s-.8-.5-1.3-.5zm7.4-.8c.3 0 .5 0 .8.1l-.1.9c-.3-.1-.5-.1-.7-.1-.5 0-1 .2-1.3.6s-.6.9-.6 1.6v3.4h-1v-6.4h.8l.1 1.2c.2-.4.5-.7.9-1s.7-.3 1.1-.3zm7.5 3.3c0 1-.3 1.9-.8 2.5s-1.3.9-2.2.9c-.6 0-1.1-.1-1.5-.4s-.8-.7-1-1.2-.4-1.1-.4-1.8c0-1 .3-1.9.8-2.4s1.3-.9 2.2-.9c.9 0 1.6.3 2.1.9s.8 1.4.8 2.4zm-4.9 0c0 .8.2 1.4.5 1.9s.8.6 1.4.6 1.1-.2 1.5-.6.5-1.1.5-1.9c0-.8-.2-1.4-.5-1.9s-.8-.6-1.5-.6c-.6 0-1.1.2-1.4.6s-.5 1.1-.5 1.9zm9.6 3.4c-.4 0-.8-.1-1.1-.2s-.6-.4-.9-.7H83c0 .4.1.7.1 1.1v2.6h-1v-9.3h.8l.1.9c.3-.4.5-.6.9-.8s.7-.2 1.1-.2c.9 0 1.5.3 2 .9s.7 1.4.7 2.4c0 1.1-.2 1.9-.7 2.5s-1.1.8-1.9.8zm-.1-5.9c-.7 0-1.1.2-1.4.5s-.4.9-.5 1.7v.2c0 .9.2 1.5.5 1.9s.8.6 1.4.6c.6 0 1-.2 1.3-.7s.5-1.1.5-1.9c0-.8-.2-1.4-.5-1.8s-.8-.5-1.3-.5zm7.2 5.9c-.9 0-1.7-.3-2.2-.9s-.8-1.4-.8-2.4.3-1.9.8-2.5 1.2-.9 2.1-.9c.8 0 1.4.3 1.9.8s.7 1.2.7 2.1v.6h-4.4c0 .8.2 1.3.6 1.7s.9.6 1.5.6c.7 0 1.4-.1 2.1-.4v.9c-.3.1-.7.3-1 .3s-.9.1-1.3.1zm-.3-5.9c-.5 0-.9.2-1.2.5s-.5.8-.5 1.4h3.4c0-.6-.1-1.1-.4-1.4s-.8-.5-1.3-.5zm7.2-.8c.3 0 .5 0 .8.1l-.1.9c-.3-.1-.5-.1-.7-.1-.5 0-1 .2-1.3.6s-.6.9-.6 1.6v3.4h-1v-6.4h.8l.1 1.2c.2-.4.5-.7.9-1s.7-.3 1.1-.3zm8.1 0c.3 0 .5 0 .8.1l-.1.9c-.3-.1-.5-.1-.7-.1-.5 0-1 .2-1.3.6s-.6.9-.6 1.6v3.4h-1v-6.4h.8l.1 1.2c.2-.4.5-.7.9-1s.7-.3 1.1-.3zm4.6 6.7c-.9 0-1.7-.3-2.2-.9s-.8-1.4-.8-2.4.3-1.9.8-2.5 1.2-.9 2.1-.9c.8 0 1.4.3 1.9.8s.7 1.2.7 2.1v.6h-4.4c0 .8.2 1.3.6 1.7s.9.6 1.5.6c.7 0 1.4-.1 2.1-.4v.9c-.3.1-.7.3-1 .3s-.8.1-1.3.1zm-.2-5.9c-.5 0-.9.2-1.2.5s-.5.8-.5 1.4h3.4c0-.6-.1-1.1-.4-1.4s-.8-.5-1.3-.5zm7.2.1h-1.6v5.7h-1v-5.7H115v-.4l1.1-.4v-.4c0-1.6.7-2.4 2.1-2.4.3 0 .7.1 1.2.2l-.3.8c-.4-.1-.7-.2-1-.2-.4 0-.6.1-.8.4s-.3.6-.3 1.2v.4h1.6v.8zm3.8 5.8c-.9 0-1.7-.3-2.2-.9s-.8-1.4-.8-2.4.3-1.9.8-2.5 1.2-.9 2.1-.9c.8 0 1.4.3 1.9.8s.7 1.2.7 2.1v.6h-4.4c0 .8.2 1.3.6 1.7s.9.6 1.5.6c.7 0 1.4-.1 2.1-.4v.9c-.3.1-.7.3-1 .3s-.8.1-1.3.1zm-.2-5.9c-.5 0-.9.2-1.2.5s-.5.8-.5 1.4h3.4c0-.6-.1-1.1-.4-1.4s-.8-.5-1.3-.5zm7.2-.8c.3 0 .5 0 .8.1l-.1.9c-.3-.1-.5-.1-.7-.1-.5 0-1 .2-1.3.6s-.6.9-.6 1.6v3.4h-1v-6.4h.8l.1 1.2c.2-.4.5-.7.9-1s.7-.3 1.1-.3zm4.7 6.7c-.9 0-1.7-.3-2.2-.9s-.8-1.4-.8-2.4.3-1.9.8-2.5 1.2-.9 2.1-.9c.8 0 1.4.3 1.9.8s.7 1.2.7 2.1v.6h-4.4c0 .8.2 1.3.6 1.7s.9.6 1.5.6c.7 0 1.4-.1 2.1-.4v.9c-.3.1-.7.3-1 .3s-.9.1-1.3.1zm-.3-5.9c-.5 0-.9.2-1.2.5s-.5.8-.5 1.4h3.4c0-.6-.1-1.1-.4-1.4s-.8-.5-1.3-.5zm8.7 5.8v-4.2c0-.5-.1-.9-.4-1.2s-.6-.4-1.1-.4c-.7 0-1.2.2-1.5.5s-.5 1-.5 1.8v3.4h-1v-6.4h.8l.2.9c.2-.3.5-.6.8-.7s.8-.3 1.2-.3c.8 0 1.4.2 1.7.6s.6 1 .6 1.8v4.2h-.8zm5.5.1c-.9 0-1.6-.3-2.2-.9s-.8-1.4-.8-2.4c0-1.1.3-1.9.8-2.5s1.3-.9 2.2-.9c.3 0 .6 0 .9.1s.6.1.7.2l-.3.8c-.2-.1-.4-.2-.7-.2s-.5-.1-.7-.1c-1.3 0-2 .8-2 2.5 0 .8.2 1.4.5 1.8s.8.6 1.4.6c.5 0 1.1-.1 1.6-.3v.9c-.2.3-.7.4-1.4.4zm3.1-8.3c0-.2.1-.4.2-.5s.2-.2.4-.2.3.1.4.2.2.3.2.5-.1.4-.2.5-.2.2-.4.2-.3-.1-.4-.2-.2-.3-.2-.5zm1 8.2h-1v-6.4h1v6.4zm6.5 0v-4.2c0-.5-.1-.9-.4-1.2s-.6-.4-1.1-.4c-.7 0-1.2.2-1.5.5s-.5 1-.5 1.8v3.4h-1v-6.4h.8l.2.9c.2-.3.5-.6.8-.7s.8-.3 1.2-.3c.8 0 1.4.2 1.7.6s.6 1 .6 1.8v4.2h-.8zm8.2-6.5v.6l-1.2.1c.1.1.2.3.3.5s.1.5.1.7c0 .6-.2 1.1-.6 1.5s-1 .6-1.8.6h-.5c-.4.2-.6.5-.6.8 0 .2.1.3.2.4s.4.1.7.1h1.1c.7 0 1.2.1 1.6.4s.6.7.6 1.3c0 .7-.3 1.3-.9 1.6s-1.4.6-2.5.6c-.8 0-1.5-.2-1.9-.5s-.7-.8-.7-1.3c0-.4.1-.7.4-1s.6-.5 1.1-.6c-.2-.1-.3-.2-.4-.3s-.2-.3-.2-.5.1-.4.2-.6.3-.3.6-.5c-.3-.1-.6-.4-.8-.7s-.3-.7-.3-1.1c0-.7.2-1.2.6-1.6s1-.6 1.8-.6c.3 0 .6 0 .9.1h2.2zm-5.1 7.5c0 .3.1.6.4.8s.7.3 1.3.3c.8 0 1.4-.1 1.8-.4s.6-.6.6-1c0-.3-.1-.6-.3-.7s-.6-.2-1.2-.2h-1.2c-.4 0-.8.1-1 .3s-.4.5-.4.9zm.5-5.4c0 .4.1.8.4 1s.6.3 1.1.3c.9 0 1.4-.5 1.4-1.4 0-1-.5-1.4-1.4-1.4-.5 0-.8.1-1.1.4s-.4.6-.4 1.1zm5.8 3.7c0-.3.1-.5.2-.6s.3-.2.5-.2.4.1.5.2.2.3.2.6-.1.4-.2.6-.3.2-.5.2-.4-.1-.5-.2-.2-.3-.2-.6zm9.2.7h-1v-7.7h-2.7v-.9h6.4v.9h-2.7v7.7zm8.3 0v-4.2c0-.5-.1-.9-.4-1.2s-.6-.4-1.1-.4c-.7 0-1.2.2-1.5.6s-.5 1-.5 1.8v3.4h-1v-9.1h1v3.6h.1c.2-.3.5-.6.8-.7s.8-.3 1.2-.3c.8 0 1.4.2 1.8.6s.6 1 .6 1.8v4.2h-1zm5.7.1c-.9 0-1.7-.3-2.2-.9s-.8-1.4-.8-2.4.3-1.9.8-2.5 1.2-.9 2.1-.9c.8 0 1.4.3 1.9.8s.7 1.2.7 2.1v.6h-4.4c0 .8.2 1.3.6 1.7s.9.6 1.5.6c.7 0 1.4-.1 2.1-.4v.9c-.3.1-.7.3-1 .3s-.9.1-1.3.1zm-.3-5.9c-.5 0-.9.2-1.2.5s-.5.8-.5 1.4h3.4c0-.6-.1-1.1-.4-1.4s-.8-.5-1.3-.5zm11.2-2c-.9 0-1.7.3-2.2.9s-.8 1.5-.8 2.6.3 2 .8 2.6 1.3.9 2.2.9c.6 0 1.3-.1 2-.3v.9c-.6.2-1.3.3-2.2.3-1.3 0-2.2-.4-2.9-1.1s-1-1.9-1-3.3c0-.9.2-1.7.5-2.3s.8-1.2 1.4-1.5 1.4-.5 2.2-.5c.9 0 1.7.2 2.4.5l-.4.9c-.7-.5-1.3-.6-2-.6zm9.3 4.5c0 1-.3 1.9-.8 2.5s-1.3.9-2.2.9c-.6 0-1.1-.1-1.5-.4s-.8-.7-1-1.2-.4-1.1-.4-1.8c0-1 .3-1.9.8-2.4s1.3-.9 2.2-.9c.9 0 1.6.3 2.1.9s.8 1.4.8 2.4zm-4.9 0c0 .8.2 1.4.5 1.9s.8.6 1.4.6 1.1-.2 1.5-.6.5-1.1.5-1.9c0-.8-.2-1.4-.5-1.9s-.8-.6-1.5-.6c-.6 0-1.1.2-1.4.6s-.5 1.1-.5 1.9zm14.8 3.3v-4.2c0-.5-.1-.9-.3-1.2s-.6-.4-1-.4c-.6 0-1.1.2-1.3.5s-.4.9-.4 1.6v3.6h-1v-4.2c0-.5-.1-.9-.3-1.2s-.6-.4-1-.4c-.6 0-1.1.2-1.3.5s-.4 1-.4 1.8v3.4h-1v-6.4h.8l.2.9c.2-.3.4-.6.8-.7s.7-.3 1.1-.3c1 0 1.7.4 2 1.1.2-.3.5-.6.8-.8s.8-.3 1.2-.3c.7 0 1.3.2 1.6.6s.5 1 .5 1.8v4.2h-1zm6 .1c-.4 0-.8-.1-1.1-.2s-.6-.4-.9-.7h-.1c0 .4.1.7.1 1.1v2.6h-1v-9.3h.8l.1.9c.3-.4.5-.6.9-.8s.7-.2 1.1-.2c.9 0 1.5.3 2 .9s.7 1.4.7 2.4c0 1.1-.2 1.9-.7 2.5s-1.1.8-1.9.8zm-.2-5.9c-.7 0-1.1.2-1.4.5s-.4.9-.5 1.7v.2c0 .9.2 1.5.5 1.9s.8.6 1.4.6c.6 0 1-.2 1.3-.7s.5-1.1.5-1.9c0-.8-.2-1.4-.5-1.8s-.7-.5-1.3-.5zm8.5 5.8l-.2-.9c-.3.4-.6.7-1 .8s-.7.2-1.2.2c-.6 0-1.1-.2-1.5-.5s-.5-.8-.5-1.4c0-1.3 1-2 3.1-2h1.1v-.4c0-.5-.1-.9-.3-1.1s-.6-.4-1-.4c-.5 0-1.1.2-1.8.5l-.3-.7c.3-.2.7-.3 1-.4s.8-.1 1.1-.1c.8 0 1.3.2 1.7.5s.6.9.6 1.6v4.4h-.8zm-2.2-.7c.6 0 1.1-.2 1.4-.5s.5-.8.5-1.4v-.6h-1c-.8 0-1.3.1-1.7.4s-.5.5-.5 1c0 .4.1.6.3.8s.6.3 1 .3zm9.3.7v-4.2c0-.5-.1-.9-.4-1.2s-.6-.4-1.1-.4c-.7 0-1.2.2-1.5.5s-.5 1-.5 1.8v3.4h-1v-6.4h.8l.2.9c.2-.3.5-.6.8-.7s.8-.3 1.2-.3c.8 0 1.4.2 1.7.6s.6 1 .6 1.8v4.2h-.8zm2-6.5h1l1.4 3.7c.3.8.5 1.4.6 1.8.1-.2.2-.5.3-1s.7-2 1.6-4.5h1l-2.8 7.3c-.3.7-.6 1.2-1 1.5s-.8.5-1.3.5c-.3 0-.6 0-.9-.1v-.7c.2 0 .5.1.7.1.7 0 1.1-.4 1.4-1.1l.4-.9-2.4-6.6zm10.1-1.7c0-.2.1-.4.2-.5s.2-.2.4-.2.3.1.4.2.2.3.2.5-.1.4-.2.5-.2.2-.4.2-.3-.1-.4-.2-.2-.3-.2-.5zm1 8.2h-1v-6.4h1v6.4zm6.2-1.8c0 .6-.2 1.1-.7 1.4s-1.1.5-1.9.5c-.9 0-1.5-.1-2-.4v-.9c.3.2.6.3 1 .4s.7.1 1 .1c.5 0 .9-.1 1.2-.2s.4-.4.4-.7c0-.3-.1-.5-.3-.6s-.6-.4-1.3-.6c-.6-.2-1-.4-1.3-.6s-.4-.4-.6-.6-.2-.5-.2-.8c0-.5.2-.9.6-1.2s1-.5 1.8-.5c.7 0 1.4.1 2 .4l-.3.8c-.6-.3-1.2-.4-1.8-.4-.5 0-.8.1-1 .2s-.4.3-.4.6c0 .2 0 .3.1.4s.2.2.4.3.6.3 1.1.5c.8.3 1.3.6 1.5.8s.7.7.7 1.1zm9.1 1.8v-4.2c0-.5-.1-.9-.4-1.2s-.6-.4-1.1-.4c-.7 0-1.2.2-1.5.5s-.5 1-.5 1.8v3.4h-1v-6.4h.8l.2.9c.2-.3.5-.6.8-.7s.8-.3 1.2-.3c.8 0 1.4.2 1.7.6s.6 1 .6 1.8v4.2h-.8zm8.5-3.3c0 1-.3 1.9-.8 2.5s-1.3.9-2.2.9c-.6 0-1.1-.1-1.5-.4s-.8-.7-1-1.2-.4-1.1-.4-1.8c0-1 .3-1.9.8-2.4s1.3-.9 2.2-.9c.9 0 1.6.3 2.1.9s.8 1.4.8 2.4zm-4.9 0c0 .8.2 1.4.5 1.9s.8.6 1.4.6 1.1-.2 1.5-.6.5-1.1.5-1.9c0-.8-.2-1.4-.5-1.9s-.8-.6-1.5-.6c-.6 0-1.1.2-1.4.6s-.5 1.1-.5 1.9zm8.7 2.6h.5c.2 0 .3-.1.4-.1v.7c-.1.1-.3.1-.5.1h-.6c-1.2 0-1.9-.7-1.9-2v-3.8h-.9v-.5l.9-.4.4-1.4h.6v1.5h1.9v.8h-1.9v3.8c0 .4.1.7.3.9s.5.4.8.4zM8.3 147.4c.3 0 .5 0 .8.1l-.1.9c-.3-.1-.5-.1-.7-.1-.5 0-1 .2-1.3.6s-.6.9-.6 1.6v3.4h-1v-6.4h.8l.1 1.2c.2-.4.5-.7.9-1s.7-.3 1.1-.3zm4.7 6.7c-.9 0-1.7-.3-2.2-.9s-.8-1.4-.8-2.4.3-1.9.8-2.5 1.2-.9 2.1-.9c.8 0 1.4.3 1.9.8s.7 1.2.7 2.1v.6h-4.4c0 .8.2 1.3.6 1.7s.9.6 1.5.6c.7 0 1.4-.1 2.1-.4v.9c-.3.1-.7.3-1 .3s-.9.1-1.3.1zm-.3-5.9c-.5 0-.9.2-1.2.5s-.5.8-.5 1.4h3.4c0-.6-.1-1.1-.4-1.4s-.8-.5-1.3-.5zm8.5 4c0 .6-.2 1.1-.7 1.4s-1.1.5-1.9.5c-.9 0-1.5-.1-2-.4v-.9c.3.2.6.3 1 .4s.7.1 1 .1c.5 0 .9-.1 1.2-.2s.4-.4.4-.7c0-.3-.1-.5-.3-.6s-.6-.4-1.3-.6c-.6-.2-1-.4-1.3-.6s-.4-.4-.6-.6-.2-.5-.2-.8c0-.5.2-.9.6-1.2s1-.5 1.8-.5c.7 0 1.4.1 2 .4l-.3.8c-.6-.3-1.2-.4-1.8-.4-.5 0-.8.1-1 .2s-.4.3-.4.6c0 .2 0 .3.1.4s.2.2.4.3.6.3 1.1.5c.8.3 1.3.6 1.5.8s.7.7.7 1.1zm4.5 1.9c-.4 0-.8-.1-1.1-.2s-.6-.4-.9-.7h-.1c0 .4.1.7.1 1.1v2.6h-1v-9.3h.8l.1.9c.3-.4.5-.6.9-.8s.7-.2 1.1-.2c.9 0 1.5.3 2 .9s.7 1.4.7 2.4c0 1.1-.2 1.9-.7 2.5s-1 .8-1.9.8zm-.1-5.9c-.7 0-1.1.2-1.4.5s-.4.9-.5 1.7v.2c0 .9.2 1.5.5 1.9s.8.6 1.4.6c.6 0 1-.2 1.3-.7s.5-1.1.5-1.9c0-.8-.2-1.4-.5-1.8s-.7-.5-1.3-.5zm10 2.5c0 1-.3 1.9-.8 2.5s-1.3.9-2.2.9c-.6 0-1.1-.1-1.5-.4s-.8-.7-1-1.2-.4-1.1-.4-1.8c0-1 .3-1.9.8-2.4s1.3-.9 2.2-.9c.9 0 1.6.3 2.1.9s.8 1.4.8 2.4zm-4.9 0c0 .8.2 1.4.5 1.9s.8.6 1.4.6 1.1-.2 1.5-.6.5-1.1.5-1.9c0-.8-.2-1.4-.5-1.9s-.8-.6-1.5-.6c-.6 0-1.1.2-1.4.6s-.5 1.1-.5 1.9zm11 3.3v-4.2c0-.5-.1-.9-.4-1.2s-.6-.4-1.1-.4c-.7 0-1.2.2-1.5.5s-.5 1-.5 1.8v3.4h-1v-6.4h.8l.2.9c.2-.3.5-.6.8-.7s.8-.3 1.2-.3c.8 0 1.4.2 1.7.6s.6 1 .6 1.8v4.2h-.8zm7.1-1.8c0 .6-.2 1.1-.7 1.4s-1.1.5-1.9.5c-.9 0-1.5-.1-2-.4v-.9c.3.2.6.3 1 .4s.7.1 1 .1c.5 0 .9-.1 1.2-.2s.4-.4.4-.7c0-.3-.1-.5-.3-.6s-.6-.4-1.3-.6c-.6-.2-1-.4-1.3-.6s-.4-.4-.6-.6-.2-.5-.2-.8c0-.5.2-.9.6-1.2s1-.5 1.8-.5c.7 0 1.4.1 2 .4l-.3.8c-.6-.3-1.2-.4-1.8-.4-.5 0-.8.1-1 .2s-.4.3-.4.6c0 .2 0 .3.1.4s.2.2.4.3.6.3 1.1.5c.8.3 1.3.6 1.5.8s.7.7.7 1.1zm1.5-6.4c0-.2.1-.4.2-.5s.2-.2.4-.2.3.1.4.2.2.3.2.5-.1.4-.2.5-.2.2-.4.2-.3-.1-.4-.2-.2-.3-.2-.5zm1.1 8.2h-1v-6.4h1v6.4zm5.1-6.6c.8 0 1.5.3 2 .9s.7 1.4.7 2.4-.2 1.9-.7 2.5-1.1.9-2 .9c-.4 0-.8-.1-1.1-.2s-.6-.4-.9-.7h-.1l-.2.8h-.7v-9.1h1v3.5c.4-.7 1.1-1 2-1zm-.2.8c-.7 0-1.1.2-1.4.6s-.4 1-.4 1.9.2 1.5.5 1.9.8.6 1.4.6c.6 0 1-.2 1.3-.7s.4-1.1.4-1.9c0-.8-.1-1.5-.4-1.9s-.8-.5-1.4-.5zm5.5 5.8h-1v-9.1h1v9.1zm4.8.1c-.9 0-1.7-.3-2.2-.9s-.8-1.4-.8-2.4.3-1.9.8-2.5 1.2-.9 2.1-.9c.8 0 1.4.3 1.9.8s.7 1.2.7 2.1v.6h-4.4c0 .8.2 1.3.6 1.7s.9.6 1.5.6c.7 0 1.4-.1 2.1-.4v.9c-.3.1-.7.3-1 .3s-.9.1-1.3.1zm-.3-5.9c-.5 0-.9.2-1.2.5s-.5.8-.5 1.4H68c0-.6-.1-1.1-.4-1.4s-.8-.5-1.3-.5zm11.3 5.8l-.2-.9c-.3.4-.6.7-1 .8s-.7.2-1.2.2c-.6 0-1.1-.2-1.5-.5s-.5-.8-.5-1.4c0-1.3 1-2 3.1-2h1.1v-.4c0-.5-.1-.9-.3-1.1s-.6-.4-1-.4c-.5 0-1.1.2-1.8.5l-.3-.7c.3-.2.7-.3 1-.4s.8-.1 1.1-.1c.8 0 1.3.2 1.7.5s.6.9.6 1.6v4.4h-.8zm-2.1-.7c.6 0 1.1-.2 1.4-.5s.5-.8.5-1.4v-.6h-1c-.8 0-1.3.1-1.7.4s-.5.5-.5 1c0 .4.1.6.3.8s.6.3 1 .3zm9.3.7v-4.2c0-.5-.1-.9-.4-1.2s-.6-.4-1.1-.4c-.7 0-1.2.2-1.5.5s-.5 1-.5 1.8v3.4h-1v-6.4h.8l.2.9c.2-.3.5-.6.8-.7s.8-.3 1.2-.3c.8 0 1.4.2 1.7.6s.6 1 .6 1.8v4.2h-.8zm7.3-.9c-.5.7-1.2 1-2.1 1-.8 0-1.5-.3-2-.9s-.7-1.4-.7-2.4.2-1.9.7-2.5 1.1-.9 2-.9c.9 0 1.5.3 2 .9h.1v-3.6h1v9.1h-.8l-.2-.7zm-1.9.2c.7 0 1.1-.2 1.4-.5s.4-.9.4-1.7v-.2c0-.9-.2-1.6-.5-1.9s-.8-.6-1.5-.6c-.6 0-1 .2-1.3.7s-.5 1.1-.5 1.9c0 .8.2 1.4.5 1.9s.9.4 1.5.4zm13.3.7l-1.2-3.8c-.1-.2-.2-.8-.4-1.6-.2.7-.3 1.2-.4 1.6l-1.2 3.8h-1.1l-1.8-6.4h1c.4 1.6.7 2.8.9 3.7s.3 1.4.4 1.7c0-.2.1-.5.2-.9s.2-.6.2-.8l1.2-3.7h1.1l1.1 3.7c.2.7.4 1.2.4 1.7 0-.1.1-.4.1-.7s.5-1.9 1.2-4.7h1l-1.8 6.4h-.9zm4-8.2c0-.2.1-.4.2-.5s.2-.2.4-.2.3.1.4.2.2.3.2.5-.1.4-.2.5-.2.2-.4.2-.3-.1-.4-.2-.2-.3-.2-.5zm1 8.2h-1v-6.4h1v6.4zm3.1 0h-1v-9.1h1v9.1zm3 0h-1v-9.1h1v9.1zm9.6 0v-4.2c0-.5-.1-.9-.4-1.2s-.6-.4-1.1-.4c-.7 0-1.2.2-1.5.5s-.5 1-.5 1.8v3.4h-1v-6.4h.8l.2.9c.2-.3.5-.6.8-.7s.8-.3 1.2-.3c.8 0 1.4.2 1.7.6s.6 1 .6 1.8v4.2h-.8zm8.5-3.3c0 1-.3 1.9-.8 2.5s-1.3.9-2.2.9c-.6 0-1.1-.1-1.5-.4s-.8-.7-1-1.2-.4-1.1-.4-1.8c0-1 .3-1.9.8-2.4s1.3-.9 2.2-.9c.9 0 1.6.3 2.1.9s.8 1.4.8 2.4zm-4.9 0c0 .8.2 1.4.5 1.9s.8.6 1.4.6 1.1-.2 1.5-.6.5-1.1.5-1.9c0-.8-.2-1.4-.5-1.9s-.8-.6-1.5-.6c-.6 0-1.1.2-1.4.6s-.5 1.1-.5 1.9zm8.7 2.6h.5c.2 0 .3-.1.4-.1v.7c-.1.1-.3.1-.5.1h-.6c-1.2 0-1.9-.7-1.9-2v-3.8h-.9v-.5l.9-.4.4-1.4h.6v1.5h1.9v.8h-1.9v3.8c0 .4.1.7.3.9s.4.4.8.4zm8.2-5.9c.3 0 .5 0 .8.1l-.1.9c-.3-.1-.5-.1-.7-.1-.5 0-1 .2-1.3.6s-.6.9-.6 1.6v3.4h-1v-6.4h.8l.1 1.2c.2-.4.5-.7.9-1s.7-.3 1.1-.3zm4.6 6.7c-.9 0-1.7-.3-2.2-.9s-.8-1.4-.8-2.4.3-1.9.8-2.5 1.2-.9 2.1-.9c.8 0 1.4.3 1.9.8s.7 1.2.7 2.1v.6h-4.4c0 .8.2 1.3.6 1.7s.9.6 1.5.6c.7 0 1.4-.1 2.1-.4v.9c-.3.1-.7.3-1 .3s-.8.1-1.3.1zm-.2-5.9c-.5 0-.9.2-1.2.5s-.5.8-.5 1.4h3.4c0-.6-.1-1.1-.4-1.4s-.8-.5-1.3-.5zm7.3 5.9c-.4 0-.8-.1-1.1-.2s-.6-.4-.9-.7h-.1c0 .4.1.7.1 1.1v2.6h-1v-9.3h.8l.1.9c.3-.4.5-.6.9-.8s.7-.2 1.1-.2c.9 0 1.5.3 2 .9s.7 1.4.7 2.4c0 1.1-.2 1.9-.7 2.5s-1.1.8-1.9.8zm-.2-5.9c-.7 0-1.1.2-1.4.5s-.4.9-.5 1.7v.2c0 .9.2 1.5.5 1.9s.8.6 1.4.6c.6 0 1-.2 1.3-.7s.5-1.1.5-1.9c0-.8-.2-1.4-.5-1.8s-.7-.5-1.3-.5zm10.1 2.5c0 1-.3 1.9-.8 2.5s-1.3.9-2.2.9c-.6 0-1.1-.1-1.5-.4s-.8-.7-1-1.2-.4-1.1-.4-1.8c0-1 .3-1.9.8-2.4s1.3-.9 2.2-.9c.9 0 1.6.3 2.1.9s.8 1.4.8 2.4zm-4.9 0c0 .8.2 1.4.5 1.9s.8.6 1.4.6 1.1-.2 1.5-.6.5-1.1.5-1.9c0-.8-.2-1.4-.5-1.9s-.8-.6-1.5-.6c-.6 0-1.1.2-1.4.6s-.5 1.1-.5 1.9zm9.5-3.3c.3 0 .5 0 .8.1l-.1.9c-.3-.1-.5-.1-.7-.1-.5 0-1 .2-1.3.6s-.6.9-.6 1.6v3.4h-1v-6.4h.8l.1 1.2c.2-.4.5-.7.9-1s.7-.3 1.1-.3zm4 5.9h.5c.2 0 .3-.1.4-.1v.7c-.1.1-.3.1-.5.1h-.6c-1.2 0-1.9-.7-1.9-2v-3.8h-.8v-.5l.9-.4.4-1.4h.6v1.5h1.9v.8h-1.9v3.8c0 .4.1.7.3.9s.4.4.7.4zm7.4 0h.5c.2 0 .3-.1.4-.1v.7c-.1.1-.3.1-.5.1h-.6c-1.2 0-1.9-.7-1.9-2v-3.8h-.9v-.5l.9-.4.4-1.4h.6v1.5h1.9v.8h-1.9v3.8c0 .4.1.7.3.9s.5.4.8.4zm7.7-2.6c0 1-.3 1.9-.8 2.5s-1.3.9-2.2.9c-.6 0-1.1-.1-1.5-.4s-.8-.7-1-1.2-.4-1.1-.4-1.8c0-1 .3-1.9.8-2.4s1.3-.9 2.2-.9c.9 0 1.6.3 2.1.9s.8 1.4.8 2.4zm-4.9 0c0 .8.2 1.4.5 1.9s.8.6 1.4.6 1.1-.2 1.5-.6.5-1.1.5-1.9c0-.8-.2-1.4-.5-1.9s-.8-.6-1.5-.6c-.6 0-1.1.2-1.4.6s-.5 1.1-.5 1.9zm13.7 3.3l-.2-.9c-.3.4-.6.7-1 .8s-.7.2-1.2.2c-.6 0-1.1-.2-1.5-.5s-.5-.8-.5-1.4c0-1.3 1-2 3.1-2h1.1v-.4c0-.5-.1-.9-.3-1.1s-.6-.4-1-.4c-.5 0-1.1.2-1.8.5l-.3-.7c.3-.2.7-.3 1-.4s.8-.1 1.1-.1c.8 0 1.3.2 1.7.5s.6.9.6 1.6v4.4h-.8zm-2.2-.7c.6 0 1.1-.2 1.4-.5s.5-.8.5-1.4v-.6h-1c-.8 0-1.3.1-1.7.4s-.5.5-.5 1c0 .4.1.6.3.8s.6.3 1 .3zm9.3.7v-4.2c0-.5-.1-.9-.4-1.2s-.6-.4-1.1-.4c-.7 0-1.2.2-1.5.5s-.5 1-.5 1.8v3.4h-1v-6.4h.8l.2.9c.2-.3.5-.6.8-.7s.8-.3 1.2-.3c.8 0 1.4.2 1.7.6s.6 1 .6 1.8v4.2h-.8zm1.9-6.5h1l1.4 3.7c.3.8.5 1.4.6 1.8.1-.2.2-.5.3-1s.7-2 1.6-4.5h1l-2.8 7.3c-.3.7-.6 1.2-1 1.5s-.8.5-1.3.5c-.3 0-.6 0-.9-.1v-.7c.2 0 .5.1.7.1.7 0 1.1-.4 1.4-1.1l.4-.9-2.4-6.6zm12.3 5.8h.5c.2 0 .3-.1.4-.1v.7c-.1.1-.3.1-.5.1h-.6c-1.2 0-1.9-.7-1.9-2v-3.8h-.9v-.5l.9-.4.4-1.4h.6v1.5h1.9v.8H219v3.8c0 .4.1.7.3.9s.5.4.8.4zm6.6.7v-4.2c0-.5-.1-.9-.4-1.2s-.6-.4-1.1-.4c-.7 0-1.2.2-1.5.6s-.5 1-.5 1.8v3.4h-1v-9.1h1v3.6h.1c.2-.3.5-.6.8-.7s.8-.3 1.2-.3c.8 0 1.4.2 1.8.6s.6 1 .6 1.8v4.2h-1zm2.8-8.2c0-.2.1-.4.2-.5s.2-.2.4-.2.3.1.4.2.2.3.2.5-.1.4-.2.5-.2.2-.4.2-.3-.1-.4-.2-.2-.3-.2-.5zm1.1 8.2h-1v-6.4h1v6.4zm5-6.6c.3 0 .5 0 .8.1l-.1.9c-.3-.1-.5-.1-.7-.1-.5 0-1 .2-1.3.6s-.6.9-.6 1.6v3.4h-1v-6.4h.8l.1 1.2c.2-.4.5-.7.9-1s.7-.3 1.1-.3zm6.3 5.7c-.5.7-1.2 1-2.1 1-.8 0-1.5-.3-2-.9s-.7-1.4-.7-2.4.2-1.9.7-2.5 1.1-.9 2-.9c.9 0 1.5.3 2 .9h.1v-3.6h1v9.1h-.8l-.2-.7zm-1.9.2c.7 0 1.1-.2 1.4-.5s.4-.9.4-1.7v-.2c0-.9-.2-1.6-.5-1.9s-.8-.6-1.5-.6c-.6 0-1 .2-1.3.7s-.5 1.1-.5 1.9c0 .8.2 1.4.5 1.9s.9.4 1.5.4zm11 .8c-.4 0-.8-.1-1.1-.2s-.6-.4-.9-.7h-.1c0 .4.1.7.1 1.1v2.6h-1v-9.3h.8l.1.9c.3-.4.5-.6.9-.8s.7-.2 1.1-.2c.9 0 1.5.3 2 .9s.7 1.4.7 2.4c0 1.1-.2 1.9-.7 2.5s-1 .8-1.9.8zm-.1-5.9c-.7 0-1.1.2-1.4.5s-.4.9-.5 1.7v.2c0 .9.2 1.5.5 1.9s.8.6 1.4.6c.6 0 1-.2 1.3-.7s.5-1.1.5-1.9c0-.8-.2-1.4-.5-1.8s-.8-.5-1.3-.5zm8.4 5.8l-.2-.9c-.3.4-.6.7-1 .8s-.7.2-1.2.2c-.6 0-1.1-.2-1.5-.5s-.5-.8-.5-1.4c0-1.3 1-2 3.1-2h1.1v-.4c0-.5-.1-.9-.3-1.1s-.6-.4-1-.4c-.5 0-1.1.2-1.8.5l-.3-.7c.3-.2.7-.3 1-.4s.8-.1 1.1-.1c.8 0 1.3.2 1.7.5s.6.9.6 1.6v4.4h-.8zm-2.2-.7c.6 0 1.1-.2 1.4-.5s.5-.8.5-1.4v-.6h-1c-.8 0-1.3.1-1.7.4s-.5.5-.5 1c0 .4.1.6.3.8s.7.3 1 .3zm7.9-5.9c.3 0 .5 0 .8.1l-.1.9c-.3-.1-.5-.1-.7-.1-.5 0-1 .2-1.3.6s-.6.9-.6 1.6v3.4h-1v-6.4h.8l.1 1.2c.2-.4.5-.7.9-1s.7-.3 1.1-.3zm4 5.9h.5c.2 0 .3-.1.4-.1v.7c-.1.1-.3.1-.5.1h-.6c-1.2 0-1.9-.7-1.9-2v-3.8h-.9v-.5l.9-.4.4-1.4h.6v1.5h1.9v.8H268v3.8c0 .4.1.7.3.9s.4.4.7.4zm2.1-7.5c0-.2.1-.4.2-.5s.2-.2.4-.2.3.1.4.2.2.3.2.5-.1.4-.2.5-.2.2-.4.2-.3-.1-.4-.2-.2-.3-.2-.5zm1.1 8.2h-1v-6.4h1v6.4zm4.7.1c-.9 0-1.7-.3-2.2-.9s-.8-1.4-.8-2.4.3-1.9.8-2.5 1.2-.9 2.1-.9c.8 0 1.4.3 1.9.8s.7 1.2.7 2.1v.6H275c0 .8.2 1.3.6 1.7s.9.6 1.5.6c.7 0 1.4-.1 2.1-.4v.9c-.3.1-.7.3-1 .3s-.8.1-1.3.1zm-.2-5.9c-.5 0-.9.2-1.2.5s-.5.8-.5 1.4h3.4c0-.6-.1-1.1-.4-1.4s-.8-.5-1.3-.5zm8.4 4c0 .6-.2 1.1-.7 1.4s-1.1.5-1.9.5c-.9 0-1.5-.1-2-.4v-.9c.3.2.6.3 1 .4s.7.1 1 .1c.5 0 .9-.1 1.2-.2s.4-.4.4-.7c0-.3-.1-.5-.3-.6s-.6-.4-1.3-.6c-.6-.2-1-.4-1.3-.6s-.4-.4-.6-.6-.2-.5-.2-.8c0-.5.2-.9.6-1.2s1-.5 1.8-.5c.7 0 1.4.1 2 .4l-.3.8c-.6-.3-1.2-.4-1.8-.4-.5 0-.8.1-1 .2s-.4.3-.4.6c0 .2 0 .3.1.4s.2.2.4.3.6.3 1.1.5c.8.3 1.3.6 1.5.8s.7.7.7 1.1zM29 171.1c-.5.7-1.2 1-2.1 1-.8 0-1.5-.3-2-.9s-.7-1.4-.7-2.4.2-1.9.7-2.5 1.1-.9 2-.9c.9 0 1.5.3 2 .9h.1v-3.6h1v9.1h-.8l-.2-.7zm-1.9.2c.7 0 1.1-.2 1.4-.5s.4-.9.4-1.7v-.2c0-.9-.2-1.6-.5-1.9s-.8-.6-1.5-.6c-.6 0-1 .2-1.3.7s-.5 1.1-.5 1.9c0 .8.2 1.4.5 1.9s.9.4 1.5.4zm5.8-5.8v4.2c0 .5.1.9.4 1.2s.6.4 1.1.4c.7 0 1.2-.2 1.5-.6s.5-1 .5-1.8v-3.4h1v6.4h-.8l-.1-.9h-.1c-.2.3-.5.6-.8.7s-.8.3-1.2.3c-.8 0-1.4-.2-1.8-.6s-.6-1-.6-1.8v-4.2h.9zm9.2 6.6c-.9 0-1.7-.3-2.2-.9s-.8-1.4-.8-2.4.3-1.9.8-2.5 1.2-.9 2.1-.9c.8 0 1.4.3 1.9.8s.7 1.2.7 2.1v.6H40c0 .8.2 1.3.6 1.7s.9.6 1.5.6c.7 0 1.4-.1 2.1-.4v.9c-.3.1-.7.3-1 .3s-.7.1-1.1.1zm-.3-5.9c-.5 0-.9.2-1.2.5s-.5.8-.5 1.4h3.4c0-.6-.1-1.1-.4-1.4s-.8-.5-1.3-.5zm9.5 5.1h.5c.2 0 .3-.1.4-.1v.7c-.1.1-.3.1-.5.1h-.6c-1.2 0-1.9-.7-1.9-2v-3.8h-.9v-.5l.9-.4.4-1.4h.6v1.5h1.9v.8h-1.9v3.8c0 .4.1.7.3.9s.5.4.8.4zm7.7-2.6c0 1-.3 1.9-.8 2.5s-1.3.9-2.2.9c-.6 0-1.1-.1-1.5-.4s-.8-.7-1-1.2-.4-1.1-.4-1.8c0-1 .3-1.9.8-2.4s1.3-.9 2.2-.9c.9 0 1.6.3 2.1.9s.8 1.4.8 2.4zm-4.9 0c0 .8.2 1.4.5 1.9s.8.6 1.4.6 1.1-.2 1.5-.6.5-1.1.5-1.9c0-.8-.2-1.4-.5-1.9s-.8-.6-1.5-.6c-.6 0-1.1.2-1.4.6s-.5 1.1-.5 1.9zm10.6-3.2v4.2c0 .5.1.9.4 1.2s.6.4 1.1.4c.7 0 1.2-.2 1.5-.6s.5-1 .5-1.8v-3.4h1v6.4h-.8l-.1-.9h-.1c-.2.3-.5.6-.8.7s-.8.3-1.2.3c-.8 0-1.4-.2-1.8-.6s-.6-1-.6-1.8v-4.2h.9zm10.9 6.5v-4.2c0-.5-.1-.9-.4-1.2s-.6-.4-1.1-.4c-.7 0-1.2.2-1.5.5s-.5 1-.5 1.8v3.4h-1v-6.4h.9l.2.9c.2-.3.5-.6.8-.7s.8-.3 1.2-.3c.8 0 1.4.2 1.7.6s.6 1 .6 1.8v4.2h-.9zm6.9 0l-.2-.9c-.3.4-.6.7-1 .8s-.7.2-1.2.2c-.6 0-1.1-.2-1.5-.5s-.5-.8-.5-1.4c0-1.3 1-2 3.1-2h1.1v-.4c0-.5-.1-.9-.3-1.1s-.6-.4-1-.4c-.5 0-1.1.2-1.8.5l-.3-.7c.3-.2.7-.3 1-.4s.8-.1 1.1-.1c.8 0 1.3.2 1.7.5s.6.9.6 1.6v4.4h-.8zm-2.2-.7c.6 0 1.1-.2 1.4-.5s.5-.8.5-1.4v-.6h-1c-.8 0-1.3.1-1.7.4s-.5.5-.5 1c0 .4.1.6.3.8s.6.3 1 .3zm5.8-5.8v4.2c0 .5.1.9.4 1.2s.6.4 1.1.4c.7 0 1.2-.2 1.5-.6s.5-1 .5-1.8v-3.4h1v6.4h-.8l-.1-.9h-.1c-.2.3-.5.6-.8.7s-.8.3-1.2.3c-.8 0-1.4-.2-1.8-.6s-.6-1-.6-1.8v-4.2h.9zm8.6 5.8h.5c.2 0 .3-.1.4-.1v.7c-.1.1-.3.1-.5.1h-.6c-1.2 0-1.9-.7-1.9-2v-3.8h-.9v-.5l.9-.4.4-1.4h.6v1.5h1.9v.8h-1.9v3.8c0 .4.1.7.3.9s.4.4.8.4zm6.5.7v-4.2c0-.5-.1-.9-.4-1.2s-.6-.4-1.1-.4c-.7 0-1.2.2-1.5.6s-.5 1-.5 1.8v3.4h-1v-9.1h1v3.6h.1c.2-.3.5-.6.8-.7s.8-.3 1.2-.3c.8 0 1.4.2 1.8.6s.6 1 .6 1.8v4.2h-1zm8.5-3.3c0 1-.3 1.9-.8 2.5s-1.3.9-2.2.9c-.6 0-1.1-.1-1.5-.4s-.8-.7-1-1.2-.4-1.1-.4-1.8c0-1 .3-1.9.8-2.4s1.3-.9 2.2-.9c.9 0 1.6.3 2.1.9s.8 1.4.8 2.4zm-4.9 0c0 .8.2 1.4.5 1.9s.8.6 1.4.6 1.1-.2 1.5-.6.5-1.1.5-1.9c0-.8-.2-1.4-.5-1.9s-.8-.6-1.5-.6c-.6 0-1.1.2-1.4.6s-.5 1.1-.5 1.9zm9.6-3.3c.3 0 .5 0 .8.1l-.1.9c-.3-.1-.5-.1-.7-.1-.5 0-1 .2-1.3.6s-.6.9-.6 1.6v3.4h-1v-6.4h.8l.1 1.2c.2-.4.5-.7.9-1s.7-.3 1.1-.3zm1.8-1.6c0-.2.1-.4.2-.5s.2-.2.4-.2.3.1.4.2.2.3.2.5-.1.4-.2.5-.2.2-.4.2-.3-.1-.4-.2-.2-.3-.2-.5zm1.1 8.2h-1v-6.4h1v6.4zm6.2 0h-4.7v-.7l3.5-5H119v-.8h4.4v.8l-3.5 4.9h3.5v.8zm4.2.1c-.9 0-1.7-.3-2.2-.9s-.8-1.4-.8-2.4.3-1.9.8-2.5 1.2-.9 2.1-.9c.8 0 1.4.3 1.9.8s.7 1.2.7 2.1v.6h-4.4c0 .8.2 1.3.6 1.7s.9.6 1.5.6c.7 0 1.4-.1 2.1-.4v.9c-.3.1-.7.3-1 .3s-.9.1-1.3.1zm-.3-5.9c-.5 0-.9.2-1.2.5s-.5.8-.5 1.4h3.4c0-.6-.1-1.1-.4-1.4s-.8-.5-1.3-.5zm8.7 4.9c-.5.7-1.2 1-2.1 1-.8 0-1.5-.3-2-.9s-.7-1.4-.7-2.4.2-1.9.7-2.5 1.1-.9 2-.9c.9 0 1.5.3 2 .9h.1v-3.6h1v9.1h-.8l-.2-.7zm-2 .2c.7 0 1.1-.2 1.4-.5s.4-.9.4-1.7v-.2c0-.9-.2-1.6-.5-1.9s-.8-.6-1.5-.6c-.6 0-1 .2-1.3.7s-.5 1.1-.5 1.9c0 .8.2 1.4.5 1.9s1 .4 1.5.4zm9-5.8v4.2c0 .5.1.9.4 1.2s.6.4 1.1.4c.7 0 1.2-.2 1.5-.6s.5-1 .5-1.8v-3.4h1v6.4h-.8l-.1-.9h-.1c-.2.3-.5.6-.8.7s-.8.3-1.2.3c-.8 0-1.4-.2-1.8-.6s-.6-1-.6-1.8v-4.2h.9zm8.5 5.8h.5c.2 0 .3-.1.4-.1v.7c-.1.1-.3.1-.5.1h-.6c-1.2 0-1.9-.7-1.9-2v-3.8h-.9v-.5l.9-.4.4-1.4h.6v1.5h1.9v.8h-1.9v3.8c0 .4.1.7.3.9s.5.4.8.4zm2.1-7.5c0-.2.1-.4.2-.5s.2-.2.4-.2.3.1.4.2.2.3.2.5-.1.4-.2.5-.2.2-.4.2-.3-.1-.4-.2-.2-.3-.2-.5zm1.1 8.2h-1v-6.4h1v6.4zm3 0h-1v-9.1h1v9.1zm2-8.2c0-.2.1-.4.2-.5s.2-.2.4-.2.3.1.4.2.2.3.2.5-.1.4-.2.5-.2.2-.4.2-.3-.1-.4-.2-.2-.3-.2-.5zm1 8.2h-1v-6.4h1v6.4zm6.2 0h-4.7v-.7l3.5-5h-3.3v-.8h4.4v.8l-3.5 4.9h3.5v.8zm5.5 0l-.2-.9c-.3.4-.6.7-1 .8s-.7.2-1.2.2c-.6 0-1.1-.2-1.5-.5s-.5-.8-.5-1.4c0-1.3 1-2 3.1-2h1.1v-.4c0-.5-.1-.9-.3-1.1s-.6-.4-1-.4c-.5 0-1.1.2-1.8.5l-.3-.7c.3-.2.7-.3 1-.4s.8-.1 1.1-.1c.8 0 1.3.2 1.7.5s.6.9.6 1.6v4.4h-.8zm-2.2-.7c.6 0 1.1-.2 1.4-.5s.5-.8.5-1.4v-.6h-1c-.8 0-1.3.1-1.7.4s-.5.5-.5 1c0 .4.1.6.3.8s.6.3 1 .3zm7 0h.5c.2 0 .3-.1.4-.1v.7c-.1.1-.3.1-.5.1h-.6c-1.2 0-1.9-.7-1.9-2v-3.8h-.9v-.5l.9-.4.4-1.4h.6v1.5h1.9v.8h-1.9v3.8c0 .4.1.7.3.9s.4.4.8.4zm2-7.5c0-.2.1-.4.2-.5s.2-.2.4-.2.3.1.4.2.2.3.2.5-.1.4-.2.5-.2.2-.4.2-.3-.1-.4-.2-.2-.3-.2-.5zm1.1 8.2h-1v-6.4h1v6.4zm7.6-3.3c0 1-.3 1.9-.8 2.5s-1.3.9-2.2.9c-.6 0-1.1-.1-1.5-.4s-.8-.7-1-1.2-.4-1.1-.4-1.8c0-1 .3-1.9.8-2.4s1.3-.9 2.2-.9c.9 0 1.6.3 2.1.9s.8 1.4.8 2.4zm-4.9 0c0 .8.2 1.4.5 1.9s.8.6 1.4.6 1.1-.2 1.5-.6.5-1.1.5-1.9c0-.8-.2-1.4-.5-1.9s-.8-.6-1.5-.6c-.6 0-1.1.2-1.4.6s-.5 1.1-.5 1.9zm11 3.3v-4.2c0-.5-.1-.9-.4-1.2s-.6-.4-1.1-.4c-.7 0-1.2.2-1.5.5s-.5 1-.5 1.8v3.4h-1v-6.4h.8l.2.9c.2-.3.5-.6.8-.7s.8-.3 1.2-.3c.8 0 1.4.2 1.7.6s.6 1 .6 1.8v4.2h-.8zm11.6-3.3c0 1-.3 1.9-.8 2.5s-1.3.9-2.2.9c-.6 0-1.1-.1-1.5-.4s-.8-.7-1-1.2-.4-1.1-.4-1.8c0-1 .3-1.9.8-2.4s1.3-.9 2.2-.9c.9 0 1.6.3 2.1.9s.8 1.4.8 2.4zm-4.9 0c0 .8.2 1.4.5 1.9s.8.6 1.4.6 1.1-.2 1.5-.6.5-1.1.5-1.9c0-.8-.2-1.4-.5-1.9s-.8-.6-1.5-.6c-.6 0-1.1.2-1.4.6s-.5 1.1-.5 1.9zm9.5-2.4h-1.6v5.7h-1v-5.7h-1.1v-.4l1.1-.4v-.4c0-1.6.7-2.4 2.1-2.4.3 0 .7.1 1.2.2l-.3.8c-.4-.1-.7-.2-1-.2-.4 0-.6.1-.8.4s-.3.6-.3 1.2v.4h1.6v.8zm4.2-2.5c0-.2.1-.4.2-.5s.2-.2.4-.2.3.1.4.2.2.3.2.5-.1.4-.2.5-.2.2-.4.2-.3-.1-.4-.2-.2-.3-.2-.5zm1.1 8.2h-1v-6.4h1v6.4zm4.1-.7h.5c.2 0 .3-.1.4-.1v.7c-.1.1-.3.1-.5.1h-.6c-1.2 0-1.9-.7-1.9-2v-3.8h-.9v-.5l.9-.4.4-1.4h.6v1.5h1.9v.8h-1.9v3.8c0 .4.1.7.3.9s.5.4.8.4zm6.3-1.1c0 .6-.2 1.1-.7 1.4s-1.1.5-1.9.5c-.9 0-1.5-.1-2-.4v-.9c.3.2.6.3 1 .4s.7.1 1 .1c.5 0 .9-.1 1.2-.2s.4-.4.4-.7c0-.3-.1-.5-.3-.6s-.6-.4-1.3-.6c-.6-.2-1-.4-1.3-.6s-.4-.4-.6-.6-.2-.5-.2-.8c0-.5.2-.9.6-1.2s1-.5 1.8-.5c.7 0 1.4.1 2 .4l-.3.8c-.6-.3-1.2-.4-1.8-.4-.5 0-.8.1-1 .2s-.4.3-.4.6c0 .2 0 .3.1.4s.2.2.4.3.6.3 1.1.5c.8.3 1.3.6 1.5.8s.7.7.7 1.1zm10 1.8l-1.2-3.8c-.1-.2-.2-.8-.4-1.6-.2.7-.3 1.2-.4 1.6l-1.2 3.8h-1.1l-1.8-6.4h1c.4 1.6.7 2.8.9 3.7s.3 1.4.4 1.7c0-.2.1-.5.2-.9s.2-.6.2-.8l1.2-3.7h1.1l1.1 3.7c.2.7.4 1.2.4 1.7 0-.1.1-.4.1-.7s.5-1.9 1.2-4.7h1l-1.8 6.4h-.9zm9.6-3.3c0 1-.3 1.9-.8 2.5s-1.3.9-2.2.9c-.6 0-1.1-.1-1.5-.4s-.8-.7-1-1.2-.4-1.1-.4-1.8c0-1 .3-1.9.8-2.4s1.3-.9 2.2-.9c.9 0 1.6.3 2.1.9s.8 1.4.8 2.4zm-4.9 0c0 .8.2 1.4.5 1.9s.8.6 1.4.6 1.1-.2 1.5-.6.5-1.1.5-1.9c0-.8-.2-1.4-.5-1.9s-.8-.6-1.5-.6c-.6 0-1.1.2-1.4.6s-.5 1.1-.5 1.9zm9.5-3.3c.3 0 .5 0 .8.1l-.1.9c-.3-.1-.5-.1-.7-.1-.5 0-1 .2-1.3.6s-.6.9-.6 1.6v3.4h-1v-6.4h.8l.1 1.2c.2-.4.5-.7.9-1s.7-.3 1.1-.3zm3 3.3c.2-.2.4-.6.8-.9l2.1-2.2h1.2l-2.6 2.7 2.8 3.7h-1.2l-2.3-3-.7.6v2.4h-1v-9.1h1v4.8c-.1.2-.2.5-.1 1zm9.4 1.5c0 .6-.2 1.1-.7 1.4s-1.1.5-1.9.5c-.9 0-1.5-.1-2-.4v-.9c.3.2.6.3 1 .4s.7.1 1 .1c.5 0 .9-.1 1.2-.2s.4-.4.4-.7c0-.3-.1-.5-.3-.6s-.6-.4-1.3-.6c-.6-.2-1-.4-1.3-.6s-.4-.4-.6-.6-.2-.5-.2-.8c0-.5.2-.9.6-1.2s1-.5 1.8-.5c.7 0 1.4.1 2 .4l-.3.8c-.6-.3-1.2-.4-1.8-.4-.5 0-.8.1-1 .2s-.4.3-.4.6c0 .2 0 .3.1.4s.2.2.4.3.6.3 1.1.5c.8.3 1.3.6 1.5.8s.7.7.7 1.1zm1.5 1.1c0-.3.1-.5.2-.6s.3-.2.5-.2.4.1.5.2.2.3.2.6-.1.4-.2.6-.3.2-.5.2-.4-.1-.5-.2-.2-.3-.2-.6z"/>
</svg>
