<svg xmlns="http://www.w3.org/2000/svg" viewBox="0 0 120 120">
  <path d="M118.8 63.4c-1.6-1-1.6-2.6.1-3.5s1.7-2.4-.1-3.2c-1.7-.8-1.9-2.4-.3-3.5s1.4-2.5-.5-3.1c-1.8-.6-2.1-2.2-.7-3.5s1.1-2.7-.8-3.1c-1.9-.4-2.4-1.9-1.1-3.4 1.3-1.4.8-2.8-1.2-3-1.9-.2-2.6-1.6-1.5-3.2s.5-2.8-1.5-2.8c-1.9 0-2.8-1.3-1.8-3 .9-1.7.1-2.9-1.8-2.6s-2.9-1-2.2-2.8c.7-1.8-.2-2.9-2.1-2.4s-3-.7-2.5-2.5c.5-1.9-.5-2.8-2.3-2.1-1.8.7-3-.3-2.7-2.2s-.8-2.8-2.6-1.9c-1.7.9-3.1 0-3-1.9.3-2-1-2.7-2.6-1.7-1.6 1.1-3 .4-3.2-1.6-.1-1.9-1.5-2.5-2.9-1.2-1.5 1.3-3 .7-3.3-1.2-.4-1.9-1.7-2.3-3.1-.9-1.3 1.4-2.9 1.1-3.4-.8-.6-1.9-2-2.1-3.1-.5-1.2 1.6-2.7 1.4-3.5-.4s-2.2-1.9-3.2-.2-2.6 1.7-3.5 0c-1-1.7-2.4-1.6-3.2.2s-2.4 2-3.5.4c-1.2-1.6-2.6-1.3-3.1.5-.6 1.9-2.1 2.2-3.4.8-1.3-1.4-2.7-1-3.1.9-.4 1.9-1.8 2.4-3.3 1.2s-2.8-.7-2.9 1.2C35.8 8.3 34.3 9 32.7 8c-1.6-1.1-2.9-.4-2.8 1.6.1 1.9-1.2 2.8-3 1.9-1.7-.9-2.9 0-2.6 1.9s-.9 2.9-2.7 2.2c-1.8-.7-2.9.3-2.3 2.1.5 1.9-.6 3-2.5 2.5s-2.8.6-2.1 2.4-.2 3-2.2 2.8c-1.9-.3-2.7.9-1.8 2.6s.1 3.1-1.8 3c-1.9 0-2.6 1.2-1.5 2.8 1.1 1.6.5 3-1.5 3.2-1.9.2-2.4 1.5-1.2 3 1.3 1.4.8 3-1.1 3.4s-2.3 1.8-.8 3.1c1.4 1.3 1.1 2.8-.7 3.5-1.8.6-2 2-.5 3.1 1.6 1.1 1.4 2.7-.3 3.5-1.8.8-1.8 2.3-.1 3.2 1.9 1 1.9 2.6.3 3.6-1.6 1-1.5 2.4.3 3.2 1.8.7 2 2.3.5 3.5s-1.2 2.6.6 3.1c1.9.5 2.3 2.1.9 3.4-1.4 1.4-.9 2.7 1 3s2.5 1.8 1.3 3.3-.6 2.8 1.3 2.9 2.7 1.5 1.6 3.1c-1 1.6-.3 2.9 1.6 2.7 1.9-.1 2.8 1.2 2 2.9-.8 1.7 0 2.9 1.9 2.5s2.9.8 2.3 2.7c-.6 1.8.4 2.9 2.2 2.3 1.8-.6 3 .5 2.6 2.4s.7 2.8 2.5 2 3.1.2 2.9 2.1 1 2.7 2.7 1.7 3.1-.2 3.1 1.7 1.3 2.6 2.9 1.4c1.5-1.2 3-.5 3.3 1.4.2 1.9 1.6 2.4 3 1.1s2.9-.9 3.4 1 1.9 2.2 3.1.7c1.2-1.5 2.8-1.2 3.5.6.7 1.8 2.1 2 3.2.4s2.7-1.5 3.5.2c.9 1.7 2.3 1.7 3.2 0s2.5-1.8 3.5-.2c1.1 1.6 2.5 1.5 3.2-.4.7-1.8 2.2-2.1 3.5-.6 1.2 1.5 2.6 1.2 3.1-.7s2-2.3 3.4-1 2.8.9 3-1.1c.2-1.9 1.7-2.5 3.3-1.4 1.5 1.2 2.8.5 2.9-1.4 0-1.9 1.4-2.7 3.1-1.7s2.9.2 2.7-1.7c-.2-1.9 1.1-2.9 2.9-2.1s2.9-.1 2.5-2 .8-3 2.6-2.4c1.8.6 2.8-.4 2.2-2.3-.6-1.8.4-3 2.3-2.7 1.9.4 2.8-.8 1.9-2.5-.8-1.7.1-3.1 2-2.9 1.9.1 2.7-1.1 1.6-2.7-1-1.6-.3-3 1.6-3.1s2.5-1.4 1.3-2.9-.6-3 1.3-3.3 2.4-1.7 1-3c-1.4-1.4-1-2.9.9-3.4s2.1-1.9.6-3.1-1.3-2.8.5-3.5c1.5-.8 1.5-2.2 0-3.2zm-50.5 50c-29.6 4.6-57.4-15.6-62-45.2s15.6-57.4 45.2-62 57.4 15.6 62 45.2c4.5 29.6-15.7 57.3-45.2 62z" class="st0"/>
  <ellipse cx="59.7" cy="59.7" fill="none" stroke="#71757d" stroke-miterlimit="10" stroke-width="2" rx="52.1" ry="52.1" transform="matrix(.9879 -.1548 .1548 .9879 -8.5255 9.9691)"/>
  <path d="M41 71.9c1.3-.6 2-1.7 2-3.2 0-1-.5-1.7-1.4-1.7-2.9 0-6 4.5-6 7.5 0 1.7.9 2.4 2 2.4.4 0 1.3-.1 2.4-1l.9-2.1H42l-1.3 3c-.5 1.3-1.4 2.5-3.2 3.2l-.1-.2c1.3-.5 1.9-2 2.1-2.6l.2-.5c-1 .7-1.9.8-2.4.8-1.2 0-3-.6-3-2.8 0-4.2 4.4-7.9 7.1-7.9 1.4 0 2.5.8 2.5 2.1 0 1.4-1.3 2.9-2.8 3.4l-.1-.4zm3.2 5c-.1.3-.2.6-.2.8 0 .3.2.3.3.3.5 0 1.6-2.4 2.4-3.7.8-1.3 1-1.6 1.6-1.6.2 0 .4.1.4.3 0 .1 0 .3-.1.4-.1.3-1.4 3.5-1.6 3.9-.1.1-.1.2-.1.3 0 .1.1.2.2.2.2 0 .4-.2.6-.5l1.5-1.9.2.2-1.9 2.3c-.5.7-.9.9-1.3.9-.3 0-.6-.2-.6-.5s.1-.7.4-1.2c.3-.6 1-2.3 1-2.4s0-.1-.1-.1-.1 0-.2.1c-1.4 2.2-2 4.1-3.3 4.1-.4 0-.7-.3-.7-.8 0-.4.2-.9.2-1l1.3-3v-.1c0-.1-.1-.1-.1-.1-.1 0-.1 0-.2.1L42.2 76l-.2-.2 1.9-2.4c.3-.4.6-.7 1-.7.3 0 .5.2.5.4s-.1.5-.2.8l-1 3z" class="st0"/>
  <path d="M52.9 77.6c0 .1.1.2.2.2.2 0 .4-.2.6-.5l1.5-1.9.2.2-1.9 2.3c-.6.7-.9.9-1.4.9-.3 0-.6-.2-.6-.5s.1-.7.4-1.2c.3-.6 1-2.3 1-2.4s0-.1-.1-.1c0 0-.1 0-.2.1-.2.3-1.8 2.6-2.4 3.2-.5.5-.9.9-1.3.9-.3 0-.7-.2-.7-1 0-1.7 2.5-4.9 5-5.2v.2c-2 .6-3.7 3.4-3.7 4.6 0 .2.1.4.2.4.4 0 1.9-2 2.9-3.3 1-1.4 1.2-1.7 1.7-1.7.2 0 .3.1.3.3 0 .2-.1.3-.1.5-.1.3-1.4 3.4-1.6 3.8.1 0 0 .1 0 .2z" class="st0"/>
  <path d="M57 77.6c0 .1.1.2.2.2.2 0 .4-.2.6-.5l1.6-1.9.2.2-1.9 2.3c-.6.7-.9.9-1.3.9-.3 0-.6-.2-.6-.5s.1-.6.4-1.2l1.2-2.8c.1-.3.2-.6.2-.7s-.1-.1-.1-.1c-.1 0-.3 0-.5-.1-.4.6-1 1.3-2 2.6l-.2-.2c.8-1.1 1.5-1.9 1.9-2.5-.3-.1-.4-.3-.4-.6s.3-1 .8-1c.2 0 .5.1.5.4 0 .2-.1.5-.5.9.2.1.3.1.5.1h.5c.3 0 .4.2.4.4s-.1.6-.2.8L57 77.4c.2 0 0 .1 0 .2z" class="st0"/>
  <path d="M63 77.6c0 .1.1.2.2.2.2 0 .4-.2.6-.5l1.5-1.9.2.2-1.9 2.3c-.6.7-.9.9-1.3.9-.3 0-.6-.2-.6-.5s.1-.7.4-1.2c.3-.6 1-2.3 1-2.4s0-.1-.1-.1c0 0-.1 0-.2.1-.2.3-1.8 2.6-2.4 3.2-.5.5-.9.9-1.4.9-.3 0-.7-.2-.7-1 0-1.7 2.5-4.9 5-5.2v.2c-2 .6-3.7 3.4-3.7 4.6 0 .2.1.4.2.4.4 0 1.9-2 2.9-3.3 1-1.4 1.2-1.7 1.7-1.7.2 0 .3.1.3.3 0 .2-.1.3-.1.5-.1.3-1.4 3.4-1.6 3.8v.2z" class="st0"/>
  <path d="M67.3 73.8c0-.1-.2-.1 0 0-.2-.1-.2-.1-.3 0l-1.7 2.1-.2-.2 1.9-2.4c.3-.4.6-.7 1-.7.3 0 .5.2.5.4s-.1.5-.2.8l-1.2 2.8c0 .1-.1.1-.1.2s0 .1.1.1.1-.1.2-.2l1.8-2.6c.7-1.1 1.1-1.5 1.6-1.5.4 0 .7.2.7.5 0 .2-.1.4-.1.6l-1.5 3.6c0 .1-.1.2-.1.3 0 .1.1.2.2.2.2 0 .4-.2.6-.5l1.5-1.9.2.2-1.9 2.3c-.6.7-.9.9-1.4.9-.3 0-.6-.2-.6-.5s.1-.6.4-1.2l1.4-3.2v-.1c0-.1-.1-.2-.2-.2s-.2 0-.3.2l-2.8 4.1c-.5.7-.8.9-1.1.9-.3 0-.4-.1-.4-.4s.1-.6.4-1.2l1.6-3.4z" class="st0"/>
  <path d="M76 70.8h2.4l-.2.3h-2.4l-2.6 6.2c0 .1-.1.3-.1.4s.1.2.2.2c.2 0 .6-.3.8-.6l1.5-1.9.2.2-1.8 2.2c-.5.7-1 1-1.5 1-.3 0-.7-.2-.7-.6 0-.3.1-.6.4-1.1l1.6-3.8c-.4.6-.9 1.4-2 2.7l-.2-.2c2.1-2.6 2.6-3.6 3.1-4.6h-2.1l.2-.3H75l.7-1.6h1l-.7 1.5z" class="st0"/>
  <path d="M80.5 75.5l.2.2c-2.4 3-3.5 3.1-4.1 3.1-.5 0-1.4-.3-1.4-1.4 0-2.5 2.7-4.7 4-4.7.6 0 .8.4.8 1 0 1.5-2.2 2.8-3.6 2.9-.2.4-.2.8-.2 1.1 0 .6.3.8.6.8.8-.1 2-.7 3.7-3zm-4 .7c1.6-.3 2.7-1.8 2.7-2.8 0-.3-.1-.4-.3-.4-.6 0-1.8 1.7-2.4 3.2z" class="st0"/>
  <path d="M85.4 75.5l.2.2c-2.4 3-3.5 3.1-4.1 3.1-.5 0-1.4-.3-1.4-1.4 0-2.5 2.7-4.7 4-4.7.6 0 .8.4.8 1 0 1.5-2.2 2.8-3.6 2.9-.2.4-.2.8-.2 1.1 0 .6.3.8.6.8.7-.1 1.8-.7 3.7-3zm-4 .7C83 76 84 74.4 84 73.4c0-.3-.1-.4-.3-.4-.4 0-1.8 1.7-2.3 3.2zm-10.1-60v-1.5c-.2.4-.5.8-.7 1.3l-1.3 2 2.3.6-.3-2.4zm-44 12.7c-.5-.2-.9-.4-1.3-.7.3.4.5.8.8 1.2l1.1 2.1 1.6-1.7-2.2-.9zM84.4 22c.1-.5.3-1 .4-1.4-.3.3-.7.7-1.1 1L81.9 23l2 1.2.5-2.2zm-5.1-3.1c.4-.9-.1-1.6-1.1-2-.4-.2-.8-.3-.9-.3l-1.1 2.6.9.4c.9.4 1.8.1 2.2-.7zM19.1 45.3c1.5.6 3.2.4 3.8-1.1.6-1.5-.4-2.9-2-3.5-1.4-.6-3.2-.5-3.8 1-.6 1.6.5 2.9 2 3.6z" class="st0"/>
  <path d="M109.8 51.9c-1.9-11.9-8-22.8-17.1-30.6-9.1-7.7-20.6-12-32.5-12-2.6 0-5.2.2-7.8.6C39 12 27.5 19.1 19.5 30c-8 11-11.2 24.2-9.1 37.5 1.9 11.9 8 22.8 17.1 30.6 9.1 7.7 20.6 12 32.5 12 2.6 0 5.2-.2 7.8-.6 27.5-4.4 46.2-30.1 42-57.6zm-7.9-14.2l-.7.4-1.6-2.7-2.1 1.2 1.5 2.6-.7.4-1.5-2.6-2.4 1.4 1.7 2.9-.7.4-2.3-3.7 6.7-3.9 2.1 3.6zm-6.6-9.5l3.6 4.5-.7.5-1.5-1.9-5.4 4.3-.6-.8 5.4-4.3-1.5-1.8.7-.5zm-4.7-4.5l-.8 4.6c-.2 1.1-.4 2-.7 2.8.6-.8 1.2-1.5 2.1-2.4l2.2-2.4.7.6-5.2 5.7-.7-.7.8-4.6c.2-1 .4-2 .7-2.9-.6.8-1.2 1.5-2.1 2.4l-2.2 2.4-.7-.6 5.2-5.7.7.8zm-4.7-3.6l-1.9 8-1-.6.6-2.5-2.3-1.5-2 1.6-.9-.6 6.4-5.1 1.1.7zm-9.3-4.6c.5.1 1.2.3 1.8.6 1 .4 1.5.9 1.8 1.5.2.5.2 1 0 1.6-.4.9-1.3 1.3-2.1 1.2.5.4.6 1.1.4 1.9-.2 1.1-.3 1.8-.3 2.2l-.9-.4c0-.3.1-.9.3-1.9.2-1.1 0-1.6-.8-2l-.9-.4-1.3 3.1-.9-.4 2.9-7zM72.1 14l.7 8.2-1-.3-.2-2.6-2.7-.7-1.4 2.2-1-.3 4.4-6.9 1.2.4zm-11.4 2.9l.4-4.5 1 .1-.4 4.5c-.1 1.7.6 2.5 1.6 2.6 1.1.1 1.9-.6 2.1-2.3l.4-4.6 1 .1-.4 4.5c-.2 2.4-1.5 3.2-3.2 3.1-1.7-.1-2.7-1.1-2.5-3.5zm-4.4-4.4c.9-.1 1.6 0 2 .2l-.3.8c-.4-.1-1-.2-1.7-.2-1.9.2-3 1.5-2.8 3.4.2 2 1.5 3 3.3 2.8.7-.1 1.1-.2 1.3-.3l-.1-2.3-1.6.2-.1-.8 2.5-.3.4 3.7c-.4.2-1.3.6-2.3.7-1.2.1-2.2-.1-3-.7-.7-.6-1.2-1.6-1.4-2.8-.2-2.3 1.2-4.1 3.8-4.4zm-12.9 2.9l1.7 1.7c.5.5.8.8 1.2 1.3 0-.5.1-1.1.2-1.8l.4-2.4 1.1-.4-1.1 5 1 3.1-1 .3-1-3.1-3.7-3.5 1.2-.2zm-2.4.9l.4.8-2.1 1.1 3.1 6.1-.9.5-3.1-6.1-2.1 1.1-.3-.8 5-2.7zm-6.2 3.5l4.2 6.5-1 .5-4.2-6.5 1-.5zm-4.9 3.5l4.3 5.4 2.6-2.1.5.7L34 30l-4.8-6 .7-.7zm-4.1 3.9l7.5 3.3-.7.8-2.3-1-1.9 2 1.2 2.2-.7.8-3.9-7.2.8-.9zm-6.2 8.1l3.8 2.5c1.4 1 2.5.7 3.1-.2.6-1 .4-2-1-2.9l-3.8-2.5.6-.8 3.8 2.5c2 1.3 2.1 2.9 1.2 4.3-.9 1.3-2.3 1.8-4.3.5l-3.8-2.5.4-.9zm-3.2 6c.8-1.9 2.8-2.6 5-1.7 1.8.8 2.7 2.1 2.6 3.5.5-.6 1-1.3 1.3-1.9l.7.6c-.7.9-1.3 1.7-2 2.4-.1.1-.2.3-.3.4-.8 1.7-2.6 2.6-4.9 1.6-2.3-.9-3.2-2.9-2.4-4.9zm4.4 38.5l-2.9 1.5.6-3.2-2.4-2.3 3.2-.5 1.5-2.9 1.5 2.9 3.2.5-2.4 2.3.6 3.2-2.9-1.5zm10.8 13.9l-2.9-1.5-2.9 1.5.6-3.2-2.4-2.3 3.2-.5 1.5-2.9 1.5 2.9 3.2.5-2.3 2.2.5 3.3zM46 104l-2.9-1.5-3 1.5.6-3.2-2.4-2.3 3.2-.5 1.5-2.9 1.5 2.9 3.2.5-2.4 2.3.7 3.2zm17.8 3.5l-2.9-1.5-2.9 1.5.6-3.2L56 102l3.2-.5 1.5-2.9 1.5 2.9 3.2.5-2.4 2.3.8 3.2zm16.7-3.5l-2.9-1.5-2.9 1.5.6-3.2-2.4-2.3 3.2-.5 1.5-2.9L79 98l3.2.5-2.4 2.3.7 3.2zm-14.9-8.3c-1.9.3-3.8.4-5.7.4-18 0-33.1-13-35.9-30.8-1.5-9.6.8-19.2 6.6-27.1 5.7-7.9 14.2-13 23.8-14.5 1.9-.3 3.8-.4 5.7-.4 18 0 33.1 13 35.9 30.8 3.1 19.8-10.5 38.5-30.4 41.6zm27.7-5.3l.6 3.2-2.9-1.5-3 1.6.6-3.2-2.4-2.3 3.2-.5 1.5-2.9 1.5 2.9 3.2.5-2.3 2.2zm9-9.1l-2.9-1.5-2.9 1.5.6-3.2-2.4-2.3 3.2-.5 1.5-2.9 1.5 2.9 3.2.5-2.4 2.3.6 3.2zm1.5-37.4l-1.2-2.9-2.3.9 1.2 2.8-.8.3-1.2-2.8-2.6 1.1 1.3 3.1-.8.3-1.7-4 7.1-3 1.6 3.9-.6.3z" class="st0"/>
  <text class="st0" font-family="Lobster1.3" font-size="13.845" transform="translate(30.1155 63.331)">
    Plagiarism
  </text>
  <path d="M62 37.7l-2 9.8h-2c-.6 0-.8-1.2-.8-2.7 0-1.3.1-2.8.1-4.2v-1.2l-1.7 8.1h-1.9l1.9-8.9c-1.2.5-1.8 1.5-1.8 2.9 0 .7.2.8.2.9-.9 0-1.4-.3-1.4-1.3 0-1.8 2.4-3.4 4.6-3.4 1.1 0 1.2.6 1.2 2.4 0 1.4-.1 3.1-.1 4.4 0 .6 0 1.1.1 1.4l1.7-8.2H62zm5.4 4.1l.1.3c-.1.5-.4 1.1-.9 1.4-.1 2.7-1.7 4.1-2.9 4.1-1.4 0-2.1-.6-2.1-2.2 0-3.2 1.7-4.6 3.5-4.6.6 0 1.2.3 1.2.6 0 .4-.3.5-.6.6-.1-.3-.3-.4-.6-.4-1.3 0-1.8 2.7-1.8 3.7 0 .8.4 1 .9 1 .8 0 1.2-1.4 1.4-2.6-.3-.1-.4-.3-.4-.5 0-.5.5-1 .9-1 .3 0 .4.1.4.4v.1c.5-.3.6-.5.9-.9z" class="st0"/>
</svg>
