<svg xmlns="http://www.w3.org/2000/svg" viewBox="0 0 120 120">
  <path d="M118.8 60c-1.7-2-1.9-5.5-.5-7.8 1.4-2.2.8-5.3-1.3-6.9-2.2-1.6-3.2-4.9-2.4-7.4.8-2.5-.5-5.4-3-6.3-2.5-1-4.3-3.9-4.2-6.6.2-2.7-1.8-5.1-4.5-5.4-2.6-.3-5.2-2.7-5.7-5.3s-3-4.5-5.7-4.1c-2.6.3-5.7-1.3-6.8-3.8-1.1-2.4-4-3.6-6.5-2.6s-5.9.1-7.5-1.9C69.2-.2 66-.6 63.9 1s-5.6 1.6-7.8 0c-2.1-1.6-5.3-1.2-6.9.9-1.7 2.1-5.1 2.9-7.5 1.9-2.5-1-5.4.2-6.5 2.6s-4.2 4.1-6.8 3.8-5.2 1.5-5.7 4.1-3 5-5.7 5.3c-2.6.3-4.6 2.8-4.5 5.4.2 2.7-1.7 5.6-4.2 6.6s-3.8 3.8-3 6.3-.2 5.9-2.4 7.4C.7 46.9.2 50 1.6 52.2s1.2 5.7-.5 7.8c-1.7 2-1.5 5.2.4 7s2.6 5.3 1.5 7.7C1.9 77 2.9 80 5.2 81.3s3.8 4.4 3.3 7.1c-.5 2.6 1.2 5.2 3.8 5.9 2.6.6 4.8 3.3 5 6 .2 2.7 2.4 4.8 5.1 4.8s5.5 2 6.3 4.6c.8 2.5 3.6 4.1 6.1 3.4 2.6-.7 5.8.6 7.2 2.9s4.5 3 6.8 1.7 5.8-.9 7.7 1c1.9 1.8 5.1 1.8 7 0s5.4-2.3 7.7-1c2.3 1.3 5.4.5 6.8-1.7 1.4-2.3 4.7-3.5 7.2-2.9 2.6.7 5.3-.8 6.1-3.4.8-2.5 3.6-4.6 6.3-4.6 2.7 0 5-2.1 5.1-4.8.2-2.7 2.4-5.4 5-6s4.3-3.3 3.8-5.9 1-5.8 3.3-7.1c2.3-1.3 3.3-4.3 2.2-6.7-1.1-2.4-.5-5.8 1.5-7.7 1.8-1.7 2-4.9.3-6.9zm-50.3 53.2c-29.3 4.6-56.7-15.4-61.3-44.8C2.7 39.2 22.7 11.7 51.9 7.1c29.3-4.6 56.7 15.4 61.3 44.8 4.6 29.3-15.4 56.8-44.7 61.3z" class="st0"/>
  <path d="M109.3 52.5c-1.8-11.8-7.9-22.5-16.9-30.2-9-7.6-20.4-11.8-32.1-11.8-2.6 0-5.2.2-7.7.6C39.5 13.2 28 20.2 20.1 31c-7.8 10.7-11 23.9-8.9 37C13 79.7 19 90.4 28.1 98.1c9 7.6 20.4 11.8 32.1 11.8 2.6 0 5.2-.2 7.7-.6 27.1-4.2 45.7-29.7 41.4-56.8zM67 103.4c-23.9 3.7-46.2-12.6-50-36.5C13.3 43 29.6 20.6 53.4 16.8c23.9-3.7 46.2 12.6 50 36.5 3.8 24-12.5 46.4-36.4 50.1z" class="st0"/>
  <path fill="none" stroke="#71757d" stroke-miterlimit="10" stroke-width="2" d="M111.2 52.2c4.4 28.2-14.8 54.6-42.9 59-28.1 4.4-54.5-14.8-58.9-43C4.9 40 24.2 13.6 52.3 9.2s54.4 14.8 58.9 43z"/>
  <path fill="none" stroke="#71757d" stroke-dasharray="2.5504 2.5504" stroke-miterlimit="10" stroke-width="4" d="M101 53.8c3.5 22.5-11.9 43.7-34.4 47.2S23 89.1 19.5 66.6C16 44 31.4 22.9 53.9 19.4c22.5-3.6 43.6 11.9 47.1 34.4z"/>
  <path d="M42.8 77.8c-.4 0-.6.1-.7.4-.1.1-.1.2-.1.4V82c-.5.3-1 .5-1.5.6s-1.1.2-1.6.2c-.8 0-1.5-.1-2.1-.4-.6-.2-1.1-.6-1.6-1-.4-.4-.8-.9-1-1.5s-.3-1.2-.3-1.8c0-.4 0-.7.1-1.1s.2-.8.4-1.1c.2-.4.4-.7.6-1 .2-.3.5-.6.9-.8.4-.2.7-.4 1.2-.6.4-.1.9-.2 1.4-.2.4 0 .7 0 1 .1s.5.1.7.2.4.1.5.2.2.1.3.1h.1s.1 0 .1-.1c0 0 .1-.1.1-.2s0-.2.1-.3h.2l.2 2.9h-.2c-.1-.4-.3-.8-.5-1.1-.2-.3-.4-.5-.7-.7s-.5-.3-.8-.4-.6-.1-1-.1c-.5 0-1 .1-1.4.3-.4.2-.8.5-1.1.9s-.5.8-.6 1.3-.2 1-.2 1.6.1 1.2.3 1.8c.2.5.4 1 .7 1.4s.7.7 1.1.9c.4.2.9.3 1.4.3.3 0 .7 0 1-.1s.6-.2.9-.4v-3.3c0-.2-.1-.3-.2-.4-.1-.1-.2-.2-.4-.2s-.4-.1-.6-.1v-.2H43v.2h-.2v-.1z" class="st0"/>
  <path d="M47.7 82.8h-.3v-1.3l-.7.7c-.2.2-.4.3-.5.4-.2.1-.3.2-.4.2-.1 0-.3.1-.4.1-.4 0-.6-.1-.8-.2-.2-.2-.4-.4-.5-.6s-.2-.5-.2-.8v-3.5c0-.2 0-.4-.1-.5 0-.1-.1-.2-.2-.3-.1-.1-.2-.1-.3-.1h-.5v-.2h2.1v4.6c0 .2.1.3.1.4l.3.3c.1.1.3.1.5.1h.3c.1 0 .2-.1.3-.1.1-.1.3-.2.4-.3.1-.1.3-.3.5-.4v-3.5c0-.2 0-.3-.1-.5 0-.1-.1-.2-.2-.3-.1-.1-.2-.1-.3-.1h-.4v-.2h2.1v4.7c0 .1 0 .2.1.3 0 .1.1.1.1.1h.4c.1 0 .2 0 .3-.1l.1.2-1.7.9zm6.1-.2h-.3c-.1 0-.2-.1-.2-.2-.1-.1-.1-.2-.2-.3 0-.1-.1-.3-.1-.5-.3.2-.5.4-.7.5s-.3.2-.5.3c-.1.1-.3.1-.4.1H51c-.2 0-.4 0-.6-.1-.2-.1-.3-.2-.5-.3-.1-.1-.2-.3-.3-.5s-.1-.4-.1-.6 0-.3.1-.4c0-.1.1-.3.2-.4.1-.1.2-.3.4-.4s.4-.3.6-.4c.3-.1.6-.3.9-.4.4-.1.8-.3 1.3-.5v-.2c0-.3 0-.5-.1-.7 0-.2-.1-.4-.2-.5-.1-.1-.2-.2-.4-.3-.1-.1-.3-.1-.5-.1-.3 0-.5.1-.7.2s-.2.3-.3.5v.4c0 .2 0 .3-.1.5-.1.1-.2.2-.4.2s-.3-.1-.4-.2c-.1-.1-.1-.3-.1-.5s.1-.5.2-.6c.1-.2.3-.4.5-.5s.4-.3.7-.4.5-.1.8-.1c.4 0 .8 0 1.1.1s.5.2.6.4c.1.2.2.4.3.7 0 .3.1.5.1.9v3.2c0 .1.1.2.1.3 0 0 .1.1.2.1h.1s.1 0 .1-.1l.2-.2.3-.3v.4c-.3.5-.8.9-1.3.9zm-.7-3.7c-.5.2-.9.4-1.2.6s-.5.3-.7.5c-.2.1-.3.3-.3.4s-.1.3-.1.4c0 .2 0 .3.1.4 0 .1.1.3.2.3.1.1.2.2.3.2.1.1.2.1.4.1s.4 0 .6-.2c.2-.1.5-.3.7-.5v-2.2z" class="st0"/>
  <path d="M59.5 77.3c0 .1-.1.1-.1.2-.1.1-.1.1-.2.1s-.2.1-.2.1c-.1 0-.2 0-.3-.1-.1 0-.2-.1-.2-.2l-.2-.2c-.1 0-.1-.1-.2-.1s-.2.1-.4.3c-.2.2-.3.4-.5.8v3.4c0 .1.1.3.2.4.1.1.2.2.3.2s.3.1.5.1v.2H55v-.2h.5c.1 0 .2-.1.3-.1.1-.1.1-.2.2-.3v-4.2c0-.1 0-.2-.1-.2l-.1-.1c-.1-.1-.2-.1-.3-.1s-.3 0-.5.1V77l1.9-.7h.3v1.4c.5-.9 1-1.4 1.6-1.4.1 0 .2 0 .3.1.1 0 .2.1.3.2l.2.2c0 .1.1.2.1.3-.1 0-.1.1-.2.2zm4.3 5.3h-.3c-.1 0-.2-.1-.2-.2-.1-.1-.1-.2-.2-.3s-.1-.3-.1-.5c-.3.2-.5.4-.7.5s-.3.2-.5.3c-.1.1-.3.1-.4.1H61c-.2 0-.4 0-.6-.1-.2-.1-.3-.2-.5-.3-.1-.1-.2-.3-.3-.5s-.1-.4-.1-.6 0-.3.1-.4c0-.1.1-.3.2-.4.1-.1.2-.3.4-.4s.4-.3.6-.4c.3-.1.6-.3.9-.4.4-.1.8-.3 1.3-.5v-.2c0-.3 0-.5-.1-.7 0-.2-.1-.4-.2-.5-.1-.1-.2-.2-.4-.3-.1-.1-.3-.1-.5-.1-.3 0-.5.1-.7.2s-.2.3-.3.5v.4c0 .2 0 .3-.1.5-.1.1-.2.2-.4.2s-.3-.1-.4-.2c.1-.1.1-.3.1-.5s.1-.5.2-.6c.1-.2.3-.4.5-.5s.4-.3.7-.4.5-.1.8-.1c.4 0 .8 0 1.1.1s.5.2.6.4c.1.2.2.4.3.7 0 .3.1.5.1.9v3.2c0 .1.1.2.1.3 0 0 .1.1.2.1h.1s.1 0 .1-.1l.2-.2.3-.3v.4c-.5.5-1 .9-1.5.9zm-.7-3.7c-.5.2-.9.4-1.2.6s-.5.3-.7.5c-.2.1-.3.3-.3.4s-.1.3-.1.4c0 .2 0 .3.1.4 0 .1.1.3.2.3.1.1.2.2.3.2.1.1.2.1.4.1s.4 0 .6-.2c.2-.1.5-.3.7-.5v-2.2z" class="st0"/>
  <path d="M68.7 82.6v-.2h.5c.1 0 .2-.1.3-.2.1-.1.1-.2.1-.3v-3.1c0-.6-.1-1-.2-1.2-.1-.3-.4-.4-.7-.4-.3 0-.5.1-.8.2s-.5.4-.8.6v3.8c0 .1.1.3.1.3.1.1.2.1.3.2h.5v.2h-3v-.3h.5c.1 0 .2-.1.3-.2.2 0 .2-.1.2-.3v-4.4c0-.1 0-.2-.1-.2l-.1-.1c-.1-.1-.4-.1-.7 0l-.1-.2 1.9-.8h.3v1.3c.7-.8 1.4-1.3 2-1.3.3 0 .5.1.8.2.2.1.4.3.5.5s.2.5.3.7c.1.3.1.6.1 1v3.3c0 .2.1.3.1.4.1.1.2.1.3.2.1 0 .3.1.5.1v.3l-3.1-.1zM75 82c-.1.2-.2.3-.4.4-.1.1-.3.2-.4.2-.1.1-.3.1-.4.1s-.3 0-.4-.1c-.1 0-.3-.1-.4-.2s-.2-.3-.3-.5c-.1-.2-.1-.5-.1-.8v-4.2h-1v-.2c.2-.1.4-.2.6-.4l.6-.6.2-.2.2-.2c.1-.1.1-.2.2-.4.1-.1.1-.3.2-.5h.2v2h1.4v.5h-1.4v4.6c0 .1.1.2.1.3l.2.2c.1 0 .2.1.2.1.2 0 .3 0 .4-.1s.2-.2.3-.4h.3c-.1.1-.2.3-.3.4zm5.3-.7c-.1.3-.3.5-.5.8-.2.2-.5.4-.7.5-.3.1-.6.2-1 .2s-.7-.1-1-.2c-.3-.2-.6-.4-.8-.6-.2-.3-.4-.6-.6-1-.1-.4-.2-.8-.2-1.3s.1-1 .2-1.4.3-.8.6-1c.2-.3.5-.5.9-.7.3-.2.7-.2 1.1-.2.3 0 .6.1.9.2s.5.3.7.5.4.5.5.8.2.7.2 1.1h-4.1c0 .5.1.9.2 1.2.1.4.3.7.5.9s.4.4.7.6c.3.1.5.2.8.2.2 0 .4 0 .5-.1.2 0 .3-.1.5-.2.1-.1.3-.3.4-.5s.2-.4.3-.7l.2.1c-.1.2-.2.5-.3.8zM79 77.6c-.1-.2-.2-.4-.3-.5-.1-.1-.3-.2-.4-.3-.1 0-.3-.1-.4-.1-.2 0-.3 0-.5.1s-.3.2-.4.3-.2.3-.3.5c-.1.2-.1.5-.2.7h2.7c0-.2-.1-.4-.2-.7zm7 3.7c-.1.3-.3.5-.5.8-.2.2-.5.4-.7.5-.3.1-.6.2-1 .2s-.7-.1-1-.2c-.3-.2-.6-.4-.8-.6-.2-.3-.4-.6-.6-1-.1-.4-.2-.8-.2-1.3s.1-1 .2-1.4.3-.8.6-1c.2-.3.5-.5.9-.7.3-.2.7-.2 1.1-.2.3 0 .6.1.9.2s.5.3.7.5.4.5.5.8.2.7.2 1.1h-4.1c0 .5.1.9.2 1.2.1.4.3.7.5.9.2.3.4.4.7.6.3.1.5.2.8.2.2 0 .4 0 .5-.1.2 0 .3-.1.5-.2.1-.1.3-.3.4-.5s.2-.4.3-.7l.2.1c-.1.2-.2.5-.3.8zm-1.3-3.7c-.1-.2-.2-.4-.3-.5-.1-.1-.3-.2-.4-.3-.1 0-.3-.1-.4-.1-.2 0-.3 0-.5.1s-.3.2-.4.3c-.1.1-.2.3-.3.5-.1.2-.1.5-.2.7h2.7c0-.2-.1-.4-.2-.7zM44.6 46.7v-.3c.3 0 .5 0 .7-.1.2 0 .3-.1.4-.2.1-.1.1-.2.2-.3v-6.6c0-.1 0-.2-.1-.3 0-.1-.1-.2-.1-.2-.1-.1-.1-.1-.2-.1h-.4c-.1 0-.3.1-.5.2v-.3l3-1.3h.1v8.7c0 .1.1.2.2.2.1.1.2.1.4.1s.4.1.7.1v.3l-4.4.1zm11.7-2.5c-.2.6-.4 1.1-.7 1.5s-.6.7-1 .9-.8.3-1.2.3-.8-.1-1.2-.3-.7-.5-1-.8c-.3-.4-.5-.9-.7-1.5s-.3-1.3-.3-2.1c0-.9.1-1.6.3-2.3.2-.6.4-1.1.7-1.5s.7-.7 1-.9c.4-.2.8-.3 1.2-.3s.7.1 1.1.3c.4.2.7.5 1 .9s.5.9.7 1.5.3 1.3.3 2.2c0 .7-.1 1.4-.2 2.1zM54.5 40c-.1-.6-.1-1-.2-1.4s-.3-.5-.4-.6-.3-.2-.5-.2-.3.1-.5.2-.3.4-.4.7c-.1.3-.2.8-.3 1.3s-.1 1.2-.1 2 0 1.5.1 2.1.2 1 .3 1.4c.1.3.3.6.4.8.2.2.3.2.5.2s.3-.1.5-.2c.1-.2.3-.4.4-.8.1-.3.2-.8.2-1.3.1-.5.1-1.2.1-1.9 0-1-.1-1.7-.1-2.3zm8.6 4.2c-.2.6-.4 1.1-.7 1.5s-.6.7-1 .9-.8.3-1.2.3-.8-.1-1.2-.3-.7-.5-1-.8c-.3-.4-.5-.9-.7-1.5S57 43 57 42.2c0-.9.1-1.6.3-2.3.2-.6.4-1.1.7-1.5s.7-.7 1-.9c.4-.2.8-.3 1.2-.3s.7.1 1.1.3c.4.2.7.5 1 .9s.5.9.7 1.5.3 1.3.3 2.2c.1.7 0 1.4-.2 2.1zM61.3 40c-.1-.6-.1-1-.2-1.4-.1-.3-.2-.6-.4-.7-.1-.1-.3-.2-.5-.2s-.3.1-.5.2-.3.4-.4.7c-.1.3-.2.8-.3 1.3s-.1 1.2-.1 2 0 1.5.1 2.1.2 1 .3 1.4c.1.3.3.6.4.8.2.2.3.2.5.2s.3-.1.5-.2c.1-.2.3-.4.4-.8.1-.3.2-.8.2-1.3.1-.5.1-1.2.1-1.9 0-.9 0-1.6-.1-2.2zm6.4 6.9h-1.4l5.4-9.1c-.3.1-.5.2-.7.3s-.4.1-.6.1H70c-.1 0-.3-.1-.4-.1 0 .1.1.2.1.4v.4c0 .3 0 .6-.1.9l-.3.9c-.1.3-.3.5-.5.8s-.4.5-.7.7c-.2.2-.5.3-.8.4-.3.1-.6.2-.9.2-.4 0-.7 0-1-.1s-.5-.2-.6-.4c-.2-.2-.3-.4-.3-.6s-.1-.5-.1-.9c0-.3 0-.6.1-1 .1-.3.2-.6.4-.9.2-.3.4-.5.6-.8.2-.2.5-.4.7-.6.3-.2.5-.3.8-.4.3-.1.6-.1.9-.1.2 0 .4 0 .5.1.1 0 .3.1.4.1.1.1.2.1.3.2.1.1.2.1.3.2.1.1.2.1.4.1.1 0 .3.1.5 0 .4 0 .8-.1 1.1-.2.4-.2.7-.4.9-.7h1.3l-5.9 10.1zm1.4-8.6c0-.2-.1-.4-.2-.5l-.3-.3c-.1-.1-.2-.1-.3-.1-.2 0-.3 0-.5.1s-.4.2-.6.4-.4.4-.5.6c-.2.2-.3.5-.5.8l-.3.9c-.1.3-.1.6-.1.9 0 .3.1.5.3.7.2.2.4.2.8.2.2 0 .3-.1.5-.2s.4-.2.5-.4c.2-.2.3-.4.5-.6.1-.2.3-.4.4-.7.1-.2.2-.4.3-.7.1-.2.1-.4.1-.6-.1 0-.1-.3-.1-.5zm6.3 5.6l-.3.9c-.1.3-.3.5-.5.8s-.4.5-.7.7c-.3.2-.5.3-.8.5-.3.1-.6.2-1 .2s-.7 0-.9-.1c-.2-.1-.4-.2-.6-.4-.1-.2-.3-.4-.3-.7-.1-.3-.1-.6-.1-.9 0-.3 0-.5.1-.8s.2-.6.4-.8c.2-.3.3-.5.6-.8.2-.2.5-.5.7-.6.3-.2.5-.3.8-.4.3-.1.6-.2.9-.2.4 0 .7.1.9.2.2.1.4.3.6.5l.3.6c0 .2.1.5.1.7-.1.1-.2.4-.2.6zm-.6-1.4c0-.2-.1-.4-.2-.5l-.3-.3c-.1-.1-.2-.1-.4-.1-.1 0-.3 0-.5.1s-.3.2-.5.4-.3.4-.5.6c-.2.2-.3.5-.5.8l-.3.9c-.1.3-.1.6-.1.9 0 .3.1.5.3.7.2.2.4.2.7.2.2 0 .3 0 .5-.1s.3-.2.5-.4l.5-.5c.2-.2.3-.4.4-.6.1-.2.2-.5.3-.7.1-.2.1-.5.1-.7.1-.2.1-.5 0-.7z" class="st0"/>
  <text class="st0" font-family="Lobster1.3" font-size="14.1202" transform="matrix(.9982 0 0 1 27.7575 64.3518)">
    Satisfaction
  </text>
</svg>
