<svg xmlns="http://www.w3.org/2000/svg" viewBox="0 0 120 120">
  <path d="M119.3 50.7C114.1 18 83.4-4.4 50.7.7 18 5.9-4.4 36.6.7 69.3s35.8 55.1 68.6 50c32.7-5.2 55.1-35.9 50-68.6zm-50.6 65c-2.9.5-5.9.7-8.8.7-13.3 0-26.2-4.8-36.4-13.4C13.3 94.2 6.4 82.1 4.3 68.7 2 53.9 5.6 39 14.5 26.8 23.3 14.6 36.4 6.7 51.3 4.3c2.9-.5 5.9-.7 8.8-.7 13.3 0 26.2 4.8 36.4 13.4 10.3 8.7 17.1 20.9 19.2 34.2 4.8 30.8-16.3 59.7-47 64.5z" class="st0"/>
  <path d="M99.3 53.4c-3.4-21.7-23.8-36.5-45.5-33.2C32.1 23.6 17.3 44 20.6 65.7s23.7 36.5 45.5 33.2c21.7-3.4 36.6-23.8 33.2-45.5zM65.8 96.5c-1.9.3-3.9.5-5.8.5-8.8 0-17.4-3.2-24.1-8.9-6.9-5.8-11.4-13.8-12.8-22.7-1.5-9.8.9-19.7 6.8-27.8 5.8-8.1 14.5-13.3 24.4-14.9 1.9-.3 3.9-.5 5.8-.5 8.8 0 17.4 3.2 24.1 8.9C91 36.9 95.5 45 96.9 53.8c3.2 20.4-10.8 39.6-31.1 42.7zm-46-14.7l-1.6-3.2-1.6 3.2-3.7.6 2.7 2.5-.7 3.7 3.3-1.7 3.2 1.7-.6-3.7 2.7-2.5zm-4.5-9l2.6-2.6-3.6-.5-1.6-3.3-1.7 3.3-3.6.5 2.6 2.6-.6 3.6 3.3-1.7 3.2 1.7zm-7-9.2l3.2-1.7 3.3 1.7-.6-3.6 2.6-2.5-3.6-.6-1.7-3.3-1.6 3.3-3.6.6L8.9 60zm95.1 18.2l-1.6-3.2-1.6 3.2-3.7.6 2.7 2.5-.6 3.7 3.2-1.7 3.3 1.7-.7-3.7 2.7-2.5zm5.6-12.1l-1.7-3.3-1.6 3.3-3.6.5 2.6 2.6-.6 3.6 3.2-1.7 3.3 1.7-.6-3.6 2.6-2.6zm0-16.1l-1.6 3.3-3.7.6 2.7 2.5-.6 3.6 3.2-1.7 3.3 1.7-.7-3.6 2.7-2.5-3.7-.6zM28.3 98.5l1.5 1.2c-.8.9-1.5 1-2.8-.1-1.1-1-1.5-1.9.1-3.7 1.5-1.7 2.5-1.7 3.7-.6 1.1.9 1.1 1.6.7 2.3l1.3 1.1c1.1-1.6.6-3.1-1.1-4.5-1.4-1.2-3.5-2.2-5.9.7-2.3 2.7-1.3 4.6.3 5.9 1.8 1.5 3.5 1.8 5.3-.3l.6-.7-2.8-2.3-.9 1zm11.5 1.5l-2.2 3.8c-1 1.8-1.4 2.1-2.6 1.5-1.3-.8-1.2-1.3-.1-3.1l2.1-3.8-1.5-.8-2.7 4.7c-1.2 2.2-.3 3.3 1.5 4.3 1.7.9 3 1.2 4.3-1l2.7-4.7-1.5-.9zm4.8 2.1c-2.1 2.2-3.9 4.4-5.6 6.8l1.7.6c.3-.5.7-1 1-1.5l3.2 1.1c0 .6-.1 1.2-.1 1.8l1.8.6c.2-2.9.1-5.8-.1-8.8l-1.9-.6zm-2 4.7c.7-.9 1.4-1.8 2.2-2.6.1 1.2.1 2.3.1 3.4l-2.3-.8zm11.1-2.3l-3.5-.6-1.3 8.1 1.7.3.5-3.2 1.5.2 1.5 3.5 2 .3-1.6-3.6c1-.1 1.7-.5 2-2.1.4-2.3-1.1-2.6-2.8-2.9zm1.1 2.6c-.2 1-.6 1.1-2 .9l-1.5-.2.3-2.1 1.6.3c1.4.1 1.7.3 1.6 1.1zm5.8-2.1c-1.2 2.8-2.1 5.5-2.9 8.3h1.8c.1-.6.3-1.2.4-1.8l3.3-.1c.2.6.4 1.2.5 1.7h1.9c-.9-2.8-1.9-5.5-3.2-8.2l-1.8.1zm-.2 5.1c.3-1.1.7-2.1 1.2-3.2.5 1.1.9 2.1 1.3 3.2h-2.5zm10.8-6.3l1.1 5.3-4.2-4.7-1.7.4 1.6 8 1.7-.3-1.1-5.4 4.3 4.8 1.6-.4-1.6-8.1zm9.3-1.7l-.6-1.3-6.2 2.4.6 1.3 2.3-.9L79 110l1.6-.6-2.4-6.4zm5.2 3.3l-1.1-1.9 3.5-2.1-.8-1.2-3.4 2.1-1-1.6 3.8-2.2-.7-1.2-5.2 3 4.1 7.2 5.4-3.2-.7-1.2zm7.2-4.8l-1.4-1.7 3.1-2.6-.9-1.1-3.1 2.6-1.2-1.4 3.4-2.8-.9-1.1-4.7 3.9 5.3 6.3 4.8-4-.9-1.1zM10.7 44.8l-.3-1.9 7.8 2.8.4-1.1-8.9-3.3-.4 1.1.4 2.3zm4.8-5.3c2.8 1.5 4.9 1.2 5.8-.4 1-1.8 0-3.7-2.8-5.3-2.6-1.5-4.7-1.3-5.7.4-.9 1.7 0 3.8 2.7 5.3zm-1.8-4.7c.6-1.2 2.3-.9 4.3.2 2.1 1.2 3.1 2.5 2.5 3.6-.6 1-2.2 1-4.3-.2-2.3-1.2-3.1-2.6-2.5-3.6z" class="st0"/>
  <path d="M19.5 32.7c2.5 1.9 4.6 2 5.8.5 1.3-1.7.6-3.7-1.9-5.7-2.4-1.9-4.5-2.1-5.7-.5-1.3 1.6-.7 3.8 1.8 5.7zm-1.1-4.9c.8-1 2.4-.6 4.2.9 1.9 1.5 2.7 2.9 1.9 4-.7.9-2.3.6-4.2-.9-2.1-1.7-2.6-3.2-1.9-4zm11.3.5l-2.1-11.1-.6.5 2.1 11.1zm-3.1-2.6c.9-.8 1.1-2.2-.2-3.8-1.2-1.4-2.5-1.6-3.5-.7-1 .8-1.1 2.3.2 3.7 1.2 1.5 2.6 1.6 3.5.8zm-3.3-3.8c.7-.6 1.6-.1 2.3.8.8 1 1.1 1.9.5 2.4s-1.6.1-2.3-.8c-.8-.9-1.1-1.9-.5-2.4zm10.5 2.8c.9-.8 1.1-2.2-.2-3.7-1.2-1.4-2.5-1.6-3.5-.8s-1.1 2.3.2 3.8c1.2 1.4 2.6 1.5 3.5.7zm-3.2-3.8c.7-.6 1.6-.1 2.3.8.8 1 1.1 1.9.5 2.4s-1.6.1-2.3-.8c-.9-.9-1.1-1.9-.5-2.4zm9.2 0l-1.3-4c-.5-1.4-1-3-1.5-4.1.7 1 1.5 2 2.5 3.1l3.2 3.7.9-.4-.2-5.1c0-1.4-.1-2.7-.3-3.9.4 1.1 1.1 2.6 1.7 3.9l1.8 3.9 1.1-.5-4.3-8.9-1.5.6.2 5.1c.1 1.3.1 2.4.3 3.5-.6-.9-1.3-1.7-2.2-2.7l-3.3-3.8-1.3.7 3.1 9.4 1.1-.5zm13.4-4c2.5-.4 4.2-2.5 3.7-5.8-.4-2.9-2.5-4.6-5.1-4.2s-4.2 2.7-3.7 5.8c.4 2.9 2.5 4.6 5.1 4.2zm-1.4-9c2.1-.3 3.4 1.5 3.7 3.5.3 2.2-.5 4.2-2.5 4.5-2 .3-3.4-1.4-3.7-3.4-.3-2.2.5-4.3 2.5-4.6zm8.4 4c.1-1.6.1-2.8.1-4.1.4 1.1 1 2.2 1.7 3.4l2.8 5.2 1.3.1.6-9.8-1.2-.1-.2 4.1c-.1 1.5-.1 2.7-.1 4-.4-1-.9-2.1-1.6-3.3l-2.9-5.1-1.4-.1-.6 9.8 1.2.1.3-4.2zm13.4 5.2l-4.2-1 .9-3.4 3.7.8.2-1-3.7-.9.7-3 4 1 .2-1.1-5.2-1.2-2.3 9.5 5.4 1.3zm4.2 2.8l1.6-3.9 5.2-3.9-1.3-.6-2.4 2c-.6.5-1.2 1-1.7 1.5 0-.7-.1-1.4-.1-2.2l-.2-3-1.3-.6.7 6.4-1.6 3.8 1.1.5zm7.7 4.4c1.3.9 2.4 1.4 3.3 1.3.7-.1 1.3-.4 1.8-1.1.9-1.2.4-2.4-.2-3.2 1.1.3 2.1 0 2.6-.8.5-.6.6-1.3.4-1.9-.2-.8-.7-1.4-1.8-2.2-.7-.5-1.5-1-2-1.2L83.9 23c.3.4.8.8 1.6 1.3zm4.7-7.6c.2.1.5.2 1 .6 1 .8 1.5 1.6.8 2.6-.6.8-1.6.9-2.7.1l-.9-.7 1.8-2.6zM87.7 20l.8.6c1.1.8 1.7 1.9.9 3-.8 1.2-2.1.8-3.2.1-.4-.3-.7-.5-.8-.7l2.3-3zm2.6 8l2.9-1.4 2.4 2.5-1.5 2.9.9 1 4.8-9.2-1.1-1.1-9.4 4.4 1 .9zm6.5-3.1c.6-.3 1.1-.6 1.6-.9-.3.5-.6 1-.9 1.6l-1.4 2.6-2-2.1 2.7-1.2zm.9 12.4c.7 1 1.4 1.7 1.8 1.9l.7-.8c-.5-.3-1.1-.9-1.5-1.5-1.3-2-.8-4 1.2-5.3 2.2-1.4 4.2-.9 5.5 1 .4.7.7 1.4.7 1.9l1-.3c0-.4-.2-1.2-.9-2.2-1.7-2.6-4.6-3.2-7.1-1.5-2.6 1.8-2.9 4.5-1.4 6.8zm2.5 4.4l3.4-1.5 1.4.4-3.2 4.9.6 1.4 3.7-5.7 5.2 1.6-.6-1.4-4.6-1.3c-.4-.1-.8-.2-1.3-.3l4.4-1.9-.5-1.2-9 3.8.5 1.2zM40.5 66.9h-3.3V56.3l.1-1.6c-.6.6-.9.9-1.2 1.1l-1.8 1.5-1.6-2 5.1-4h2.7v15.6zM55.8 59c0 2.7-.5 4.8-1.4 6.1-.9 1.3-2.3 2-4.2 2-1.8 0-3.2-.7-4.1-2-.9-1.4-1.4-3.4-1.4-6 0-2.8.4-4.8 1.3-6.1.9-1.3 2.3-2 4.1-2s3.2.7 4.1 2.1 1.6 3.3 1.6 5.9zm-7.7 0c0 1.9.2 3.3.5 4.1s.9 1.3 1.7 1.3 1.3-.4 1.7-1.3c.3-.8.5-2.2.5-4.1 0-1.9-.2-3.3-.5-4.2-.3-.8-.9-1.3-1.7-1.3s-1.3.4-1.7 1.3c-.4.9-.5 2.3-.5 4.2zm20.2 0c0 2.7-.5 4.8-1.4 6.1-.9 1.3-2.3 2-4.2 2-1.8 0-3.2-.7-4.1-2-.9-1.4-1.4-3.4-1.4-6 0-2.8.4-4.8 1.3-6.1s2.3-2 4.1-2c1.8 0 3.2.7 4.1 2.1s1.6 3.3 1.6 5.9zm-7.6 0c0 1.9.2 3.3.5 4.1s.9 1.3 1.7 1.3 1.3-.4 1.7-1.3c.3-.8.5-2.2.5-4.1 0-1.9-.2-3.3-.5-4.2-.3-.8-.9-1.3-1.7-1.3s-1.3.4-1.7 1.3c-.4.9-.5 2.3-.5 4.2zm16.6-3.2c0 1.6-.3 2.9-1 3.7-.6.8-1.6 1.2-2.8 1.2-1.2 0-2.1-.4-2.7-1.3-.6-.8-1-2.1-1-3.7 0-3.3 1.2-4.9 3.7-4.9 1.2 0 2.1.4 2.8 1.3.7.9 1 2.2 1 3.7zm-4.8.1c0 .9.1 1.6.2 2 .2.4.4.7.8.7.7 0 1-.9 1-2.7s-.3-2.7-1-2.7c-.4 0-.6.2-.8.7-.1.4-.2 1-.2 2zm12.2-4.8L76 66.9h-2.6l8.7-15.7h2.6v-.1zm3.6 11c0 1.6-.3 2.9-1 3.7-.6.8-1.6 1.2-2.8 1.2-1.2 0-2.1-.4-2.7-1.3s-1-2.1-1-3.7c0-3.3 1.2-4.9 3.7-4.9 1.2 0 2.1.4 2.8 1.3.7.9 1 2.1 1 3.7zm-4.8 0c0 .9.1 1.6.2 2 .2.4.4.7.8.7.7 0 1-.9 1-2.7s-.3-2.7-1-2.7c-.4 0-.6.2-.8.7-.1.5-.2 1.1-.2 2zM50.3 43.5h19.5v1H50.3zm0 29.8h19.5v1H50.3z" class="st0"/>
</svg>
