<svg xmlns="http://www.w3.org/2000/svg" enable-background="new 0 0 130 130" viewBox="0 0 130 130">
  <path d="M128.5 68.7c-1.8-1.1-1.7-2.8.1-3.8s1.8-2.5-.1-3.4c-1.9-.9-2-2.6-.3-3.8s1.5-2.7-.5-3.4-2.3-2.4-.8-3.8c1.6-1.4 1.2-2.9-.9-3.3-2-.4-2.6-2.1-1.2-3.6 1.4-1.6.8-3-1.2-3.2-2.1-.2-2.8-1.8-1.6-3.5s.5-3.1-1.6-3c-2.1 0-3-1.4-2-3.3 1-1.8.1-3.1-1.9-2.8-2.1.3-3.1-1.1-2.3-3s-.2-3.1-2.3-2.6c-2 .5-3.2-.7-2.7-2.7.6-2-.6-3.1-2.5-2.3-2 .7-3.3-.4-3-2.4.3-2.1-.9-3-2.8-2s-3.3 0-3.2-2.1c.1-2.1-1.3-2.9-3-1.7-1.7.9-3.2.1-3.3-2s-1.6-2.7-3.2-1.3c-1.6 1.3-3.2.7-3.6-1.3-.4-2.1-1.9-2.5-3.3-1s-3.1 1.1-3.7-.9c-.6-2-2.1-2.3-3.4-.6s-3 1.5-3.8-.4-2.4-2-3.4-.2c-1.1 1.8-2.8 1.8-3.8 0-1.1-1.8-2.6-1.7-3.4.2s-2.5 2.1-3.8.4-2.8-1.4-3.4.6-2.3 2.4-3.7.9-2.9-1.1-3.3 1-2 2.6-3.6 1.3c-1.6-1.4-3-.8-3.2 1.3-.1 2.1-1.7 2.9-3.4 1.7s-3.1-.4-3 1.7c.1 2.1-1.4 3-3.2 2.1-1.9-1-3.1 0-2.8 2 .3 2.1-1 3.2-3 2.4-2-.7-3.1.3-2.5 2.3s-.6 3.3-2.7 2.7c-2-.5-3 .7-2.3 2.6.8 1.9-.3 3.3-2.3 3-2.1-.3-3 1-1.9 2.8 1 1.8.1 3.3-2 3.3s-2.8 1.3-1.6 3c1.2 1.7.5 3.3-1.6 3.5s-2.6 1.6-1.2 3.2c1.2 1.7.7 3.4-1.4 3.8-2 .4-2.4 1.9-.9 3.3 1.6 1.4 1.2 3.1-.8 3.8s-2.2 2.2-.5 3.4 1.6 2.9-.3 3.8-1.9 2.4-.1 3.4 1.9 2.7.1 3.8-1.6 2.6.3 3.4 2.2 2.5.5 3.8C.7 77.2 1 78.7 3 79.3s2.5 2.2 1 3.7-1 3 1.1 3.3c2.1.3 2.7 1.9 1.4 3.6-1.3 1.6-.7 3 1.4 3.1s2.9 1.6 1.8 3.4-.3 3.1 1.8 2.9 3.1 1.3 2.2 3.2 0 3.1 2.1 2.7 3.2.9 2.5 2.9.4 3.1 2.4 2.5 3.3.5 2.8 2.6c-.5 2 .7 3 2.7 2.2 1.9-.8 3.3.2 3.1 2.2-.2 2.1 1.1 2.9 2.9 1.9 1.8-1.1 3.3-.2 3.3 1.9s1.4 2.8 3.1 1.5c1.7-1.3 3.3-.6 3.5 1.5.3 2.1 1.7 2.6 3.2 1.2s3.2-1 3.7 1.1c.5 2 2 2.4 3.4.8 1.3-1.6 3-1.3 3.8.7.7 2 2.3 2.1 3.4.4 1.2-1.7 2.9-1.7 3.8.2s2.5 1.9 3.4 0 2.7-2 3.8-.2c1.2 1.7 2.7 1.6 3.4-.4s2.4-2.3 3.8-.7c1.3 1.6 2.9 1.3 3.4-.8.5-2 2.2-2.5 3.7-1.1s3 .9 3.2-1.2c.3-2.1 1.8-2.7 3.5-1.5 1.7 1.3 3.1.6 3.1-1.5s1.5-2.9 3.3-1.9c1.8 1.1 3.1.2 2.9-1.9s1.2-3.1 3.1-2.2c1.9.8 3.1-.1 2.7-2.2-.5-2 .8-3.2 2.8-2.6s3.1-.5 2.4-2.5.4-3.3 2.5-2.9 3-.8 2.1-2.7.1-3.3 2.2-3.2c2.1.2 2.9-1.2 1.8-2.9-1.1-1.8-.3-3.3 1.8-3.4s2.7-1.5 1.4-3.1-.7-3.2 1.4-3.6c2.1-.3 2.5-1.8 1.1-3.3-1.5-1.5-1-3.1 1-3.7s2.3-2.1.7-3.4-1.4-3 .5-3.8c1.8-.8 1.9-2.3.1-3.4zm-54.7 54.1c-32.1 5-62.2-16.9-67.2-49s16.9-62.2 49-67.2 62.2 16.9 67.2 49c5.1 32.1-16.9 62.2-49 67.2z" class="st2"/>
  <path d="M118.6 56.3c-2-12.9-8.6-24.7-18.6-33.1-9.8-8.4-22.4-13-35.2-13-2.8 0-5.7.2-8.5.7-14.4 2.3-27 10-35.6 21.7-8.6 11.8-12.1 26.2-9.8 40.5 2 12.9 8.6 24.7 18.6 33.1 9.8 8.4 22.4 13 35.2 13 2.8 0 5.7-.2 8.5-.7 29.7-4.6 50-32.5 45.4-62.2zm-11.9-11.9l1.5-3.1 1.5 3.1 3.5.5-2.5 2.4.6 3.4-3.1-1.6-3.1 1.6.6-3.4-2.5-2.4 3.5-.5zM96.1 28.6l1.5-3.1 1.5 3.1 3.5.5-2.5 2.4.6 3.4-3.1-1.6-3 1.7.6-3.4-2.5-2.4 3.4-.6zm-13.7-9.5L84 16l1.5 3.1 3.5.5-2.5 2.4.6 3.4-3.1-1.5-3.1 1.6.6-3.4-2.5-2.5 3.4-.5zM64 15.4l1.5-3.1 1.5 3.1 3.5.5-2.5 2.5.6 3.4-3.1-1.6-3.1 1.6.6-3.4-2.5-2.4 3.5-.6zm-19 3.7l1.5-3.1 1.5 3.1 3.5.5L49 22l.6 3.4-3.1-1.6-3.1 1.6.6-3.4-2.5-2.4 3.5-.5zm-15.3 9.5l1.5-3.1 1.5 3.1 3.5.5-2.5 2.4.6 3.4-3.1-1.6-3 1.7.6-3.4-2.5-2.4 3.4-.6zm-10 15.8l1.5-3.1 1.5 3.1 3.5.5-2.5 2.4.6 3.4-3.1-1.6-3.1 1.6.6-3.4-2.5-2.4 3.5-.5zm-6.6 19l3.5-.5 1.5-3.1 1.5 3.1 3.5.5-2.5 2.4.6 3.4-3.1-1.6-3.1 1.6.6-3.4-2.5-2.4zm11.8 24.3l-3.1-1.6-3.1 1.6.6-3.4-2.5-2.4 3.5-.5 1.5-3.1 1.5 3.1 3.5.5-2.5 2.4.6 3.4zm9.5 13.2l-3.1-1.6-3.1 1.6.6-3.4-2.5-2.5 3.5-.5 1.5-3.1 1.5 3.1 3.5.5-2.5 2.4.6 3.5zm15.3 11l-3.1-1.6-3.1 1.6.6-3.4-2.5-2.4 3.5-.5 1.5-3.1 1.5 3.1 3.5.5-2.5 2.4.6 3.4zm18.9 4.8l-3.1-1.6-3.1 1.6.6-3.4-2.5-2.4 3.5-.5 1.5-3.1 1.5 3.1 3.5.5-2.5 2.4.6 3.4zm2.2-13c-2 .3-4.1.5-6.2.5-19.5 0-35.9-14-38.9-33.4-1.6-10.4.9-20.8 7.1-29.4 6.2-8.5 15.4-14.1 25.8-15.7 2-.3 4.1-.5 6.2-.5 19.5 0 35.9 14 38.9 33.4 3.4 21.5-11.4 41.7-32.9 45.1zm15.7 8.2l-3.1-1.6-3.1 1.6.6-3.4-2.5-2.4 3.5-.5 1.5-3.1 1.5 3.1 3.5.5-2.5 2.4.6 3.4zm14.3-11l-3.1-1.6-3.1 1.6.6-3.4-2.5-2.5 3.5-.5 1.5-3.1 1.5 3.1 3.5.5-2.5 2.4.6 3.5zm10-13.2l-3.1-1.6-3.1 1.6.6-3.4-2.5-2.4 3.5-.5 1.5-3.1 1.5 3.1 3.5.5-2.5 2.4.6 3.4zm3.7-18.5l-3.1-1.6-3.1 1.6.6-3.4-2.5-2.4 3.5-.5 1.5-3.1 1.5 3.1 3.5.5-2.5 2.4.6 3.4z" class="st2"/>
  <ellipse cx="64.7" cy="64.7" fill="none" stroke="#fff" stroke-miterlimit="10" stroke-width="2" rx="56.5" ry="56.5" transform="rotate(-8.906 64.728 64.71)"/>
  <defs>
    <filter id="a" width="77.4" height="77.4" x="26" y="26" filterUnits="userSpaceOnUse">
      <feFlood flood-color="#fff" result="back"/>
      <feBlend in="SourceGraphic" in2="back"/>
    </filter>
  </defs>
  <mask id="b" width="77.4" height="77.4" x="26" y="26" maskUnits="userSpaceOnUse">
    <path d="M2.9 53.2h123.7v24.1H2.9z" filter="url(#a)"/>
  </mask>
  <ellipse cx="64.7" cy="64.7" fill="none" stroke="#fff" stroke-dasharray="2.2047 2.2047" stroke-miterlimit="10" stroke-width="3" mask="url(#b)" rx="37.2" ry="37.2" transform="rotate(-8.906 64.728 64.725)"/>
  <path d="M65.5 50.7l4.8 2.5-.9-5.3 3.8-3.7-5.3-.8-2.4-4.8-2.4 4.8-5.3.8 3.9 3.7-.9 5.3zM47.1 88.3c-1.2.6-2.4.9-3.6.9-.6 0-.9-.2-.9-.6 0-.6.8-1.2 2.8-1.2h2.1c2.8-2.1 4.9-6.2 4.9-9.4 0-1.4-.6-2.4-1.7-2.4-3.1 0-6.2 4.4-6.2 8.3 0 1 .5 1.6 1 1.6.3 0 1-.1 1.7-1.1l.2.2c-.8 1.3-1.9 1.5-2.4 1.5-1.2 0-1.8-1.1-1.8-2.2 0-4.4 3.9-8.7 7.5-8.7 1.1 0 2.8.6 2.8 3.4 0 3.4-2.2 6.8-5 8.7H51l-.3.8h-3.6zm-.9 0h-1.7c-.8 0-1.4.2-1.4.4 0 .1.2.2.6.2.8.1 1.6-.2 2.5-.6zm8.3-1.9c-.1.3-.2.6-.2.8 0 .3.2.3.3.3.5 0 1.7-2.5 2.6-4 .8-1.3 1-1.7 1.7-1.7.2 0 .4.1.4.3 0 .1 0 .3-.1.5-.1.3-1.5 3.7-1.7 4.2-.1.1-.1.2-.1.3s.1.2.2.2c.2 0 .4-.2.7-.5l1.6-2 .2.2-2 2.5c-.6.7-1 .9-1.4.9s-.6-.2-.6-.6.1-.7.4-1.3 1-2.5 1-2.5c0-.1 0-.1-.1-.1s-.1 0-.2.1c-1.5 2.3-2.1 4.3-3.5 4.3-.4 0-.7-.3-.7-.8 0-.4.2-.9.3-1.1l1.3-3.2v-.1c0-.1-.1-.1-.1-.1-.1 0-.1 0-.2.1l-1.8 2.2-.2-.2 2-2.5c.3-.4.6-.7 1-.7s.5.2.5.5c0 .2-.1.5-.2.8l-1.1 3.2z" class="st2"/>
  <path d="M63.7 87.1c0 .1.1.2.2.2.2 0 .4-.2.7-.5l1.6-2 .2.2-2 2.5c-.6.7-1 .9-1.4.9s-.6-.2-.6-.6.1-.7.4-1.3 1-2.5 1-2.5c0-.1 0-.1-.1-.1 0 0-.1 0-.2.1-.2.3-1.9 2.8-2.6 3.4-.6.6-1 .9-1.4.9-.3 0-.7-.2-.7-1 0-1.8 2.7-5.2 5.3-5.5v.2c-2.2.6-3.9 3.7-3.9 4.9 0 .2.1.4.2.4.4 0 2-2.1 3.1-3.5s1.3-1.8 1.8-1.8c.2 0 .3.1.3.3s-.1.4-.1.5c-.1.3-1.5 3.7-1.7 4.1l-.1.2z" class="st2"/>
  <path d="M67.5 86.8c0 .1-.1.2-.1.3s.1.2.2.2c.2 0 .4-.2.7-.5l1.7-2 .2.2-2 2.5c-.6.7-.9.9-1.4.9-.4 0-.6-.2-.6-.6 0-.3.1-.7.4-1.3l1.7-4.1c-.4.6-1 1.5-2.2 2.9l-.2-.2c2.5-3.1 2.8-4 3.5-5.4l1-2.4h1.1l-4 9.5z" class="st2"/>
  <path d="M72 83.1c0-.1-.1-.1-.1-.1-.1 0-.1 0-.2.1l-1.8 2.2-.2-.2 2-2.5c.3-.4.6-.7 1-.7s.5.2.5.5c0 .2-.1.5-.2.8l-1.5 3.7c0 .1-.1.2-.1.3s.1.2.2.2c.2 0 .4-.2.7-.5l1.6-2 .2.2-2 2.5c-.6.7-1 .9-1.4.9s-.6-.2-.6-.6c0-.3.1-.7.4-1.3l1.5-3.5zm2.7-4.1c0 .4-.3.8-.7.8s-.6-.3-.6-.7c0-.5.4-.8.7-.8.4 0 .6.3.6.7z" class="st2"/>
  <path d="M78.2 79.9h2.6l-.2.4H78l-2.8 6.6c0 .1-.1.3-.1.4s.1.3.3.3c.3 0 .6-.3.9-.7l1.6-2 .2.2-1.9 2.3c-.6.7-1.1 1-1.6 1-.4 0-.8-.2-.8-.6 0-.3.1-.6.4-1.2l1.7-4.1c-.4.6-1 1.5-2.2 2.9l-.2-.2c2.2-2.7 2.7-3.8 3.3-4.9h-2.2l.2-.4H77l.7-1.7h1.1l-.6 1.7z" class="st2"/>
  <path d="M85.2 85.1c-1.2 1.5-2.2 2.4-3.3 3.4l-1.8 4.2-1.4.3s3.8-8.5 4-9c0-.1.1-.2 0-.2s-.1 0-.2.1c-1.5 2.3-2.1 4.3-3.5 4.3-.4 0-.7-.3-.7-.8 0-.4.2-.9.3-1.1l1.3-3.2V83c0-.1-.1-.1-.1-.1-.1 0-.1 0-.2.1l-1.8 2.2-.2-.2 2-2.5c.3-.4.6-.7 1-.7s.5.2.5.5c0 .2-.1.5-.2.8l-1.3 3.2c-.1.3-.2.6-.2.8 0 .3.2.3.3.3.5 0 1.7-2.5 2.6-4 .8-1.3 1-1.7 1.7-1.7.2 0 .4.1.4.3 0 .1 0 .3-.1.5l-2.2 5.2c.8-.7 1.8-1.6 2.8-2.9l.3.3zm-50-26.6l-1.5 6.9c2.1-.2 3.6-2.9 3.6-5.1 0-1.5-.7-2.8-2.5-2.8-3.3 0-5.3 1.9-5.3 5 0 1 .3 1.2.3 1.4-1.4 0-2.2-.5-2.2-2 0-2.7 3.8-5.3 7.2-5.3s4.9 1.9 4.9 4c0 2.6-2.2 5.5-5.9 5.5h-.1L32.4 72h-3l2.8-13.1 3-.4zm8.5 3.2l-.2 1c.7-.6 1.6-1 2.4-1 .9 0 1.5.5 1.5 1.3 0 .7-.5 1.6-1.5 1.6-1.2 0-.6-1.4-1.2-1.4s-.9.2-1.4.7L41.6 72h-3l2.2-10.3h2.9zm7.7 8.8c1 0 2.7-1.2 3.5-2.7h.9C54.6 69.9 52.7 72 50 72c-2 0-3-1.5-3-3.3 0-2.6 1.1-7.2 4.9-7.2 1.7 0 2.6.7 2.6 2.1 0 2.5-2.7 3.9-4.6 4.2 0 .3-.1.6-.1.9-.1 1.4.8 1.8 1.6 1.8zm1-7.9c-1.2 0-2.1 2.3-2.5 4.3 1.9 0 3.2-1.6 3.2-3.1.1-.5 0-1.2-.7-1.2z" class="st2"/>
  <path d="M68 68.7c-.1.2-.1.5-.1.8 0 .5.2.8.8.8.8 0 1.7-1.2 2.2-2.1h1c-.9 1.1-2.8 3.8-4.4 3.8s-2.5-.7-2.5-2.2c0-.3 0-.7.1-1l.8-3.7c0-.2.1-.4.1-.5 0-.7-.4-1.2-.9-1.2s-.8.1-1.2.4c.1.2.1.5.1.7v.4l-1.5 7.2h-3l1.5-7c0-.2.1-.4.1-.5 0-.7-.4-1.2-.9-1.2s-.8.1-1.3.4l-1.8 8.3h-3l2.2-10.3h3l-.2 1.1c.8-.6 1.8-1.1 2.7-1.1.8 0 1.6.6 2 1.4.9-.7 2-1.4 3-1.4 1.1 0 2.4 1.2 2.4 2.6v.5L68 68.7z" class="st2"/>
  <path d="M74.4 61.7l-1.5 7c0 .2-.1.5-.1.6 0 .5.2.8 1 .8s1.9-1.2 2.7-1.8h.7c-.9.9-3.3 3.7-4.9 3.7s-2.6-.7-2.6-2.2c0-.3 0-.7.1-1l1.5-7h3.1zm-.9-4.4c.9 0 1.6.7 1.6 1.6s-.7 1.6-1.6 1.6-1.6-.7-1.6-1.6.7-1.6 1.6-1.6z" class="st2"/>
  <path d="M85.4 61.7l-1.5 7c0 .2-.1.5-.1.6 0 .5.2.8 1 .8s1.9-1.2 2.7-1.8h.7c-.9.9-3.3 3.7-4.9 3.7-1.4 0-2.3-.5-2.5-1.7-1 .9-2.1 1.7-3 1.7-1.6 0-2.6-.7-2.6-2.2 0-.3 0-.7.1-1l1.5-7h3l-1.5 7c0 .2-.1.5-.1.6 0 .5.2.8 1 .8.4 0 .9-.3 1.5-.7 0-.2.1-.4.1-.7l1.5-7h3.1z" class="st2"/>
  <path d="M99.6 68.7c-.1.2-.1.5-.1.8 0 .5.2.8.8.8.8 0 1.7-1.2 2.2-2.1h1c-.9 1.1-2.8 3.8-4.4 3.8s-2.5-.7-2.5-2.2c0-.3 0-.7.1-1l.8-3.7c0-.2.1-.4.1-.5 0-.7-.4-1.2-.9-1.2s-.8.1-1.2.4c.1.2.1.5.1.7v.4l-1.5 7.2h-3l1.5-7c0-.2.1-.4.1-.5 0-.7-.4-1.2-.9-1.2s-.8.1-1.3.4l-1.8 8.3h-3l2.2-10.3h3l-.2 1.1c.8-.6 1.8-1.1 2.7-1.1.8 0 1.6.6 2 1.4.9-.7 2-1.4 3-1.4 1.1 0 2.4 1.2 2.4 2.6v.5l-1.2 3.8z" class="st2"/>
</svg>
